%TF.GenerationSoftware,KiCad,Pcbnew,9.0.0*%
%TF.CreationDate,2025-04-10T21:45:59-06:00*%
%TF.ProjectId,esp32,65737033-322e-46b6-9963-61645f706362,rev?*%
%TF.SameCoordinates,Original*%
%TF.FileFunction,Soldermask,Bot*%
%TF.FilePolarity,Negative*%
%FSLAX46Y46*%
G04 Gerber Fmt 4.6, Leading zero omitted, Abs format (unit mm)*
G04 Created by KiCad (PCBNEW 9.0.0) date 2025-04-10 21:45:59*
%MOMM*%
%LPD*%
G01*
G04 APERTURE LIST*
G04 Aperture macros list*
%AMRoundRect*
0 Rectangle with rounded corners*
0 $1 Rounding radius*
0 $2 $3 $4 $5 $6 $7 $8 $9 X,Y pos of 4 corners*
0 Add a 4 corners polygon primitive as box body*
4,1,4,$2,$3,$4,$5,$6,$7,$8,$9,$2,$3,0*
0 Add four circle primitives for the rounded corners*
1,1,$1+$1,$2,$3*
1,1,$1+$1,$4,$5*
1,1,$1+$1,$6,$7*
1,1,$1+$1,$8,$9*
0 Add four rect primitives between the rounded corners*
20,1,$1+$1,$2,$3,$4,$5,0*
20,1,$1+$1,$4,$5,$6,$7,0*
20,1,$1+$1,$6,$7,$8,$9,0*
20,1,$1+$1,$8,$9,$2,$3,0*%
%AMFreePoly0*
4,1,23,0.550000,-0.750000,0.000000,-0.750000,0.000000,-0.745722,-0.065263,-0.745722,-0.191342,-0.711940,-0.304381,-0.646677,-0.396677,-0.554381,-0.461940,-0.441342,-0.495722,-0.315263,-0.495722,-0.250000,-0.500000,-0.250000,-0.500000,0.250000,-0.495722,0.250000,-0.495722,0.315263,-0.461940,0.441342,-0.396677,0.554381,-0.304381,0.646677,-0.191342,0.711940,-0.065263,0.745722,0.000000,0.745722,
0.000000,0.750000,0.550000,0.750000,0.550000,-0.750000,0.550000,-0.750000,$1*%
%AMFreePoly1*
4,1,23,0.000000,0.745722,0.065263,0.745722,0.191342,0.711940,0.304381,0.646677,0.396677,0.554381,0.461940,0.441342,0.495722,0.315263,0.495722,0.250000,0.500000,0.250000,0.500000,-0.250000,0.495722,-0.250000,0.495722,-0.315263,0.461940,-0.441342,0.396677,-0.554381,0.304381,-0.646677,0.191342,-0.711940,0.065263,-0.745722,0.000000,-0.745722,0.000000,-0.750000,-0.550000,-0.750000,
-0.550000,0.750000,0.000000,0.750000,0.000000,0.745722,0.000000,0.745722,$1*%
G04 Aperture macros list end*
%ADD10R,1.700000X1.700000*%
%ADD11O,1.700000X1.700000*%
%ADD12C,0.650000*%
%ADD13O,1.000000X2.100000*%
%ADD14O,1.000000X1.600000*%
%ADD15RoundRect,0.250001X1.149999X1.149999X-1.149999X1.149999X-1.149999X-1.149999X1.149999X-1.149999X0*%
%ADD16C,2.800000*%
%ADD17FreePoly0,90.000000*%
%ADD18R,1.500000X1.000000*%
%ADD19FreePoly1,90.000000*%
%ADD20R,1.000000X1.000000*%
%ADD21FreePoly0,270.000000*%
%ADD22FreePoly1,270.000000*%
G04 APERTURE END LIST*
%TO.C,JP2*%
G36*
X66250000Y-109000000D02*
G01*
X64750000Y-109000000D01*
X64750000Y-107500000D01*
X66250000Y-107500000D01*
X66250000Y-109000000D01*
G37*
%TO.C,JP3*%
G36*
X68817500Y-109060000D02*
G01*
X67317500Y-109060000D01*
X67317500Y-107560000D01*
X68817500Y-107560000D01*
X68817500Y-109060000D01*
G37*
%TO.C,JP4*%
G36*
X62265000Y-107495000D02*
G01*
X63765000Y-107495000D01*
X63765000Y-108995000D01*
X62265000Y-108995000D01*
X62265000Y-107495000D01*
G37*
%TD*%
D10*
%TO.C,J2*%
X95470000Y-87420000D03*
D11*
X95470000Y-89960000D03*
X95470000Y-92500000D03*
X95470000Y-95040000D03*
X95470000Y-97580000D03*
X95470000Y-100120000D03*
X95470000Y-102660000D03*
X95470000Y-105200000D03*
X95470000Y-107740000D03*
X95470000Y-110280000D03*
%TD*%
D12*
%TO.C,J4*%
X73700000Y-118880000D03*
X79480000Y-118880000D03*
D13*
X72270000Y-118380000D03*
D14*
X72270000Y-122560000D03*
D13*
X80910000Y-118380000D03*
D14*
X80910000Y-122560000D03*
%TD*%
D10*
%TO.C,J1*%
X58765000Y-86030000D03*
D11*
X58765000Y-88570000D03*
X58765000Y-91110000D03*
X58765000Y-93650000D03*
X58765000Y-96190000D03*
X58765000Y-98730000D03*
X58765000Y-101270000D03*
X58765000Y-103810000D03*
X58765000Y-106350000D03*
%TD*%
D15*
%TO.C,J5*%
X65695000Y-120905000D03*
D16*
X60695000Y-120905000D03*
%TD*%
D10*
%TO.C,J3*%
X86075000Y-93995000D03*
D11*
X86075000Y-96535000D03*
X86075000Y-99075000D03*
X86075000Y-101615000D03*
%TD*%
D17*
%TO.C,JP2*%
X65500000Y-109550000D03*
D18*
X65500000Y-108250000D03*
D19*
X65500000Y-106950000D03*
%TD*%
D17*
%TO.C,JP3*%
X68067500Y-109610000D03*
D18*
X68067500Y-108310000D03*
D19*
X68067500Y-107010000D03*
%TD*%
D20*
%TO.C,TP1*%
X95055000Y-113080000D03*
%TD*%
%TO.C,TP3*%
X95055000Y-122230000D03*
%TD*%
%TO.C,TP4*%
X95055000Y-119180000D03*
%TD*%
%TO.C,TP2*%
X93410000Y-107230000D03*
%TD*%
%TO.C,TP5*%
X95055000Y-116130000D03*
%TD*%
D21*
%TO.C,JP4*%
X63015000Y-106945000D03*
D18*
X63015000Y-108245000D03*
D22*
X63015000Y-109545000D03*
%TD*%
M02*
