%TF.GenerationSoftware,KiCad,Pcbnew,9.0.0*%
%TF.CreationDate,2025-04-10T21:45:59-06:00*%
%TF.ProjectId,esp32,65737033-322e-46b6-9963-61645f706362,rev?*%
%TF.SameCoordinates,Original*%
%TF.FileFunction,Copper,L2,Inr*%
%TF.FilePolarity,Positive*%
%FSLAX46Y46*%
G04 Gerber Fmt 4.6, Leading zero omitted, Abs format (unit mm)*
G04 Created by KiCad (PCBNEW 9.0.0) date 2025-04-10 21:45:59*
%MOMM*%
%LPD*%
G01*
G04 APERTURE LIST*
G04 Aperture macros list*
%AMRoundRect*
0 Rectangle with rounded corners*
0 $1 Rounding radius*
0 $2 $3 $4 $5 $6 $7 $8 $9 X,Y pos of 4 corners*
0 Add a 4 corners polygon primitive as box body*
4,1,4,$2,$3,$4,$5,$6,$7,$8,$9,$2,$3,0*
0 Add four circle primitives for the rounded corners*
1,1,$1+$1,$2,$3*
1,1,$1+$1,$4,$5*
1,1,$1+$1,$6,$7*
1,1,$1+$1,$8,$9*
0 Add four rect primitives between the rounded corners*
20,1,$1+$1,$2,$3,$4,$5,0*
20,1,$1+$1,$4,$5,$6,$7,0*
20,1,$1+$1,$6,$7,$8,$9,0*
20,1,$1+$1,$8,$9,$2,$3,0*%
G04 Aperture macros list end*
%TA.AperFunction,ComponentPad*%
%ADD10R,1.700000X1.700000*%
%TD*%
%TA.AperFunction,ComponentPad*%
%ADD11O,1.700000X1.700000*%
%TD*%
%TA.AperFunction,HeatsinkPad*%
%ADD12O,1.000000X2.100000*%
%TD*%
%TA.AperFunction,HeatsinkPad*%
%ADD13O,1.000000X1.600000*%
%TD*%
%TA.AperFunction,ComponentPad*%
%ADD14RoundRect,0.250001X1.149999X1.149999X-1.149999X1.149999X-1.149999X-1.149999X1.149999X-1.149999X0*%
%TD*%
%TA.AperFunction,ComponentPad*%
%ADD15C,2.800000*%
%TD*%
%TA.AperFunction,HeatsinkPad*%
%ADD16C,0.600000*%
%TD*%
%TA.AperFunction,ViaPad*%
%ADD17C,0.600000*%
%TD*%
%TA.AperFunction,ViaPad*%
%ADD18C,2.000000*%
%TD*%
%TA.AperFunction,Conductor*%
%ADD19C,0.300000*%
%TD*%
%TA.AperFunction,Conductor*%
%ADD20C,0.400000*%
%TD*%
%TA.AperFunction,Conductor*%
%ADD21C,0.600000*%
%TD*%
%TA.AperFunction,Conductor*%
%ADD22C,0.200000*%
%TD*%
G04 APERTURE END LIST*
D10*
%TO.N,Red_LED*%
%TO.C,J2*%
X95470000Y-87420000D03*
D11*
%TO.N,Green_LED*%
X95470000Y-89960000D03*
%TO.N,Blue_LED*%
X95470000Y-92500000D03*
%TO.N,CoolWhite_LED*%
X95470000Y-95040000D03*
%TO.N,WarmWhite_LED*%
X95470000Y-97580000D03*
%TO.N,VOUT*%
X95470000Y-100120000D03*
%TO.N,GND*%
X95470000Y-102660000D03*
%TO.N,IO19*%
X95470000Y-105200000D03*
%TO.N,IO34*%
X95470000Y-107740000D03*
%TO.N,IO15*%
X95470000Y-110280000D03*
%TD*%
D12*
%TO.N,GND*%
%TO.C,J4*%
X72270000Y-118380000D03*
D13*
X72270000Y-122560000D03*
D12*
X80910000Y-118380000D03*
D13*
X80910000Y-122560000D03*
%TD*%
D10*
%TO.N,GND*%
%TO.C,J1*%
X58765000Y-86030000D03*
D11*
%TO.N,Net-(J18-Pin_2)*%
X58765000Y-88570000D03*
%TO.N,Net-(J18-Pin_3)*%
X58765000Y-91110000D03*
%TO.N,+3V3*%
X58765000Y-93650000D03*
%TO.N,SCK*%
X58765000Y-96190000D03*
%TO.N,SD0*%
X58765000Y-98730000D03*
%TO.N,IO4*%
X58765000Y-101270000D03*
%TO.N,GND*%
X58765000Y-103810000D03*
%TO.N,VOUT*%
X58765000Y-106350000D03*
%TD*%
D14*
%TO.N,Net-(J2-Pin_1)*%
%TO.C,J5*%
X65695000Y-120905000D03*
D15*
%TO.N,GND*%
X60695000Y-120905000D03*
%TD*%
D16*
%TO.N,GND*%
%TO.C,U1*%
X74160000Y-73797500D03*
X74160000Y-75322500D03*
X74922500Y-73035000D03*
X74922500Y-74560000D03*
X74922500Y-76085000D03*
X75685000Y-73797500D03*
X75685000Y-75322500D03*
X76447500Y-73035000D03*
X76447500Y-74560000D03*
X76447500Y-76085000D03*
X77210000Y-73797500D03*
X77210000Y-75322500D03*
%TD*%
D10*
%TO.N,+3V3*%
%TO.C,J3*%
X86075000Y-93995000D03*
D11*
%TO.N,TXD*%
X86075000Y-96535000D03*
%TO.N,RXD*%
X86075000Y-99075000D03*
%TO.N,GND*%
X86075000Y-101615000D03*
%TD*%
D17*
%TO.N,VBUS*%
X78604000Y-119131000D03*
%TO.N,GND*%
X91890000Y-73705000D03*
%TO.N,IO33*%
X62600000Y-78720000D03*
%TO.N,BOOT*%
X72395000Y-87365000D03*
%TO.N,RXD*%
X90225000Y-71460000D03*
%TO.N,+5V*%
X84997893Y-115127893D03*
%TO.N,TXD*%
X90215000Y-69515000D03*
X74604997Y-108205209D03*
%TO.N,GND*%
X68930000Y-67180000D03*
X69575000Y-85520000D03*
X62855000Y-115770000D03*
X76030735Y-114519265D03*
X85655000Y-118025000D03*
X84420000Y-110995000D03*
X89155000Y-83255000D03*
X91197500Y-113310000D03*
X72835000Y-117563899D03*
X60975000Y-115780000D03*
X61883186Y-110508186D03*
X87375000Y-79530000D03*
X62520000Y-72755000D03*
X65810000Y-101985000D03*
X66210000Y-88735000D03*
X67720000Y-90695000D03*
X82835000Y-67265000D03*
X90100000Y-67810000D03*
X89545000Y-89165000D03*
X72515000Y-91160000D03*
X83140000Y-86360000D03*
X84070000Y-113225000D03*
X80045000Y-116720000D03*
X87405000Y-87700000D03*
X66935000Y-97535000D03*
X77500000Y-86425000D03*
X72465000Y-108715000D03*
X63755000Y-67365000D03*
%TO.N,+3V3*%
X60490000Y-75705000D03*
X92450000Y-118975000D03*
X86485000Y-119790000D03*
X84524000Y-105043844D03*
D18*
%TO.N,VOUT*%
X60285000Y-117185000D03*
D17*
%TO.N,+5V*%
X64060000Y-115835000D03*
X67485829Y-92184171D03*
X73065001Y-102845001D03*
X88481814Y-109588186D03*
%TO.N,Net-(D1-A)*%
X79665000Y-100610000D03*
X80630000Y-107315000D03*
%TO.N,Net-(D1-K)*%
X75395000Y-99650000D03*
X70880000Y-94525000D03*
%TO.N,DTR*%
X76540000Y-95095000D03*
X75795355Y-103779595D03*
%TO.N,RTS*%
X76575000Y-97005000D03*
X74510000Y-103545000D03*
%TO.N,VBUS*%
X81185000Y-113965000D03*
X77428527Y-114220000D03*
X73610000Y-114295000D03*
%TO.N,USB_D-*%
X75408972Y-116165000D03*
X77054294Y-115158725D03*
%TO.N,USB_D+*%
X76270000Y-115316471D03*
X77747553Y-116122553D03*
%TO.N,CC2*%
X78252577Y-111748984D03*
X72201971Y-99266971D03*
%TO.N,CC1*%
X73215000Y-112680000D03*
X71230000Y-98545000D03*
%TO.N,Net-(JP2-A)*%
X62465000Y-76385000D03*
X65038207Y-110433207D03*
%TO.N,RESET*%
X77435000Y-92385000D03*
X65491974Y-68539252D03*
X79940000Y-93195000D03*
%TO.N,BOOT*%
X70610000Y-87365000D03*
X79825000Y-83355000D03*
X73047500Y-96055000D03*
X87067500Y-84450000D03*
%TO.N,IO2*%
X65725000Y-86400000D03*
X82085000Y-84980000D03*
%TO.N,IO4*%
X85115000Y-82460000D03*
%TO.N,CFG1*%
X68485002Y-96335000D03*
X61299000Y-108385000D03*
%TO.N,IO33*%
X62750000Y-106035000D03*
%TO.N,CFG2*%
X65385000Y-96199125D03*
X66817498Y-108150000D03*
%TO.N,CFG3*%
X65385000Y-97199125D03*
X68067500Y-108310000D03*
%TO.N,IO26*%
X65196000Y-81565000D03*
X67760000Y-110550000D03*
%TO.N,IO23*%
X93090000Y-67297500D03*
%TO.N,IO21*%
X90331290Y-75196290D03*
%TO.N,IO18*%
X88301000Y-77660000D03*
%TO.N,IO17*%
X87395000Y-83225000D03*
%TO.N,IO16*%
X85115000Y-81190000D03*
X87501000Y-85669880D03*
%TO.N,RXD*%
X73363630Y-108114999D03*
%TO.N,+3V3*%
X92450000Y-118975000D03*
%TD*%
D19*
%TO.N,IO33*%
X62750000Y-79250000D02*
X62600000Y-79100000D01*
X62750000Y-106035000D02*
X62750000Y-79250000D01*
X62600000Y-79100000D02*
X62600000Y-78720000D01*
D20*
%TO.N,CFG2*%
X66817498Y-108150000D02*
X65400000Y-108150000D01*
X63596500Y-106346500D02*
X63596500Y-97236000D01*
X65400000Y-108150000D02*
X63596500Y-106346500D01*
X63596500Y-97236000D02*
X64633375Y-96199125D01*
X64633375Y-96199125D02*
X65385000Y-96199125D01*
%TO.N,CFG1*%
X69572500Y-97422498D02*
X68485002Y-96335000D01*
X61398000Y-108385000D02*
X61182186Y-108600814D01*
X61182186Y-108600814D02*
X61182186Y-110798550D01*
X61182186Y-110798550D02*
X61592822Y-111209186D01*
X67451778Y-109011000D02*
X68357864Y-109011000D01*
X65253592Y-111209186D02*
X67451778Y-109011000D01*
X68357864Y-109011000D02*
X69572500Y-107796364D01*
X61592822Y-111209186D02*
X65253592Y-111209186D01*
X61299000Y-108385000D02*
X61398000Y-108385000D01*
X69572500Y-107796364D02*
X69572500Y-97422498D01*
D19*
%TO.N,Net-(JP2-A)*%
X65038207Y-110433207D02*
X64951000Y-110346000D01*
X64951000Y-110346000D02*
X62683214Y-110346000D01*
X61949000Y-109611786D02*
X61949000Y-78133500D01*
X62683214Y-110346000D02*
X61949000Y-109611786D01*
X61949000Y-78133500D02*
X62465000Y-77617500D01*
X62465000Y-77617500D02*
X62465000Y-76385000D01*
D21*
%TO.N,IO26*%
X67760000Y-110550000D02*
X68455000Y-109855000D01*
X70373500Y-96203214D02*
X63560000Y-89389714D01*
X68455000Y-109855000D02*
X68505228Y-109855000D01*
X68505228Y-109855000D02*
X70373500Y-107986728D01*
X70373500Y-107986728D02*
X70373500Y-96203214D01*
X63560000Y-89389714D02*
X63560000Y-83201000D01*
X63560000Y-83201000D02*
X65196000Y-81565000D01*
%TO.N,+5V*%
X64060000Y-115835000D02*
X64798014Y-115096986D01*
X64798014Y-115096986D02*
X64798014Y-114695000D01*
X64798014Y-114695000D02*
X73065001Y-106428013D01*
X73065001Y-106428013D02*
X73065001Y-102845001D01*
D22*
%TO.N,USB_D+*%
X76270000Y-115316471D02*
X76461471Y-115316471D01*
X78782447Y-116122553D02*
X77747553Y-116122553D01*
X76461471Y-115316471D02*
X76461471Y-115951471D01*
X76461471Y-115951471D02*
X77707500Y-117197500D01*
X77707500Y-117197500D02*
X78782447Y-116122553D01*
D20*
%TO.N,IO16*%
X87501000Y-85669880D02*
X86569880Y-85669880D01*
X86569880Y-85669880D02*
X85980000Y-85080000D01*
X85980000Y-82055000D02*
X85115000Y-81190000D01*
X85980000Y-85080000D02*
X85980000Y-82055000D01*
D19*
%TO.N,TXD*%
X90215000Y-69515000D02*
X90215000Y-69640000D01*
X84464000Y-75391000D02*
X84464000Y-94924000D01*
X90215000Y-69640000D02*
X84464000Y-75391000D01*
X84464000Y-94924000D02*
X86075000Y-96535000D01*
D21*
%TO.N,RXD*%
X90225000Y-71460000D02*
X90225000Y-71505000D01*
X85916000Y-75814000D02*
X85916000Y-80151000D01*
X85916000Y-80151000D02*
X87215000Y-81450000D01*
X90225000Y-71505000D02*
X85916000Y-75814000D01*
X88301000Y-96849000D02*
X86075000Y-99075000D01*
X87215000Y-81450000D02*
X87741000Y-81450000D01*
X87741000Y-81450000D02*
X88301000Y-82010000D01*
X88301000Y-82010000D02*
X88301000Y-96849000D01*
D20*
%TO.N,CFG3*%
X65385000Y-97199125D02*
X65385000Y-98622500D01*
X65385000Y-98622500D02*
X68971500Y-102209000D01*
X68971500Y-102209000D02*
X68971500Y-107406000D01*
X68971500Y-107406000D02*
X68067500Y-108310000D01*
%TO.N,BOOT*%
X70610000Y-87365000D02*
X72395000Y-87365000D01*
X79825000Y-83355000D02*
X79184000Y-83355000D01*
X79184000Y-83355000D02*
X73190000Y-89349000D01*
X73216000Y-95886500D02*
X73047500Y-96055000D01*
X73216000Y-90869636D02*
X73216000Y-95886500D01*
X73190000Y-90843636D02*
X73216000Y-90869636D01*
X73190000Y-89349000D02*
X73190000Y-90843636D01*
X72395000Y-87365000D02*
X75568636Y-87365000D01*
X79578636Y-83355000D02*
X79825000Y-83355000D01*
X75568636Y-87365000D02*
X79578636Y-83355000D01*
%TO.N,RESET*%
X77435000Y-92385000D02*
X79130000Y-92385000D01*
X79130000Y-92385000D02*
X79940000Y-93195000D01*
D19*
%TO.N,RXD*%
X73363630Y-108114999D02*
X74104840Y-108856209D01*
X74104840Y-108856209D02*
X76293791Y-108856209D01*
X76293791Y-108856209D02*
X86075000Y-99075000D01*
%TO.N,TXD*%
X74604997Y-108205209D02*
X74604997Y-108005003D01*
X74604997Y-108005003D02*
X86075000Y-96535000D01*
%TD*%
%TA.AperFunction,Conductor*%
%TO.N,GND*%
G36*
X79868863Y-118040510D02*
G01*
X79905582Y-118099953D01*
X79909570Y-118129570D01*
X79910000Y-118130000D01*
X80610000Y-118130000D01*
X80610000Y-118630000D01*
X80071784Y-118630000D01*
X80004745Y-118610315D01*
X79978079Y-118587211D01*
X79970319Y-118578257D01*
X79940515Y-118526635D01*
X79833365Y-118419485D01*
X79702135Y-118343719D01*
X79679345Y-118337612D01*
X79665785Y-118330004D01*
X79651795Y-118315688D01*
X79634706Y-118305272D01*
X79627876Y-118291211D01*
X79616952Y-118280033D01*
X79612922Y-118260427D01*
X79604178Y-118242425D01*
X79606033Y-118226905D01*
X79602887Y-118211594D01*
X79610096Y-118192923D01*
X79612473Y-118173049D01*
X79623355Y-118152978D01*
X79682898Y-118063867D01*
X79736511Y-118019062D01*
X79805836Y-118010355D01*
X79868863Y-118040510D01*
G37*
%TD.AperFunction*%
%TA.AperFunction,Conductor*%
G36*
X64502203Y-98730806D02*
G01*
X64508681Y-98736838D01*
X68234681Y-102462838D01*
X68268166Y-102524161D01*
X68271000Y-102550519D01*
X68271000Y-107064480D01*
X68251315Y-107131519D01*
X68234681Y-107152161D01*
X67872912Y-107513929D01*
X67832684Y-107540809D01*
X67688323Y-107600604D01*
X67688314Y-107600609D01*
X67557211Y-107688210D01*
X67557207Y-107688213D01*
X67445713Y-107799707D01*
X67445710Y-107799711D01*
X67358109Y-107930814D01*
X67358102Y-107930827D01*
X67297764Y-108076498D01*
X67297761Y-108076510D01*
X67271071Y-108210691D01*
X67238686Y-108272602D01*
X67177971Y-108307176D01*
X67149454Y-108310500D01*
X66424500Y-108310500D01*
X66357461Y-108290815D01*
X66311706Y-108238011D01*
X66300500Y-108186500D01*
X66300500Y-108171155D01*
X66300499Y-108171153D01*
X66283310Y-108084738D01*
X66269737Y-108016503D01*
X66236719Y-107936789D01*
X66209397Y-107870827D01*
X66209390Y-107870814D01*
X66121789Y-107739711D01*
X66121786Y-107739707D01*
X66010292Y-107628213D01*
X66010288Y-107628210D01*
X65879185Y-107540609D01*
X65879172Y-107540602D01*
X65734814Y-107480808D01*
X65694585Y-107453928D01*
X64333319Y-106092662D01*
X64299834Y-106031339D01*
X64297000Y-106004981D01*
X64297000Y-98824519D01*
X64316685Y-98757480D01*
X64369489Y-98711725D01*
X64438647Y-98701781D01*
X64502203Y-98730806D01*
G37*
%TD.AperFunction*%
%TA.AperFunction,Conductor*%
G36*
X63755703Y-90717941D02*
G01*
X63762181Y-90723973D01*
X68923696Y-95885488D01*
X68957181Y-95946811D01*
X68952197Y-96016503D01*
X68939118Y-96042059D01*
X68863108Y-96155816D01*
X68863102Y-96155827D01*
X68802764Y-96301498D01*
X68802761Y-96301510D01*
X68772000Y-96456153D01*
X68772000Y-96613846D01*
X68802761Y-96768489D01*
X68802764Y-96768501D01*
X68862561Y-96912864D01*
X68872000Y-96960316D01*
X68872000Y-100819481D01*
X68852315Y-100886520D01*
X68799511Y-100932275D01*
X68730353Y-100942219D01*
X68666797Y-100913194D01*
X68660319Y-100907162D01*
X65093571Y-97340414D01*
X65091351Y-97337299D01*
X65089556Y-97336207D01*
X65081269Y-97323151D01*
X65069753Y-97306992D01*
X65067344Y-97302042D01*
X65067237Y-97301503D01*
X65006894Y-97155821D01*
X64967492Y-97096853D01*
X64963797Y-97089259D01*
X64959330Y-97062809D01*
X64951316Y-97037215D01*
X64953601Y-97028883D01*
X64952163Y-97020365D01*
X64962704Y-96995700D01*
X64969800Y-96969835D01*
X64972176Y-96966136D01*
X65006894Y-96914179D01*
X65067237Y-96768497D01*
X65098000Y-96613842D01*
X65098000Y-96456158D01*
X65098000Y-96456155D01*
X65097999Y-96456153D01*
X65083490Y-96383211D01*
X65067237Y-96301503D01*
X65067235Y-96301498D01*
X65006897Y-96155827D01*
X65006890Y-96155814D01*
X64919289Y-96024711D01*
X64919286Y-96024707D01*
X64807792Y-95913213D01*
X64807788Y-95913210D01*
X64676685Y-95825609D01*
X64676672Y-95825602D01*
X64531001Y-95765264D01*
X64530989Y-95765261D01*
X64376345Y-95734500D01*
X64376342Y-95734500D01*
X64218658Y-95734500D01*
X64218655Y-95734500D01*
X64064010Y-95765261D01*
X64063998Y-95765264D01*
X63918327Y-95825602D01*
X63918314Y-95825609D01*
X63787211Y-95913210D01*
X63787207Y-95913213D01*
X63762181Y-95938240D01*
X63700858Y-95971725D01*
X63631166Y-95966741D01*
X63575233Y-95924869D01*
X63550816Y-95859405D01*
X63550500Y-95850559D01*
X63550500Y-90811654D01*
X63570185Y-90744615D01*
X63622989Y-90698860D01*
X63692147Y-90688916D01*
X63755703Y-90717941D01*
G37*
%TD.AperFunction*%
%TA.AperFunction,Conductor*%
G36*
X85266398Y-85326326D02*
G01*
X85277660Y-85326729D01*
X85297609Y-85340580D01*
X85319703Y-85350670D01*
X85327284Y-85361183D01*
X85335052Y-85366577D01*
X85353061Y-85396931D01*
X85359222Y-85411807D01*
X85435887Y-85526545D01*
X85435888Y-85526546D01*
X86703928Y-86794585D01*
X86730808Y-86834814D01*
X86790602Y-86979172D01*
X86790609Y-86979185D01*
X86878210Y-87110288D01*
X86878213Y-87110292D01*
X86989707Y-87221786D01*
X86989711Y-87221789D01*
X87120814Y-87309390D01*
X87120827Y-87309397D01*
X87266498Y-87369735D01*
X87266503Y-87369737D01*
X87360645Y-87388463D01*
X87400691Y-87396429D01*
X87462602Y-87428814D01*
X87497176Y-87489529D01*
X87500500Y-87518046D01*
X87500500Y-92706046D01*
X87480815Y-92773085D01*
X87428011Y-92818840D01*
X87358853Y-92828784D01*
X87295297Y-92799759D01*
X87288819Y-92793727D01*
X87282544Y-92787452D01*
X87167335Y-92701206D01*
X87167328Y-92701202D01*
X87032482Y-92650908D01*
X87032483Y-92650908D01*
X86972883Y-92644501D01*
X86972881Y-92644500D01*
X86972873Y-92644500D01*
X86972865Y-92644500D01*
X85238500Y-92644500D01*
X85171461Y-92624815D01*
X85125706Y-92572011D01*
X85114500Y-92520500D01*
X85114500Y-85444383D01*
X85117674Y-85433571D01*
X85116470Y-85422366D01*
X85127343Y-85400644D01*
X85134185Y-85377344D01*
X85142699Y-85369965D01*
X85147745Y-85359887D01*
X85168635Y-85347492D01*
X85186989Y-85331589D01*
X85198143Y-85329985D01*
X85207835Y-85324235D01*
X85232105Y-85325101D01*
X85256147Y-85321645D01*
X85266398Y-85326326D01*
G37*
%TD.AperFunction*%
%TA.AperFunction,Conductor*%
G36*
X94203736Y-65825726D02*
G01*
X94493796Y-65843271D01*
X94508659Y-65845076D01*
X94790798Y-65896780D01*
X94805335Y-65900363D01*
X95079172Y-65985695D01*
X95093163Y-65991000D01*
X95354743Y-66108727D01*
X95367989Y-66115680D01*
X95613465Y-66264075D01*
X95625776Y-66272573D01*
X95851573Y-66449473D01*
X95862781Y-66459403D01*
X96065596Y-66662218D01*
X96075526Y-66673426D01*
X96077316Y-66675711D01*
X96195481Y-66826538D01*
X96252422Y-66899217D01*
X96260928Y-66911540D01*
X96409316Y-67157004D01*
X96416275Y-67170263D01*
X96533997Y-67431831D01*
X96539306Y-67445832D01*
X96624635Y-67719663D01*
X96628219Y-67734201D01*
X96679923Y-68016340D01*
X96681728Y-68031205D01*
X96699274Y-68321263D01*
X96699500Y-68328750D01*
X96699500Y-85998771D01*
X96679815Y-86065810D01*
X96627011Y-86111565D01*
X96557853Y-86121509D01*
X96532167Y-86114953D01*
X96427482Y-86075908D01*
X96427483Y-86075908D01*
X96367883Y-86069501D01*
X96367881Y-86069500D01*
X96367873Y-86069500D01*
X96367864Y-86069500D01*
X94572129Y-86069500D01*
X94572123Y-86069501D01*
X94512516Y-86075908D01*
X94377671Y-86126202D01*
X94377664Y-86126206D01*
X94262455Y-86212452D01*
X94262452Y-86212455D01*
X94176206Y-86327664D01*
X94176202Y-86327671D01*
X94125908Y-86462517D01*
X94119501Y-86522116D01*
X94119500Y-86522135D01*
X94119500Y-88317870D01*
X94119501Y-88317876D01*
X94125908Y-88377483D01*
X94176202Y-88512328D01*
X94176206Y-88512335D01*
X94262452Y-88627544D01*
X94262455Y-88627547D01*
X94377664Y-88713793D01*
X94377671Y-88713797D01*
X94509082Y-88762810D01*
X94565016Y-88804681D01*
X94589433Y-88870145D01*
X94574582Y-88938418D01*
X94553431Y-88966673D01*
X94439889Y-89080215D01*
X94314951Y-89252179D01*
X94218444Y-89441585D01*
X94152753Y-89643760D01*
X94131572Y-89777491D01*
X94119500Y-89853713D01*
X94119500Y-90066287D01*
X94123973Y-90094527D01*
X94147404Y-90242468D01*
X94152754Y-90276243D01*
X94207424Y-90444500D01*
X94218444Y-90478414D01*
X94314951Y-90667820D01*
X94439890Y-90839786D01*
X94590213Y-90990109D01*
X94762182Y-91115050D01*
X94770946Y-91119516D01*
X94821742Y-91167491D01*
X94838536Y-91235312D01*
X94815998Y-91301447D01*
X94770946Y-91340484D01*
X94762182Y-91344949D01*
X94590213Y-91469890D01*
X94439890Y-91620213D01*
X94314951Y-91792179D01*
X94218444Y-91981585D01*
X94152753Y-92183760D01*
X94131572Y-92317491D01*
X94119500Y-92393713D01*
X94119500Y-92606287D01*
X94126746Y-92652034D01*
X94149187Y-92793727D01*
X94152754Y-92816243D01*
X94193673Y-92942179D01*
X94218444Y-93018414D01*
X94314951Y-93207820D01*
X94439890Y-93379786D01*
X94590213Y-93530109D01*
X94762182Y-93655050D01*
X94770946Y-93659516D01*
X94821742Y-93707491D01*
X94838536Y-93775312D01*
X94815998Y-93841447D01*
X94770946Y-93880484D01*
X94762182Y-93884949D01*
X94590213Y-94009890D01*
X94439890Y-94160213D01*
X94314951Y-94332179D01*
X94218444Y-94521585D01*
X94152753Y-94723760D01*
X94131572Y-94857491D01*
X94119500Y-94933713D01*
X94119500Y-95146287D01*
X94123973Y-95174527D01*
X94152513Y-95354725D01*
X94152754Y-95356243D01*
X94213991Y-95544711D01*
X94218444Y-95558414D01*
X94314951Y-95747820D01*
X94439890Y-95919786D01*
X94590213Y-96070109D01*
X94762182Y-96195050D01*
X94770946Y-96199516D01*
X94821742Y-96247491D01*
X94838536Y-96315312D01*
X94815998Y-96381447D01*
X94770946Y-96420484D01*
X94762182Y-96424949D01*
X94590213Y-96549890D01*
X94439890Y-96700213D01*
X94314951Y-96872179D01*
X94218444Y-97061585D01*
X94152753Y-97263760D01*
X94131572Y-97397491D01*
X94119500Y-97473713D01*
X94119500Y-97686287D01*
X94123951Y-97714390D01*
X94145463Y-97850213D01*
X94152754Y-97896243D01*
X94197745Y-98034711D01*
X94218444Y-98098414D01*
X94314951Y-98287820D01*
X94439890Y-98459786D01*
X94590213Y-98610109D01*
X94762182Y-98735050D01*
X94770946Y-98739516D01*
X94821742Y-98787491D01*
X94838536Y-98855312D01*
X94815998Y-98921447D01*
X94770946Y-98960484D01*
X94762182Y-98964949D01*
X94590213Y-99089890D01*
X94439890Y-99240213D01*
X94314951Y-99412179D01*
X94218444Y-99601585D01*
X94152753Y-99803760D01*
X94131572Y-99937491D01*
X94119500Y-100013713D01*
X94119500Y-100226287D01*
X94123973Y-100254527D01*
X94150139Y-100419737D01*
X94152754Y-100436243D01*
X94193673Y-100562179D01*
X94218444Y-100638414D01*
X94314951Y-100827820D01*
X94439890Y-100999786D01*
X94590213Y-101150109D01*
X94762179Y-101275048D01*
X94762181Y-101275049D01*
X94762184Y-101275051D01*
X94771493Y-101279794D01*
X94822290Y-101327766D01*
X94839087Y-101395587D01*
X94816552Y-101461722D01*
X94771502Y-101500762D01*
X94762443Y-101505378D01*
X94590540Y-101630272D01*
X94590535Y-101630276D01*
X94440276Y-101780535D01*
X94440272Y-101780540D01*
X94315379Y-101952442D01*
X94218904Y-102141782D01*
X94153242Y-102343870D01*
X94153242Y-102343873D01*
X94142769Y-102410000D01*
X95036988Y-102410000D01*
X95004075Y-102467007D01*
X94970000Y-102594174D01*
X94970000Y-102725826D01*
X95004075Y-102852993D01*
X95036988Y-102910000D01*
X94142769Y-102910000D01*
X94153242Y-102976126D01*
X94153242Y-102976129D01*
X94218904Y-103178217D01*
X94315379Y-103367557D01*
X94440272Y-103539459D01*
X94440276Y-103539464D01*
X94590535Y-103689723D01*
X94590540Y-103689727D01*
X94762444Y-103814622D01*
X94771495Y-103819234D01*
X94822292Y-103867208D01*
X94839087Y-103935029D01*
X94816550Y-104001164D01*
X94771499Y-104040202D01*
X94762182Y-104044949D01*
X94590213Y-104169890D01*
X94439890Y-104320213D01*
X94314951Y-104492179D01*
X94218444Y-104681585D01*
X94152753Y-104883760D01*
X94138020Y-104976782D01*
X94119500Y-105093713D01*
X94119500Y-105306287D01*
X94129534Y-105369644D01*
X94145463Y-105470213D01*
X94152754Y-105516243D01*
X94217138Y-105714397D01*
X94218444Y-105718414D01*
X94314951Y-105907820D01*
X94439890Y-106079786D01*
X94590213Y-106230109D01*
X94762182Y-106355050D01*
X94770946Y-106359516D01*
X94821742Y-106407491D01*
X94838536Y-106475312D01*
X94815998Y-106541447D01*
X94770946Y-106580484D01*
X94762182Y-106584949D01*
X94590213Y-106709890D01*
X94439890Y-106860213D01*
X94314951Y-107032179D01*
X94218444Y-107221585D01*
X94152753Y-107423760D01*
X94119500Y-107633713D01*
X94119500Y-107846286D01*
X94151830Y-108050414D01*
X94152754Y-108056243D01*
X94211814Y-108238011D01*
X94218444Y-108258414D01*
X94314951Y-108447820D01*
X94439890Y-108619786D01*
X94590213Y-108770109D01*
X94762182Y-108895050D01*
X94770946Y-108899516D01*
X94821742Y-108947491D01*
X94838536Y-109015312D01*
X94815998Y-109081447D01*
X94770946Y-109120484D01*
X94762182Y-109124949D01*
X94590213Y-109249890D01*
X94439890Y-109400213D01*
X94314951Y-109572179D01*
X94218444Y-109761585D01*
X94152753Y-109963760D01*
X94132998Y-110088489D01*
X94119500Y-110173713D01*
X94119500Y-110386287D01*
X94119844Y-110388460D01*
X94149134Y-110573391D01*
X94152754Y-110596243D01*
X94186726Y-110700799D01*
X94218444Y-110798414D01*
X94314951Y-110987820D01*
X94439890Y-111159786D01*
X94590213Y-111310109D01*
X94762179Y-111435048D01*
X94762181Y-111435049D01*
X94762184Y-111435051D01*
X94951588Y-111531557D01*
X95153757Y-111597246D01*
X95363713Y-111630500D01*
X95363714Y-111630500D01*
X95576286Y-111630500D01*
X95576287Y-111630500D01*
X95786243Y-111597246D01*
X95988412Y-111531557D01*
X96177816Y-111435051D01*
X96320544Y-111331354D01*
X96349786Y-111310109D01*
X96349788Y-111310106D01*
X96349792Y-111310104D01*
X96487819Y-111172077D01*
X96549142Y-111138592D01*
X96618834Y-111143576D01*
X96674767Y-111185448D01*
X96699184Y-111250912D01*
X96699500Y-111259758D01*
X96699500Y-122321249D01*
X96699274Y-122328736D01*
X96681728Y-122618794D01*
X96679923Y-122633659D01*
X96628219Y-122915798D01*
X96624635Y-122930336D01*
X96539306Y-123204167D01*
X96533997Y-123218168D01*
X96416275Y-123479736D01*
X96409316Y-123492995D01*
X96260928Y-123738459D01*
X96252422Y-123750782D01*
X96075526Y-123976573D01*
X96065596Y-123987781D01*
X95862781Y-124190596D01*
X95851573Y-124200526D01*
X95625782Y-124377422D01*
X95613459Y-124385928D01*
X95367995Y-124534316D01*
X95354736Y-124541275D01*
X95093168Y-124658997D01*
X95079167Y-124664306D01*
X94805336Y-124749635D01*
X94790798Y-124753219D01*
X94508659Y-124804923D01*
X94493794Y-124806728D01*
X94203736Y-124824274D01*
X94196249Y-124824500D01*
X60203751Y-124824500D01*
X60196264Y-124824274D01*
X59906205Y-124806728D01*
X59891340Y-124804923D01*
X59609201Y-124753219D01*
X59594663Y-124749635D01*
X59320832Y-124664306D01*
X59306831Y-124658997D01*
X59045263Y-124541275D01*
X59032004Y-124534316D01*
X58786540Y-124385928D01*
X58774217Y-124377422D01*
X58548426Y-124200526D01*
X58537218Y-124190596D01*
X58334403Y-123987781D01*
X58324473Y-123976573D01*
X58147573Y-123750776D01*
X58139075Y-123738465D01*
X57990680Y-123492989D01*
X57983727Y-123479743D01*
X57866000Y-123218163D01*
X57860693Y-123204167D01*
X57844341Y-123151693D01*
X57775363Y-122930335D01*
X57771780Y-122915798D01*
X57751567Y-122805499D01*
X57720075Y-122633657D01*
X57718271Y-122618794D01*
X57703411Y-122373133D01*
X57703411Y-122373131D01*
X57700726Y-122328734D01*
X57700500Y-122321249D01*
X57700500Y-120780466D01*
X58795000Y-120780466D01*
X58795000Y-121029533D01*
X58827508Y-121276463D01*
X58891973Y-121517049D01*
X58987283Y-121747148D01*
X58987288Y-121747159D01*
X59111813Y-121962841D01*
X59111819Y-121962849D01*
X59186400Y-122060045D01*
X60093958Y-121152487D01*
X60118978Y-121212890D01*
X60190112Y-121319351D01*
X60280649Y-121409888D01*
X60387110Y-121481022D01*
X60447511Y-121506041D01*
X59539953Y-122413598D01*
X59637150Y-122488180D01*
X59637158Y-122488186D01*
X59852840Y-122612711D01*
X59852851Y-122612716D01*
X60082950Y-122708026D01*
X60323536Y-122772491D01*
X60570466Y-122805000D01*
X60819534Y-122805000D01*
X61066463Y-122772491D01*
X61307049Y-122708026D01*
X61537148Y-122612716D01*
X61537159Y-122612711D01*
X61752855Y-122488178D01*
X61850045Y-122413600D01*
X61850045Y-122413597D01*
X60942488Y-121506041D01*
X61002890Y-121481022D01*
X61109351Y-121409888D01*
X61199888Y-121319351D01*
X61271022Y-121212890D01*
X61296041Y-121152488D01*
X62203597Y-122060045D01*
X62203600Y-122060045D01*
X62278178Y-121962855D01*
X62402711Y-121747159D01*
X62402716Y-121747148D01*
X62498026Y-121517049D01*
X62562491Y-121276463D01*
X62595000Y-121029533D01*
X62595000Y-120780466D01*
X62562491Y-120533536D01*
X62498026Y-120292950D01*
X62402716Y-120062851D01*
X62402711Y-120062840D01*
X62278186Y-119847158D01*
X62278174Y-119847140D01*
X62224600Y-119777322D01*
X62224599Y-119777321D01*
X62203598Y-119749953D01*
X61296041Y-120657510D01*
X61271022Y-120597110D01*
X61199888Y-120490649D01*
X61109351Y-120400112D01*
X61002890Y-120328978D01*
X60942487Y-120303957D01*
X61541461Y-119704984D01*
X63794500Y-119704984D01*
X63794500Y-122105015D01*
X63805000Y-122207795D01*
X63805001Y-122207796D01*
X63860186Y-122374335D01*
X63860187Y-122374337D01*
X63952286Y-122523651D01*
X63952289Y-122523655D01*
X64076344Y-122647710D01*
X64076348Y-122647713D01*
X64225662Y-122739812D01*
X64225664Y-122739813D01*
X64225666Y-122739814D01*
X64392203Y-122794999D01*
X64494992Y-122805500D01*
X64494997Y-122805500D01*
X66895003Y-122805500D01*
X66895008Y-122805500D01*
X66997797Y-122794999D01*
X67164334Y-122739814D01*
X67215870Y-122708026D01*
X67304919Y-122653100D01*
X67309557Y-122650238D01*
X67313655Y-122647711D01*
X67437711Y-122523655D01*
X67529814Y-122374334D01*
X67584999Y-122207797D01*
X67589728Y-122161504D01*
X71270000Y-122161504D01*
X71270000Y-122310000D01*
X71970000Y-122310000D01*
X71970000Y-122810000D01*
X71270000Y-122810000D01*
X71270000Y-122958495D01*
X71308427Y-123151681D01*
X71308430Y-123151693D01*
X71383807Y-123333671D01*
X71383814Y-123333684D01*
X71493248Y-123497462D01*
X71493251Y-123497466D01*
X71632533Y-123636748D01*
X71632537Y-123636751D01*
X71796315Y-123746185D01*
X71796328Y-123746192D01*
X71978308Y-123821569D01*
X72020000Y-123829862D01*
X72020000Y-123026988D01*
X72029940Y-123044205D01*
X72085795Y-123100060D01*
X72154204Y-123139556D01*
X72230504Y-123160000D01*
X72309496Y-123160000D01*
X72385796Y-123139556D01*
X72454205Y-123100060D01*
X72510060Y-123044205D01*
X72520000Y-123026988D01*
X72520000Y-123829862D01*
X72561690Y-123821569D01*
X72561692Y-123821569D01*
X72743671Y-123746192D01*
X72743684Y-123746185D01*
X72907462Y-123636751D01*
X72907466Y-123636748D01*
X73046748Y-123497466D01*
X73046751Y-123497462D01*
X73156185Y-123333684D01*
X73156192Y-123333671D01*
X73231569Y-123151693D01*
X73231572Y-123151681D01*
X73269999Y-122958495D01*
X73270000Y-122958492D01*
X73270000Y-122810000D01*
X72570000Y-122810000D01*
X72570000Y-122310000D01*
X73270000Y-122310000D01*
X73270000Y-122161508D01*
X73269999Y-122161504D01*
X79910000Y-122161504D01*
X79910000Y-122310000D01*
X80610000Y-122310000D01*
X80610000Y-122810000D01*
X79910000Y-122810000D01*
X79910000Y-122958495D01*
X79948427Y-123151681D01*
X79948430Y-123151693D01*
X80023807Y-123333671D01*
X80023814Y-123333684D01*
X80133248Y-123497462D01*
X80133251Y-123497466D01*
X80272533Y-123636748D01*
X80272537Y-123636751D01*
X80436315Y-123746185D01*
X80436328Y-123746192D01*
X80618308Y-123821569D01*
X80660000Y-123829862D01*
X80660000Y-123026988D01*
X80669940Y-123044205D01*
X80725795Y-123100060D01*
X80794204Y-123139556D01*
X80870504Y-123160000D01*
X80949496Y-123160000D01*
X81025796Y-123139556D01*
X81094205Y-123100060D01*
X81150060Y-123044205D01*
X81160000Y-123026988D01*
X81160000Y-123829862D01*
X81201690Y-123821569D01*
X81201692Y-123821569D01*
X81383671Y-123746192D01*
X81383684Y-123746185D01*
X81547462Y-123636751D01*
X81547466Y-123636748D01*
X81686748Y-123497466D01*
X81686751Y-123497462D01*
X81796185Y-123333684D01*
X81796192Y-123333671D01*
X81871569Y-123151693D01*
X81871572Y-123151681D01*
X81909999Y-122958495D01*
X81910000Y-122958492D01*
X81910000Y-122810000D01*
X81210000Y-122810000D01*
X81210000Y-122310000D01*
X81910000Y-122310000D01*
X81910000Y-122161508D01*
X81909999Y-122161504D01*
X81871572Y-121968318D01*
X81871569Y-121968306D01*
X81796192Y-121786328D01*
X81796185Y-121786315D01*
X81686751Y-121622537D01*
X81686748Y-121622533D01*
X81547466Y-121483251D01*
X81547462Y-121483248D01*
X81383684Y-121373814D01*
X81383671Y-121373807D01*
X81201691Y-121298429D01*
X81201683Y-121298427D01*
X81160000Y-121290135D01*
X81160000Y-122093011D01*
X81150060Y-122075795D01*
X81094205Y-122019940D01*
X81025796Y-121980444D01*
X80949496Y-121960000D01*
X80870504Y-121960000D01*
X80794204Y-121980444D01*
X80725795Y-122019940D01*
X80669940Y-122075795D01*
X80660000Y-122093011D01*
X80660000Y-121290136D01*
X80659999Y-121290135D01*
X80618316Y-121298427D01*
X80618308Y-121298429D01*
X80436328Y-121373807D01*
X80436315Y-121373814D01*
X80272537Y-121483248D01*
X80272533Y-121483251D01*
X80133251Y-121622533D01*
X80133248Y-121622537D01*
X80023814Y-121786315D01*
X80023807Y-121786328D01*
X79948430Y-121968306D01*
X79948427Y-121968318D01*
X79910000Y-122161504D01*
X73269999Y-122161504D01*
X73231572Y-121968318D01*
X73231569Y-121968306D01*
X73156192Y-121786328D01*
X73156185Y-121786315D01*
X73046751Y-121622537D01*
X73046748Y-121622533D01*
X72907466Y-121483251D01*
X72907462Y-121483248D01*
X72743684Y-121373814D01*
X72743671Y-121373807D01*
X72561691Y-121298429D01*
X72561683Y-121298427D01*
X72520000Y-121290135D01*
X72520000Y-122093011D01*
X72510060Y-122075795D01*
X72454205Y-122019940D01*
X72385796Y-121980444D01*
X72309496Y-121960000D01*
X72230504Y-121960000D01*
X72154204Y-121980444D01*
X72085795Y-122019940D01*
X72029940Y-122075795D01*
X72020000Y-122093011D01*
X72020000Y-121290136D01*
X72019999Y-121290135D01*
X71978316Y-121298427D01*
X71978308Y-121298429D01*
X71796328Y-121373807D01*
X71796315Y-121373814D01*
X71632537Y-121483248D01*
X71632533Y-121483251D01*
X71493251Y-121622533D01*
X71493248Y-121622537D01*
X71383814Y-121786315D01*
X71383807Y-121786328D01*
X71308430Y-121968306D01*
X71308427Y-121968318D01*
X71270000Y-122161504D01*
X67589728Y-122161504D01*
X67595500Y-122105008D01*
X67595500Y-120771153D01*
X92839500Y-120771153D01*
X92839500Y-120928846D01*
X92870261Y-121083489D01*
X92870264Y-121083501D01*
X92930602Y-121229172D01*
X92930609Y-121229185D01*
X93018210Y-121360288D01*
X93018213Y-121360292D01*
X93129707Y-121471786D01*
X93129711Y-121471789D01*
X93260814Y-121559390D01*
X93260827Y-121559397D01*
X93406498Y-121619735D01*
X93406503Y-121619737D01*
X93561153Y-121650499D01*
X93561156Y-121650500D01*
X93561158Y-121650500D01*
X93718844Y-121650500D01*
X93718845Y-121650499D01*
X93873497Y-121619737D01*
X94019179Y-121559394D01*
X94150289Y-121471789D01*
X94261789Y-121360289D01*
X94349394Y-121229179D01*
X94409737Y-121083497D01*
X94440500Y-120928842D01*
X94440500Y-120771158D01*
X94440500Y-120771155D01*
X94440499Y-120771153D01*
X94409738Y-120616510D01*
X94409737Y-120616503D01*
X94382790Y-120551446D01*
X94349397Y-120470827D01*
X94349390Y-120470814D01*
X94261789Y-120339711D01*
X94261786Y-120339707D01*
X94150292Y-120228213D01*
X94150288Y-120228210D01*
X94019185Y-120140609D01*
X94019172Y-120140602D01*
X93873501Y-120080264D01*
X93873489Y-120080261D01*
X93718845Y-120049500D01*
X93718842Y-120049500D01*
X93561158Y-120049500D01*
X93561155Y-120049500D01*
X93406510Y-120080261D01*
X93406498Y-120080264D01*
X93260827Y-120140602D01*
X93260814Y-120140609D01*
X93129711Y-120228210D01*
X93129707Y-120228213D01*
X93018213Y-120339707D01*
X93018210Y-120339711D01*
X92930609Y-120470814D01*
X92930602Y-120470827D01*
X92870264Y-120616498D01*
X92870261Y-120616510D01*
X92839500Y-120771153D01*
X67595500Y-120771153D01*
X67595500Y-119704992D01*
X67584999Y-119602203D01*
X67529814Y-119435666D01*
X67517857Y-119416281D01*
X67437713Y-119286348D01*
X67437710Y-119286344D01*
X67313655Y-119162289D01*
X67313651Y-119162286D01*
X67164337Y-119070187D01*
X67164335Y-119070186D01*
X67081065Y-119042593D01*
X66997797Y-119015001D01*
X66997795Y-119015000D01*
X66895015Y-119004500D01*
X66895008Y-119004500D01*
X64494992Y-119004500D01*
X64494984Y-119004500D01*
X64392204Y-119015000D01*
X64392203Y-119015001D01*
X64225664Y-119070186D01*
X64225662Y-119070187D01*
X64076348Y-119162286D01*
X64076344Y-119162289D01*
X63952289Y-119286344D01*
X63952286Y-119286348D01*
X63860187Y-119435662D01*
X63860186Y-119435664D01*
X63805001Y-119602203D01*
X63805000Y-119602204D01*
X63794500Y-119704984D01*
X61541461Y-119704984D01*
X61850045Y-119396400D01*
X61752849Y-119321819D01*
X61752841Y-119321813D01*
X61537159Y-119197288D01*
X61537148Y-119197283D01*
X61307049Y-119101973D01*
X61066463Y-119037508D01*
X60819534Y-119005000D01*
X60570466Y-119005000D01*
X60323536Y-119037508D01*
X60082950Y-119101973D01*
X59852851Y-119197283D01*
X59852847Y-119197285D01*
X59637143Y-119321823D01*
X59539953Y-119396399D01*
X59539953Y-119396400D01*
X60447511Y-120303958D01*
X60387110Y-120328978D01*
X60280649Y-120400112D01*
X60190112Y-120490649D01*
X60118978Y-120597110D01*
X60093958Y-120657511D01*
X59186400Y-119749953D01*
X59186399Y-119749953D01*
X59111823Y-119847143D01*
X58987285Y-120062847D01*
X58987283Y-120062851D01*
X58891973Y-120292950D01*
X58827508Y-120533536D01*
X58795000Y-120780466D01*
X57700500Y-120780466D01*
X57700500Y-117066902D01*
X58784500Y-117066902D01*
X58784500Y-117303097D01*
X58821446Y-117536368D01*
X58894433Y-117760996D01*
X58967658Y-117904707D01*
X59001657Y-117971433D01*
X59140483Y-118162510D01*
X59307490Y-118329517D01*
X59498567Y-118468343D01*
X59597991Y-118519002D01*
X59709003Y-118575566D01*
X59709005Y-118575566D01*
X59709008Y-118575568D01*
X59815948Y-118610315D01*
X59933631Y-118648553D01*
X60166903Y-118685500D01*
X60166908Y-118685500D01*
X60403097Y-118685500D01*
X60636368Y-118648553D01*
X60693468Y-118630000D01*
X60860992Y-118575568D01*
X61071433Y-118468343D01*
X61262510Y-118329517D01*
X61429517Y-118162510D01*
X61568343Y-117971433D01*
X61675568Y-117760992D01*
X61685149Y-117731504D01*
X71270000Y-117731504D01*
X71270000Y-118130000D01*
X71970000Y-118130000D01*
X71970000Y-118630000D01*
X71270000Y-118630000D01*
X71270000Y-119028495D01*
X71308427Y-119221681D01*
X71308430Y-119221693D01*
X71383807Y-119403671D01*
X71383814Y-119403684D01*
X71493248Y-119567462D01*
X71493251Y-119567466D01*
X71632533Y-119706748D01*
X71632537Y-119706751D01*
X71796315Y-119816185D01*
X71796328Y-119816192D01*
X71978308Y-119891569D01*
X72020000Y-119899862D01*
X72020000Y-119096988D01*
X72029940Y-119114205D01*
X72085795Y-119170060D01*
X72154204Y-119209556D01*
X72230504Y-119230000D01*
X72309496Y-119230000D01*
X72385796Y-119209556D01*
X72454205Y-119170060D01*
X72510060Y-119114205D01*
X72520000Y-119096988D01*
X72520000Y-119899862D01*
X72561690Y-119891569D01*
X72561692Y-119891569D01*
X72743671Y-119816192D01*
X72743684Y-119816185D01*
X72907462Y-119706751D01*
X72907466Y-119706748D01*
X73046748Y-119567466D01*
X73046751Y-119567462D01*
X73156185Y-119403684D01*
X73156186Y-119403682D01*
X73160129Y-119394163D01*
X73203968Y-119339757D01*
X73270261Y-119317689D01*
X73337961Y-119334965D01*
X73343400Y-119338647D01*
X73346634Y-119340514D01*
X73346635Y-119340515D01*
X73364496Y-119350827D01*
X73443428Y-119396399D01*
X73477865Y-119416281D01*
X73624234Y-119455500D01*
X73624236Y-119455500D01*
X73775764Y-119455500D01*
X73775766Y-119455500D01*
X73922135Y-119416281D01*
X74053365Y-119340515D01*
X74160515Y-119233365D01*
X74236281Y-119102135D01*
X74275500Y-118955766D01*
X74275500Y-118804234D01*
X74236281Y-118657865D01*
X74160515Y-118526635D01*
X74053365Y-118419485D01*
X73987750Y-118381602D01*
X73922136Y-118343719D01*
X73848950Y-118324109D01*
X73775766Y-118304500D01*
X73624234Y-118304500D01*
X73477863Y-118343719D01*
X73346635Y-118419485D01*
X73346632Y-118419487D01*
X73239487Y-118526632D01*
X73239483Y-118526638D01*
X73215603Y-118568000D01*
X73165036Y-118616216D01*
X73108216Y-118630000D01*
X72570000Y-118630000D01*
X72570000Y-118130000D01*
X73270000Y-118130000D01*
X73270000Y-117731508D01*
X73269999Y-117731504D01*
X73231572Y-117538318D01*
X73231569Y-117538306D01*
X73156192Y-117356328D01*
X73156185Y-117356315D01*
X73046751Y-117192537D01*
X73046748Y-117192533D01*
X72907466Y-117053251D01*
X72907462Y-117053248D01*
X72743684Y-116943814D01*
X72743671Y-116943807D01*
X72561691Y-116868429D01*
X72561683Y-116868427D01*
X72520000Y-116860135D01*
X72520000Y-117663011D01*
X72510060Y-117645795D01*
X72454205Y-117589940D01*
X72385796Y-117550444D01*
X72309496Y-117530000D01*
X72230504Y-117530000D01*
X72154204Y-117550444D01*
X72085795Y-117589940D01*
X72029940Y-117645795D01*
X72020000Y-117663011D01*
X72020000Y-116860136D01*
X72019999Y-116860135D01*
X71978316Y-116868427D01*
X71978308Y-116868429D01*
X71796328Y-116943807D01*
X71796315Y-116943814D01*
X71632537Y-117053248D01*
X71632533Y-117053251D01*
X71493251Y-117192533D01*
X71493248Y-117192537D01*
X71383814Y-117356315D01*
X71383807Y-117356328D01*
X71308430Y-117538306D01*
X71308427Y-117538318D01*
X71270000Y-117731504D01*
X61685149Y-117731504D01*
X61748553Y-117536368D01*
X61755419Y-117493019D01*
X61785500Y-117303097D01*
X61785500Y-117066902D01*
X61748553Y-116833631D01*
X61675566Y-116609003D01*
X61568342Y-116398566D01*
X61536212Y-116354343D01*
X61429517Y-116207490D01*
X61262510Y-116040483D01*
X61071433Y-115901657D01*
X61050058Y-115890766D01*
X60860996Y-115794433D01*
X60636368Y-115721446D01*
X60403097Y-115684500D01*
X60403092Y-115684500D01*
X60166908Y-115684500D01*
X60166903Y-115684500D01*
X59933631Y-115721446D01*
X59709003Y-115794433D01*
X59498566Y-115901657D01*
X59389550Y-115980862D01*
X59307490Y-116040483D01*
X59307488Y-116040485D01*
X59307487Y-116040485D01*
X59140485Y-116207487D01*
X59140485Y-116207488D01*
X59140483Y-116207490D01*
X59114072Y-116243842D01*
X59001657Y-116398566D01*
X58894433Y-116609003D01*
X58821446Y-116833631D01*
X58784500Y-117066902D01*
X57700500Y-117066902D01*
X57700500Y-107489270D01*
X57720185Y-107422231D01*
X57772989Y-107376476D01*
X57842147Y-107366532D01*
X57897385Y-107388952D01*
X58057179Y-107505048D01*
X58057181Y-107505049D01*
X58057184Y-107505051D01*
X58246588Y-107601557D01*
X58448757Y-107667246D01*
X58658713Y-107700500D01*
X58658714Y-107700500D01*
X58871286Y-107700500D01*
X58871287Y-107700500D01*
X59081243Y-107667246D01*
X59283412Y-107601557D01*
X59472816Y-107505051D01*
X59506934Y-107480263D01*
X59644786Y-107380109D01*
X59644788Y-107380106D01*
X59644792Y-107380104D01*
X59795104Y-107229792D01*
X59795106Y-107229788D01*
X59795109Y-107229786D01*
X59920048Y-107057820D01*
X59920047Y-107057820D01*
X59920051Y-107057816D01*
X60016557Y-106868412D01*
X60082246Y-106666243D01*
X60115500Y-106456287D01*
X60115500Y-106243713D01*
X60082246Y-106033757D01*
X60016557Y-105831588D01*
X59920051Y-105642184D01*
X59920049Y-105642181D01*
X59920048Y-105642179D01*
X59795109Y-105470213D01*
X59644786Y-105319890D01*
X59472817Y-105194949D01*
X59463504Y-105190204D01*
X59412707Y-105142230D01*
X59395912Y-105074409D01*
X59418449Y-105008274D01*
X59463507Y-104969232D01*
X59472558Y-104964620D01*
X59644459Y-104839727D01*
X59644464Y-104839723D01*
X59794723Y-104689464D01*
X59794727Y-104689459D01*
X59919620Y-104517557D01*
X60016095Y-104328217D01*
X60081757Y-104126129D01*
X60081757Y-104126126D01*
X60092231Y-104060000D01*
X59198012Y-104060000D01*
X59230925Y-104002993D01*
X59265000Y-103875826D01*
X59265000Y-103744174D01*
X59230925Y-103617007D01*
X59198012Y-103560000D01*
X60092231Y-103560000D01*
X60081757Y-103493873D01*
X60081757Y-103493870D01*
X60016095Y-103291782D01*
X59919620Y-103102442D01*
X59794727Y-102930540D01*
X59794723Y-102930535D01*
X59644464Y-102780276D01*
X59644459Y-102780272D01*
X59472555Y-102655377D01*
X59463500Y-102650763D01*
X59412706Y-102602788D01*
X59395912Y-102534966D01*
X59418451Y-102468832D01*
X59463508Y-102429793D01*
X59472816Y-102425051D01*
X59597158Y-102334712D01*
X59644786Y-102300109D01*
X59644788Y-102300106D01*
X59644792Y-102300104D01*
X59795104Y-102149792D01*
X59795106Y-102149788D01*
X59795109Y-102149786D01*
X59920048Y-101977820D01*
X59920047Y-101977820D01*
X59920051Y-101977816D01*
X60016557Y-101788412D01*
X60082246Y-101586243D01*
X60115500Y-101376287D01*
X60115500Y-101163713D01*
X60082246Y-100953757D01*
X60016557Y-100751588D01*
X59920051Y-100562184D01*
X59920049Y-100562181D01*
X59920048Y-100562179D01*
X59795109Y-100390213D01*
X59644786Y-100239890D01*
X59472820Y-100114951D01*
X59472115Y-100114591D01*
X59464054Y-100110485D01*
X59413259Y-100062512D01*
X59396463Y-99994692D01*
X59418999Y-99928556D01*
X59464054Y-99889515D01*
X59472816Y-99885051D01*
X59494789Y-99869086D01*
X59644786Y-99760109D01*
X59644788Y-99760106D01*
X59644792Y-99760104D01*
X59795104Y-99609792D01*
X59795106Y-99609788D01*
X59795109Y-99609786D01*
X59920048Y-99437820D01*
X59920047Y-99437820D01*
X59920051Y-99437816D01*
X60016557Y-99248412D01*
X60082246Y-99046243D01*
X60115500Y-98836287D01*
X60115500Y-98623713D01*
X60082246Y-98413757D01*
X60016557Y-98211588D01*
X59920051Y-98022184D01*
X59920049Y-98022181D01*
X59920048Y-98022179D01*
X59795109Y-97850213D01*
X59644786Y-97699890D01*
X59472820Y-97574951D01*
X59472115Y-97574591D01*
X59464054Y-97570485D01*
X59413259Y-97522512D01*
X59396463Y-97454692D01*
X59418999Y-97388556D01*
X59464054Y-97349515D01*
X59472816Y-97345051D01*
X59532755Y-97301503D01*
X59644786Y-97220109D01*
X59644788Y-97220106D01*
X59644792Y-97220104D01*
X59795104Y-97069792D01*
X59795106Y-97069788D01*
X59795109Y-97069786D01*
X59920048Y-96897820D01*
X59920047Y-96897820D01*
X59920051Y-96897816D01*
X60016557Y-96708412D01*
X60082246Y-96506243D01*
X60115500Y-96296287D01*
X60115500Y-96083713D01*
X60082246Y-95873757D01*
X60016557Y-95671588D01*
X59920051Y-95482184D01*
X59920049Y-95482181D01*
X59920048Y-95482179D01*
X59795109Y-95310213D01*
X59644786Y-95159890D01*
X59472820Y-95034951D01*
X59472115Y-95034591D01*
X59464054Y-95030485D01*
X59413259Y-94982512D01*
X59396463Y-94914692D01*
X59418999Y-94848556D01*
X59464054Y-94809515D01*
X59472816Y-94805051D01*
X59540357Y-94755980D01*
X59644786Y-94680109D01*
X59644788Y-94680106D01*
X59644792Y-94680104D01*
X59795104Y-94529792D01*
X59795106Y-94529788D01*
X59795109Y-94529786D01*
X59920048Y-94357820D01*
X59920047Y-94357820D01*
X59920051Y-94357816D01*
X60016557Y-94168412D01*
X60082246Y-93966243D01*
X60115500Y-93756287D01*
X60115500Y-93543713D01*
X60082246Y-93333757D01*
X60016557Y-93131588D01*
X59920051Y-92942184D01*
X59920049Y-92942181D01*
X59920048Y-92942179D01*
X59795109Y-92770213D01*
X59644786Y-92619890D01*
X59472820Y-92494951D01*
X59472115Y-92494591D01*
X59464054Y-92490485D01*
X59413259Y-92442512D01*
X59396463Y-92374692D01*
X59418999Y-92308556D01*
X59464054Y-92269515D01*
X59472816Y-92265051D01*
X59494789Y-92249086D01*
X59644786Y-92140109D01*
X59644788Y-92140106D01*
X59644792Y-92140104D01*
X59795104Y-91989792D01*
X59795106Y-91989788D01*
X59795109Y-91989786D01*
X59920048Y-91817820D01*
X59920047Y-91817820D01*
X59920051Y-91817816D01*
X60016557Y-91628412D01*
X60082246Y-91426243D01*
X60115500Y-91216287D01*
X60115500Y-91003713D01*
X60082246Y-90793757D01*
X60016557Y-90591588D01*
X59920051Y-90402184D01*
X59920049Y-90402181D01*
X59920048Y-90402179D01*
X59795109Y-90230213D01*
X59644786Y-90079890D01*
X59472820Y-89954951D01*
X59472115Y-89954591D01*
X59464054Y-89950485D01*
X59413259Y-89902512D01*
X59396463Y-89834692D01*
X59418999Y-89768556D01*
X59464054Y-89729515D01*
X59472816Y-89725051D01*
X59494789Y-89709086D01*
X59644786Y-89600109D01*
X59644788Y-89600106D01*
X59644792Y-89600104D01*
X59795104Y-89449792D01*
X59795106Y-89449788D01*
X59795109Y-89449786D01*
X59920048Y-89277820D01*
X59920047Y-89277820D01*
X59920051Y-89277816D01*
X60016557Y-89088412D01*
X60082246Y-88886243D01*
X60115500Y-88676287D01*
X60115500Y-88463713D01*
X60082246Y-88253757D01*
X60016557Y-88051588D01*
X59920051Y-87862184D01*
X59920049Y-87862181D01*
X59920048Y-87862179D01*
X59795109Y-87690213D01*
X59681181Y-87576285D01*
X59647696Y-87514962D01*
X59652680Y-87445270D01*
X59694552Y-87389337D01*
X59725529Y-87372422D01*
X59857086Y-87323354D01*
X59857093Y-87323350D01*
X59972187Y-87237190D01*
X59972190Y-87237187D01*
X60058350Y-87122093D01*
X60058354Y-87122086D01*
X60108596Y-86987379D01*
X60108598Y-86987372D01*
X60114999Y-86927844D01*
X60115000Y-86927827D01*
X60115000Y-86280000D01*
X59198012Y-86280000D01*
X59230925Y-86222993D01*
X59265000Y-86095826D01*
X59265000Y-85964174D01*
X59230925Y-85837007D01*
X59198012Y-85780000D01*
X60115000Y-85780000D01*
X60115000Y-85132172D01*
X60114999Y-85132155D01*
X60108598Y-85072627D01*
X60108596Y-85072620D01*
X60058354Y-84937913D01*
X60058350Y-84937906D01*
X59972190Y-84822812D01*
X59972187Y-84822809D01*
X59857093Y-84736649D01*
X59857086Y-84736645D01*
X59722379Y-84686403D01*
X59722372Y-84686401D01*
X59662844Y-84680000D01*
X59015000Y-84680000D01*
X59015000Y-85596988D01*
X58957993Y-85564075D01*
X58830826Y-85530000D01*
X58699174Y-85530000D01*
X58572007Y-85564075D01*
X58515000Y-85596988D01*
X58515000Y-84680000D01*
X57867155Y-84680000D01*
X57837756Y-84683162D01*
X57768997Y-84670758D01*
X57717859Y-84623148D01*
X57700500Y-84559873D01*
X57700500Y-78054653D01*
X61148500Y-78054653D01*
X61148500Y-109690632D01*
X61179261Y-109845275D01*
X61179264Y-109845287D01*
X61239602Y-109990958D01*
X61239609Y-109990971D01*
X61327210Y-110122074D01*
X61327213Y-110122078D01*
X62061425Y-110856289D01*
X62153620Y-110948484D01*
X62172926Y-110967790D01*
X62222832Y-111001136D01*
X62304035Y-111055394D01*
X62407047Y-111098062D01*
X62449716Y-111115737D01*
X62532707Y-111132245D01*
X62604366Y-111146499D01*
X62604369Y-111146500D01*
X62604371Y-111146500D01*
X65202844Y-111146500D01*
X65202845Y-111146499D01*
X65357497Y-111115737D01*
X65503179Y-111055394D01*
X65634289Y-110967789D01*
X66176789Y-110425289D01*
X66264394Y-110294179D01*
X66324737Y-110148497D01*
X66355500Y-109993842D01*
X66355500Y-109836158D01*
X66355500Y-109835500D01*
X66375185Y-109768461D01*
X66427989Y-109722706D01*
X66479500Y-109711500D01*
X67220500Y-109711500D01*
X67287539Y-109731185D01*
X67333294Y-109783989D01*
X67344500Y-109835500D01*
X67344500Y-109933846D01*
X67375261Y-110088489D01*
X67375264Y-110088501D01*
X67435602Y-110234172D01*
X67435609Y-110234185D01*
X67523210Y-110365288D01*
X67523213Y-110365292D01*
X67634708Y-110476787D01*
X67634711Y-110476789D01*
X67658605Y-110492755D01*
X67703410Y-110546366D01*
X67712119Y-110615691D01*
X67681965Y-110678718D01*
X67677396Y-110683538D01*
X64352774Y-114008160D01*
X64333986Y-114023579D01*
X64259713Y-114073208D01*
X64259704Y-114073217D01*
X64148213Y-114184707D01*
X64148210Y-114184711D01*
X64060609Y-114315814D01*
X64060602Y-114315827D01*
X64000264Y-114461498D01*
X64000261Y-114461510D01*
X63969500Y-114616153D01*
X63969500Y-114773846D01*
X64000261Y-114928489D01*
X64000264Y-114928501D01*
X64060602Y-115074172D01*
X64060609Y-115074185D01*
X64148210Y-115205288D01*
X64148213Y-115205292D01*
X64259707Y-115316786D01*
X64259711Y-115316789D01*
X64390814Y-115404390D01*
X64390827Y-115404397D01*
X64536498Y-115464735D01*
X64536503Y-115464737D01*
X64691153Y-115495499D01*
X64691156Y-115495500D01*
X64691158Y-115495500D01*
X64876858Y-115495500D01*
X64876859Y-115495499D01*
X65031511Y-115464737D01*
X65177193Y-115404394D01*
X65308303Y-115316789D01*
X65387468Y-115237624D01*
X74608471Y-115237624D01*
X74608471Y-115395317D01*
X74633681Y-115522052D01*
X74639234Y-115549968D01*
X74677368Y-115642033D01*
X74698597Y-115693283D01*
X74706066Y-115762753D01*
X74698597Y-115788188D01*
X74639236Y-115931498D01*
X74639233Y-115931510D01*
X74608472Y-116086153D01*
X74608472Y-116243846D01*
X74639233Y-116398489D01*
X74639236Y-116398501D01*
X74699574Y-116544172D01*
X74699581Y-116544185D01*
X74787182Y-116675288D01*
X74787185Y-116675292D01*
X74898679Y-116786786D01*
X74898683Y-116786789D01*
X75029786Y-116874390D01*
X75029799Y-116874397D01*
X75175470Y-116934735D01*
X75175475Y-116934737D01*
X75330125Y-116965499D01*
X75330128Y-116965500D01*
X75330130Y-116965500D01*
X75487816Y-116965500D01*
X75487817Y-116965499D01*
X75642469Y-116934737D01*
X75788151Y-116874394D01*
X75919261Y-116786789D01*
X76030761Y-116675289D01*
X76069101Y-116617909D01*
X76122712Y-116573104D01*
X76192037Y-116564397D01*
X76255065Y-116594551D01*
X76259884Y-116599119D01*
X77226981Y-117566216D01*
X77338784Y-117678019D01*
X77475715Y-117757077D01*
X77628443Y-117798001D01*
X77628446Y-117798001D01*
X77786554Y-117798001D01*
X77786557Y-117798001D01*
X77939285Y-117757077D01*
X78017120Y-117712138D01*
X78085017Y-117695665D01*
X78151044Y-117718516D01*
X78194236Y-117773437D01*
X78200736Y-117795333D01*
X78220261Y-117893491D01*
X78220264Y-117893501D01*
X78280602Y-118039172D01*
X78280609Y-118039185D01*
X78368210Y-118170288D01*
X78368213Y-118170292D01*
X78479707Y-118281786D01*
X78479711Y-118281789D01*
X78610814Y-118369390D01*
X78610827Y-118369397D01*
X78731752Y-118419485D01*
X78756503Y-118429737D01*
X78814481Y-118441269D01*
X78872858Y-118452882D01*
X78934769Y-118485267D01*
X78969343Y-118545982D01*
X78965604Y-118615752D01*
X78956054Y-118636499D01*
X78943720Y-118657861D01*
X78943720Y-118657862D01*
X78943720Y-118657863D01*
X78943719Y-118657865D01*
X78904500Y-118804234D01*
X78904500Y-118955766D01*
X78905705Y-118960263D01*
X78943719Y-119102136D01*
X78956568Y-119124390D01*
X79019485Y-119233365D01*
X79126635Y-119340515D01*
X79257865Y-119416281D01*
X79404234Y-119455500D01*
X79404236Y-119455500D01*
X79555764Y-119455500D01*
X79555766Y-119455500D01*
X79702135Y-119416281D01*
X79833365Y-119340515D01*
X79833366Y-119340513D01*
X79840403Y-119336451D01*
X79841676Y-119338656D01*
X79894956Y-119318043D01*
X79963405Y-119332063D01*
X80013407Y-119380864D01*
X80019867Y-119394157D01*
X80023809Y-119403674D01*
X80023814Y-119403684D01*
X80133248Y-119567462D01*
X80133251Y-119567466D01*
X80272533Y-119706748D01*
X80272537Y-119706751D01*
X80436315Y-119816185D01*
X80436328Y-119816192D01*
X80618308Y-119891569D01*
X80660000Y-119899862D01*
X80660000Y-119096988D01*
X80669940Y-119114205D01*
X80725795Y-119170060D01*
X80794204Y-119209556D01*
X80870504Y-119230000D01*
X80949496Y-119230000D01*
X81025796Y-119209556D01*
X81094205Y-119170060D01*
X81150060Y-119114205D01*
X81160000Y-119096988D01*
X81160000Y-119899862D01*
X81201690Y-119891569D01*
X81201692Y-119891569D01*
X81383671Y-119816192D01*
X81383684Y-119816185D01*
X81547462Y-119706751D01*
X81547466Y-119706748D01*
X81603061Y-119651153D01*
X87089500Y-119651153D01*
X87089500Y-119808846D01*
X87120261Y-119963489D01*
X87120264Y-119963501D01*
X87180602Y-120109172D01*
X87180609Y-120109185D01*
X87268210Y-120240288D01*
X87268213Y-120240292D01*
X87379707Y-120351786D01*
X87379711Y-120351789D01*
X87510814Y-120439390D01*
X87510827Y-120439397D01*
X87634562Y-120490649D01*
X87656503Y-120499737D01*
X87811153Y-120530499D01*
X87811156Y-120530500D01*
X87811158Y-120530500D01*
X87968844Y-120530500D01*
X87968845Y-120530499D01*
X88123497Y-120499737D01*
X88269179Y-120439394D01*
X88400289Y-120351789D01*
X88511789Y-120240289D01*
X88599394Y-120109179D01*
X88659737Y-119963497D01*
X88690500Y-119808842D01*
X88690500Y-119651158D01*
X88690500Y-119651155D01*
X88690499Y-119651153D01*
X88680762Y-119602203D01*
X88659737Y-119496503D01*
X88634536Y-119435662D01*
X88599397Y-119350827D01*
X88599390Y-119350814D01*
X88511789Y-119219711D01*
X88511786Y-119219707D01*
X88400292Y-119108213D01*
X88400288Y-119108210D01*
X88269185Y-119020609D01*
X88269172Y-119020602D01*
X88123501Y-118960264D01*
X88123489Y-118960261D01*
X87968845Y-118929500D01*
X87968842Y-118929500D01*
X87811158Y-118929500D01*
X87811155Y-118929500D01*
X87656510Y-118960261D01*
X87656498Y-118960264D01*
X87510827Y-119020602D01*
X87510814Y-119020609D01*
X87379711Y-119108210D01*
X87379707Y-119108213D01*
X87268213Y-119219707D01*
X87268210Y-119219711D01*
X87180609Y-119350814D01*
X87180602Y-119350827D01*
X87120264Y-119496498D01*
X87120261Y-119496510D01*
X87089500Y-119651153D01*
X81603061Y-119651153D01*
X81686750Y-119567464D01*
X81796185Y-119403684D01*
X81796192Y-119403671D01*
X81871569Y-119221693D01*
X81871572Y-119221681D01*
X81909999Y-119028495D01*
X81910000Y-119028492D01*
X81910000Y-118630000D01*
X81210000Y-118630000D01*
X81210000Y-118336153D01*
X93118500Y-118336153D01*
X93118500Y-118493846D01*
X93149261Y-118648489D01*
X93149264Y-118648501D01*
X93209602Y-118794172D01*
X93209609Y-118794185D01*
X93297210Y-118925288D01*
X93297213Y-118925292D01*
X93408707Y-119036786D01*
X93408711Y-119036789D01*
X93539814Y-119124390D01*
X93539827Y-119124397D01*
X93631301Y-119162286D01*
X93685503Y-119184737D01*
X93810276Y-119209556D01*
X93840153Y-119215499D01*
X93840156Y-119215500D01*
X93840158Y-119215500D01*
X93997844Y-119215500D01*
X93997845Y-119215499D01*
X94152497Y-119184737D01*
X94298179Y-119124394D01*
X94429289Y-119036789D01*
X94540789Y-118925289D01*
X94628394Y-118794179D01*
X94688737Y-118648497D01*
X94719500Y-118493842D01*
X94719500Y-118336158D01*
X94719500Y-118336155D01*
X94719499Y-118336153D01*
X94697768Y-118226905D01*
X94688737Y-118181503D01*
X94640011Y-118063867D01*
X94628397Y-118035827D01*
X94628390Y-118035814D01*
X94540789Y-117904711D01*
X94540786Y-117904707D01*
X94429292Y-117793213D01*
X94429288Y-117793210D01*
X94298185Y-117705609D01*
X94298172Y-117705602D01*
X94152501Y-117645264D01*
X94152489Y-117645261D01*
X93997845Y-117614500D01*
X93997842Y-117614500D01*
X93840158Y-117614500D01*
X93840155Y-117614500D01*
X93685510Y-117645261D01*
X93685498Y-117645264D01*
X93539827Y-117705602D01*
X93539814Y-117705609D01*
X93408711Y-117793210D01*
X93408707Y-117793213D01*
X93297213Y-117904707D01*
X93297210Y-117904711D01*
X93209609Y-118035814D01*
X93209602Y-118035827D01*
X93149264Y-118181498D01*
X93149261Y-118181510D01*
X93118500Y-118336153D01*
X81210000Y-118336153D01*
X81210000Y-118130000D01*
X81910000Y-118130000D01*
X81910000Y-117731508D01*
X81909999Y-117731504D01*
X81871572Y-117538318D01*
X81871569Y-117538306D01*
X81796192Y-117356328D01*
X81796185Y-117356315D01*
X81686751Y-117192537D01*
X81686748Y-117192533D01*
X81547466Y-117053251D01*
X81547462Y-117053248D01*
X81383684Y-116943814D01*
X81383671Y-116943807D01*
X81201691Y-116868429D01*
X81201683Y-116868427D01*
X81160000Y-116860135D01*
X81160000Y-117663011D01*
X81150060Y-117645795D01*
X81094205Y-117589940D01*
X81025796Y-117550444D01*
X80949496Y-117530000D01*
X80870504Y-117530000D01*
X80794204Y-117550444D01*
X80725795Y-117589940D01*
X80669940Y-117645795D01*
X80660000Y-117663011D01*
X80660000Y-116860136D01*
X80659999Y-116860135D01*
X80618316Y-116868427D01*
X80618308Y-116868429D01*
X80436328Y-116943807D01*
X80436315Y-116943814D01*
X80272537Y-117053248D01*
X80272533Y-117053251D01*
X80133251Y-117192533D01*
X80133248Y-117192537D01*
X80023814Y-117356315D01*
X80023809Y-117356325D01*
X79991705Y-117433831D01*
X79947863Y-117488235D01*
X79881569Y-117510299D01*
X79813870Y-117493019D01*
X79766260Y-117441882D01*
X79762331Y-117432020D01*
X79762068Y-117432130D01*
X79699397Y-117280827D01*
X79699390Y-117280814D01*
X79611789Y-117149711D01*
X79611786Y-117149707D01*
X79500292Y-117038213D01*
X79500288Y-117038210D01*
X79369185Y-116950609D01*
X79369172Y-116950602D01*
X79223501Y-116890264D01*
X79223492Y-116890261D01*
X79151149Y-116875871D01*
X79089239Y-116843485D01*
X79054665Y-116782769D01*
X79058406Y-116713000D01*
X79087657Y-116666577D01*
X79262967Y-116491269D01*
X79342024Y-116354337D01*
X79382948Y-116201610D01*
X79382948Y-116043495D01*
X79342024Y-115890768D01*
X79262967Y-115753837D01*
X79151163Y-115642033D01*
X79014232Y-115562976D01*
X78861505Y-115522052D01*
X78703390Y-115522052D01*
X78695794Y-115522052D01*
X78695778Y-115522053D01*
X78609500Y-115522053D01*
X78542461Y-115502368D01*
X78496706Y-115449564D01*
X78485500Y-115398053D01*
X78485500Y-115246155D01*
X78485499Y-115246153D01*
X78454751Y-115091575D01*
X78454737Y-115091503D01*
X78437151Y-115049046D01*
X84197393Y-115049046D01*
X84197393Y-115206739D01*
X84228154Y-115361382D01*
X84228157Y-115361394D01*
X84288495Y-115507065D01*
X84288502Y-115507078D01*
X84376103Y-115638181D01*
X84376106Y-115638185D01*
X84487600Y-115749679D01*
X84487604Y-115749682D01*
X84618707Y-115837283D01*
X84618720Y-115837290D01*
X84764391Y-115897628D01*
X84764396Y-115897630D01*
X84919046Y-115928392D01*
X84919049Y-115928393D01*
X84919051Y-115928393D01*
X85076737Y-115928393D01*
X85076738Y-115928392D01*
X85231390Y-115897630D01*
X85377072Y-115837287D01*
X85508182Y-115749682D01*
X85619682Y-115638182D01*
X85707287Y-115507072D01*
X85709236Y-115502368D01*
X85767628Y-115361394D01*
X85767630Y-115361390D01*
X85798393Y-115206735D01*
X85798393Y-115049051D01*
X85798393Y-115049048D01*
X85798392Y-115049046D01*
X85776164Y-114937298D01*
X85767630Y-114894396D01*
X85755844Y-114865941D01*
X85707290Y-114748720D01*
X85707283Y-114748707D01*
X85619682Y-114617604D01*
X85619679Y-114617600D01*
X85508185Y-114506106D01*
X85508181Y-114506103D01*
X85377078Y-114418502D01*
X85377065Y-114418495D01*
X85231394Y-114358157D01*
X85231382Y-114358154D01*
X85076738Y-114327393D01*
X85076735Y-114327393D01*
X84919051Y-114327393D01*
X84919048Y-114327393D01*
X84764403Y-114358154D01*
X84764391Y-114358157D01*
X84618720Y-114418495D01*
X84618707Y-114418502D01*
X84487604Y-114506103D01*
X84487600Y-114506106D01*
X84376106Y-114617600D01*
X84376103Y-114617604D01*
X84288502Y-114748707D01*
X84288495Y-114748720D01*
X84228157Y-114894391D01*
X84228154Y-114894403D01*
X84197393Y-115049046D01*
X78437151Y-115049046D01*
X78394394Y-114945821D01*
X78379749Y-114923904D01*
X78375479Y-114914357D01*
X78372128Y-114889689D01*
X78364691Y-114865941D01*
X78367507Y-114855674D01*
X78366074Y-114845123D01*
X78376590Y-114822561D01*
X78383174Y-114798560D01*
X78385528Y-114794895D01*
X78409394Y-114759179D01*
X78469737Y-114613497D01*
X78500500Y-114458842D01*
X78500500Y-114301158D01*
X78500500Y-114301155D01*
X78500499Y-114301153D01*
X78483591Y-114216153D01*
X78469737Y-114146503D01*
X78439379Y-114073211D01*
X78409397Y-114000827D01*
X78409390Y-114000814D01*
X78321789Y-113869711D01*
X78321786Y-113869707D01*
X78210292Y-113758213D01*
X78210288Y-113758210D01*
X78079185Y-113670609D01*
X78079172Y-113670602D01*
X77944033Y-113614627D01*
X77933497Y-113610263D01*
X77933489Y-113610261D01*
X77778845Y-113579500D01*
X77778842Y-113579500D01*
X77621158Y-113579500D01*
X77621155Y-113579500D01*
X77466510Y-113610261D01*
X77466498Y-113610264D01*
X77320827Y-113670602D01*
X77320814Y-113670609D01*
X77189711Y-113758210D01*
X77189707Y-113758213D01*
X77078213Y-113869707D01*
X77078210Y-113869711D01*
X76990609Y-114000814D01*
X76990602Y-114000827D01*
X76930264Y-114146498D01*
X76930261Y-114146510D01*
X76899500Y-114301153D01*
X76899500Y-114458846D01*
X76930261Y-114613489D01*
X76930264Y-114613501D01*
X76943032Y-114644325D01*
X76950501Y-114713794D01*
X76919226Y-114776273D01*
X76859137Y-114811925D01*
X76789311Y-114809431D01*
X76766472Y-114799165D01*
X76693255Y-114756894D01*
X76662727Y-114748714D01*
X76540528Y-114715971D01*
X76540527Y-114715971D01*
X75988737Y-114715971D01*
X75921698Y-114696286D01*
X75919846Y-114695073D01*
X75788156Y-114607080D01*
X75788143Y-114607073D01*
X75642472Y-114546735D01*
X75642460Y-114546732D01*
X75487816Y-114515971D01*
X75487813Y-114515971D01*
X75330129Y-114515971D01*
X75330126Y-114515971D01*
X75175481Y-114546732D01*
X75175469Y-114546735D01*
X75029798Y-114607073D01*
X75029785Y-114607080D01*
X74898682Y-114694681D01*
X74898678Y-114694684D01*
X74787184Y-114806178D01*
X74787181Y-114806182D01*
X74699580Y-114937285D01*
X74699573Y-114937298D01*
X74639235Y-115082969D01*
X74639232Y-115082981D01*
X74608471Y-115237624D01*
X65387468Y-115237624D01*
X65481237Y-115143856D01*
X68023939Y-112601153D01*
X72414500Y-112601153D01*
X72414500Y-112758846D01*
X72445261Y-112913489D01*
X72445264Y-112913501D01*
X72505602Y-113059172D01*
X72505609Y-113059185D01*
X72593210Y-113190288D01*
X72593213Y-113190292D01*
X72704707Y-113301786D01*
X72704711Y-113301789D01*
X72835814Y-113389390D01*
X72835827Y-113389397D01*
X72981498Y-113449735D01*
X72981503Y-113449737D01*
X73038966Y-113461167D01*
X73100876Y-113493551D01*
X73135450Y-113554267D01*
X73131711Y-113624036D01*
X73102456Y-113670465D01*
X72988210Y-113784711D01*
X72900609Y-113915814D01*
X72900602Y-113915827D01*
X72840264Y-114061498D01*
X72840261Y-114061510D01*
X72809500Y-114216153D01*
X72809500Y-114373846D01*
X72840261Y-114528489D01*
X72840264Y-114528501D01*
X72900602Y-114674172D01*
X72900609Y-114674185D01*
X72988210Y-114805288D01*
X72988213Y-114805292D01*
X73099707Y-114916786D01*
X73099711Y-114916789D01*
X73230814Y-115004390D01*
X73230827Y-115004397D01*
X73338621Y-115049046D01*
X73376503Y-115064737D01*
X73511064Y-115091503D01*
X73531153Y-115095499D01*
X73531156Y-115095500D01*
X73531158Y-115095500D01*
X73688844Y-115095500D01*
X73688845Y-115095499D01*
X73843497Y-115064737D01*
X73989179Y-115004394D01*
X74120289Y-114916789D01*
X74231789Y-114805289D01*
X74319394Y-114674179D01*
X74379737Y-114528497D01*
X74410500Y-114373842D01*
X74410500Y-114216158D01*
X74410500Y-114216155D01*
X74410499Y-114216153D01*
X74396646Y-114146510D01*
X74379737Y-114061503D01*
X74379735Y-114061498D01*
X74319397Y-113915827D01*
X74319390Y-113915814D01*
X74231789Y-113784711D01*
X74231786Y-113784707D01*
X74120292Y-113673213D01*
X74120288Y-113673210D01*
X73989185Y-113585609D01*
X73989172Y-113585602D01*
X73843501Y-113525264D01*
X73843491Y-113525261D01*
X73786033Y-113513832D01*
X73771353Y-113506153D01*
X79089500Y-113506153D01*
X79089500Y-113663846D01*
X79120261Y-113818489D01*
X79120264Y-113818501D01*
X79180602Y-113964172D01*
X79180609Y-113964185D01*
X79268210Y-114095288D01*
X79268213Y-114095292D01*
X79379707Y-114206786D01*
X79379711Y-114206789D01*
X79510814Y-114294390D01*
X79510827Y-114294397D01*
X79590488Y-114327393D01*
X79656503Y-114354737D01*
X79811153Y-114385499D01*
X79811156Y-114385500D01*
X79811158Y-114385500D01*
X79968844Y-114385500D01*
X79968845Y-114385499D01*
X80123497Y-114354737D01*
X80252849Y-114301158D01*
X80269172Y-114294397D01*
X80269172Y-114294396D01*
X80269179Y-114294394D01*
X80400289Y-114206789D01*
X80511789Y-114095289D01*
X80599394Y-113964179D01*
X80659737Y-113818497D01*
X80690500Y-113663842D01*
X80690500Y-113506158D01*
X80690500Y-113506155D01*
X80690499Y-113506153D01*
X80673507Y-113420731D01*
X80659737Y-113351503D01*
X80659735Y-113351498D01*
X80599397Y-113205827D01*
X80599390Y-113205814D01*
X80511789Y-113074711D01*
X80511786Y-113074707D01*
X80400292Y-112963213D01*
X80400288Y-112963210D01*
X80269185Y-112875609D01*
X80269172Y-112875602D01*
X80123501Y-112815264D01*
X80123489Y-112815261D01*
X79968845Y-112784500D01*
X79968842Y-112784500D01*
X79811158Y-112784500D01*
X79811155Y-112784500D01*
X79656510Y-112815261D01*
X79656498Y-112815264D01*
X79510827Y-112875602D01*
X79510814Y-112875609D01*
X79379711Y-112963210D01*
X79379707Y-112963213D01*
X79268213Y-113074707D01*
X79268210Y-113074711D01*
X79180609Y-113205814D01*
X79180602Y-113205827D01*
X79120264Y-113351498D01*
X79120261Y-113351510D01*
X79089500Y-113506153D01*
X73771353Y-113506153D01*
X73724122Y-113481447D01*
X73689548Y-113420731D01*
X73693289Y-113350961D01*
X73722544Y-113304533D01*
X73725285Y-113301791D01*
X73725289Y-113301789D01*
X73836789Y-113190289D01*
X73924394Y-113059179D01*
X73984737Y-112913497D01*
X74015500Y-112758842D01*
X74015500Y-112601158D01*
X74015500Y-112601155D01*
X74015499Y-112601153D01*
X73996847Y-112507385D01*
X73984737Y-112446503D01*
X73953368Y-112370770D01*
X73924397Y-112300827D01*
X73924390Y-112300814D01*
X73836789Y-112169711D01*
X73836786Y-112169707D01*
X73725292Y-112058213D01*
X73725288Y-112058210D01*
X73594185Y-111970609D01*
X73594172Y-111970602D01*
X73448501Y-111910264D01*
X73448489Y-111910261D01*
X73293845Y-111879500D01*
X73293842Y-111879500D01*
X73136158Y-111879500D01*
X73136155Y-111879500D01*
X72981510Y-111910261D01*
X72981498Y-111910264D01*
X72835827Y-111970602D01*
X72835814Y-111970609D01*
X72704711Y-112058210D01*
X72704707Y-112058213D01*
X72593213Y-112169707D01*
X72593210Y-112169711D01*
X72505609Y-112300814D01*
X72505602Y-112300827D01*
X72445264Y-112446498D01*
X72445261Y-112446510D01*
X72414500Y-112601153D01*
X68023939Y-112601153D01*
X68117707Y-112507385D01*
X68954955Y-111670137D01*
X77452077Y-111670137D01*
X77452077Y-111827830D01*
X77482838Y-111982473D01*
X77482841Y-111982485D01*
X77543179Y-112128156D01*
X77543186Y-112128169D01*
X77630787Y-112259272D01*
X77630790Y-112259276D01*
X77742284Y-112370770D01*
X77742288Y-112370773D01*
X77873391Y-112458374D01*
X77873404Y-112458381D01*
X77991712Y-112507385D01*
X78019080Y-112518721D01*
X78173730Y-112549483D01*
X78173733Y-112549484D01*
X78173735Y-112549484D01*
X78331421Y-112549484D01*
X78331422Y-112549483D01*
X78486074Y-112518721D01*
X78631756Y-112458378D01*
X78762866Y-112370773D01*
X78874366Y-112259273D01*
X78961971Y-112128163D01*
X79022314Y-111982481D01*
X79053077Y-111827826D01*
X79053077Y-111670142D01*
X79053077Y-111670139D01*
X79053076Y-111670137D01*
X79038577Y-111597246D01*
X79022314Y-111515487D01*
X78988997Y-111435051D01*
X78961974Y-111369811D01*
X78961967Y-111369798D01*
X78874366Y-111238695D01*
X78874363Y-111238691D01*
X78762869Y-111127197D01*
X78762865Y-111127194D01*
X78631762Y-111039593D01*
X78631749Y-111039586D01*
X78486078Y-110979248D01*
X78486066Y-110979245D01*
X78331422Y-110948484D01*
X78331419Y-110948484D01*
X78173735Y-110948484D01*
X78173732Y-110948484D01*
X78019087Y-110979245D01*
X78019075Y-110979248D01*
X77873404Y-111039586D01*
X77873391Y-111039593D01*
X77742288Y-111127194D01*
X77742284Y-111127197D01*
X77630790Y-111238691D01*
X77630787Y-111238695D01*
X77543186Y-111369798D01*
X77543179Y-111369811D01*
X77482841Y-111515482D01*
X77482838Y-111515494D01*
X77452077Y-111670137D01*
X68954955Y-111670137D01*
X70081982Y-110543110D01*
X87707543Y-110543110D01*
X87707543Y-110700803D01*
X87738304Y-110855446D01*
X87738307Y-110855458D01*
X87798645Y-111001129D01*
X87798652Y-111001142D01*
X87886253Y-111132245D01*
X87886256Y-111132249D01*
X87997750Y-111243743D01*
X87997754Y-111243746D01*
X88128857Y-111331347D01*
X88128870Y-111331354D01*
X88221715Y-111369811D01*
X88274546Y-111391694D01*
X88429196Y-111422456D01*
X88429199Y-111422457D01*
X88429201Y-111422457D01*
X88586887Y-111422457D01*
X88586888Y-111422456D01*
X88741540Y-111391694D01*
X88887222Y-111331351D01*
X89018332Y-111243746D01*
X89129832Y-111132246D01*
X89217437Y-111001136D01*
X89226505Y-110979245D01*
X89277778Y-110855458D01*
X89277780Y-110855454D01*
X89308543Y-110700799D01*
X89308543Y-110543115D01*
X89308543Y-110543112D01*
X89308542Y-110543110D01*
X89277780Y-110388460D01*
X89268182Y-110365288D01*
X89217440Y-110242784D01*
X89217433Y-110242771D01*
X89129832Y-110111668D01*
X89129829Y-110111664D01*
X89018335Y-110000170D01*
X89018331Y-110000167D01*
X88887228Y-109912566D01*
X88887215Y-109912559D01*
X88741544Y-109852221D01*
X88741532Y-109852218D01*
X88586888Y-109821457D01*
X88586885Y-109821457D01*
X88429201Y-109821457D01*
X88429198Y-109821457D01*
X88274553Y-109852218D01*
X88274541Y-109852221D01*
X88128870Y-109912559D01*
X88128857Y-109912566D01*
X87997754Y-110000167D01*
X87997750Y-110000170D01*
X87886256Y-110111664D01*
X87886253Y-110111668D01*
X87798652Y-110242771D01*
X87798645Y-110242784D01*
X87738307Y-110388455D01*
X87738304Y-110388467D01*
X87707543Y-110543110D01*
X70081982Y-110543110D01*
X70175750Y-110449342D01*
X71263612Y-109361480D01*
X72377211Y-108247880D01*
X72438532Y-108214397D01*
X72508224Y-108219381D01*
X72564157Y-108261253D01*
X72586507Y-108311369D01*
X72593892Y-108348493D01*
X72593894Y-108348500D01*
X72654232Y-108494171D01*
X72654239Y-108494184D01*
X72741840Y-108625287D01*
X72741843Y-108625291D01*
X72853337Y-108736785D01*
X72853341Y-108736788D01*
X72984444Y-108824389D01*
X72984457Y-108824396D01*
X73071860Y-108860598D01*
X73130133Y-108884736D01*
X73197210Y-108898078D01*
X73259118Y-108930460D01*
X73260698Y-108932013D01*
X73690164Y-109361480D01*
X73690167Y-109361483D01*
X73690170Y-109361485D01*
X73737887Y-109393368D01*
X73796713Y-109432674D01*
X73915096Y-109481710D01*
X73915100Y-109481710D01*
X73915101Y-109481711D01*
X74040768Y-109506709D01*
X74040771Y-109506709D01*
X76357862Y-109506709D01*
X76442406Y-109489891D01*
X76483535Y-109481710D01*
X76601918Y-109432674D01*
X76708460Y-109361486D01*
X78833792Y-107236153D01*
X79829500Y-107236153D01*
X79829500Y-107393846D01*
X79860261Y-107548489D01*
X79860264Y-107548501D01*
X79920602Y-107694172D01*
X79920609Y-107694185D01*
X80008210Y-107825288D01*
X80008213Y-107825292D01*
X80119707Y-107936786D01*
X80119711Y-107936789D01*
X80250814Y-108024390D01*
X80250827Y-108024397D01*
X80376612Y-108076498D01*
X80396503Y-108084737D01*
X80551153Y-108115499D01*
X80551156Y-108115500D01*
X80551158Y-108115500D01*
X80708844Y-108115500D01*
X80708845Y-108115499D01*
X80863497Y-108084737D01*
X81009179Y-108024394D01*
X81140289Y-107936789D01*
X81251789Y-107825289D01*
X81339394Y-107694179D01*
X81341867Y-107688210D01*
X81368841Y-107623086D01*
X81399737Y-107548497D01*
X81430500Y-107393842D01*
X81430500Y-107236158D01*
X81430500Y-107236155D01*
X81430499Y-107236153D01*
X81420709Y-107186936D01*
X81399737Y-107081503D01*
X81379309Y-107032184D01*
X81339397Y-106935827D01*
X81339390Y-106935814D01*
X81251789Y-106804711D01*
X81251786Y-106804707D01*
X81140292Y-106693213D01*
X81140288Y-106693210D01*
X81009185Y-106605609D01*
X81009172Y-106605602D01*
X80863501Y-106545264D01*
X80863489Y-106545261D01*
X80708845Y-106514500D01*
X80708842Y-106514500D01*
X80551158Y-106514500D01*
X80551155Y-106514500D01*
X80396510Y-106545261D01*
X80396498Y-106545264D01*
X80250827Y-106605602D01*
X80250814Y-106605609D01*
X80119711Y-106693210D01*
X80119707Y-106693213D01*
X80008213Y-106804707D01*
X80008210Y-106804711D01*
X79920609Y-106935814D01*
X79920602Y-106935827D01*
X79860264Y-107081498D01*
X79860261Y-107081510D01*
X79829500Y-107236153D01*
X78833792Y-107236153D01*
X81104948Y-104964997D01*
X83723500Y-104964997D01*
X83723500Y-105122690D01*
X83754261Y-105277333D01*
X83754264Y-105277345D01*
X83814602Y-105423016D01*
X83814609Y-105423029D01*
X83902210Y-105554132D01*
X83902213Y-105554136D01*
X84013707Y-105665630D01*
X84013711Y-105665633D01*
X84144814Y-105753234D01*
X84144827Y-105753241D01*
X84271237Y-105805601D01*
X84290503Y-105813581D01*
X84445153Y-105844343D01*
X84445156Y-105844344D01*
X84445158Y-105844344D01*
X84602844Y-105844344D01*
X84602845Y-105844343D01*
X84757497Y-105813581D01*
X84903179Y-105753238D01*
X85034289Y-105665633D01*
X85145789Y-105554133D01*
X85233394Y-105423023D01*
X85293737Y-105277341D01*
X85324500Y-105122686D01*
X85324500Y-104965002D01*
X85324500Y-104964999D01*
X85324499Y-104964997D01*
X85308339Y-104883757D01*
X85293737Y-104810347D01*
X85277650Y-104771510D01*
X85233397Y-104664671D01*
X85233390Y-104664658D01*
X85145789Y-104533555D01*
X85145786Y-104533551D01*
X85034292Y-104422057D01*
X85034288Y-104422054D01*
X84903185Y-104334453D01*
X84903172Y-104334446D01*
X84757501Y-104274108D01*
X84757489Y-104274105D01*
X84602845Y-104243344D01*
X84602842Y-104243344D01*
X84445158Y-104243344D01*
X84445155Y-104243344D01*
X84290510Y-104274105D01*
X84290498Y-104274108D01*
X84144827Y-104334446D01*
X84144814Y-104334453D01*
X84013711Y-104422054D01*
X84013707Y-104422057D01*
X83902213Y-104533551D01*
X83902210Y-104533555D01*
X83814609Y-104664658D01*
X83814602Y-104664671D01*
X83754264Y-104810342D01*
X83754261Y-104810354D01*
X83723500Y-104964997D01*
X81104948Y-104964997D01*
X84668627Y-101401317D01*
X84729948Y-101367834D01*
X84756306Y-101365000D01*
X85641988Y-101365000D01*
X85609075Y-101422007D01*
X85575000Y-101549174D01*
X85575000Y-101680826D01*
X85609075Y-101807993D01*
X85641988Y-101865000D01*
X84747769Y-101865000D01*
X84758242Y-101931126D01*
X84758242Y-101931129D01*
X84823904Y-102133217D01*
X84920379Y-102322557D01*
X85045272Y-102494459D01*
X85045276Y-102494464D01*
X85195535Y-102644723D01*
X85195540Y-102644727D01*
X85367442Y-102769620D01*
X85556782Y-102866095D01*
X85758871Y-102931757D01*
X85825000Y-102942231D01*
X85825000Y-102048012D01*
X85882007Y-102080925D01*
X86009174Y-102115000D01*
X86140826Y-102115000D01*
X86267993Y-102080925D01*
X86325000Y-102048012D01*
X86325000Y-102942230D01*
X86391126Y-102931757D01*
X86391129Y-102931757D01*
X86593217Y-102866095D01*
X86782557Y-102769620D01*
X86954459Y-102644727D01*
X86954464Y-102644723D01*
X87104723Y-102494464D01*
X87104727Y-102494459D01*
X87229620Y-102322557D01*
X87326095Y-102133217D01*
X87391757Y-101931129D01*
X87391757Y-101931126D01*
X87402231Y-101865000D01*
X86508012Y-101865000D01*
X86540925Y-101807993D01*
X86575000Y-101680826D01*
X86575000Y-101549174D01*
X86540925Y-101422007D01*
X86508012Y-101365000D01*
X87402231Y-101365000D01*
X87391757Y-101298873D01*
X87391757Y-101298870D01*
X87326095Y-101096782D01*
X87229620Y-100907442D01*
X87104727Y-100735540D01*
X87104723Y-100735535D01*
X86954464Y-100585276D01*
X86954459Y-100585272D01*
X86782555Y-100460377D01*
X86773500Y-100455763D01*
X86722706Y-100407788D01*
X86705912Y-100339966D01*
X86728451Y-100273832D01*
X86773508Y-100234793D01*
X86782816Y-100230051D01*
X86878837Y-100160288D01*
X86954786Y-100105109D01*
X86954788Y-100105106D01*
X86954792Y-100105104D01*
X87105104Y-99954792D01*
X87105106Y-99954788D01*
X87105109Y-99954786D01*
X87230048Y-99782820D01*
X87230047Y-99782820D01*
X87230051Y-99782816D01*
X87326557Y-99593412D01*
X87392246Y-99391243D01*
X87425500Y-99181287D01*
X87425500Y-98968713D01*
X87420051Y-98934312D01*
X87429005Y-98865020D01*
X87454840Y-98827236D01*
X88922788Y-97359290D01*
X88922789Y-97359289D01*
X89010394Y-97228179D01*
X89060966Y-97106086D01*
X89070737Y-97082498D01*
X89101500Y-96927843D01*
X89101500Y-96770158D01*
X89101500Y-81931158D01*
X89092027Y-81883535D01*
X89070738Y-81776503D01*
X89010394Y-81630821D01*
X89010392Y-81630818D01*
X89010390Y-81630814D01*
X88922789Y-81499711D01*
X88922786Y-81499707D01*
X88251292Y-80828213D01*
X88251288Y-80828210D01*
X88120185Y-80740609D01*
X88120172Y-80740602D01*
X87974501Y-80680264D01*
X87974489Y-80680261D01*
X87819845Y-80649500D01*
X87819842Y-80649500D01*
X87597940Y-80649500D01*
X87530901Y-80629815D01*
X87510259Y-80613181D01*
X86752819Y-79855741D01*
X86719334Y-79794418D01*
X86716500Y-79768060D01*
X86716500Y-76895658D01*
X86736185Y-76828619D01*
X86788989Y-76782864D01*
X86858147Y-76772920D01*
X86921703Y-76801945D01*
X86943602Y-76826767D01*
X86974896Y-76873603D01*
X87086393Y-76985100D01*
X87086397Y-76985103D01*
X87217500Y-77072704D01*
X87217513Y-77072711D01*
X87363184Y-77133049D01*
X87363189Y-77133051D01*
X87517839Y-77163813D01*
X87517842Y-77163814D01*
X87517844Y-77163814D01*
X87675530Y-77163814D01*
X87675531Y-77163813D01*
X87830183Y-77133051D01*
X87975865Y-77072708D01*
X88106975Y-76985103D01*
X88218475Y-76873603D01*
X88306080Y-76742493D01*
X88366423Y-76596811D01*
X88397186Y-76442156D01*
X88397186Y-76284472D01*
X88397186Y-76284469D01*
X88397185Y-76284467D01*
X88366424Y-76129824D01*
X88366423Y-76129817D01*
X88366421Y-76129812D01*
X88306083Y-75984141D01*
X88306076Y-75984128D01*
X88218475Y-75853025D01*
X88218472Y-75853021D01*
X88106978Y-75741527D01*
X88106974Y-75741524D01*
X87975871Y-75653923D01*
X87975858Y-75653916D01*
X87830187Y-75593578D01*
X87830175Y-75593575D01*
X87675531Y-75562814D01*
X87675528Y-75562814D01*
X87598625Y-75562814D01*
X87531586Y-75543129D01*
X87485831Y-75490325D01*
X87475887Y-75421167D01*
X87504912Y-75357611D01*
X87510944Y-75351133D01*
X87744634Y-75117443D01*
X89530790Y-75117443D01*
X89530790Y-75275136D01*
X89561551Y-75429779D01*
X89561554Y-75429791D01*
X89621892Y-75575462D01*
X89621899Y-75575475D01*
X89709500Y-75706578D01*
X89709503Y-75706582D01*
X89820997Y-75818076D01*
X89821001Y-75818079D01*
X89952104Y-75905680D01*
X89952117Y-75905687D01*
X90073489Y-75955960D01*
X90097793Y-75966027D01*
X90188858Y-75984141D01*
X90252443Y-75996789D01*
X90252446Y-75996790D01*
X90252448Y-75996790D01*
X90410134Y-75996790D01*
X90410135Y-75996789D01*
X90564787Y-75966027D01*
X90710469Y-75905684D01*
X90841579Y-75818079D01*
X90953079Y-75706579D01*
X91040684Y-75575469D01*
X91101027Y-75429787D01*
X91131790Y-75275132D01*
X91131790Y-75117448D01*
X91131790Y-75117445D01*
X91131789Y-75117443D01*
X91124913Y-75082874D01*
X91101027Y-74962793D01*
X91101025Y-74962788D01*
X91040687Y-74817117D01*
X91040680Y-74817104D01*
X90953079Y-74686001D01*
X90953076Y-74685997D01*
X90841582Y-74574503D01*
X90841578Y-74574500D01*
X90710475Y-74486899D01*
X90710462Y-74486892D01*
X90564791Y-74426554D01*
X90564779Y-74426551D01*
X90410135Y-74395790D01*
X90410132Y-74395790D01*
X90252448Y-74395790D01*
X90252445Y-74395790D01*
X90097800Y-74426551D01*
X90097788Y-74426554D01*
X89952117Y-74486892D01*
X89952104Y-74486899D01*
X89821001Y-74574500D01*
X89820997Y-74574503D01*
X89709503Y-74685997D01*
X89709500Y-74686001D01*
X89621899Y-74817104D01*
X89621892Y-74817117D01*
X89561554Y-74962788D01*
X89561551Y-74962800D01*
X89530790Y-75117443D01*
X87744634Y-75117443D01*
X87838402Y-75023675D01*
X88466288Y-74395790D01*
X89726789Y-73135289D01*
X89814394Y-73004179D01*
X89874737Y-72858497D01*
X89905500Y-72703842D01*
X89905500Y-72546158D01*
X89905500Y-72546155D01*
X89905499Y-72546153D01*
X89874738Y-72391510D01*
X89874737Y-72391503D01*
X89874735Y-72391498D01*
X89814397Y-72245827D01*
X89814390Y-72245814D01*
X89726789Y-72114711D01*
X89726786Y-72114707D01*
X89615292Y-72003213D01*
X89615288Y-72003210D01*
X89484185Y-71915609D01*
X89484172Y-71915602D01*
X89338501Y-71855264D01*
X89338491Y-71855261D01*
X89216697Y-71831034D01*
X89207692Y-71826324D01*
X89197555Y-71825599D01*
X89177255Y-71810402D01*
X89154786Y-71798649D01*
X89149756Y-71789816D01*
X89141622Y-71783727D01*
X89132761Y-71759971D01*
X89120212Y-71737933D01*
X89120756Y-71727784D01*
X89117205Y-71718263D01*
X89122595Y-71693484D01*
X89123953Y-71668163D01*
X89130292Y-71658102D01*
X89132057Y-71649990D01*
X89153205Y-71621739D01*
X89237931Y-71537013D01*
X89299252Y-71503530D01*
X89301317Y-71503099D01*
X89368497Y-71489737D01*
X89514179Y-71429394D01*
X89645289Y-71341789D01*
X89756789Y-71230289D01*
X89844394Y-71099179D01*
X89904737Y-70953497D01*
X89935500Y-70798842D01*
X89935500Y-70641158D01*
X89935500Y-70641155D01*
X89935499Y-70641153D01*
X89904738Y-70486510D01*
X89904738Y-70486508D01*
X89904737Y-70486503D01*
X89904735Y-70486498D01*
X89844397Y-70340827D01*
X89844390Y-70340814D01*
X89756789Y-70209711D01*
X89756786Y-70209707D01*
X89645292Y-70098213D01*
X89645288Y-70098210D01*
X89514185Y-70010609D01*
X89514172Y-70010602D01*
X89368501Y-69950264D01*
X89368489Y-69950261D01*
X89213845Y-69919500D01*
X89213842Y-69919500D01*
X89056158Y-69919500D01*
X89056155Y-69919500D01*
X88901510Y-69950261D01*
X88901498Y-69950264D01*
X88755827Y-70010602D01*
X88755814Y-70010609D01*
X88624711Y-70098210D01*
X88624707Y-70098213D01*
X88513213Y-70209707D01*
X88513210Y-70209711D01*
X88425609Y-70340814D01*
X88425602Y-70340827D01*
X88365264Y-70486498D01*
X88365261Y-70486508D01*
X88351920Y-70553579D01*
X88319535Y-70615490D01*
X88317984Y-70617068D01*
X83958724Y-74976328D01*
X83933887Y-75013499D01*
X83933888Y-75013500D01*
X83887534Y-75082874D01*
X83838499Y-75201255D01*
X83838497Y-75201261D01*
X83813500Y-75326928D01*
X83813500Y-90242468D01*
X83793815Y-90309507D01*
X83741011Y-90355262D01*
X83671853Y-90365206D01*
X83665309Y-90364086D01*
X83597671Y-90350632D01*
X83566842Y-90344500D01*
X83409158Y-90344500D01*
X83409155Y-90344500D01*
X83254510Y-90375261D01*
X83254498Y-90375264D01*
X83110136Y-90435061D01*
X83062684Y-90444500D01*
X77713316Y-90444500D01*
X77665864Y-90435061D01*
X77521501Y-90375264D01*
X77521489Y-90375261D01*
X77366845Y-90344500D01*
X77366842Y-90344500D01*
X77209158Y-90344500D01*
X77209155Y-90344500D01*
X77054510Y-90375261D01*
X77054498Y-90375264D01*
X76908827Y-90435602D01*
X76908814Y-90435609D01*
X76777711Y-90523210D01*
X76777707Y-90523213D01*
X76666213Y-90634707D01*
X76666210Y-90634711D01*
X76578609Y-90765814D01*
X76578602Y-90765827D01*
X76518264Y-90911498D01*
X76518261Y-90911510D01*
X76487500Y-91066153D01*
X76487500Y-91223846D01*
X76518261Y-91378489D01*
X76518264Y-91378501D01*
X76578602Y-91524172D01*
X76578609Y-91524185D01*
X76666210Y-91655288D01*
X76666213Y-91655292D01*
X76777707Y-91766786D01*
X76777711Y-91766789D01*
X76908814Y-91854390D01*
X76908827Y-91854397D01*
X77054498Y-91914735D01*
X77054503Y-91914737D01*
X77193820Y-91942449D01*
X77209153Y-91945499D01*
X77209156Y-91945500D01*
X77209158Y-91945500D01*
X77366844Y-91945500D01*
X77366845Y-91945499D01*
X77521497Y-91914737D01*
X77613501Y-91876628D01*
X77665864Y-91854939D01*
X77713316Y-91845500D01*
X83062684Y-91845500D01*
X83110136Y-91854939D01*
X83254498Y-91914735D01*
X83254503Y-91914737D01*
X83393820Y-91942449D01*
X83409153Y-91945499D01*
X83409156Y-91945500D01*
X83409158Y-91945500D01*
X83566844Y-91945500D01*
X83665308Y-91925914D01*
X83734900Y-91932141D01*
X83790077Y-91975004D01*
X83813322Y-92040894D01*
X83813500Y-92047531D01*
X83813500Y-94988069D01*
X83813500Y-94988071D01*
X83813499Y-94988071D01*
X83838497Y-95113738D01*
X83838499Y-95113744D01*
X83875282Y-95202547D01*
X83887535Y-95232127D01*
X83951929Y-95328501D01*
X83958726Y-95338673D01*
X83958727Y-95338674D01*
X84724342Y-96104288D01*
X84757827Y-96165611D01*
X84757319Y-96213755D01*
X84758516Y-96213945D01*
X84745474Y-96296287D01*
X84724500Y-96428713D01*
X84724500Y-96641287D01*
X84732842Y-96693955D01*
X84758516Y-96856055D01*
X84756877Y-96856314D01*
X84753738Y-96918883D01*
X84724342Y-96965710D01*
X80584340Y-101105712D01*
X80523017Y-101139197D01*
X80453325Y-101134213D01*
X80397392Y-101092341D01*
X80372975Y-101026877D01*
X80382097Y-100970580D01*
X80434737Y-100843497D01*
X80465500Y-100688842D01*
X80465500Y-100531158D01*
X80465500Y-100531155D01*
X80465499Y-100531153D01*
X80434738Y-100376510D01*
X80434737Y-100376503D01*
X80392210Y-100273832D01*
X80374397Y-100230827D01*
X80374390Y-100230814D01*
X80286789Y-100099711D01*
X80286786Y-100099707D01*
X80175292Y-99988213D01*
X80175288Y-99988210D01*
X80044185Y-99900609D01*
X80044172Y-99900602D01*
X79898501Y-99840264D01*
X79898489Y-99840261D01*
X79743845Y-99809500D01*
X79743842Y-99809500D01*
X79586158Y-99809500D01*
X79586155Y-99809500D01*
X79431510Y-99840261D01*
X79431498Y-99840264D01*
X79285827Y-99900602D01*
X79285814Y-99900609D01*
X79154711Y-99988210D01*
X79154707Y-99988213D01*
X79043213Y-100099707D01*
X79043210Y-100099711D01*
X78955609Y-100230814D01*
X78955602Y-100230827D01*
X78895264Y-100376498D01*
X78895261Y-100376510D01*
X78864500Y-100531153D01*
X78864500Y-100688846D01*
X78895261Y-100843489D01*
X78895264Y-100843501D01*
X78955602Y-100989172D01*
X78955609Y-100989185D01*
X79043210Y-101120288D01*
X79043213Y-101120292D01*
X79154707Y-101231786D01*
X79154711Y-101231789D01*
X79285814Y-101319390D01*
X79285827Y-101319397D01*
X79423171Y-101376286D01*
X79431503Y-101379737D01*
X79586153Y-101410499D01*
X79586156Y-101410500D01*
X79586158Y-101410500D01*
X79743844Y-101410500D01*
X79743845Y-101410499D01*
X79898497Y-101379737D01*
X80025580Y-101327097D01*
X80095047Y-101319629D01*
X80157527Y-101350904D01*
X80193179Y-101410993D01*
X80190685Y-101480818D01*
X80160712Y-101529340D01*
X76699899Y-104990153D01*
X76638576Y-105023638D01*
X76568884Y-105018654D01*
X76512951Y-104976782D01*
X76490601Y-104926663D01*
X76467465Y-104810354D01*
X76459737Y-104771503D01*
X76425754Y-104689459D01*
X76399397Y-104625827D01*
X76399390Y-104625814D01*
X76311789Y-104494711D01*
X76311786Y-104494707D01*
X76200292Y-104383213D01*
X76200288Y-104383210D01*
X76069185Y-104295609D01*
X76069172Y-104295602D01*
X75923501Y-104235264D01*
X75923489Y-104235261D01*
X75768845Y-104204500D01*
X75768842Y-104204500D01*
X75611158Y-104204500D01*
X75611155Y-104204500D01*
X75456510Y-104235261D01*
X75456498Y-104235264D01*
X75310827Y-104295602D01*
X75310814Y-104295609D01*
X75179711Y-104383210D01*
X75179707Y-104383213D01*
X75142681Y-104420240D01*
X75081358Y-104453725D01*
X75011666Y-104448741D01*
X74967319Y-104420240D01*
X74930292Y-104383213D01*
X74930288Y-104383210D01*
X74799185Y-104295609D01*
X74799172Y-104295602D01*
X74653501Y-104235264D01*
X74653489Y-104235261D01*
X74498845Y-104204500D01*
X74498842Y-104204500D01*
X74341158Y-104204500D01*
X74341155Y-104204500D01*
X74186510Y-104235261D01*
X74186498Y-104235264D01*
X74036953Y-104297207D01*
X73967483Y-104304676D01*
X73905004Y-104273400D01*
X73869353Y-104213311D01*
X73865501Y-104182646D01*
X73865501Y-102766156D01*
X73865500Y-102766154D01*
X73843465Y-102655377D01*
X73834738Y-102611504D01*
X73814735Y-102563211D01*
X73774398Y-102465828D01*
X73774391Y-102465815D01*
X73686790Y-102334712D01*
X73686787Y-102334708D01*
X73575293Y-102223214D01*
X73575289Y-102223211D01*
X73444186Y-102135610D01*
X73444173Y-102135603D01*
X73298502Y-102075265D01*
X73298490Y-102075262D01*
X73143846Y-102044501D01*
X73143843Y-102044501D01*
X72986159Y-102044501D01*
X72986156Y-102044501D01*
X72831511Y-102075262D01*
X72831499Y-102075265D01*
X72685828Y-102135603D01*
X72685815Y-102135610D01*
X72554712Y-102223211D01*
X72554708Y-102223214D01*
X72443214Y-102334708D01*
X72443211Y-102334712D01*
X72355610Y-102465815D01*
X72355603Y-102465828D01*
X72295265Y-102611499D01*
X72295262Y-102611511D01*
X72264501Y-102766154D01*
X72264501Y-106045073D01*
X72244816Y-106112112D01*
X72228182Y-106132754D01*
X71385681Y-106975255D01*
X71324358Y-107008740D01*
X71254666Y-107003756D01*
X71198733Y-106961884D01*
X71174316Y-106896420D01*
X71174000Y-106887574D01*
X71174000Y-99469500D01*
X71176550Y-99460814D01*
X71175262Y-99451853D01*
X71186240Y-99427812D01*
X71193685Y-99402461D01*
X71200525Y-99396533D01*
X71204287Y-99388297D01*
X71226521Y-99374007D01*
X71246489Y-99356706D01*
X71257003Y-99354418D01*
X71263065Y-99350523D01*
X71298000Y-99345500D01*
X71299645Y-99345500D01*
X71366684Y-99365185D01*
X71412439Y-99417989D01*
X71421262Y-99445309D01*
X71432232Y-99500461D01*
X71432235Y-99500472D01*
X71492573Y-99646143D01*
X71492580Y-99646156D01*
X71580181Y-99777259D01*
X71580184Y-99777263D01*
X71691678Y-99888757D01*
X71691682Y-99888760D01*
X71822785Y-99976361D01*
X71822798Y-99976368D01*
X71968469Y-100036706D01*
X71968474Y-100036708D01*
X72098199Y-100062512D01*
X72123124Y-100067470D01*
X72123127Y-100067471D01*
X72123129Y-100067471D01*
X72280815Y-100067471D01*
X72280816Y-100067470D01*
X72435468Y-100036708D01*
X72581150Y-99976365D01*
X72712260Y-99888760D01*
X72823760Y-99777260D01*
X72911365Y-99646150D01*
X72942428Y-99571158D01*
X72942430Y-99571153D01*
X74594500Y-99571153D01*
X74594500Y-99728846D01*
X74625261Y-99883489D01*
X74625264Y-99883501D01*
X74685602Y-100029172D01*
X74685609Y-100029185D01*
X74773210Y-100160288D01*
X74773213Y-100160292D01*
X74884707Y-100271786D01*
X74884711Y-100271789D01*
X75015814Y-100359390D01*
X75015827Y-100359397D01*
X75090225Y-100390213D01*
X75161503Y-100419737D01*
X75316153Y-100450499D01*
X75316156Y-100450500D01*
X75316158Y-100450500D01*
X75473844Y-100450500D01*
X75473845Y-100450499D01*
X75628497Y-100419737D01*
X75774179Y-100359394D01*
X75905289Y-100271789D01*
X76016789Y-100160289D01*
X76104394Y-100029179D01*
X76164737Y-99883497D01*
X76195500Y-99728842D01*
X76195500Y-99571158D01*
X76195500Y-99571155D01*
X76195499Y-99571153D01*
X76182481Y-99505710D01*
X76164737Y-99416503D01*
X76154274Y-99391243D01*
X76104397Y-99270827D01*
X76104390Y-99270814D01*
X76016789Y-99139711D01*
X76016786Y-99139707D01*
X75905292Y-99028213D01*
X75905288Y-99028210D01*
X75774185Y-98940609D01*
X75774172Y-98940602D01*
X75628501Y-98880264D01*
X75628489Y-98880261D01*
X75473845Y-98849500D01*
X75473842Y-98849500D01*
X75316158Y-98849500D01*
X75316155Y-98849500D01*
X75161510Y-98880261D01*
X75161498Y-98880264D01*
X75015827Y-98940602D01*
X75015814Y-98940609D01*
X74884711Y-99028210D01*
X74884707Y-99028213D01*
X74773213Y-99139707D01*
X74773210Y-99139711D01*
X74685609Y-99270814D01*
X74685602Y-99270827D01*
X74625264Y-99416498D01*
X74625261Y-99416510D01*
X74594500Y-99571153D01*
X72942430Y-99571153D01*
X72964606Y-99517614D01*
X72964606Y-99517613D01*
X72971708Y-99500468D01*
X73002471Y-99345813D01*
X73002471Y-99188129D01*
X73002471Y-99188126D01*
X73002470Y-99188124D01*
X73001110Y-99181286D01*
X72971708Y-99033474D01*
X72967131Y-99022425D01*
X72911368Y-98887798D01*
X72911361Y-98887785D01*
X72823760Y-98756682D01*
X72823757Y-98756678D01*
X72712263Y-98645184D01*
X72712259Y-98645181D01*
X72581156Y-98557580D01*
X72581143Y-98557573D01*
X72435472Y-98497235D01*
X72435460Y-98497232D01*
X72280816Y-98466471D01*
X72280813Y-98466471D01*
X72132326Y-98466471D01*
X72065287Y-98446786D01*
X72019532Y-98393982D01*
X72010709Y-98366662D01*
X71999738Y-98311509D01*
X71999737Y-98311503D01*
X71989926Y-98287816D01*
X71939397Y-98165827D01*
X71939390Y-98165814D01*
X71851789Y-98034711D01*
X71851786Y-98034707D01*
X71740292Y-97923213D01*
X71740288Y-97923210D01*
X71609185Y-97835609D01*
X71609172Y-97835602D01*
X71463501Y-97775264D01*
X71463489Y-97775261D01*
X71308845Y-97744500D01*
X71308842Y-97744500D01*
X71298000Y-97744500D01*
X71230961Y-97724815D01*
X71185206Y-97672011D01*
X71174000Y-97620500D01*
X71174000Y-96926153D01*
X75774500Y-96926153D01*
X75774500Y-97083846D01*
X75805261Y-97238489D01*
X75805264Y-97238501D01*
X75865602Y-97384172D01*
X75865609Y-97384185D01*
X75953210Y-97515288D01*
X75953213Y-97515292D01*
X76064707Y-97626786D01*
X76064711Y-97626789D01*
X76195814Y-97714390D01*
X76195827Y-97714397D01*
X76341498Y-97774735D01*
X76341503Y-97774737D01*
X76496153Y-97805499D01*
X76496156Y-97805500D01*
X76496158Y-97805500D01*
X76653844Y-97805500D01*
X76653845Y-97805499D01*
X76808497Y-97774737D01*
X76954179Y-97714394D01*
X77085289Y-97626789D01*
X77196789Y-97515289D01*
X77284394Y-97384179D01*
X77344737Y-97238497D01*
X77375500Y-97083842D01*
X77375500Y-96926158D01*
X77375500Y-96926155D01*
X77375499Y-96926153D01*
X77372856Y-96912864D01*
X77344737Y-96771503D01*
X77324638Y-96722980D01*
X77284397Y-96625827D01*
X77284390Y-96625814D01*
X77196789Y-96494711D01*
X77196786Y-96494707D01*
X77085292Y-96383213D01*
X77085288Y-96383210D01*
X76954185Y-96295609D01*
X76954172Y-96295602D01*
X76808501Y-96235264D01*
X76808489Y-96235261D01*
X76653845Y-96204500D01*
X76653842Y-96204500D01*
X76496158Y-96204500D01*
X76496155Y-96204500D01*
X76341510Y-96235261D01*
X76341498Y-96235264D01*
X76195827Y-96295602D01*
X76195814Y-96295609D01*
X76064711Y-96383210D01*
X76064707Y-96383213D01*
X75953213Y-96494707D01*
X75953210Y-96494711D01*
X75865609Y-96625814D01*
X75865602Y-96625827D01*
X75805264Y-96771498D01*
X75805261Y-96771510D01*
X75774500Y-96926153D01*
X71174000Y-96926153D01*
X71174000Y-96124369D01*
X71173999Y-96124367D01*
X71163206Y-96070109D01*
X71143237Y-95969717D01*
X71130199Y-95938240D01*
X71082897Y-95824041D01*
X71082890Y-95824028D01*
X70995290Y-95692926D01*
X70957572Y-95655208D01*
X70883789Y-95581425D01*
X70839545Y-95537181D01*
X70806060Y-95475858D01*
X70811044Y-95406166D01*
X70852916Y-95350233D01*
X70918380Y-95325816D01*
X70927226Y-95325500D01*
X70958844Y-95325500D01*
X70958845Y-95325499D01*
X71113497Y-95294737D01*
X71259179Y-95234394D01*
X71390289Y-95146789D01*
X71501789Y-95035289D01*
X71589394Y-94904179D01*
X71649737Y-94758497D01*
X71680500Y-94603842D01*
X71680500Y-94446158D01*
X71680500Y-94446155D01*
X71680499Y-94446153D01*
X71668455Y-94385606D01*
X71649737Y-94291503D01*
X71600667Y-94173036D01*
X71589397Y-94145827D01*
X71589390Y-94145814D01*
X71501789Y-94014711D01*
X71501786Y-94014707D01*
X71390292Y-93903213D01*
X71390288Y-93903210D01*
X71259185Y-93815609D01*
X71259172Y-93815602D01*
X71113501Y-93755264D01*
X71113489Y-93755261D01*
X70958845Y-93724500D01*
X70958842Y-93724500D01*
X70801158Y-93724500D01*
X70801155Y-93724500D01*
X70646510Y-93755261D01*
X70646498Y-93755264D01*
X70500827Y-93815602D01*
X70500814Y-93815609D01*
X70369711Y-93903210D01*
X70369707Y-93903213D01*
X70258213Y-94014707D01*
X70258210Y-94014711D01*
X70170609Y-94145814D01*
X70170602Y-94145827D01*
X70110264Y-94291498D01*
X70110261Y-94291510D01*
X70079500Y-94446153D01*
X70079500Y-94477774D01*
X70059815Y-94544813D01*
X70007011Y-94590568D01*
X69937853Y-94600512D01*
X69874297Y-94571487D01*
X69867819Y-94565455D01*
X68135198Y-92832834D01*
X68101713Y-92771511D01*
X68106697Y-92701819D01*
X68119775Y-92676265D01*
X68195223Y-92563350D01*
X68255566Y-92417668D01*
X68286329Y-92263013D01*
X68286329Y-92105329D01*
X68286329Y-92105326D01*
X68286328Y-92105324D01*
X68261715Y-91981588D01*
X68255566Y-91950674D01*
X68253423Y-91945500D01*
X68195226Y-91804998D01*
X68195219Y-91804985D01*
X68107618Y-91673882D01*
X68107615Y-91673878D01*
X67996121Y-91562384D01*
X67996117Y-91562381D01*
X67865014Y-91474780D01*
X67865001Y-91474773D01*
X67719330Y-91414435D01*
X67719318Y-91414432D01*
X67564674Y-91383671D01*
X67564671Y-91383671D01*
X67406987Y-91383671D01*
X67406984Y-91383671D01*
X67252339Y-91414432D01*
X67252327Y-91414435D01*
X67106656Y-91474773D01*
X67106638Y-91474783D01*
X66993736Y-91550222D01*
X66927059Y-91571100D01*
X66859679Y-91552615D01*
X66837165Y-91534801D01*
X64396819Y-89094455D01*
X64363334Y-89033132D01*
X64360500Y-89006774D01*
X64360500Y-87286153D01*
X68173500Y-87286153D01*
X68173500Y-87443846D01*
X68204261Y-87598489D01*
X68204264Y-87598501D01*
X68264602Y-87744172D01*
X68264609Y-87744185D01*
X68352210Y-87875288D01*
X68352213Y-87875292D01*
X68463707Y-87986786D01*
X68463711Y-87986789D01*
X68594814Y-88074390D01*
X68594827Y-88074397D01*
X68739187Y-88134192D01*
X68740503Y-88134737D01*
X68872897Y-88161072D01*
X68895153Y-88165499D01*
X68895156Y-88165500D01*
X68895158Y-88165500D01*
X69052844Y-88165500D01*
X69052845Y-88165499D01*
X69207497Y-88134737D01*
X69321642Y-88087457D01*
X69351864Y-88074939D01*
X69399316Y-88065500D01*
X73255264Y-88065500D01*
X73322303Y-88085185D01*
X73368058Y-88137989D01*
X73378002Y-88207147D01*
X73369825Y-88236952D01*
X73331421Y-88329667D01*
X73331418Y-88329677D01*
X73304500Y-88465004D01*
X73304500Y-94755980D01*
X73284815Y-94823019D01*
X73268181Y-94843661D01*
X72852913Y-95258928D01*
X72812685Y-95285808D01*
X72668324Y-95345604D01*
X72668314Y-95345609D01*
X72537211Y-95433210D01*
X72537207Y-95433213D01*
X72425713Y-95544707D01*
X72425710Y-95544711D01*
X72338109Y-95675814D01*
X72338102Y-95675827D01*
X72277764Y-95821498D01*
X72277761Y-95821510D01*
X72247000Y-95976153D01*
X72247000Y-96133846D01*
X72277761Y-96288489D01*
X72277764Y-96288501D01*
X72338102Y-96434172D01*
X72338109Y-96434185D01*
X72425710Y-96565288D01*
X72425713Y-96565292D01*
X72537207Y-96676786D01*
X72537211Y-96676789D01*
X72668314Y-96764390D01*
X72668327Y-96764397D01*
X72767570Y-96805504D01*
X72814003Y-96824737D01*
X72947257Y-96851243D01*
X72968653Y-96855499D01*
X72968656Y-96855500D01*
X72968658Y-96855500D01*
X73126344Y-96855500D01*
X73126345Y-96855499D01*
X73280997Y-96824737D01*
X73426679Y-96764394D01*
X73557789Y-96676789D01*
X73669289Y-96565289D01*
X73756894Y-96434179D01*
X73816693Y-96289808D01*
X73843568Y-96249587D01*
X74549113Y-95544043D01*
X74550697Y-95541673D01*
X74555491Y-95534499D01*
X74625771Y-95429317D01*
X74625771Y-95429316D01*
X74625775Y-95429311D01*
X74666151Y-95331835D01*
X74678580Y-95301829D01*
X74682136Y-95283953D01*
X74687994Y-95254502D01*
X74687994Y-95254500D01*
X74705500Y-95166493D01*
X74705500Y-95016153D01*
X75739500Y-95016153D01*
X75739500Y-95173846D01*
X75770261Y-95328489D01*
X75770264Y-95328501D01*
X75830602Y-95474172D01*
X75830609Y-95474185D01*
X75918210Y-95605288D01*
X75918213Y-95605292D01*
X76029707Y-95716786D01*
X76029711Y-95716789D01*
X76160814Y-95804390D01*
X76160827Y-95804397D01*
X76272274Y-95850559D01*
X76306503Y-95864737D01*
X76410825Y-95885488D01*
X76461153Y-95895499D01*
X76461156Y-95895500D01*
X76461158Y-95895500D01*
X76618844Y-95895500D01*
X76618845Y-95895499D01*
X76773497Y-95864737D01*
X76919179Y-95804394D01*
X77050289Y-95716789D01*
X77161789Y-95605289D01*
X77249394Y-95474179D01*
X77309737Y-95328497D01*
X77340500Y-95173842D01*
X77340500Y-95016158D01*
X77340500Y-95016155D01*
X77340499Y-95016153D01*
X77325041Y-94938443D01*
X77309737Y-94861503D01*
X77293797Y-94823019D01*
X77249397Y-94715827D01*
X77249390Y-94715814D01*
X77161789Y-94584711D01*
X77161786Y-94584707D01*
X77050292Y-94473213D01*
X77050288Y-94473210D01*
X76919185Y-94385609D01*
X76919172Y-94385602D01*
X76773501Y-94325264D01*
X76773489Y-94325261D01*
X76618845Y-94294500D01*
X76618842Y-94294500D01*
X76461158Y-94294500D01*
X76461155Y-94294500D01*
X76306510Y-94325261D01*
X76306498Y-94325264D01*
X76160827Y-94385602D01*
X76160814Y-94385609D01*
X76029711Y-94473210D01*
X76029707Y-94473213D01*
X75918213Y-94584707D01*
X75918210Y-94584711D01*
X75830609Y-94715814D01*
X75830602Y-94715827D01*
X75770264Y-94861498D01*
X75770261Y-94861510D01*
X75739500Y-95016153D01*
X74705500Y-95016153D01*
X74705500Y-88875518D01*
X74725185Y-88808479D01*
X74741815Y-88787841D01*
X75368586Y-88161069D01*
X75408810Y-88134192D01*
X75463435Y-88111566D01*
X75553173Y-88074397D01*
X75553176Y-88074395D01*
X75553179Y-88074394D01*
X75684289Y-87986789D01*
X75795789Y-87875289D01*
X75883394Y-87744179D01*
X75943737Y-87598497D01*
X75974500Y-87443842D01*
X75974500Y-87286158D01*
X75974500Y-87286155D01*
X75974499Y-87286153D01*
X75967855Y-87252754D01*
X75943737Y-87131503D01*
X75934950Y-87110288D01*
X75883397Y-86985827D01*
X75883390Y-86985814D01*
X75795789Y-86854711D01*
X75795786Y-86854707D01*
X75684292Y-86743213D01*
X75684288Y-86743210D01*
X75553185Y-86655609D01*
X75553172Y-86655602D01*
X75407501Y-86595264D01*
X75407489Y-86595261D01*
X75252845Y-86564500D01*
X75252842Y-86564500D01*
X75095158Y-86564500D01*
X75095155Y-86564500D01*
X74940510Y-86595261D01*
X74940498Y-86595264D01*
X74796136Y-86655061D01*
X74748684Y-86664500D01*
X69399316Y-86664500D01*
X69351864Y-86655061D01*
X69207501Y-86595264D01*
X69207489Y-86595261D01*
X69052845Y-86564500D01*
X69052842Y-86564500D01*
X68895158Y-86564500D01*
X68895155Y-86564500D01*
X68740510Y-86595261D01*
X68740498Y-86595264D01*
X68594827Y-86655602D01*
X68594814Y-86655609D01*
X68463711Y-86743210D01*
X68463707Y-86743213D01*
X68352213Y-86854707D01*
X68352210Y-86854711D01*
X68264609Y-86985814D01*
X68264602Y-86985827D01*
X68204264Y-87131498D01*
X68204261Y-87131510D01*
X68173500Y-87286153D01*
X64360500Y-87286153D01*
X64360500Y-86321153D01*
X64924500Y-86321153D01*
X64924500Y-86478846D01*
X64955261Y-86633489D01*
X64955264Y-86633501D01*
X65015602Y-86779172D01*
X65015609Y-86779185D01*
X65103210Y-86910288D01*
X65103213Y-86910292D01*
X65214707Y-87021786D01*
X65214711Y-87021789D01*
X65345814Y-87109390D01*
X65345827Y-87109397D01*
X65491498Y-87169735D01*
X65491503Y-87169737D01*
X65646153Y-87200499D01*
X65646156Y-87200500D01*
X65646158Y-87200500D01*
X65803844Y-87200500D01*
X65803845Y-87200499D01*
X65958497Y-87169737D01*
X66104179Y-87109394D01*
X66235289Y-87021789D01*
X66346789Y-86910289D01*
X66434394Y-86779179D01*
X66494737Y-86633497D01*
X66525500Y-86478842D01*
X66525500Y-86321158D01*
X66525500Y-86321155D01*
X66525499Y-86321153D01*
X66513397Y-86260315D01*
X66494737Y-86166503D01*
X66476100Y-86121509D01*
X66434397Y-86020827D01*
X66434390Y-86020814D01*
X66346789Y-85889711D01*
X66346786Y-85889707D01*
X66235292Y-85778213D01*
X66235288Y-85778210D01*
X66104185Y-85690609D01*
X66104172Y-85690602D01*
X65958501Y-85630264D01*
X65958489Y-85630261D01*
X65803845Y-85599500D01*
X65803842Y-85599500D01*
X65646158Y-85599500D01*
X65646155Y-85599500D01*
X65491510Y-85630261D01*
X65491498Y-85630264D01*
X65345827Y-85690602D01*
X65345814Y-85690609D01*
X65214711Y-85778210D01*
X65214707Y-85778213D01*
X65103213Y-85889707D01*
X65103210Y-85889711D01*
X65015609Y-86020814D01*
X65015602Y-86020827D01*
X64955264Y-86166498D01*
X64955261Y-86166510D01*
X64924500Y-86321153D01*
X64360500Y-86321153D01*
X64360500Y-84901153D01*
X81284500Y-84901153D01*
X81284500Y-85058846D01*
X81315261Y-85213489D01*
X81315264Y-85213501D01*
X81375602Y-85359172D01*
X81375609Y-85359185D01*
X81463210Y-85490288D01*
X81463213Y-85490292D01*
X81574707Y-85601786D01*
X81574711Y-85601789D01*
X81705814Y-85689390D01*
X81705827Y-85689397D01*
X81851498Y-85749735D01*
X81851503Y-85749737D01*
X81994661Y-85778213D01*
X82006153Y-85780499D01*
X82006156Y-85780500D01*
X82006158Y-85780500D01*
X82163844Y-85780500D01*
X82163845Y-85780499D01*
X82318497Y-85749737D01*
X82464179Y-85689394D01*
X82595289Y-85601789D01*
X82706789Y-85490289D01*
X82794394Y-85359179D01*
X82854737Y-85213497D01*
X82885500Y-85058842D01*
X82885500Y-84901158D01*
X82885500Y-84901155D01*
X82885499Y-84901153D01*
X82854738Y-84746510D01*
X82854737Y-84746503D01*
X82829842Y-84686401D01*
X82794397Y-84600827D01*
X82794390Y-84600814D01*
X82706789Y-84469711D01*
X82706786Y-84469707D01*
X82595292Y-84358213D01*
X82595288Y-84358210D01*
X82464185Y-84270609D01*
X82464172Y-84270602D01*
X82318501Y-84210264D01*
X82318489Y-84210261D01*
X82163845Y-84179500D01*
X82163842Y-84179500D01*
X82006158Y-84179500D01*
X82006155Y-84179500D01*
X81851510Y-84210261D01*
X81851498Y-84210264D01*
X81705827Y-84270602D01*
X81705814Y-84270609D01*
X81574711Y-84358210D01*
X81574707Y-84358213D01*
X81463213Y-84469707D01*
X81463210Y-84469711D01*
X81375609Y-84600814D01*
X81375602Y-84600827D01*
X81315264Y-84746498D01*
X81315261Y-84746510D01*
X81284500Y-84901153D01*
X64360500Y-84901153D01*
X64360500Y-80321155D01*
X64360499Y-80321153D01*
X64329738Y-80166510D01*
X64329737Y-80166503D01*
X64329735Y-80166498D01*
X64269397Y-80020827D01*
X64269390Y-80020814D01*
X64181789Y-79889711D01*
X64181786Y-79889707D01*
X64070292Y-79778213D01*
X64070288Y-79778210D01*
X63939185Y-79690609D01*
X63939172Y-79690602D01*
X63793501Y-79630264D01*
X63793487Y-79630260D01*
X63777733Y-79627126D01*
X63715823Y-79594739D01*
X63681251Y-79534022D01*
X63684994Y-79464253D01*
X63714246Y-79417831D01*
X64186789Y-78945289D01*
X64274394Y-78814179D01*
X64334737Y-78668497D01*
X64365500Y-78513842D01*
X64365500Y-78356158D01*
X64365500Y-78356155D01*
X64365499Y-78356153D01*
X64334738Y-78201510D01*
X64334737Y-78201503D01*
X64334735Y-78201498D01*
X64274397Y-78055827D01*
X64274390Y-78055814D01*
X64186789Y-77924711D01*
X64186786Y-77924707D01*
X64075292Y-77813213D01*
X64075288Y-77813210D01*
X63944185Y-77725609D01*
X63944172Y-77725602D01*
X63793751Y-77663297D01*
X63739347Y-77619457D01*
X63717282Y-77553162D01*
X63734561Y-77485463D01*
X63753518Y-77461059D01*
X64216789Y-76997789D01*
X64304394Y-76866679D01*
X64364738Y-76720997D01*
X64395500Y-76566342D01*
X64395500Y-76408657D01*
X64364738Y-76254002D01*
X64304394Y-76108321D01*
X64304392Y-76108318D01*
X64304390Y-76108314D01*
X64216789Y-75977209D01*
X64105290Y-75865710D01*
X63974185Y-75778109D01*
X63974175Y-75778104D01*
X63828498Y-75717762D01*
X63828490Y-75717760D01*
X63673847Y-75687000D01*
X63673843Y-75687000D01*
X63516158Y-75687000D01*
X63516153Y-75687000D01*
X63361510Y-75717760D01*
X63361502Y-75717762D01*
X63215824Y-75778104D01*
X63215814Y-75778109D01*
X63084711Y-75865710D01*
X63084707Y-75865713D01*
X61817373Y-77133049D01*
X61438711Y-77511711D01*
X61397260Y-77553162D01*
X61327209Y-77623212D01*
X61239609Y-77754314D01*
X61239602Y-77754327D01*
X61179264Y-77899998D01*
X61179261Y-77900010D01*
X61148500Y-78054653D01*
X57700500Y-78054653D01*
X57700500Y-74176153D01*
X59702000Y-74176153D01*
X59702000Y-74333846D01*
X59732761Y-74488489D01*
X59732764Y-74488501D01*
X59793102Y-74634172D01*
X59793109Y-74634185D01*
X59880710Y-74765288D01*
X59880713Y-74765292D01*
X59992207Y-74876786D01*
X59992211Y-74876789D01*
X60123314Y-74964390D01*
X60123327Y-74964397D01*
X60241874Y-75013500D01*
X60269003Y-75024737D01*
X60423653Y-75055499D01*
X60423656Y-75055500D01*
X60423658Y-75055500D01*
X60581344Y-75055500D01*
X60581345Y-75055499D01*
X60735997Y-75024737D01*
X60881679Y-74964394D01*
X61012789Y-74876789D01*
X61124289Y-74765289D01*
X61211894Y-74634179D01*
X61272237Y-74488497D01*
X61303000Y-74333842D01*
X61303000Y-74176158D01*
X61303000Y-74176155D01*
X61302999Y-74176153D01*
X61272238Y-74021510D01*
X61272237Y-74021503D01*
X61272235Y-74021498D01*
X61211897Y-73875827D01*
X61211890Y-73875814D01*
X61124289Y-73744711D01*
X61124286Y-73744707D01*
X61012792Y-73633213D01*
X61012788Y-73633210D01*
X60881685Y-73545609D01*
X60881672Y-73545602D01*
X60736001Y-73485264D01*
X60735989Y-73485261D01*
X60581345Y-73454500D01*
X60581342Y-73454500D01*
X60423658Y-73454500D01*
X60423655Y-73454500D01*
X60269010Y-73485261D01*
X60268998Y-73485264D01*
X60123327Y-73545602D01*
X60123314Y-73545609D01*
X59992211Y-73633210D01*
X59992207Y-73633213D01*
X59880713Y-73744707D01*
X59880710Y-73744711D01*
X59793109Y-73875814D01*
X59793102Y-73875827D01*
X59732764Y-74021498D01*
X59732761Y-74021510D01*
X59702000Y-74176153D01*
X57700500Y-74176153D01*
X57700500Y-69196153D01*
X64149500Y-69196153D01*
X64149500Y-69353846D01*
X64180261Y-69508489D01*
X64180264Y-69508501D01*
X64240602Y-69654172D01*
X64240609Y-69654185D01*
X64328210Y-69785288D01*
X64328213Y-69785292D01*
X64439707Y-69896786D01*
X64439711Y-69896789D01*
X64570814Y-69984390D01*
X64570827Y-69984397D01*
X64716498Y-70044735D01*
X64716503Y-70044737D01*
X64871153Y-70075499D01*
X64871156Y-70075500D01*
X64871158Y-70075500D01*
X65028844Y-70075500D01*
X65028845Y-70075499D01*
X65183497Y-70044737D01*
X65329179Y-69984394D01*
X65460289Y-69896789D01*
X65571789Y-69785289D01*
X65659394Y-69654179D01*
X65719737Y-69508497D01*
X65750500Y-69353842D01*
X65750500Y-69196158D01*
X65750500Y-69196155D01*
X65750499Y-69196153D01*
X65719738Y-69041510D01*
X65719737Y-69041503D01*
X65719735Y-69041498D01*
X65659397Y-68895827D01*
X65659390Y-68895814D01*
X65571789Y-68764711D01*
X65571786Y-68764707D01*
X65460292Y-68653213D01*
X65460288Y-68653210D01*
X65329185Y-68565609D01*
X65329172Y-68565602D01*
X65183501Y-68505264D01*
X65183489Y-68505261D01*
X65028845Y-68474500D01*
X65028842Y-68474500D01*
X64871158Y-68474500D01*
X64871155Y-68474500D01*
X64716510Y-68505261D01*
X64716498Y-68505264D01*
X64570827Y-68565602D01*
X64570814Y-68565609D01*
X64439711Y-68653210D01*
X64439707Y-68653213D01*
X64328213Y-68764707D01*
X64328210Y-68764711D01*
X64240609Y-68895814D01*
X64240602Y-68895827D01*
X64180264Y-69041498D01*
X64180261Y-69041510D01*
X64149500Y-69196153D01*
X57700500Y-69196153D01*
X57700500Y-68328750D01*
X57700726Y-68321263D01*
X57714231Y-68097999D01*
X57718271Y-68031201D01*
X57720076Y-68016340D01*
X57721807Y-68006897D01*
X57771780Y-67734197D01*
X57775364Y-67719663D01*
X57860696Y-67445822D01*
X57865998Y-67431841D01*
X57961946Y-67218653D01*
X92289500Y-67218653D01*
X92289500Y-67376346D01*
X92320261Y-67530989D01*
X92320264Y-67531001D01*
X92380602Y-67676672D01*
X92380609Y-67676685D01*
X92468210Y-67807788D01*
X92468213Y-67807792D01*
X92579707Y-67919286D01*
X92579711Y-67919289D01*
X92710814Y-68006890D01*
X92710827Y-68006897D01*
X92751440Y-68023719D01*
X92856503Y-68067237D01*
X93011153Y-68097999D01*
X93011156Y-68098000D01*
X93011158Y-68098000D01*
X93168844Y-68098000D01*
X93168845Y-68097999D01*
X93323497Y-68067237D01*
X93469179Y-68006894D01*
X93600289Y-67919289D01*
X93711789Y-67807789D01*
X93799394Y-67676679D01*
X93859737Y-67530997D01*
X93890500Y-67376342D01*
X93890500Y-67218658D01*
X93890500Y-67218655D01*
X93890499Y-67218653D01*
X93859737Y-67064003D01*
X93859735Y-67063998D01*
X93799397Y-66918327D01*
X93799390Y-66918314D01*
X93711789Y-66787211D01*
X93711786Y-66787207D01*
X93600292Y-66675713D01*
X93600288Y-66675710D01*
X93469185Y-66588109D01*
X93469172Y-66588102D01*
X93323501Y-66527764D01*
X93323489Y-66527761D01*
X93168845Y-66497000D01*
X93168842Y-66497000D01*
X93011158Y-66497000D01*
X93011155Y-66497000D01*
X92856510Y-66527761D01*
X92856498Y-66527764D01*
X92710827Y-66588102D01*
X92710814Y-66588109D01*
X92579711Y-66675710D01*
X92579707Y-66675713D01*
X92468213Y-66787207D01*
X92468210Y-66787211D01*
X92380609Y-66918314D01*
X92380602Y-66918327D01*
X92320264Y-67063998D01*
X92320261Y-67064010D01*
X92289500Y-67218653D01*
X57961946Y-67218653D01*
X57983731Y-67170249D01*
X57990679Y-67157011D01*
X58139080Y-66911526D01*
X58147567Y-66899230D01*
X58324480Y-66673417D01*
X58334395Y-66662226D01*
X58537226Y-66459395D01*
X58548417Y-66449480D01*
X58774230Y-66272567D01*
X58786526Y-66264080D01*
X59032016Y-66115676D01*
X59045249Y-66108731D01*
X59306841Y-65990998D01*
X59320822Y-65985696D01*
X59594668Y-65900362D01*
X59609197Y-65896780D01*
X59891344Y-65845075D01*
X59906201Y-65843271D01*
X60196264Y-65825726D01*
X60203751Y-65825500D01*
X60265892Y-65825500D01*
X94134108Y-65825500D01*
X94196249Y-65825500D01*
X94203736Y-65825726D01*
G37*
%TD.AperFunction*%
%TD*%
M02*
