M48
; DRILL file {KiCad 9.0.0} date 2025-04-10T21:45:59-0600
; FORMAT={-:-/ absolute / inch / decimal}
; #@! TF.CreationDate,2025-04-10T21:45:59-06:00
; #@! TF.GenerationSoftware,Kicad,Pcbnew,9.0.0
; #@! TF.FileFunction,Plated,1,4,PTH
FMAT,2
INCH
; #@! TA.AperFunction,Plated,PTH,ViaDrill
T1C0.0118
; #@! TA.AperFunction,Plated,PTH,ComponentDrill
T2C0.0118
; #@! TA.AperFunction,Plated,PTH,ComponentDrill
T3C0.0236
; #@! TA.AperFunction,Plated,PTH,ViaDrill
T4C0.0394
; #@! TA.AperFunction,Plated,PTH,ComponentDrill
T5C0.0394
; #@! TA.AperFunction,Plated,PTH,ComponentDrill
T6C0.0512
%
G90
G05
T1
X2.3815Y-2.9805
X2.4006Y-4.5583
X2.4133Y-4.2671
X2.4363Y-4.3507
X2.4593Y-3.0073
X2.4614Y-2.8644
X2.4646Y-3.0992
X2.4705Y-4.1746
X2.4746Y-4.5579
X2.51Y-2.6522
X2.522Y-4.5604
X2.5606Y-4.3478
X2.5668Y-3.2112
X2.5742Y-3.7874
X2.5742Y-3.8267
X2.5784Y-2.6984
X2.5876Y-3.4016
X2.5909Y-4.0152
X2.6067Y-3.4935
X2.6306Y-4.2579
X2.6352Y-3.84
X2.6569Y-3.6293
X2.6661Y-3.5707
X2.6677Y-4.3524
X2.6798Y-4.2642
X2.6963Y-3.7927
X2.7138Y-2.6449
X2.7392Y-3.3669
X2.7799Y-3.4396
X2.7906Y-3.7215
X2.8043Y-3.8797
X2.8426Y-3.9081
X2.8502Y-3.4396
X2.853Y-4.2801
X2.8549Y-3.589
X2.8675Y-4.6285
X2.8759Y-3.7817
X2.8766Y-4.049
X2.8825Y-4.4362
X2.8883Y-4.2565
X2.898Y-4.4998
X2.9335Y-4.0766
X2.9372Y-4.26
X2.9683Y-3.9232
X2.9689Y-4.5734
X2.9841Y-4.0858
X2.9933Y-4.5086
X3.0028Y-4.54
X3.0134Y-3.7439
X3.0148Y-3.8191
X3.0336Y-4.5338
X3.0484Y-4.4969
X3.0486Y-3.6372
X3.0512Y-3.4026
X3.0609Y-4.5718
X3.0808Y-4.3996
X3.0946Y-4.6902
X3.1364Y-3.961
X3.1427Y-3.2817
X3.1472Y-3.6691
X3.1514Y-4.5953
X3.1744Y-4.225
X3.1963Y-4.4868
X3.2317Y-3.3457
X3.2612Y-2.6482
X3.2732Y-3.4
X3.3098Y-4.4577
X3.3236Y-4.3699
X3.3277Y-4.1356
X3.3464Y-4.5326
X3.351Y-3.1965
X3.351Y-3.2465
X3.3722Y-4.6467
X3.4049Y-4.7161
X3.4279Y-3.3248
X3.44Y-3.1311
X3.4407Y-3.2766
X3.4411Y-3.4528
X3.4449Y-3.3728
X3.4764Y-3.0575
X3.4835Y-4.3145
X3.51Y-3.2778
X3.5254Y-3.5104
X3.5472Y-2.6697
X3.5518Y-2.7368
X3.5522Y-2.8134
X3.5564Y-2.9605
X3.5905Y-4.461
X3.6177Y-2.9018
X3.6398Y-4.6841
X3.6398Y-4.6841
X3.665Y-2.6495
T2
X2.9197Y-2.9054
X2.9197Y-2.9655
X2.9497Y-2.8754
X2.9497Y-2.9354
X2.9497Y-2.9955
X2.9797Y-2.9054
X2.9797Y-2.9655
X3.0097Y-2.8754
X3.0097Y-2.9354
X3.0097Y-2.9955
X3.0398Y-2.9054
X3.0398Y-2.9655
T4
X2.3734Y-4.6136
T5
X2.3136Y-3.387
X2.3136Y-3.487
X2.3136Y-3.587
X2.3136Y-3.687
X2.3136Y-3.787
X2.3136Y-3.887
X2.3136Y-3.987
X2.3136Y-4.087
X2.3136Y-4.187
X3.3888Y-3.7006
X3.3888Y-3.8006
X3.3888Y-3.9006
X3.3888Y-4.0006
X3.7587Y-3.4417
X3.7587Y-3.5417
X3.7587Y-3.6417
X3.7587Y-3.7417
X3.7587Y-3.8417
X3.7587Y-3.9417
X3.7587Y-4.0417
X3.7587Y-4.1417
X3.7587Y-4.2417
X3.7587Y-4.3417
T6
X2.3896Y-4.76
X2.5864Y-4.76
T3
G00X2.8453Y-4.639
M15
G01X2.8453Y-4.6823
M16
G05
G00X2.8453Y-4.8134
M15
G01X2.8453Y-4.837
M16
G05
G00X3.1854Y-4.639
M15
G01X3.1854Y-4.6823
M16
G05
G00X3.1854Y-4.8134
M15
G01X3.1854Y-4.837
M16
G05
M30
