%TF.GenerationSoftware,KiCad,Pcbnew,9.0.0*%
%TF.CreationDate,2025-04-10T21:45:59-06:00*%
%TF.ProjectId,esp32,65737033-322e-46b6-9963-61645f706362,rev?*%
%TF.SameCoordinates,Original*%
%TF.FileFunction,Legend,Top*%
%TF.FilePolarity,Positive*%
%FSLAX46Y46*%
G04 Gerber Fmt 4.6, Leading zero omitted, Abs format (unit mm)*
G04 Created by KiCad (PCBNEW 9.0.0) date 2025-04-10 21:45:59*
%MOMM*%
%LPD*%
G01*
G04 APERTURE LIST*
G04 Aperture macros list*
%AMRoundRect*
0 Rectangle with rounded corners*
0 $1 Rounding radius*
0 $2 $3 $4 $5 $6 $7 $8 $9 X,Y pos of 4 corners*
0 Add a 4 corners polygon primitive as box body*
4,1,4,$2,$3,$4,$5,$6,$7,$8,$9,$2,$3,0*
0 Add four circle primitives for the rounded corners*
1,1,$1+$1,$2,$3*
1,1,$1+$1,$4,$5*
1,1,$1+$1,$6,$7*
1,1,$1+$1,$8,$9*
0 Add four rect primitives between the rounded corners*
20,1,$1+$1,$2,$3,$4,$5,0*
20,1,$1+$1,$4,$5,$6,$7,0*
20,1,$1+$1,$6,$7,$8,$9,0*
20,1,$1+$1,$8,$9,$2,$3,0*%
%AMFreePoly0*
4,1,23,0.550000,-0.750000,0.000000,-0.750000,0.000000,-0.745722,-0.065263,-0.745722,-0.191342,-0.711940,-0.304381,-0.646677,-0.396677,-0.554381,-0.461940,-0.441342,-0.495722,-0.315263,-0.495722,-0.250000,-0.500000,-0.250000,-0.500000,0.250000,-0.495722,0.250000,-0.495722,0.315263,-0.461940,0.441342,-0.396677,0.554381,-0.304381,0.646677,-0.191342,0.711940,-0.065263,0.745722,0.000000,0.745722,
0.000000,0.750000,0.550000,0.750000,0.550000,-0.750000,0.550000,-0.750000,$1*%
%AMFreePoly1*
4,1,23,0.000000,0.745722,0.065263,0.745722,0.191342,0.711940,0.304381,0.646677,0.396677,0.554381,0.461940,0.441342,0.495722,0.315263,0.495722,0.250000,0.500000,0.250000,0.500000,-0.250000,0.495722,-0.250000,0.495722,-0.315263,0.461940,-0.441342,0.396677,-0.554381,0.304381,-0.646677,0.191342,-0.711940,0.065263,-0.745722,0.000000,-0.745722,0.000000,-0.750000,-0.550000,-0.750000,
-0.550000,0.750000,0.000000,0.750000,0.000000,0.745722,0.000000,0.745722,$1*%
G04 Aperture macros list end*
%ADD10C,0.200000*%
%ADD11C,0.150000*%
%ADD12C,0.120000*%
%ADD13RoundRect,0.150000X-0.512500X-0.150000X0.512500X-0.150000X0.512500X0.150000X-0.512500X0.150000X0*%
%ADD14RoundRect,0.150000X0.150000X-0.825000X0.150000X0.825000X-0.150000X0.825000X-0.150000X-0.825000X0*%
%ADD15FreePoly0,270.000000*%
%ADD16R,1.500000X1.000000*%
%ADD17FreePoly1,270.000000*%
%ADD18RoundRect,0.250000X-0.450000X0.350000X-0.450000X-0.350000X0.450000X-0.350000X0.450000X0.350000X0*%
%ADD19RoundRect,0.150000X-0.587500X-0.150000X0.587500X-0.150000X0.587500X0.150000X-0.587500X0.150000X0*%
%ADD20RoundRect,0.150000X0.150000X-0.587500X0.150000X0.587500X-0.150000X0.587500X-0.150000X-0.587500X0*%
%ADD21R,1.800000X1.100000*%
%ADD22RoundRect,0.250000X-0.350000X-0.450000X0.350000X-0.450000X0.350000X0.450000X-0.350000X0.450000X0*%
%ADD23RoundRect,0.250000X0.450000X-0.350000X0.450000X0.350000X-0.450000X0.350000X-0.450000X-0.350000X0*%
%ADD24R,1.700000X1.700000*%
%ADD25O,1.700000X1.700000*%
%ADD26RoundRect,0.250000X-0.337500X-0.475000X0.337500X-0.475000X0.337500X0.475000X-0.337500X0.475000X0*%
%ADD27C,0.650000*%
%ADD28R,0.300000X1.150000*%
%ADD29O,1.000000X2.100000*%
%ADD30O,1.000000X1.600000*%
%ADD31RoundRect,0.250000X0.350000X0.450000X-0.350000X0.450000X-0.350000X-0.450000X0.350000X-0.450000X0*%
%ADD32RoundRect,0.090000X0.360000X-0.660000X0.360000X0.660000X-0.360000X0.660000X-0.360000X-0.660000X0*%
%ADD33RoundRect,0.250000X-0.475000X0.337500X-0.475000X-0.337500X0.475000X-0.337500X0.475000X0.337500X0*%
%ADD34RoundRect,0.250000X0.475000X-0.337500X0.475000X0.337500X-0.475000X0.337500X-0.475000X-0.337500X0*%
%ADD35RoundRect,0.150000X-0.687500X-0.150000X0.687500X-0.150000X0.687500X0.150000X-0.687500X0.150000X0*%
%ADD36R,2.100000X3.300000*%
%ADD37RoundRect,0.150000X-0.150000X0.587500X-0.150000X-0.587500X0.150000X-0.587500X0.150000X0.587500X0*%
%ADD38RoundRect,0.375000X-0.625000X-0.375000X0.625000X-0.375000X0.625000X0.375000X-0.625000X0.375000X0*%
%ADD39RoundRect,0.500000X-0.500000X-1.400000X0.500000X-1.400000X0.500000X1.400000X-0.500000X1.400000X0*%
%ADD40RoundRect,0.150000X0.587500X0.150000X-0.587500X0.150000X-0.587500X-0.150000X0.587500X-0.150000X0*%
%ADD41RoundRect,0.375000X0.375000X-0.625000X0.375000X0.625000X-0.375000X0.625000X-0.375000X-0.625000X0*%
%ADD42RoundRect,0.500000X1.400000X-0.500000X1.400000X0.500000X-1.400000X0.500000X-1.400000X-0.500000X0*%
%ADD43RoundRect,0.250000X0.337500X0.475000X-0.337500X0.475000X-0.337500X-0.475000X0.337500X-0.475000X0*%
%ADD44RoundRect,0.250001X1.149999X1.149999X-1.149999X1.149999X-1.149999X-1.149999X1.149999X-1.149999X0*%
%ADD45C,2.800000*%
%ADD46RoundRect,0.250000X-0.325000X-0.450000X0.325000X-0.450000X0.325000X0.450000X-0.325000X0.450000X0*%
%ADD47R,1.500000X0.900000*%
%ADD48R,0.900000X1.500000*%
%ADD49C,0.600000*%
%ADD50R,4.200000X4.200000*%
G04 APERTURE END LIST*
D10*
X87800863Y-93641695D02*
X88296101Y-93641695D01*
X88296101Y-93641695D02*
X88029435Y-93946457D01*
X88029435Y-93946457D02*
X88143720Y-93946457D01*
X88143720Y-93946457D02*
X88219911Y-93984552D01*
X88219911Y-93984552D02*
X88258006Y-94022647D01*
X88258006Y-94022647D02*
X88296101Y-94098838D01*
X88296101Y-94098838D02*
X88296101Y-94289314D01*
X88296101Y-94289314D02*
X88258006Y-94365504D01*
X88258006Y-94365504D02*
X88219911Y-94403600D01*
X88219911Y-94403600D02*
X88143720Y-94441695D01*
X88143720Y-94441695D02*
X87915149Y-94441695D01*
X87915149Y-94441695D02*
X87838958Y-94403600D01*
X87838958Y-94403600D02*
X87800863Y-94365504D01*
X88524673Y-93641695D02*
X88791340Y-94441695D01*
X88791340Y-94441695D02*
X89058006Y-93641695D01*
X89248482Y-93641695D02*
X89743720Y-93641695D01*
X89743720Y-93641695D02*
X89477054Y-93946457D01*
X89477054Y-93946457D02*
X89591339Y-93946457D01*
X89591339Y-93946457D02*
X89667530Y-93984552D01*
X89667530Y-93984552D02*
X89705625Y-94022647D01*
X89705625Y-94022647D02*
X89743720Y-94098838D01*
X89743720Y-94098838D02*
X89743720Y-94289314D01*
X89743720Y-94289314D02*
X89705625Y-94365504D01*
X89705625Y-94365504D02*
X89667530Y-94403600D01*
X89667530Y-94403600D02*
X89591339Y-94441695D01*
X89591339Y-94441695D02*
X89362768Y-94441695D01*
X89362768Y-94441695D02*
X89286577Y-94403600D01*
X89286577Y-94403600D02*
X89248482Y-94365504D01*
X88296101Y-101469790D02*
X88219911Y-101431695D01*
X88219911Y-101431695D02*
X88105625Y-101431695D01*
X88105625Y-101431695D02*
X87991339Y-101469790D01*
X87991339Y-101469790D02*
X87915149Y-101545980D01*
X87915149Y-101545980D02*
X87877054Y-101622171D01*
X87877054Y-101622171D02*
X87838958Y-101774552D01*
X87838958Y-101774552D02*
X87838958Y-101888838D01*
X87838958Y-101888838D02*
X87877054Y-102041219D01*
X87877054Y-102041219D02*
X87915149Y-102117409D01*
X87915149Y-102117409D02*
X87991339Y-102193600D01*
X87991339Y-102193600D02*
X88105625Y-102231695D01*
X88105625Y-102231695D02*
X88181816Y-102231695D01*
X88181816Y-102231695D02*
X88296101Y-102193600D01*
X88296101Y-102193600D02*
X88334197Y-102155504D01*
X88334197Y-102155504D02*
X88334197Y-101888838D01*
X88334197Y-101888838D02*
X88181816Y-101888838D01*
X88677054Y-102231695D02*
X88677054Y-101431695D01*
X88677054Y-101431695D02*
X89134197Y-102231695D01*
X89134197Y-102231695D02*
X89134197Y-101431695D01*
X89515149Y-102231695D02*
X89515149Y-101431695D01*
X89515149Y-101431695D02*
X89705625Y-101431695D01*
X89705625Y-101431695D02*
X89819911Y-101469790D01*
X89819911Y-101469790D02*
X89896101Y-101545980D01*
X89896101Y-101545980D02*
X89934196Y-101622171D01*
X89934196Y-101622171D02*
X89972292Y-101774552D01*
X89972292Y-101774552D02*
X89972292Y-101888838D01*
X89972292Y-101888838D02*
X89934196Y-102041219D01*
X89934196Y-102041219D02*
X89896101Y-102117409D01*
X89896101Y-102117409D02*
X89819911Y-102193600D01*
X89819911Y-102193600D02*
X89705625Y-102231695D01*
X89705625Y-102231695D02*
X89515149Y-102231695D01*
X58321101Y-83629790D02*
X58244911Y-83591695D01*
X58244911Y-83591695D02*
X58130625Y-83591695D01*
X58130625Y-83591695D02*
X58016339Y-83629790D01*
X58016339Y-83629790D02*
X57940149Y-83705980D01*
X57940149Y-83705980D02*
X57902054Y-83782171D01*
X57902054Y-83782171D02*
X57863958Y-83934552D01*
X57863958Y-83934552D02*
X57863958Y-84048838D01*
X57863958Y-84048838D02*
X57902054Y-84201219D01*
X57902054Y-84201219D02*
X57940149Y-84277409D01*
X57940149Y-84277409D02*
X58016339Y-84353600D01*
X58016339Y-84353600D02*
X58130625Y-84391695D01*
X58130625Y-84391695D02*
X58206816Y-84391695D01*
X58206816Y-84391695D02*
X58321101Y-84353600D01*
X58321101Y-84353600D02*
X58359197Y-84315504D01*
X58359197Y-84315504D02*
X58359197Y-84048838D01*
X58359197Y-84048838D02*
X58206816Y-84048838D01*
X58702054Y-84391695D02*
X58702054Y-83591695D01*
X58702054Y-83591695D02*
X59159197Y-84391695D01*
X59159197Y-84391695D02*
X59159197Y-83591695D01*
X59540149Y-84391695D02*
X59540149Y-83591695D01*
X59540149Y-83591695D02*
X59730625Y-83591695D01*
X59730625Y-83591695D02*
X59844911Y-83629790D01*
X59844911Y-83629790D02*
X59921101Y-83705980D01*
X59921101Y-83705980D02*
X59959196Y-83782171D01*
X59959196Y-83782171D02*
X59997292Y-83934552D01*
X59997292Y-83934552D02*
X59997292Y-84048838D01*
X59997292Y-84048838D02*
X59959196Y-84201219D01*
X59959196Y-84201219D02*
X59921101Y-84277409D01*
X59921101Y-84277409D02*
X59844911Y-84353600D01*
X59844911Y-84353600D02*
X59730625Y-84391695D01*
X59730625Y-84391695D02*
X59540149Y-84391695D01*
X92008006Y-102144790D02*
X91931816Y-102106695D01*
X91931816Y-102106695D02*
X91817530Y-102106695D01*
X91817530Y-102106695D02*
X91703244Y-102144790D01*
X91703244Y-102144790D02*
X91627054Y-102220980D01*
X91627054Y-102220980D02*
X91588959Y-102297171D01*
X91588959Y-102297171D02*
X91550863Y-102449552D01*
X91550863Y-102449552D02*
X91550863Y-102563838D01*
X91550863Y-102563838D02*
X91588959Y-102716219D01*
X91588959Y-102716219D02*
X91627054Y-102792409D01*
X91627054Y-102792409D02*
X91703244Y-102868600D01*
X91703244Y-102868600D02*
X91817530Y-102906695D01*
X91817530Y-102906695D02*
X91893721Y-102906695D01*
X91893721Y-102906695D02*
X92008006Y-102868600D01*
X92008006Y-102868600D02*
X92046102Y-102830504D01*
X92046102Y-102830504D02*
X92046102Y-102563838D01*
X92046102Y-102563838D02*
X91893721Y-102563838D01*
X92388959Y-102906695D02*
X92388959Y-102106695D01*
X92388959Y-102106695D02*
X92846102Y-102906695D01*
X92846102Y-102906695D02*
X92846102Y-102106695D01*
X93227054Y-102906695D02*
X93227054Y-102106695D01*
X93227054Y-102106695D02*
X93417530Y-102106695D01*
X93417530Y-102106695D02*
X93531816Y-102144790D01*
X93531816Y-102144790D02*
X93608006Y-102220980D01*
X93608006Y-102220980D02*
X93646101Y-102297171D01*
X93646101Y-102297171D02*
X93684197Y-102449552D01*
X93684197Y-102449552D02*
X93684197Y-102563838D01*
X93684197Y-102563838D02*
X93646101Y-102716219D01*
X93646101Y-102716219D02*
X93608006Y-102792409D01*
X93608006Y-102792409D02*
X93531816Y-102868600D01*
X93531816Y-102868600D02*
X93417530Y-102906695D01*
X93417530Y-102906695D02*
X93227054Y-102906695D01*
X92299135Y-96603740D02*
X92489611Y-97403740D01*
X92489611Y-97403740D02*
X92641992Y-96832311D01*
X92641992Y-96832311D02*
X92794373Y-97403740D01*
X92794373Y-97403740D02*
X92984850Y-96603740D01*
X93213421Y-96603740D02*
X93403897Y-97403740D01*
X93403897Y-97403740D02*
X93556278Y-96832311D01*
X93556278Y-96832311D02*
X93708659Y-97403740D01*
X93708659Y-97403740D02*
X93899136Y-96603740D01*
X93099135Y-98691695D02*
X92641992Y-98691695D01*
X92870564Y-98691695D02*
X92870564Y-97891695D01*
X92870564Y-97891695D02*
X92794373Y-98005980D01*
X92794373Y-98005980D02*
X92718183Y-98082171D01*
X92718183Y-98082171D02*
X92641992Y-98120266D01*
X93784850Y-97891695D02*
X93632469Y-97891695D01*
X93632469Y-97891695D02*
X93556278Y-97929790D01*
X93556278Y-97929790D02*
X93518183Y-97967885D01*
X93518183Y-97967885D02*
X93441993Y-98082171D01*
X93441993Y-98082171D02*
X93403897Y-98234552D01*
X93403897Y-98234552D02*
X93403897Y-98539314D01*
X93403897Y-98539314D02*
X93441993Y-98615504D01*
X93441993Y-98615504D02*
X93480088Y-98653600D01*
X93480088Y-98653600D02*
X93556278Y-98691695D01*
X93556278Y-98691695D02*
X93708659Y-98691695D01*
X93708659Y-98691695D02*
X93784850Y-98653600D01*
X93784850Y-98653600D02*
X93822945Y-98615504D01*
X93822945Y-98615504D02*
X93861040Y-98539314D01*
X93861040Y-98539314D02*
X93861040Y-98348838D01*
X93861040Y-98348838D02*
X93822945Y-98272647D01*
X93822945Y-98272647D02*
X93784850Y-98234552D01*
X93784850Y-98234552D02*
X93708659Y-98196457D01*
X93708659Y-98196457D02*
X93556278Y-98196457D01*
X93556278Y-98196457D02*
X93480088Y-98234552D01*
X93480088Y-98234552D02*
X93441993Y-98272647D01*
X93441993Y-98272647D02*
X93403897Y-98348838D01*
X91232469Y-89016835D02*
X91156279Y-88978740D01*
X91156279Y-88978740D02*
X91041993Y-88978740D01*
X91041993Y-88978740D02*
X90927707Y-89016835D01*
X90927707Y-89016835D02*
X90851517Y-89093025D01*
X90851517Y-89093025D02*
X90813422Y-89169216D01*
X90813422Y-89169216D02*
X90775326Y-89321597D01*
X90775326Y-89321597D02*
X90775326Y-89435883D01*
X90775326Y-89435883D02*
X90813422Y-89588264D01*
X90813422Y-89588264D02*
X90851517Y-89664454D01*
X90851517Y-89664454D02*
X90927707Y-89740645D01*
X90927707Y-89740645D02*
X91041993Y-89778740D01*
X91041993Y-89778740D02*
X91118184Y-89778740D01*
X91118184Y-89778740D02*
X91232469Y-89740645D01*
X91232469Y-89740645D02*
X91270565Y-89702549D01*
X91270565Y-89702549D02*
X91270565Y-89435883D01*
X91270565Y-89435883D02*
X91118184Y-89435883D01*
X91613422Y-89778740D02*
X91613422Y-89245406D01*
X91613422Y-89397787D02*
X91651517Y-89321597D01*
X91651517Y-89321597D02*
X91689612Y-89283502D01*
X91689612Y-89283502D02*
X91765803Y-89245406D01*
X91765803Y-89245406D02*
X91841993Y-89245406D01*
X92413422Y-89740645D02*
X92337231Y-89778740D01*
X92337231Y-89778740D02*
X92184850Y-89778740D01*
X92184850Y-89778740D02*
X92108660Y-89740645D01*
X92108660Y-89740645D02*
X92070564Y-89664454D01*
X92070564Y-89664454D02*
X92070564Y-89359692D01*
X92070564Y-89359692D02*
X92108660Y-89283502D01*
X92108660Y-89283502D02*
X92184850Y-89245406D01*
X92184850Y-89245406D02*
X92337231Y-89245406D01*
X92337231Y-89245406D02*
X92413422Y-89283502D01*
X92413422Y-89283502D02*
X92451517Y-89359692D01*
X92451517Y-89359692D02*
X92451517Y-89435883D01*
X92451517Y-89435883D02*
X92070564Y-89512073D01*
X93099136Y-89740645D02*
X93022945Y-89778740D01*
X93022945Y-89778740D02*
X92870564Y-89778740D01*
X92870564Y-89778740D02*
X92794374Y-89740645D01*
X92794374Y-89740645D02*
X92756278Y-89664454D01*
X92756278Y-89664454D02*
X92756278Y-89359692D01*
X92756278Y-89359692D02*
X92794374Y-89283502D01*
X92794374Y-89283502D02*
X92870564Y-89245406D01*
X92870564Y-89245406D02*
X93022945Y-89245406D01*
X93022945Y-89245406D02*
X93099136Y-89283502D01*
X93099136Y-89283502D02*
X93137231Y-89359692D01*
X93137231Y-89359692D02*
X93137231Y-89435883D01*
X93137231Y-89435883D02*
X92756278Y-89512073D01*
X93480088Y-89245406D02*
X93480088Y-89778740D01*
X93480088Y-89321597D02*
X93518183Y-89283502D01*
X93518183Y-89283502D02*
X93594373Y-89245406D01*
X93594373Y-89245406D02*
X93708659Y-89245406D01*
X93708659Y-89245406D02*
X93784850Y-89283502D01*
X93784850Y-89283502D02*
X93822945Y-89359692D01*
X93822945Y-89359692D02*
X93822945Y-89778740D01*
X92641992Y-90342885D02*
X92680088Y-90304790D01*
X92680088Y-90304790D02*
X92756278Y-90266695D01*
X92756278Y-90266695D02*
X92946754Y-90266695D01*
X92946754Y-90266695D02*
X93022945Y-90304790D01*
X93022945Y-90304790D02*
X93061040Y-90342885D01*
X93061040Y-90342885D02*
X93099135Y-90419076D01*
X93099135Y-90419076D02*
X93099135Y-90495266D01*
X93099135Y-90495266D02*
X93061040Y-90609552D01*
X93061040Y-90609552D02*
X92603897Y-91066695D01*
X92603897Y-91066695D02*
X93099135Y-91066695D01*
X93861040Y-91066695D02*
X93403897Y-91066695D01*
X93632469Y-91066695D02*
X93632469Y-90266695D01*
X93632469Y-90266695D02*
X93556278Y-90380980D01*
X93556278Y-90380980D02*
X93480088Y-90457171D01*
X93480088Y-90457171D02*
X93403897Y-90495266D01*
X92922291Y-105591695D02*
X92465148Y-105591695D01*
X92693720Y-105591695D02*
X92693720Y-104791695D01*
X92693720Y-104791695D02*
X92617529Y-104905980D01*
X92617529Y-104905980D02*
X92541339Y-104982171D01*
X92541339Y-104982171D02*
X92465148Y-105020266D01*
X93303244Y-105591695D02*
X93455625Y-105591695D01*
X93455625Y-105591695D02*
X93531815Y-105553600D01*
X93531815Y-105553600D02*
X93569911Y-105515504D01*
X93569911Y-105515504D02*
X93646101Y-105401219D01*
X93646101Y-105401219D02*
X93684196Y-105248838D01*
X93684196Y-105248838D02*
X93684196Y-104944076D01*
X93684196Y-104944076D02*
X93646101Y-104867885D01*
X93646101Y-104867885D02*
X93608006Y-104829790D01*
X93608006Y-104829790D02*
X93531815Y-104791695D01*
X93531815Y-104791695D02*
X93379434Y-104791695D01*
X93379434Y-104791695D02*
X93303244Y-104829790D01*
X93303244Y-104829790D02*
X93265149Y-104867885D01*
X93265149Y-104867885D02*
X93227053Y-104944076D01*
X93227053Y-104944076D02*
X93227053Y-105134552D01*
X93227053Y-105134552D02*
X93265149Y-105210742D01*
X93265149Y-105210742D02*
X93303244Y-105248838D01*
X93303244Y-105248838D02*
X93379434Y-105286933D01*
X93379434Y-105286933D02*
X93531815Y-105286933D01*
X93531815Y-105286933D02*
X93608006Y-105248838D01*
X93608006Y-105248838D02*
X93646101Y-105210742D01*
X93646101Y-105210742D02*
X93684196Y-105134552D01*
X92451517Y-87248740D02*
X92184850Y-86867787D01*
X91994374Y-87248740D02*
X91994374Y-86448740D01*
X91994374Y-86448740D02*
X92299136Y-86448740D01*
X92299136Y-86448740D02*
X92375326Y-86486835D01*
X92375326Y-86486835D02*
X92413421Y-86524930D01*
X92413421Y-86524930D02*
X92451517Y-86601121D01*
X92451517Y-86601121D02*
X92451517Y-86715406D01*
X92451517Y-86715406D02*
X92413421Y-86791597D01*
X92413421Y-86791597D02*
X92375326Y-86829692D01*
X92375326Y-86829692D02*
X92299136Y-86867787D01*
X92299136Y-86867787D02*
X91994374Y-86867787D01*
X93099136Y-87210645D02*
X93022945Y-87248740D01*
X93022945Y-87248740D02*
X92870564Y-87248740D01*
X92870564Y-87248740D02*
X92794374Y-87210645D01*
X92794374Y-87210645D02*
X92756278Y-87134454D01*
X92756278Y-87134454D02*
X92756278Y-86829692D01*
X92756278Y-86829692D02*
X92794374Y-86753502D01*
X92794374Y-86753502D02*
X92870564Y-86715406D01*
X92870564Y-86715406D02*
X93022945Y-86715406D01*
X93022945Y-86715406D02*
X93099136Y-86753502D01*
X93099136Y-86753502D02*
X93137231Y-86829692D01*
X93137231Y-86829692D02*
X93137231Y-86905883D01*
X93137231Y-86905883D02*
X92756278Y-86982073D01*
X93822945Y-87248740D02*
X93822945Y-86448740D01*
X93822945Y-87210645D02*
X93746754Y-87248740D01*
X93746754Y-87248740D02*
X93594373Y-87248740D01*
X93594373Y-87248740D02*
X93518183Y-87210645D01*
X93518183Y-87210645D02*
X93480088Y-87172549D01*
X93480088Y-87172549D02*
X93441992Y-87096359D01*
X93441992Y-87096359D02*
X93441992Y-86867787D01*
X93441992Y-86867787D02*
X93480088Y-86791597D01*
X93480088Y-86791597D02*
X93518183Y-86753502D01*
X93518183Y-86753502D02*
X93594373Y-86715406D01*
X93594373Y-86715406D02*
X93746754Y-86715406D01*
X93746754Y-86715406D02*
X93822945Y-86753502D01*
X92641992Y-87812885D02*
X92680088Y-87774790D01*
X92680088Y-87774790D02*
X92756278Y-87736695D01*
X92756278Y-87736695D02*
X92946754Y-87736695D01*
X92946754Y-87736695D02*
X93022945Y-87774790D01*
X93022945Y-87774790D02*
X93061040Y-87812885D01*
X93061040Y-87812885D02*
X93099135Y-87889076D01*
X93099135Y-87889076D02*
X93099135Y-87965266D01*
X93099135Y-87965266D02*
X93061040Y-88079552D01*
X93061040Y-88079552D02*
X92603897Y-88536695D01*
X92603897Y-88536695D02*
X93099135Y-88536695D01*
X93403897Y-87812885D02*
X93441993Y-87774790D01*
X93441993Y-87774790D02*
X93518183Y-87736695D01*
X93518183Y-87736695D02*
X93708659Y-87736695D01*
X93708659Y-87736695D02*
X93784850Y-87774790D01*
X93784850Y-87774790D02*
X93822945Y-87812885D01*
X93822945Y-87812885D02*
X93861040Y-87889076D01*
X93861040Y-87889076D02*
X93861040Y-87965266D01*
X93861040Y-87965266D02*
X93822945Y-88079552D01*
X93822945Y-88079552D02*
X93365802Y-88536695D01*
X93365802Y-88536695D02*
X93861040Y-88536695D01*
X88334197Y-99641695D02*
X88067530Y-99260742D01*
X87877054Y-99641695D02*
X87877054Y-98841695D01*
X87877054Y-98841695D02*
X88181816Y-98841695D01*
X88181816Y-98841695D02*
X88258006Y-98879790D01*
X88258006Y-98879790D02*
X88296101Y-98917885D01*
X88296101Y-98917885D02*
X88334197Y-98994076D01*
X88334197Y-98994076D02*
X88334197Y-99108361D01*
X88334197Y-99108361D02*
X88296101Y-99184552D01*
X88296101Y-99184552D02*
X88258006Y-99222647D01*
X88258006Y-99222647D02*
X88181816Y-99260742D01*
X88181816Y-99260742D02*
X87877054Y-99260742D01*
X88600863Y-98841695D02*
X89134197Y-99641695D01*
X89134197Y-98841695D02*
X88600863Y-99641695D01*
X90827054Y-99516695D02*
X91093721Y-100316695D01*
X91093721Y-100316695D02*
X91360387Y-99516695D01*
X91893720Y-99897647D02*
X92008006Y-99935742D01*
X92008006Y-99935742D02*
X92046101Y-99973838D01*
X92046101Y-99973838D02*
X92084197Y-100050028D01*
X92084197Y-100050028D02*
X92084197Y-100164314D01*
X92084197Y-100164314D02*
X92046101Y-100240504D01*
X92046101Y-100240504D02*
X92008006Y-100278600D01*
X92008006Y-100278600D02*
X91931816Y-100316695D01*
X91931816Y-100316695D02*
X91627054Y-100316695D01*
X91627054Y-100316695D02*
X91627054Y-99516695D01*
X91627054Y-99516695D02*
X91893720Y-99516695D01*
X91893720Y-99516695D02*
X91969911Y-99554790D01*
X91969911Y-99554790D02*
X92008006Y-99592885D01*
X92008006Y-99592885D02*
X92046101Y-99669076D01*
X92046101Y-99669076D02*
X92046101Y-99745266D01*
X92046101Y-99745266D02*
X92008006Y-99821457D01*
X92008006Y-99821457D02*
X91969911Y-99859552D01*
X91969911Y-99859552D02*
X91893720Y-99897647D01*
X91893720Y-99897647D02*
X91627054Y-99897647D01*
X92427054Y-99516695D02*
X92427054Y-100164314D01*
X92427054Y-100164314D02*
X92465149Y-100240504D01*
X92465149Y-100240504D02*
X92503244Y-100278600D01*
X92503244Y-100278600D02*
X92579435Y-100316695D01*
X92579435Y-100316695D02*
X92731816Y-100316695D01*
X92731816Y-100316695D02*
X92808006Y-100278600D01*
X92808006Y-100278600D02*
X92846101Y-100240504D01*
X92846101Y-100240504D02*
X92884197Y-100164314D01*
X92884197Y-100164314D02*
X92884197Y-99516695D01*
X93227053Y-100278600D02*
X93341339Y-100316695D01*
X93341339Y-100316695D02*
X93531815Y-100316695D01*
X93531815Y-100316695D02*
X93608006Y-100278600D01*
X93608006Y-100278600D02*
X93646101Y-100240504D01*
X93646101Y-100240504D02*
X93684196Y-100164314D01*
X93684196Y-100164314D02*
X93684196Y-100088123D01*
X93684196Y-100088123D02*
X93646101Y-100011933D01*
X93646101Y-100011933D02*
X93608006Y-99973838D01*
X93608006Y-99973838D02*
X93531815Y-99935742D01*
X93531815Y-99935742D02*
X93379434Y-99897647D01*
X93379434Y-99897647D02*
X93303244Y-99859552D01*
X93303244Y-99859552D02*
X93265149Y-99821457D01*
X93265149Y-99821457D02*
X93227053Y-99745266D01*
X93227053Y-99745266D02*
X93227053Y-99669076D01*
X93227053Y-99669076D02*
X93265149Y-99592885D01*
X93265149Y-99592885D02*
X93303244Y-99554790D01*
X93303244Y-99554790D02*
X93379434Y-99516695D01*
X93379434Y-99516695D02*
X93569911Y-99516695D01*
X93569911Y-99516695D02*
X93684196Y-99554790D01*
X60537054Y-89026695D02*
X60537054Y-88226695D01*
X60537054Y-88226695D02*
X60727530Y-88226695D01*
X60727530Y-88226695D02*
X60841816Y-88264790D01*
X60841816Y-88264790D02*
X60918006Y-88340980D01*
X60918006Y-88340980D02*
X60956101Y-88417171D01*
X60956101Y-88417171D02*
X60994197Y-88569552D01*
X60994197Y-88569552D02*
X60994197Y-88683838D01*
X60994197Y-88683838D02*
X60956101Y-88836219D01*
X60956101Y-88836219D02*
X60918006Y-88912409D01*
X60918006Y-88912409D02*
X60841816Y-88988600D01*
X60841816Y-88988600D02*
X60727530Y-89026695D01*
X60727530Y-89026695D02*
X60537054Y-89026695D01*
X61337054Y-89026695D02*
X61337054Y-88226695D01*
X62137053Y-88264790D02*
X62060863Y-88226695D01*
X62060863Y-88226695D02*
X61946577Y-88226695D01*
X61946577Y-88226695D02*
X61832291Y-88264790D01*
X61832291Y-88264790D02*
X61756101Y-88340980D01*
X61756101Y-88340980D02*
X61718006Y-88417171D01*
X61718006Y-88417171D02*
X61679910Y-88569552D01*
X61679910Y-88569552D02*
X61679910Y-88683838D01*
X61679910Y-88683838D02*
X61718006Y-88836219D01*
X61718006Y-88836219D02*
X61756101Y-88912409D01*
X61756101Y-88912409D02*
X61832291Y-88988600D01*
X61832291Y-88988600D02*
X61946577Y-89026695D01*
X61946577Y-89026695D02*
X62022768Y-89026695D01*
X62022768Y-89026695D02*
X62137053Y-88988600D01*
X62137053Y-88988600D02*
X62175149Y-88950504D01*
X62175149Y-88950504D02*
X62175149Y-88683838D01*
X62175149Y-88683838D02*
X62022768Y-88683838D01*
X62479910Y-88302885D02*
X62518006Y-88264790D01*
X62518006Y-88264790D02*
X62594196Y-88226695D01*
X62594196Y-88226695D02*
X62784672Y-88226695D01*
X62784672Y-88226695D02*
X62860863Y-88264790D01*
X62860863Y-88264790D02*
X62898958Y-88302885D01*
X62898958Y-88302885D02*
X62937053Y-88379076D01*
X62937053Y-88379076D02*
X62937053Y-88455266D01*
X62937053Y-88455266D02*
X62898958Y-88569552D01*
X62898958Y-88569552D02*
X62441815Y-89026695D01*
X62441815Y-89026695D02*
X62937053Y-89026695D01*
X59714911Y-102323361D02*
X59714911Y-102856695D01*
X59524435Y-102018600D02*
X59333958Y-102590028D01*
X59333958Y-102590028D02*
X59829197Y-102590028D01*
X66947054Y-112206695D02*
X66947054Y-112854314D01*
X66947054Y-112854314D02*
X66985149Y-112930504D01*
X66985149Y-112930504D02*
X67023244Y-112968600D01*
X67023244Y-112968600D02*
X67099435Y-113006695D01*
X67099435Y-113006695D02*
X67251816Y-113006695D01*
X67251816Y-113006695D02*
X67328006Y-112968600D01*
X67328006Y-112968600D02*
X67366101Y-112930504D01*
X67366101Y-112930504D02*
X67404197Y-112854314D01*
X67404197Y-112854314D02*
X67404197Y-112206695D01*
X67747053Y-112968600D02*
X67861339Y-113006695D01*
X67861339Y-113006695D02*
X68051815Y-113006695D01*
X68051815Y-113006695D02*
X68128006Y-112968600D01*
X68128006Y-112968600D02*
X68166101Y-112930504D01*
X68166101Y-112930504D02*
X68204196Y-112854314D01*
X68204196Y-112854314D02*
X68204196Y-112778123D01*
X68204196Y-112778123D02*
X68166101Y-112701933D01*
X68166101Y-112701933D02*
X68128006Y-112663838D01*
X68128006Y-112663838D02*
X68051815Y-112625742D01*
X68051815Y-112625742D02*
X67899434Y-112587647D01*
X67899434Y-112587647D02*
X67823244Y-112549552D01*
X67823244Y-112549552D02*
X67785149Y-112511457D01*
X67785149Y-112511457D02*
X67747053Y-112435266D01*
X67747053Y-112435266D02*
X67747053Y-112359076D01*
X67747053Y-112359076D02*
X67785149Y-112282885D01*
X67785149Y-112282885D02*
X67823244Y-112244790D01*
X67823244Y-112244790D02*
X67899434Y-112206695D01*
X67899434Y-112206695D02*
X68089911Y-112206695D01*
X68089911Y-112206695D02*
X68204196Y-112244790D01*
X68813720Y-112587647D02*
X68928006Y-112625742D01*
X68928006Y-112625742D02*
X68966101Y-112663838D01*
X68966101Y-112663838D02*
X69004197Y-112740028D01*
X69004197Y-112740028D02*
X69004197Y-112854314D01*
X69004197Y-112854314D02*
X68966101Y-112930504D01*
X68966101Y-112930504D02*
X68928006Y-112968600D01*
X68928006Y-112968600D02*
X68851816Y-113006695D01*
X68851816Y-113006695D02*
X68547054Y-113006695D01*
X68547054Y-113006695D02*
X68547054Y-112206695D01*
X68547054Y-112206695D02*
X68813720Y-112206695D01*
X68813720Y-112206695D02*
X68889911Y-112244790D01*
X68889911Y-112244790D02*
X68928006Y-112282885D01*
X68928006Y-112282885D02*
X68966101Y-112359076D01*
X68966101Y-112359076D02*
X68966101Y-112435266D01*
X68966101Y-112435266D02*
X68928006Y-112511457D01*
X68928006Y-112511457D02*
X68889911Y-112549552D01*
X68889911Y-112549552D02*
X68813720Y-112587647D01*
X68813720Y-112587647D02*
X68547054Y-112587647D01*
X91841992Y-91759692D02*
X91956278Y-91797787D01*
X91956278Y-91797787D02*
X91994373Y-91835883D01*
X91994373Y-91835883D02*
X92032469Y-91912073D01*
X92032469Y-91912073D02*
X92032469Y-92026359D01*
X92032469Y-92026359D02*
X91994373Y-92102549D01*
X91994373Y-92102549D02*
X91956278Y-92140645D01*
X91956278Y-92140645D02*
X91880088Y-92178740D01*
X91880088Y-92178740D02*
X91575326Y-92178740D01*
X91575326Y-92178740D02*
X91575326Y-91378740D01*
X91575326Y-91378740D02*
X91841992Y-91378740D01*
X91841992Y-91378740D02*
X91918183Y-91416835D01*
X91918183Y-91416835D02*
X91956278Y-91454930D01*
X91956278Y-91454930D02*
X91994373Y-91531121D01*
X91994373Y-91531121D02*
X91994373Y-91607311D01*
X91994373Y-91607311D02*
X91956278Y-91683502D01*
X91956278Y-91683502D02*
X91918183Y-91721597D01*
X91918183Y-91721597D02*
X91841992Y-91759692D01*
X91841992Y-91759692D02*
X91575326Y-91759692D01*
X92489611Y-92178740D02*
X92413421Y-92140645D01*
X92413421Y-92140645D02*
X92375326Y-92064454D01*
X92375326Y-92064454D02*
X92375326Y-91378740D01*
X93137231Y-91645406D02*
X93137231Y-92178740D01*
X92794374Y-91645406D02*
X92794374Y-92064454D01*
X92794374Y-92064454D02*
X92832469Y-92140645D01*
X92832469Y-92140645D02*
X92908659Y-92178740D01*
X92908659Y-92178740D02*
X93022945Y-92178740D01*
X93022945Y-92178740D02*
X93099136Y-92140645D01*
X93099136Y-92140645D02*
X93137231Y-92102549D01*
X93822946Y-92140645D02*
X93746755Y-92178740D01*
X93746755Y-92178740D02*
X93594374Y-92178740D01*
X93594374Y-92178740D02*
X93518184Y-92140645D01*
X93518184Y-92140645D02*
X93480088Y-92064454D01*
X93480088Y-92064454D02*
X93480088Y-91759692D01*
X93480088Y-91759692D02*
X93518184Y-91683502D01*
X93518184Y-91683502D02*
X93594374Y-91645406D01*
X93594374Y-91645406D02*
X93746755Y-91645406D01*
X93746755Y-91645406D02*
X93822946Y-91683502D01*
X93822946Y-91683502D02*
X93861041Y-91759692D01*
X93861041Y-91759692D02*
X93861041Y-91835883D01*
X93861041Y-91835883D02*
X93480088Y-91912073D01*
X93099135Y-93466695D02*
X92641992Y-93466695D01*
X92870564Y-93466695D02*
X92870564Y-92666695D01*
X92870564Y-92666695D02*
X92794373Y-92780980D01*
X92794373Y-92780980D02*
X92718183Y-92857171D01*
X92718183Y-92857171D02*
X92641992Y-92895266D01*
X93556278Y-93009552D02*
X93480088Y-92971457D01*
X93480088Y-92971457D02*
X93441993Y-92933361D01*
X93441993Y-92933361D02*
X93403897Y-92857171D01*
X93403897Y-92857171D02*
X93403897Y-92819076D01*
X93403897Y-92819076D02*
X93441993Y-92742885D01*
X93441993Y-92742885D02*
X93480088Y-92704790D01*
X93480088Y-92704790D02*
X93556278Y-92666695D01*
X93556278Y-92666695D02*
X93708659Y-92666695D01*
X93708659Y-92666695D02*
X93784850Y-92704790D01*
X93784850Y-92704790D02*
X93822945Y-92742885D01*
X93822945Y-92742885D02*
X93861040Y-92819076D01*
X93861040Y-92819076D02*
X93861040Y-92857171D01*
X93861040Y-92857171D02*
X93822945Y-92933361D01*
X93822945Y-92933361D02*
X93784850Y-92971457D01*
X93784850Y-92971457D02*
X93708659Y-93009552D01*
X93708659Y-93009552D02*
X93556278Y-93009552D01*
X93556278Y-93009552D02*
X93480088Y-93047647D01*
X93480088Y-93047647D02*
X93441993Y-93085742D01*
X93441993Y-93085742D02*
X93403897Y-93161933D01*
X93403897Y-93161933D02*
X93403897Y-93314314D01*
X93403897Y-93314314D02*
X93441993Y-93390504D01*
X93441993Y-93390504D02*
X93480088Y-93428600D01*
X93480088Y-93428600D02*
X93556278Y-93466695D01*
X93556278Y-93466695D02*
X93708659Y-93466695D01*
X93708659Y-93466695D02*
X93784850Y-93428600D01*
X93784850Y-93428600D02*
X93822945Y-93390504D01*
X93822945Y-93390504D02*
X93861040Y-93314314D01*
X93861040Y-93314314D02*
X93861040Y-93161933D01*
X93861040Y-93161933D02*
X93822945Y-93085742D01*
X93822945Y-93085742D02*
X93784850Y-93047647D01*
X93784850Y-93047647D02*
X93708659Y-93009552D01*
X60537054Y-91346695D02*
X60537054Y-90546695D01*
X60537054Y-90546695D02*
X60727530Y-90546695D01*
X60727530Y-90546695D02*
X60841816Y-90584790D01*
X60841816Y-90584790D02*
X60918006Y-90660980D01*
X60918006Y-90660980D02*
X60956101Y-90737171D01*
X60956101Y-90737171D02*
X60994197Y-90889552D01*
X60994197Y-90889552D02*
X60994197Y-91003838D01*
X60994197Y-91003838D02*
X60956101Y-91156219D01*
X60956101Y-91156219D02*
X60918006Y-91232409D01*
X60918006Y-91232409D02*
X60841816Y-91308600D01*
X60841816Y-91308600D02*
X60727530Y-91346695D01*
X60727530Y-91346695D02*
X60537054Y-91346695D01*
X61337054Y-91346695D02*
X61337054Y-90546695D01*
X62137053Y-90584790D02*
X62060863Y-90546695D01*
X62060863Y-90546695D02*
X61946577Y-90546695D01*
X61946577Y-90546695D02*
X61832291Y-90584790D01*
X61832291Y-90584790D02*
X61756101Y-90660980D01*
X61756101Y-90660980D02*
X61718006Y-90737171D01*
X61718006Y-90737171D02*
X61679910Y-90889552D01*
X61679910Y-90889552D02*
X61679910Y-91003838D01*
X61679910Y-91003838D02*
X61718006Y-91156219D01*
X61718006Y-91156219D02*
X61756101Y-91232409D01*
X61756101Y-91232409D02*
X61832291Y-91308600D01*
X61832291Y-91308600D02*
X61946577Y-91346695D01*
X61946577Y-91346695D02*
X62022768Y-91346695D01*
X62022768Y-91346695D02*
X62137053Y-91308600D01*
X62137053Y-91308600D02*
X62175149Y-91270504D01*
X62175149Y-91270504D02*
X62175149Y-91003838D01*
X62175149Y-91003838D02*
X62022768Y-91003838D01*
X62937053Y-91346695D02*
X62479910Y-91346695D01*
X62708482Y-91346695D02*
X62708482Y-90546695D01*
X62708482Y-90546695D02*
X62632291Y-90660980D01*
X62632291Y-90660980D02*
X62556101Y-90737171D01*
X62556101Y-90737171D02*
X62479910Y-90775266D01*
X60498958Y-96778600D02*
X60613244Y-96816695D01*
X60613244Y-96816695D02*
X60803720Y-96816695D01*
X60803720Y-96816695D02*
X60879911Y-96778600D01*
X60879911Y-96778600D02*
X60918006Y-96740504D01*
X60918006Y-96740504D02*
X60956101Y-96664314D01*
X60956101Y-96664314D02*
X60956101Y-96588123D01*
X60956101Y-96588123D02*
X60918006Y-96511933D01*
X60918006Y-96511933D02*
X60879911Y-96473838D01*
X60879911Y-96473838D02*
X60803720Y-96435742D01*
X60803720Y-96435742D02*
X60651339Y-96397647D01*
X60651339Y-96397647D02*
X60575149Y-96359552D01*
X60575149Y-96359552D02*
X60537054Y-96321457D01*
X60537054Y-96321457D02*
X60498958Y-96245266D01*
X60498958Y-96245266D02*
X60498958Y-96169076D01*
X60498958Y-96169076D02*
X60537054Y-96092885D01*
X60537054Y-96092885D02*
X60575149Y-96054790D01*
X60575149Y-96054790D02*
X60651339Y-96016695D01*
X60651339Y-96016695D02*
X60841816Y-96016695D01*
X60841816Y-96016695D02*
X60956101Y-96054790D01*
X61756102Y-96740504D02*
X61718006Y-96778600D01*
X61718006Y-96778600D02*
X61603721Y-96816695D01*
X61603721Y-96816695D02*
X61527530Y-96816695D01*
X61527530Y-96816695D02*
X61413244Y-96778600D01*
X61413244Y-96778600D02*
X61337054Y-96702409D01*
X61337054Y-96702409D02*
X61298959Y-96626219D01*
X61298959Y-96626219D02*
X61260863Y-96473838D01*
X61260863Y-96473838D02*
X61260863Y-96359552D01*
X61260863Y-96359552D02*
X61298959Y-96207171D01*
X61298959Y-96207171D02*
X61337054Y-96130980D01*
X61337054Y-96130980D02*
X61413244Y-96054790D01*
X61413244Y-96054790D02*
X61527530Y-96016695D01*
X61527530Y-96016695D02*
X61603721Y-96016695D01*
X61603721Y-96016695D02*
X61718006Y-96054790D01*
X61718006Y-96054790D02*
X61756102Y-96092885D01*
X62098959Y-96816695D02*
X62098959Y-96016695D01*
X62556102Y-96816695D02*
X62213244Y-96359552D01*
X62556102Y-96016695D02*
X62098959Y-96473838D01*
X87762768Y-96136695D02*
X88219911Y-96136695D01*
X87991339Y-96936695D02*
X87991339Y-96136695D01*
X88410387Y-96136695D02*
X88943721Y-96936695D01*
X88943721Y-96136695D02*
X88410387Y-96936695D01*
X60861101Y-104794790D02*
X60784911Y-104756695D01*
X60784911Y-104756695D02*
X60670625Y-104756695D01*
X60670625Y-104756695D02*
X60556339Y-104794790D01*
X60556339Y-104794790D02*
X60480149Y-104870980D01*
X60480149Y-104870980D02*
X60442054Y-104947171D01*
X60442054Y-104947171D02*
X60403958Y-105099552D01*
X60403958Y-105099552D02*
X60403958Y-105213838D01*
X60403958Y-105213838D02*
X60442054Y-105366219D01*
X60442054Y-105366219D02*
X60480149Y-105442409D01*
X60480149Y-105442409D02*
X60556339Y-105518600D01*
X60556339Y-105518600D02*
X60670625Y-105556695D01*
X60670625Y-105556695D02*
X60746816Y-105556695D01*
X60746816Y-105556695D02*
X60861101Y-105518600D01*
X60861101Y-105518600D02*
X60899197Y-105480504D01*
X60899197Y-105480504D02*
X60899197Y-105213838D01*
X60899197Y-105213838D02*
X60746816Y-105213838D01*
X61242054Y-105556695D02*
X61242054Y-104756695D01*
X61242054Y-104756695D02*
X61699197Y-105556695D01*
X61699197Y-105556695D02*
X61699197Y-104756695D01*
X62080149Y-105556695D02*
X62080149Y-104756695D01*
X62080149Y-104756695D02*
X62270625Y-104756695D01*
X62270625Y-104756695D02*
X62384911Y-104794790D01*
X62384911Y-104794790D02*
X62461101Y-104870980D01*
X62461101Y-104870980D02*
X62499196Y-104947171D01*
X62499196Y-104947171D02*
X62537292Y-105099552D01*
X62537292Y-105099552D02*
X62537292Y-105213838D01*
X62537292Y-105213838D02*
X62499196Y-105366219D01*
X62499196Y-105366219D02*
X62461101Y-105442409D01*
X62461101Y-105442409D02*
X62384911Y-105518600D01*
X62384911Y-105518600D02*
X62270625Y-105556695D01*
X62270625Y-105556695D02*
X62080149Y-105556695D01*
X92427053Y-107231695D02*
X92922291Y-107231695D01*
X92922291Y-107231695D02*
X92655625Y-107536457D01*
X92655625Y-107536457D02*
X92769910Y-107536457D01*
X92769910Y-107536457D02*
X92846101Y-107574552D01*
X92846101Y-107574552D02*
X92884196Y-107612647D01*
X92884196Y-107612647D02*
X92922291Y-107688838D01*
X92922291Y-107688838D02*
X92922291Y-107879314D01*
X92922291Y-107879314D02*
X92884196Y-107955504D01*
X92884196Y-107955504D02*
X92846101Y-107993600D01*
X92846101Y-107993600D02*
X92769910Y-108031695D01*
X92769910Y-108031695D02*
X92541339Y-108031695D01*
X92541339Y-108031695D02*
X92465148Y-107993600D01*
X92465148Y-107993600D02*
X92427053Y-107955504D01*
X93608006Y-107498361D02*
X93608006Y-108031695D01*
X93417530Y-107193600D02*
X93227053Y-107765028D01*
X93227053Y-107765028D02*
X93722292Y-107765028D01*
X92922291Y-110656695D02*
X92465148Y-110656695D01*
X92693720Y-110656695D02*
X92693720Y-109856695D01*
X92693720Y-109856695D02*
X92617529Y-109970980D01*
X92617529Y-109970980D02*
X92541339Y-110047171D01*
X92541339Y-110047171D02*
X92465148Y-110085266D01*
X93646101Y-109856695D02*
X93265149Y-109856695D01*
X93265149Y-109856695D02*
X93227053Y-110237647D01*
X93227053Y-110237647D02*
X93265149Y-110199552D01*
X93265149Y-110199552D02*
X93341339Y-110161457D01*
X93341339Y-110161457D02*
X93531815Y-110161457D01*
X93531815Y-110161457D02*
X93608006Y-110199552D01*
X93608006Y-110199552D02*
X93646101Y-110237647D01*
X93646101Y-110237647D02*
X93684196Y-110313838D01*
X93684196Y-110313838D02*
X93684196Y-110504314D01*
X93684196Y-110504314D02*
X93646101Y-110580504D01*
X93646101Y-110580504D02*
X93608006Y-110618600D01*
X93608006Y-110618600D02*
X93531815Y-110656695D01*
X93531815Y-110656695D02*
X93341339Y-110656695D01*
X93341339Y-110656695D02*
X93265149Y-110618600D01*
X93265149Y-110618600D02*
X93227053Y-110580504D01*
X60528958Y-97893600D02*
X60643244Y-97931695D01*
X60643244Y-97931695D02*
X60833720Y-97931695D01*
X60833720Y-97931695D02*
X60909911Y-97893600D01*
X60909911Y-97893600D02*
X60948006Y-97855504D01*
X60948006Y-97855504D02*
X60986101Y-97779314D01*
X60986101Y-97779314D02*
X60986101Y-97703123D01*
X60986101Y-97703123D02*
X60948006Y-97626933D01*
X60948006Y-97626933D02*
X60909911Y-97588838D01*
X60909911Y-97588838D02*
X60833720Y-97550742D01*
X60833720Y-97550742D02*
X60681339Y-97512647D01*
X60681339Y-97512647D02*
X60605149Y-97474552D01*
X60605149Y-97474552D02*
X60567054Y-97436457D01*
X60567054Y-97436457D02*
X60528958Y-97360266D01*
X60528958Y-97360266D02*
X60528958Y-97284076D01*
X60528958Y-97284076D02*
X60567054Y-97207885D01*
X60567054Y-97207885D02*
X60605149Y-97169790D01*
X60605149Y-97169790D02*
X60681339Y-97131695D01*
X60681339Y-97131695D02*
X60871816Y-97131695D01*
X60871816Y-97131695D02*
X60986101Y-97169790D01*
X61328959Y-97931695D02*
X61328959Y-97131695D01*
X61328959Y-97131695D02*
X61519435Y-97131695D01*
X61519435Y-97131695D02*
X61633721Y-97169790D01*
X61633721Y-97169790D02*
X61709911Y-97245980D01*
X61709911Y-97245980D02*
X61748006Y-97322171D01*
X61748006Y-97322171D02*
X61786102Y-97474552D01*
X61786102Y-97474552D02*
X61786102Y-97588838D01*
X61786102Y-97588838D02*
X61748006Y-97741219D01*
X61748006Y-97741219D02*
X61709911Y-97817409D01*
X61709911Y-97817409D02*
X61633721Y-97893600D01*
X61633721Y-97893600D02*
X61519435Y-97931695D01*
X61519435Y-97931695D02*
X61328959Y-97931695D01*
X62281340Y-97131695D02*
X62357530Y-97131695D01*
X62357530Y-97131695D02*
X62433721Y-97169790D01*
X62433721Y-97169790D02*
X62471816Y-97207885D01*
X62471816Y-97207885D02*
X62509911Y-97284076D01*
X62509911Y-97284076D02*
X62548006Y-97436457D01*
X62548006Y-97436457D02*
X62548006Y-97626933D01*
X62548006Y-97626933D02*
X62509911Y-97779314D01*
X62509911Y-97779314D02*
X62471816Y-97855504D01*
X62471816Y-97855504D02*
X62433721Y-97893600D01*
X62433721Y-97893600D02*
X62357530Y-97931695D01*
X62357530Y-97931695D02*
X62281340Y-97931695D01*
X62281340Y-97931695D02*
X62205149Y-97893600D01*
X62205149Y-97893600D02*
X62167054Y-97855504D01*
X62167054Y-97855504D02*
X62128959Y-97779314D01*
X62128959Y-97779314D02*
X62090863Y-97626933D01*
X62090863Y-97626933D02*
X62090863Y-97436457D01*
X62090863Y-97436457D02*
X62128959Y-97284076D01*
X62128959Y-97284076D02*
X62167054Y-97207885D01*
X62167054Y-97207885D02*
X62205149Y-97169790D01*
X62205149Y-97169790D02*
X62281340Y-97131695D01*
X60565863Y-94796695D02*
X61061101Y-94796695D01*
X61061101Y-94796695D02*
X60794435Y-95101457D01*
X60794435Y-95101457D02*
X60908720Y-95101457D01*
X60908720Y-95101457D02*
X60984911Y-95139552D01*
X60984911Y-95139552D02*
X61023006Y-95177647D01*
X61023006Y-95177647D02*
X61061101Y-95253838D01*
X61061101Y-95253838D02*
X61061101Y-95444314D01*
X61061101Y-95444314D02*
X61023006Y-95520504D01*
X61023006Y-95520504D02*
X60984911Y-95558600D01*
X60984911Y-95558600D02*
X60908720Y-95596695D01*
X60908720Y-95596695D02*
X60680149Y-95596695D01*
X60680149Y-95596695D02*
X60603958Y-95558600D01*
X60603958Y-95558600D02*
X60565863Y-95520504D01*
X61289673Y-94796695D02*
X61556340Y-95596695D01*
X61556340Y-95596695D02*
X61823006Y-94796695D01*
X62013482Y-94796695D02*
X62508720Y-94796695D01*
X62508720Y-94796695D02*
X62242054Y-95101457D01*
X62242054Y-95101457D02*
X62356339Y-95101457D01*
X62356339Y-95101457D02*
X62432530Y-95139552D01*
X62432530Y-95139552D02*
X62470625Y-95177647D01*
X62470625Y-95177647D02*
X62508720Y-95253838D01*
X62508720Y-95253838D02*
X62508720Y-95444314D01*
X62508720Y-95444314D02*
X62470625Y-95520504D01*
X62470625Y-95520504D02*
X62432530Y-95558600D01*
X62432530Y-95558600D02*
X62356339Y-95596695D01*
X62356339Y-95596695D02*
X62127768Y-95596695D01*
X62127768Y-95596695D02*
X62051577Y-95558600D01*
X62051577Y-95558600D02*
X62013482Y-95520504D01*
X60612768Y-106871695D02*
X60879435Y-107671695D01*
X60879435Y-107671695D02*
X61146101Y-106871695D01*
X61679434Y-107252647D02*
X61793720Y-107290742D01*
X61793720Y-107290742D02*
X61831815Y-107328838D01*
X61831815Y-107328838D02*
X61869911Y-107405028D01*
X61869911Y-107405028D02*
X61869911Y-107519314D01*
X61869911Y-107519314D02*
X61831815Y-107595504D01*
X61831815Y-107595504D02*
X61793720Y-107633600D01*
X61793720Y-107633600D02*
X61717530Y-107671695D01*
X61717530Y-107671695D02*
X61412768Y-107671695D01*
X61412768Y-107671695D02*
X61412768Y-106871695D01*
X61412768Y-106871695D02*
X61679434Y-106871695D01*
X61679434Y-106871695D02*
X61755625Y-106909790D01*
X61755625Y-106909790D02*
X61793720Y-106947885D01*
X61793720Y-106947885D02*
X61831815Y-107024076D01*
X61831815Y-107024076D02*
X61831815Y-107100266D01*
X61831815Y-107100266D02*
X61793720Y-107176457D01*
X61793720Y-107176457D02*
X61755625Y-107214552D01*
X61755625Y-107214552D02*
X61679434Y-107252647D01*
X61679434Y-107252647D02*
X61412768Y-107252647D01*
X62212768Y-106871695D02*
X62212768Y-107519314D01*
X62212768Y-107519314D02*
X62250863Y-107595504D01*
X62250863Y-107595504D02*
X62288958Y-107633600D01*
X62288958Y-107633600D02*
X62365149Y-107671695D01*
X62365149Y-107671695D02*
X62517530Y-107671695D01*
X62517530Y-107671695D02*
X62593720Y-107633600D01*
X62593720Y-107633600D02*
X62631815Y-107595504D01*
X62631815Y-107595504D02*
X62669911Y-107519314D01*
X62669911Y-107519314D02*
X62669911Y-106871695D01*
X63012767Y-107633600D02*
X63127053Y-107671695D01*
X63127053Y-107671695D02*
X63317529Y-107671695D01*
X63317529Y-107671695D02*
X63393720Y-107633600D01*
X63393720Y-107633600D02*
X63431815Y-107595504D01*
X63431815Y-107595504D02*
X63469910Y-107519314D01*
X63469910Y-107519314D02*
X63469910Y-107443123D01*
X63469910Y-107443123D02*
X63431815Y-107366933D01*
X63431815Y-107366933D02*
X63393720Y-107328838D01*
X63393720Y-107328838D02*
X63317529Y-107290742D01*
X63317529Y-107290742D02*
X63165148Y-107252647D01*
X63165148Y-107252647D02*
X63088958Y-107214552D01*
X63088958Y-107214552D02*
X63050863Y-107176457D01*
X63050863Y-107176457D02*
X63012767Y-107100266D01*
X63012767Y-107100266D02*
X63012767Y-107024076D01*
X63012767Y-107024076D02*
X63050863Y-106947885D01*
X63050863Y-106947885D02*
X63088958Y-106909790D01*
X63088958Y-106909790D02*
X63165148Y-106871695D01*
X63165148Y-106871695D02*
X63355625Y-106871695D01*
X63355625Y-106871695D02*
X63469910Y-106909790D01*
X92946755Y-94732549D02*
X92908659Y-94770645D01*
X92908659Y-94770645D02*
X92794374Y-94808740D01*
X92794374Y-94808740D02*
X92718183Y-94808740D01*
X92718183Y-94808740D02*
X92603897Y-94770645D01*
X92603897Y-94770645D02*
X92527707Y-94694454D01*
X92527707Y-94694454D02*
X92489612Y-94618264D01*
X92489612Y-94618264D02*
X92451516Y-94465883D01*
X92451516Y-94465883D02*
X92451516Y-94351597D01*
X92451516Y-94351597D02*
X92489612Y-94199216D01*
X92489612Y-94199216D02*
X92527707Y-94123025D01*
X92527707Y-94123025D02*
X92603897Y-94046835D01*
X92603897Y-94046835D02*
X92718183Y-94008740D01*
X92718183Y-94008740D02*
X92794374Y-94008740D01*
X92794374Y-94008740D02*
X92908659Y-94046835D01*
X92908659Y-94046835D02*
X92946755Y-94084930D01*
X93213421Y-94008740D02*
X93403897Y-94808740D01*
X93403897Y-94808740D02*
X93556278Y-94237311D01*
X93556278Y-94237311D02*
X93708659Y-94808740D01*
X93708659Y-94808740D02*
X93899136Y-94008740D01*
X93099135Y-96096695D02*
X92641992Y-96096695D01*
X92870564Y-96096695D02*
X92870564Y-95296695D01*
X92870564Y-95296695D02*
X92794373Y-95410980D01*
X92794373Y-95410980D02*
X92718183Y-95487171D01*
X92718183Y-95487171D02*
X92641992Y-95525266D01*
X93365802Y-95296695D02*
X93899136Y-95296695D01*
X93899136Y-95296695D02*
X93556278Y-96096695D01*
D11*
X75788095Y-111424819D02*
X75788095Y-112234342D01*
X75788095Y-112234342D02*
X75835714Y-112329580D01*
X75835714Y-112329580D02*
X75883333Y-112377200D01*
X75883333Y-112377200D02*
X75978571Y-112424819D01*
X75978571Y-112424819D02*
X76169047Y-112424819D01*
X76169047Y-112424819D02*
X76264285Y-112377200D01*
X76264285Y-112377200D02*
X76311904Y-112329580D01*
X76311904Y-112329580D02*
X76359523Y-112234342D01*
X76359523Y-112234342D02*
X76359523Y-111424819D01*
X77311904Y-111424819D02*
X76835714Y-111424819D01*
X76835714Y-111424819D02*
X76788095Y-111901009D01*
X76788095Y-111901009D02*
X76835714Y-111853390D01*
X76835714Y-111853390D02*
X76930952Y-111805771D01*
X76930952Y-111805771D02*
X77169047Y-111805771D01*
X77169047Y-111805771D02*
X77264285Y-111853390D01*
X77264285Y-111853390D02*
X77311904Y-111901009D01*
X77311904Y-111901009D02*
X77359523Y-111996247D01*
X77359523Y-111996247D02*
X77359523Y-112234342D01*
X77359523Y-112234342D02*
X77311904Y-112329580D01*
X77311904Y-112329580D02*
X77264285Y-112377200D01*
X77264285Y-112377200D02*
X77169047Y-112424819D01*
X77169047Y-112424819D02*
X76930952Y-112424819D01*
X76930952Y-112424819D02*
X76835714Y-112377200D01*
X76835714Y-112377200D02*
X76788095Y-112329580D01*
X81869819Y-106031904D02*
X82679342Y-106031904D01*
X82679342Y-106031904D02*
X82774580Y-105984285D01*
X82774580Y-105984285D02*
X82822200Y-105936666D01*
X82822200Y-105936666D02*
X82869819Y-105841428D01*
X82869819Y-105841428D02*
X82869819Y-105650952D01*
X82869819Y-105650952D02*
X82822200Y-105555714D01*
X82822200Y-105555714D02*
X82774580Y-105508095D01*
X82774580Y-105508095D02*
X82679342Y-105460476D01*
X82679342Y-105460476D02*
X81869819Y-105460476D01*
X82203152Y-104555714D02*
X82869819Y-104555714D01*
X81822200Y-104793809D02*
X82536485Y-105031904D01*
X82536485Y-105031904D02*
X82536485Y-104412857D01*
X66824762Y-114844819D02*
X67158095Y-115844819D01*
X67158095Y-115844819D02*
X67491428Y-114844819D01*
X67824762Y-115844819D02*
X67824762Y-114844819D01*
X68300952Y-115844819D02*
X68300952Y-114844819D01*
X68300952Y-114844819D02*
X68872380Y-115844819D01*
X68872380Y-115844819D02*
X68872380Y-114844819D01*
X69794794Y-116623307D02*
X69794794Y-116004260D01*
X69794794Y-116004260D02*
X70175746Y-116337593D01*
X70175746Y-116337593D02*
X70175746Y-116194736D01*
X70175746Y-116194736D02*
X70223365Y-116099498D01*
X70223365Y-116099498D02*
X70270984Y-116051879D01*
X70270984Y-116051879D02*
X70366222Y-116004260D01*
X70366222Y-116004260D02*
X70604317Y-116004260D01*
X70604317Y-116004260D02*
X70699555Y-116051879D01*
X70699555Y-116051879D02*
X70747175Y-116099498D01*
X70747175Y-116099498D02*
X70794794Y-116194736D01*
X70794794Y-116194736D02*
X70794794Y-116480450D01*
X70794794Y-116480450D02*
X70747175Y-116575688D01*
X70747175Y-116575688D02*
X70699555Y-116623307D01*
X71109819Y-111054285D02*
X71109819Y-111625713D01*
X71109819Y-111339999D02*
X70109819Y-111339999D01*
X70109819Y-111339999D02*
X70252676Y-111435237D01*
X70252676Y-111435237D02*
X70347914Y-111530475D01*
X70347914Y-111530475D02*
X70395533Y-111625713D01*
X61278152Y-111542857D02*
X60801961Y-111876190D01*
X61278152Y-112114285D02*
X60278152Y-112114285D01*
X60278152Y-112114285D02*
X60278152Y-111733333D01*
X60278152Y-111733333D02*
X60325771Y-111638095D01*
X60325771Y-111638095D02*
X60373390Y-111590476D01*
X60373390Y-111590476D02*
X60468628Y-111542857D01*
X60468628Y-111542857D02*
X60611485Y-111542857D01*
X60611485Y-111542857D02*
X60706723Y-111590476D01*
X60706723Y-111590476D02*
X60754342Y-111638095D01*
X60754342Y-111638095D02*
X60801961Y-111733333D01*
X60801961Y-111733333D02*
X60801961Y-112114285D01*
X61278152Y-110590476D02*
X61278152Y-111161904D01*
X61278152Y-110876190D02*
X60278152Y-110876190D01*
X60278152Y-110876190D02*
X60421009Y-110971428D01*
X60421009Y-110971428D02*
X60516247Y-111066666D01*
X60516247Y-111066666D02*
X60563866Y-111161904D01*
X60278152Y-109685714D02*
X60278152Y-110161904D01*
X60278152Y-110161904D02*
X60754342Y-110209523D01*
X60754342Y-110209523D02*
X60706723Y-110161904D01*
X60706723Y-110161904D02*
X60659104Y-110066666D01*
X60659104Y-110066666D02*
X60659104Y-109828571D01*
X60659104Y-109828571D02*
X60706723Y-109733333D01*
X60706723Y-109733333D02*
X60754342Y-109685714D01*
X60754342Y-109685714D02*
X60849580Y-109638095D01*
X60849580Y-109638095D02*
X61087675Y-109638095D01*
X61087675Y-109638095D02*
X61182913Y-109685714D01*
X61182913Y-109685714D02*
X61230533Y-109733333D01*
X61230533Y-109733333D02*
X61278152Y-109828571D01*
X61278152Y-109828571D02*
X61278152Y-110066666D01*
X61278152Y-110066666D02*
X61230533Y-110161904D01*
X61230533Y-110161904D02*
X61182913Y-110209523D01*
X92169761Y-85780057D02*
X92074523Y-85732438D01*
X92074523Y-85732438D02*
X91979285Y-85637200D01*
X91979285Y-85637200D02*
X91836428Y-85494342D01*
X91836428Y-85494342D02*
X91741190Y-85446723D01*
X91741190Y-85446723D02*
X91645952Y-85446723D01*
X91693571Y-85684819D02*
X91598333Y-85637200D01*
X91598333Y-85637200D02*
X91503095Y-85541961D01*
X91503095Y-85541961D02*
X91455476Y-85351485D01*
X91455476Y-85351485D02*
X91455476Y-85018152D01*
X91455476Y-85018152D02*
X91503095Y-84827676D01*
X91503095Y-84827676D02*
X91598333Y-84732438D01*
X91598333Y-84732438D02*
X91693571Y-84684819D01*
X91693571Y-84684819D02*
X91884047Y-84684819D01*
X91884047Y-84684819D02*
X91979285Y-84732438D01*
X91979285Y-84732438D02*
X92074523Y-84827676D01*
X92074523Y-84827676D02*
X92122142Y-85018152D01*
X92122142Y-85018152D02*
X92122142Y-85351485D01*
X92122142Y-85351485D02*
X92074523Y-85541961D01*
X92074523Y-85541961D02*
X91979285Y-85637200D01*
X91979285Y-85637200D02*
X91884047Y-85684819D01*
X91884047Y-85684819D02*
X91693571Y-85684819D01*
X93026904Y-84684819D02*
X92550714Y-84684819D01*
X92550714Y-84684819D02*
X92503095Y-85161009D01*
X92503095Y-85161009D02*
X92550714Y-85113390D01*
X92550714Y-85113390D02*
X92645952Y-85065771D01*
X92645952Y-85065771D02*
X92884047Y-85065771D01*
X92884047Y-85065771D02*
X92979285Y-85113390D01*
X92979285Y-85113390D02*
X93026904Y-85161009D01*
X93026904Y-85161009D02*
X93074523Y-85256247D01*
X93074523Y-85256247D02*
X93074523Y-85494342D01*
X93074523Y-85494342D02*
X93026904Y-85589580D01*
X93026904Y-85589580D02*
X92979285Y-85637200D01*
X92979285Y-85637200D02*
X92884047Y-85684819D01*
X92884047Y-85684819D02*
X92645952Y-85684819D01*
X92645952Y-85684819D02*
X92550714Y-85637200D01*
X92550714Y-85637200D02*
X92503095Y-85589580D01*
X94499761Y-73930057D02*
X94404523Y-73882438D01*
X94404523Y-73882438D02*
X94309285Y-73787200D01*
X94309285Y-73787200D02*
X94166428Y-73644342D01*
X94166428Y-73644342D02*
X94071190Y-73596723D01*
X94071190Y-73596723D02*
X93975952Y-73596723D01*
X94023571Y-73834819D02*
X93928333Y-73787200D01*
X93928333Y-73787200D02*
X93833095Y-73691961D01*
X93833095Y-73691961D02*
X93785476Y-73501485D01*
X93785476Y-73501485D02*
X93785476Y-73168152D01*
X93785476Y-73168152D02*
X93833095Y-72977676D01*
X93833095Y-72977676D02*
X93928333Y-72882438D01*
X93928333Y-72882438D02*
X94023571Y-72834819D01*
X94023571Y-72834819D02*
X94214047Y-72834819D01*
X94214047Y-72834819D02*
X94309285Y-72882438D01*
X94309285Y-72882438D02*
X94404523Y-72977676D01*
X94404523Y-72977676D02*
X94452142Y-73168152D01*
X94452142Y-73168152D02*
X94452142Y-73501485D01*
X94452142Y-73501485D02*
X94404523Y-73691961D01*
X94404523Y-73691961D02*
X94309285Y-73787200D01*
X94309285Y-73787200D02*
X94214047Y-73834819D01*
X94214047Y-73834819D02*
X94023571Y-73834819D01*
X95309285Y-73168152D02*
X95309285Y-73834819D01*
X95071190Y-72787200D02*
X94833095Y-73501485D01*
X94833095Y-73501485D02*
X95452142Y-73501485D01*
X70739667Y-89622200D02*
X70882524Y-89669819D01*
X70882524Y-89669819D02*
X71120619Y-89669819D01*
X71120619Y-89669819D02*
X71215857Y-89622200D01*
X71215857Y-89622200D02*
X71263476Y-89574580D01*
X71263476Y-89574580D02*
X71311095Y-89479342D01*
X71311095Y-89479342D02*
X71311095Y-89384104D01*
X71311095Y-89384104D02*
X71263476Y-89288866D01*
X71263476Y-89288866D02*
X71215857Y-89241247D01*
X71215857Y-89241247D02*
X71120619Y-89193628D01*
X71120619Y-89193628D02*
X70930143Y-89146009D01*
X70930143Y-89146009D02*
X70834905Y-89098390D01*
X70834905Y-89098390D02*
X70787286Y-89050771D01*
X70787286Y-89050771D02*
X70739667Y-88955533D01*
X70739667Y-88955533D02*
X70739667Y-88860295D01*
X70739667Y-88860295D02*
X70787286Y-88765057D01*
X70787286Y-88765057D02*
X70834905Y-88717438D01*
X70834905Y-88717438D02*
X70930143Y-88669819D01*
X70930143Y-88669819D02*
X71168238Y-88669819D01*
X71168238Y-88669819D02*
X71311095Y-88717438D01*
X71644429Y-88669819D02*
X71882524Y-89669819D01*
X71882524Y-89669819D02*
X72073000Y-88955533D01*
X72073000Y-88955533D02*
X72263476Y-89669819D01*
X72263476Y-89669819D02*
X72501572Y-88669819D01*
X72834905Y-88765057D02*
X72882524Y-88717438D01*
X72882524Y-88717438D02*
X72977762Y-88669819D01*
X72977762Y-88669819D02*
X73215857Y-88669819D01*
X73215857Y-88669819D02*
X73311095Y-88717438D01*
X73311095Y-88717438D02*
X73358714Y-88765057D01*
X73358714Y-88765057D02*
X73406333Y-88860295D01*
X73406333Y-88860295D02*
X73406333Y-88955533D01*
X73406333Y-88955533D02*
X73358714Y-89098390D01*
X73358714Y-89098390D02*
X72787286Y-89669819D01*
X72787286Y-89669819D02*
X73406333Y-89669819D01*
X70716857Y-92746009D02*
X70859714Y-92793628D01*
X70859714Y-92793628D02*
X70907333Y-92841247D01*
X70907333Y-92841247D02*
X70954952Y-92936485D01*
X70954952Y-92936485D02*
X70954952Y-93079342D01*
X70954952Y-93079342D02*
X70907333Y-93174580D01*
X70907333Y-93174580D02*
X70859714Y-93222200D01*
X70859714Y-93222200D02*
X70764476Y-93269819D01*
X70764476Y-93269819D02*
X70383524Y-93269819D01*
X70383524Y-93269819D02*
X70383524Y-92269819D01*
X70383524Y-92269819D02*
X70716857Y-92269819D01*
X70716857Y-92269819D02*
X70812095Y-92317438D01*
X70812095Y-92317438D02*
X70859714Y-92365057D01*
X70859714Y-92365057D02*
X70907333Y-92460295D01*
X70907333Y-92460295D02*
X70907333Y-92555533D01*
X70907333Y-92555533D02*
X70859714Y-92650771D01*
X70859714Y-92650771D02*
X70812095Y-92698390D01*
X70812095Y-92698390D02*
X70716857Y-92746009D01*
X70716857Y-92746009D02*
X70383524Y-92746009D01*
X71574000Y-92269819D02*
X71764476Y-92269819D01*
X71764476Y-92269819D02*
X71859714Y-92317438D01*
X71859714Y-92317438D02*
X71954952Y-92412676D01*
X71954952Y-92412676D02*
X72002571Y-92603152D01*
X72002571Y-92603152D02*
X72002571Y-92936485D01*
X72002571Y-92936485D02*
X71954952Y-93126961D01*
X71954952Y-93126961D02*
X71859714Y-93222200D01*
X71859714Y-93222200D02*
X71764476Y-93269819D01*
X71764476Y-93269819D02*
X71574000Y-93269819D01*
X71574000Y-93269819D02*
X71478762Y-93222200D01*
X71478762Y-93222200D02*
X71383524Y-93126961D01*
X71383524Y-93126961D02*
X71335905Y-92936485D01*
X71335905Y-92936485D02*
X71335905Y-92603152D01*
X71335905Y-92603152D02*
X71383524Y-92412676D01*
X71383524Y-92412676D02*
X71478762Y-92317438D01*
X71478762Y-92317438D02*
X71574000Y-92269819D01*
X72621619Y-92269819D02*
X72812095Y-92269819D01*
X72812095Y-92269819D02*
X72907333Y-92317438D01*
X72907333Y-92317438D02*
X73002571Y-92412676D01*
X73002571Y-92412676D02*
X73050190Y-92603152D01*
X73050190Y-92603152D02*
X73050190Y-92936485D01*
X73050190Y-92936485D02*
X73002571Y-93126961D01*
X73002571Y-93126961D02*
X72907333Y-93222200D01*
X72907333Y-93222200D02*
X72812095Y-93269819D01*
X72812095Y-93269819D02*
X72621619Y-93269819D01*
X72621619Y-93269819D02*
X72526381Y-93222200D01*
X72526381Y-93222200D02*
X72431143Y-93126961D01*
X72431143Y-93126961D02*
X72383524Y-92936485D01*
X72383524Y-92936485D02*
X72383524Y-92603152D01*
X72383524Y-92603152D02*
X72431143Y-92412676D01*
X72431143Y-92412676D02*
X72526381Y-92317438D01*
X72526381Y-92317438D02*
X72621619Y-92269819D01*
X73335905Y-92269819D02*
X73907333Y-92269819D01*
X73621619Y-93269819D02*
X73621619Y-92269819D01*
X59073333Y-82554819D02*
X58740000Y-82078628D01*
X58501905Y-82554819D02*
X58501905Y-81554819D01*
X58501905Y-81554819D02*
X58882857Y-81554819D01*
X58882857Y-81554819D02*
X58978095Y-81602438D01*
X58978095Y-81602438D02*
X59025714Y-81650057D01*
X59025714Y-81650057D02*
X59073333Y-81745295D01*
X59073333Y-81745295D02*
X59073333Y-81888152D01*
X59073333Y-81888152D02*
X59025714Y-81983390D01*
X59025714Y-81983390D02*
X58978095Y-82031009D01*
X58978095Y-82031009D02*
X58882857Y-82078628D01*
X58882857Y-82078628D02*
X58501905Y-82078628D01*
X60025714Y-82554819D02*
X59454286Y-82554819D01*
X59740000Y-82554819D02*
X59740000Y-81554819D01*
X59740000Y-81554819D02*
X59644762Y-81697676D01*
X59644762Y-81697676D02*
X59549524Y-81792914D01*
X59549524Y-81792914D02*
X59454286Y-81840533D01*
X61329819Y-67641666D02*
X60853628Y-67974999D01*
X61329819Y-68213094D02*
X60329819Y-68213094D01*
X60329819Y-68213094D02*
X60329819Y-67832142D01*
X60329819Y-67832142D02*
X60377438Y-67736904D01*
X60377438Y-67736904D02*
X60425057Y-67689285D01*
X60425057Y-67689285D02*
X60520295Y-67641666D01*
X60520295Y-67641666D02*
X60663152Y-67641666D01*
X60663152Y-67641666D02*
X60758390Y-67689285D01*
X60758390Y-67689285D02*
X60806009Y-67736904D01*
X60806009Y-67736904D02*
X60853628Y-67832142D01*
X60853628Y-67832142D02*
X60853628Y-68213094D01*
X60425057Y-67260713D02*
X60377438Y-67213094D01*
X60377438Y-67213094D02*
X60329819Y-67117856D01*
X60329819Y-67117856D02*
X60329819Y-66879761D01*
X60329819Y-66879761D02*
X60377438Y-66784523D01*
X60377438Y-66784523D02*
X60425057Y-66736904D01*
X60425057Y-66736904D02*
X60520295Y-66689285D01*
X60520295Y-66689285D02*
X60615533Y-66689285D01*
X60615533Y-66689285D02*
X60758390Y-66736904D01*
X60758390Y-66736904D02*
X61329819Y-67308332D01*
X61329819Y-67308332D02*
X61329819Y-66689285D01*
X95136666Y-84544819D02*
X95136666Y-85259104D01*
X95136666Y-85259104D02*
X95089047Y-85401961D01*
X95089047Y-85401961D02*
X94993809Y-85497200D01*
X94993809Y-85497200D02*
X94850952Y-85544819D01*
X94850952Y-85544819D02*
X94755714Y-85544819D01*
X95565238Y-84640057D02*
X95612857Y-84592438D01*
X95612857Y-84592438D02*
X95708095Y-84544819D01*
X95708095Y-84544819D02*
X95946190Y-84544819D01*
X95946190Y-84544819D02*
X96041428Y-84592438D01*
X96041428Y-84592438D02*
X96089047Y-84640057D01*
X96089047Y-84640057D02*
X96136666Y-84735295D01*
X96136666Y-84735295D02*
X96136666Y-84830533D01*
X96136666Y-84830533D02*
X96089047Y-84973390D01*
X96089047Y-84973390D02*
X95517619Y-85544819D01*
X95517619Y-85544819D02*
X96136666Y-85544819D01*
X96364104Y-117469047D02*
X96364104Y-116992857D01*
X96649819Y-117564285D02*
X95649819Y-117230952D01*
X95649819Y-117230952D02*
X96649819Y-116897619D01*
X96649819Y-116564285D02*
X95649819Y-116564285D01*
X95649819Y-116564285D02*
X96649819Y-115992857D01*
X96649819Y-115992857D02*
X95649819Y-115992857D01*
X96364104Y-115564285D02*
X96364104Y-115088095D01*
X96649819Y-115659523D02*
X95649819Y-115326190D01*
X95649819Y-115326190D02*
X96649819Y-114992857D01*
X96649819Y-114183333D02*
X96649819Y-114659523D01*
X96649819Y-114659523D02*
X95649819Y-114659523D01*
X95649819Y-113659523D02*
X95649819Y-113469047D01*
X95649819Y-113469047D02*
X95697438Y-113373809D01*
X95697438Y-113373809D02*
X95792676Y-113278571D01*
X95792676Y-113278571D02*
X95983152Y-113230952D01*
X95983152Y-113230952D02*
X96316485Y-113230952D01*
X96316485Y-113230952D02*
X96506961Y-113278571D01*
X96506961Y-113278571D02*
X96602200Y-113373809D01*
X96602200Y-113373809D02*
X96649819Y-113469047D01*
X96649819Y-113469047D02*
X96649819Y-113659523D01*
X96649819Y-113659523D02*
X96602200Y-113754761D01*
X96602200Y-113754761D02*
X96506961Y-113849999D01*
X96506961Y-113849999D02*
X96316485Y-113897618D01*
X96316485Y-113897618D02*
X95983152Y-113897618D01*
X95983152Y-113897618D02*
X95792676Y-113849999D01*
X95792676Y-113849999D02*
X95697438Y-113754761D01*
X95697438Y-113754761D02*
X95649819Y-113659523D01*
X95697438Y-112278571D02*
X95649819Y-112373809D01*
X95649819Y-112373809D02*
X95649819Y-112516666D01*
X95649819Y-112516666D02*
X95697438Y-112659523D01*
X95697438Y-112659523D02*
X95792676Y-112754761D01*
X95792676Y-112754761D02*
X95887914Y-112802380D01*
X95887914Y-112802380D02*
X96078390Y-112849999D01*
X96078390Y-112849999D02*
X96221247Y-112849999D01*
X96221247Y-112849999D02*
X96411723Y-112802380D01*
X96411723Y-112802380D02*
X96506961Y-112754761D01*
X96506961Y-112754761D02*
X96602200Y-112659523D01*
X96602200Y-112659523D02*
X96649819Y-112516666D01*
X96649819Y-112516666D02*
X96649819Y-112421428D01*
X96649819Y-112421428D02*
X96602200Y-112278571D01*
X96602200Y-112278571D02*
X96554580Y-112230952D01*
X96554580Y-112230952D02*
X96221247Y-112230952D01*
X96221247Y-112230952D02*
X96221247Y-112421428D01*
X65623333Y-86149819D02*
X65290000Y-85673628D01*
X65051905Y-86149819D02*
X65051905Y-85149819D01*
X65051905Y-85149819D02*
X65432857Y-85149819D01*
X65432857Y-85149819D02*
X65528095Y-85197438D01*
X65528095Y-85197438D02*
X65575714Y-85245057D01*
X65575714Y-85245057D02*
X65623333Y-85340295D01*
X65623333Y-85340295D02*
X65623333Y-85483152D01*
X65623333Y-85483152D02*
X65575714Y-85578390D01*
X65575714Y-85578390D02*
X65528095Y-85626009D01*
X65528095Y-85626009D02*
X65432857Y-85673628D01*
X65432857Y-85673628D02*
X65051905Y-85673628D01*
X65956667Y-85149819D02*
X66575714Y-85149819D01*
X66575714Y-85149819D02*
X66242381Y-85530771D01*
X66242381Y-85530771D02*
X66385238Y-85530771D01*
X66385238Y-85530771D02*
X66480476Y-85578390D01*
X66480476Y-85578390D02*
X66528095Y-85626009D01*
X66528095Y-85626009D02*
X66575714Y-85721247D01*
X66575714Y-85721247D02*
X66575714Y-85959342D01*
X66575714Y-85959342D02*
X66528095Y-86054580D01*
X66528095Y-86054580D02*
X66480476Y-86102200D01*
X66480476Y-86102200D02*
X66385238Y-86149819D01*
X66385238Y-86149819D02*
X66099524Y-86149819D01*
X66099524Y-86149819D02*
X66004286Y-86102200D01*
X66004286Y-86102200D02*
X65956667Y-86054580D01*
X93708333Y-114039580D02*
X93660714Y-114087200D01*
X93660714Y-114087200D02*
X93517857Y-114134819D01*
X93517857Y-114134819D02*
X93422619Y-114134819D01*
X93422619Y-114134819D02*
X93279762Y-114087200D01*
X93279762Y-114087200D02*
X93184524Y-113991961D01*
X93184524Y-113991961D02*
X93136905Y-113896723D01*
X93136905Y-113896723D02*
X93089286Y-113706247D01*
X93089286Y-113706247D02*
X93089286Y-113563390D01*
X93089286Y-113563390D02*
X93136905Y-113372914D01*
X93136905Y-113372914D02*
X93184524Y-113277676D01*
X93184524Y-113277676D02*
X93279762Y-113182438D01*
X93279762Y-113182438D02*
X93422619Y-113134819D01*
X93422619Y-113134819D02*
X93517857Y-113134819D01*
X93517857Y-113134819D02*
X93660714Y-113182438D01*
X93660714Y-113182438D02*
X93708333Y-113230057D01*
X94279762Y-113563390D02*
X94184524Y-113515771D01*
X94184524Y-113515771D02*
X94136905Y-113468152D01*
X94136905Y-113468152D02*
X94089286Y-113372914D01*
X94089286Y-113372914D02*
X94089286Y-113325295D01*
X94089286Y-113325295D02*
X94136905Y-113230057D01*
X94136905Y-113230057D02*
X94184524Y-113182438D01*
X94184524Y-113182438D02*
X94279762Y-113134819D01*
X94279762Y-113134819D02*
X94470238Y-113134819D01*
X94470238Y-113134819D02*
X94565476Y-113182438D01*
X94565476Y-113182438D02*
X94613095Y-113230057D01*
X94613095Y-113230057D02*
X94660714Y-113325295D01*
X94660714Y-113325295D02*
X94660714Y-113372914D01*
X94660714Y-113372914D02*
X94613095Y-113468152D01*
X94613095Y-113468152D02*
X94565476Y-113515771D01*
X94565476Y-113515771D02*
X94470238Y-113563390D01*
X94470238Y-113563390D02*
X94279762Y-113563390D01*
X94279762Y-113563390D02*
X94184524Y-113611009D01*
X94184524Y-113611009D02*
X94136905Y-113658628D01*
X94136905Y-113658628D02*
X94089286Y-113753866D01*
X94089286Y-113753866D02*
X94089286Y-113944342D01*
X94089286Y-113944342D02*
X94136905Y-114039580D01*
X94136905Y-114039580D02*
X94184524Y-114087200D01*
X94184524Y-114087200D02*
X94279762Y-114134819D01*
X94279762Y-114134819D02*
X94470238Y-114134819D01*
X94470238Y-114134819D02*
X94565476Y-114087200D01*
X94565476Y-114087200D02*
X94613095Y-114039580D01*
X94613095Y-114039580D02*
X94660714Y-113944342D01*
X94660714Y-113944342D02*
X94660714Y-113753866D01*
X94660714Y-113753866D02*
X94613095Y-113658628D01*
X94613095Y-113658628D02*
X94565476Y-113611009D01*
X94565476Y-113611009D02*
X94470238Y-113563390D01*
X76241666Y-120794819D02*
X76241666Y-121509104D01*
X76241666Y-121509104D02*
X76194047Y-121651961D01*
X76194047Y-121651961D02*
X76098809Y-121747200D01*
X76098809Y-121747200D02*
X75955952Y-121794819D01*
X75955952Y-121794819D02*
X75860714Y-121794819D01*
X77146428Y-121128152D02*
X77146428Y-121794819D01*
X76908333Y-120747200D02*
X76670238Y-121461485D01*
X76670238Y-121461485D02*
X77289285Y-121461485D01*
X90864761Y-81135057D02*
X90769523Y-81087438D01*
X90769523Y-81087438D02*
X90674285Y-80992200D01*
X90674285Y-80992200D02*
X90531428Y-80849342D01*
X90531428Y-80849342D02*
X90436190Y-80801723D01*
X90436190Y-80801723D02*
X90340952Y-80801723D01*
X90388571Y-81039819D02*
X90293333Y-80992200D01*
X90293333Y-80992200D02*
X90198095Y-80896961D01*
X90198095Y-80896961D02*
X90150476Y-80706485D01*
X90150476Y-80706485D02*
X90150476Y-80373152D01*
X90150476Y-80373152D02*
X90198095Y-80182676D01*
X90198095Y-80182676D02*
X90293333Y-80087438D01*
X90293333Y-80087438D02*
X90388571Y-80039819D01*
X90388571Y-80039819D02*
X90579047Y-80039819D01*
X90579047Y-80039819D02*
X90674285Y-80087438D01*
X90674285Y-80087438D02*
X90769523Y-80182676D01*
X90769523Y-80182676D02*
X90817142Y-80373152D01*
X90817142Y-80373152D02*
X90817142Y-80706485D01*
X90817142Y-80706485D02*
X90769523Y-80896961D01*
X90769523Y-80896961D02*
X90674285Y-80992200D01*
X90674285Y-80992200D02*
X90579047Y-81039819D01*
X90579047Y-81039819D02*
X90388571Y-81039819D01*
X91198095Y-80135057D02*
X91245714Y-80087438D01*
X91245714Y-80087438D02*
X91340952Y-80039819D01*
X91340952Y-80039819D02*
X91579047Y-80039819D01*
X91579047Y-80039819D02*
X91674285Y-80087438D01*
X91674285Y-80087438D02*
X91721904Y-80135057D01*
X91721904Y-80135057D02*
X91769523Y-80230295D01*
X91769523Y-80230295D02*
X91769523Y-80325533D01*
X91769523Y-80325533D02*
X91721904Y-80468390D01*
X91721904Y-80468390D02*
X91150476Y-81039819D01*
X91150476Y-81039819D02*
X91769523Y-81039819D01*
X60667142Y-76911069D02*
X60333809Y-76434878D01*
X60095714Y-76911069D02*
X60095714Y-75911069D01*
X60095714Y-75911069D02*
X60476666Y-75911069D01*
X60476666Y-75911069D02*
X60571904Y-75958688D01*
X60571904Y-75958688D02*
X60619523Y-76006307D01*
X60619523Y-76006307D02*
X60667142Y-76101545D01*
X60667142Y-76101545D02*
X60667142Y-76244402D01*
X60667142Y-76244402D02*
X60619523Y-76339640D01*
X60619523Y-76339640D02*
X60571904Y-76387259D01*
X60571904Y-76387259D02*
X60476666Y-76434878D01*
X60476666Y-76434878D02*
X60095714Y-76434878D01*
X61619523Y-76911069D02*
X61048095Y-76911069D01*
X61333809Y-76911069D02*
X61333809Y-75911069D01*
X61333809Y-75911069D02*
X61238571Y-76053926D01*
X61238571Y-76053926D02*
X61143333Y-76149164D01*
X61143333Y-76149164D02*
X61048095Y-76196783D01*
X62238571Y-75911069D02*
X62333809Y-75911069D01*
X62333809Y-75911069D02*
X62429047Y-75958688D01*
X62429047Y-75958688D02*
X62476666Y-76006307D01*
X62476666Y-76006307D02*
X62524285Y-76101545D01*
X62524285Y-76101545D02*
X62571904Y-76292021D01*
X62571904Y-76292021D02*
X62571904Y-76530116D01*
X62571904Y-76530116D02*
X62524285Y-76720592D01*
X62524285Y-76720592D02*
X62476666Y-76815830D01*
X62476666Y-76815830D02*
X62429047Y-76863450D01*
X62429047Y-76863450D02*
X62333809Y-76911069D01*
X62333809Y-76911069D02*
X62238571Y-76911069D01*
X62238571Y-76911069D02*
X62143333Y-76863450D01*
X62143333Y-76863450D02*
X62095714Y-76815830D01*
X62095714Y-76815830D02*
X62048095Y-76720592D01*
X62048095Y-76720592D02*
X62000476Y-76530116D01*
X62000476Y-76530116D02*
X62000476Y-76292021D01*
X62000476Y-76292021D02*
X62048095Y-76101545D01*
X62048095Y-76101545D02*
X62095714Y-76006307D01*
X62095714Y-76006307D02*
X62143333Y-75958688D01*
X62143333Y-75958688D02*
X62238571Y-75911069D01*
X60652142Y-80819819D02*
X60318809Y-80343628D01*
X60080714Y-80819819D02*
X60080714Y-79819819D01*
X60080714Y-79819819D02*
X60461666Y-79819819D01*
X60461666Y-79819819D02*
X60556904Y-79867438D01*
X60556904Y-79867438D02*
X60604523Y-79915057D01*
X60604523Y-79915057D02*
X60652142Y-80010295D01*
X60652142Y-80010295D02*
X60652142Y-80153152D01*
X60652142Y-80153152D02*
X60604523Y-80248390D01*
X60604523Y-80248390D02*
X60556904Y-80296009D01*
X60556904Y-80296009D02*
X60461666Y-80343628D01*
X60461666Y-80343628D02*
X60080714Y-80343628D01*
X61604523Y-80819819D02*
X61033095Y-80819819D01*
X61318809Y-80819819D02*
X61318809Y-79819819D01*
X61318809Y-79819819D02*
X61223571Y-79962676D01*
X61223571Y-79962676D02*
X61128333Y-80057914D01*
X61128333Y-80057914D02*
X61033095Y-80105533D01*
X62556904Y-80819819D02*
X61985476Y-80819819D01*
X62271190Y-80819819D02*
X62271190Y-79819819D01*
X62271190Y-79819819D02*
X62175952Y-79962676D01*
X62175952Y-79962676D02*
X62080714Y-80057914D01*
X62080714Y-80057914D02*
X61985476Y-80105533D01*
X87437142Y-73154819D02*
X87103809Y-72678628D01*
X86865714Y-73154819D02*
X86865714Y-72154819D01*
X86865714Y-72154819D02*
X87246666Y-72154819D01*
X87246666Y-72154819D02*
X87341904Y-72202438D01*
X87341904Y-72202438D02*
X87389523Y-72250057D01*
X87389523Y-72250057D02*
X87437142Y-72345295D01*
X87437142Y-72345295D02*
X87437142Y-72488152D01*
X87437142Y-72488152D02*
X87389523Y-72583390D01*
X87389523Y-72583390D02*
X87341904Y-72631009D01*
X87341904Y-72631009D02*
X87246666Y-72678628D01*
X87246666Y-72678628D02*
X86865714Y-72678628D01*
X88389523Y-73154819D02*
X87818095Y-73154819D01*
X88103809Y-73154819D02*
X88103809Y-72154819D01*
X88103809Y-72154819D02*
X88008571Y-72297676D01*
X88008571Y-72297676D02*
X87913333Y-72392914D01*
X87913333Y-72392914D02*
X87818095Y-72440533D01*
X88770476Y-72250057D02*
X88818095Y-72202438D01*
X88818095Y-72202438D02*
X88913333Y-72154819D01*
X88913333Y-72154819D02*
X89151428Y-72154819D01*
X89151428Y-72154819D02*
X89246666Y-72202438D01*
X89246666Y-72202438D02*
X89294285Y-72250057D01*
X89294285Y-72250057D02*
X89341904Y-72345295D01*
X89341904Y-72345295D02*
X89341904Y-72440533D01*
X89341904Y-72440533D02*
X89294285Y-72583390D01*
X89294285Y-72583390D02*
X88722857Y-73154819D01*
X88722857Y-73154819D02*
X89341904Y-73154819D01*
X65796905Y-94759819D02*
X65796905Y-93759819D01*
X65796905Y-93759819D02*
X66035000Y-93759819D01*
X66035000Y-93759819D02*
X66177857Y-93807438D01*
X66177857Y-93807438D02*
X66273095Y-93902676D01*
X66273095Y-93902676D02*
X66320714Y-93997914D01*
X66320714Y-93997914D02*
X66368333Y-94188390D01*
X66368333Y-94188390D02*
X66368333Y-94331247D01*
X66368333Y-94331247D02*
X66320714Y-94521723D01*
X66320714Y-94521723D02*
X66273095Y-94616961D01*
X66273095Y-94616961D02*
X66177857Y-94712200D01*
X66177857Y-94712200D02*
X66035000Y-94759819D01*
X66035000Y-94759819D02*
X65796905Y-94759819D01*
X67320714Y-94759819D02*
X66749286Y-94759819D01*
X67035000Y-94759819D02*
X67035000Y-93759819D01*
X67035000Y-93759819D02*
X66939762Y-93902676D01*
X66939762Y-93902676D02*
X66844524Y-93997914D01*
X66844524Y-93997914D02*
X66749286Y-94045533D01*
X62567295Y-93871428D02*
X62567295Y-94328571D01*
X62567295Y-94099999D02*
X61767295Y-94099999D01*
X61767295Y-94099999D02*
X61881580Y-94176190D01*
X61881580Y-94176190D02*
X61957771Y-94252380D01*
X61957771Y-94252380D02*
X61995866Y-94328571D01*
X79097667Y-89772200D02*
X79240524Y-89819819D01*
X79240524Y-89819819D02*
X79478619Y-89819819D01*
X79478619Y-89819819D02*
X79573857Y-89772200D01*
X79573857Y-89772200D02*
X79621476Y-89724580D01*
X79621476Y-89724580D02*
X79669095Y-89629342D01*
X79669095Y-89629342D02*
X79669095Y-89534104D01*
X79669095Y-89534104D02*
X79621476Y-89438866D01*
X79621476Y-89438866D02*
X79573857Y-89391247D01*
X79573857Y-89391247D02*
X79478619Y-89343628D01*
X79478619Y-89343628D02*
X79288143Y-89296009D01*
X79288143Y-89296009D02*
X79192905Y-89248390D01*
X79192905Y-89248390D02*
X79145286Y-89200771D01*
X79145286Y-89200771D02*
X79097667Y-89105533D01*
X79097667Y-89105533D02*
X79097667Y-89010295D01*
X79097667Y-89010295D02*
X79145286Y-88915057D01*
X79145286Y-88915057D02*
X79192905Y-88867438D01*
X79192905Y-88867438D02*
X79288143Y-88819819D01*
X79288143Y-88819819D02*
X79526238Y-88819819D01*
X79526238Y-88819819D02*
X79669095Y-88867438D01*
X80002429Y-88819819D02*
X80240524Y-89819819D01*
X80240524Y-89819819D02*
X80431000Y-89105533D01*
X80431000Y-89105533D02*
X80621476Y-89819819D01*
X80621476Y-89819819D02*
X80859572Y-88819819D01*
X81764333Y-89819819D02*
X81192905Y-89819819D01*
X81478619Y-89819819D02*
X81478619Y-88819819D01*
X81478619Y-88819819D02*
X81383381Y-88962676D01*
X81383381Y-88962676D02*
X81288143Y-89057914D01*
X81288143Y-89057914D02*
X81192905Y-89105533D01*
X78935618Y-93349819D02*
X78602285Y-92873628D01*
X78364190Y-93349819D02*
X78364190Y-92349819D01*
X78364190Y-92349819D02*
X78745142Y-92349819D01*
X78745142Y-92349819D02*
X78840380Y-92397438D01*
X78840380Y-92397438D02*
X78887999Y-92445057D01*
X78887999Y-92445057D02*
X78935618Y-92540295D01*
X78935618Y-92540295D02*
X78935618Y-92683152D01*
X78935618Y-92683152D02*
X78887999Y-92778390D01*
X78887999Y-92778390D02*
X78840380Y-92826009D01*
X78840380Y-92826009D02*
X78745142Y-92873628D01*
X78745142Y-92873628D02*
X78364190Y-92873628D01*
X79364190Y-92826009D02*
X79697523Y-92826009D01*
X79840380Y-93349819D02*
X79364190Y-93349819D01*
X79364190Y-93349819D02*
X79364190Y-92349819D01*
X79364190Y-92349819D02*
X79840380Y-92349819D01*
X80221333Y-93302200D02*
X80364190Y-93349819D01*
X80364190Y-93349819D02*
X80602285Y-93349819D01*
X80602285Y-93349819D02*
X80697523Y-93302200D01*
X80697523Y-93302200D02*
X80745142Y-93254580D01*
X80745142Y-93254580D02*
X80792761Y-93159342D01*
X80792761Y-93159342D02*
X80792761Y-93064104D01*
X80792761Y-93064104D02*
X80745142Y-92968866D01*
X80745142Y-92968866D02*
X80697523Y-92921247D01*
X80697523Y-92921247D02*
X80602285Y-92873628D01*
X80602285Y-92873628D02*
X80411809Y-92826009D01*
X80411809Y-92826009D02*
X80316571Y-92778390D01*
X80316571Y-92778390D02*
X80268952Y-92730771D01*
X80268952Y-92730771D02*
X80221333Y-92635533D01*
X80221333Y-92635533D02*
X80221333Y-92540295D01*
X80221333Y-92540295D02*
X80268952Y-92445057D01*
X80268952Y-92445057D02*
X80316571Y-92397438D01*
X80316571Y-92397438D02*
X80411809Y-92349819D01*
X80411809Y-92349819D02*
X80649904Y-92349819D01*
X80649904Y-92349819D02*
X80792761Y-92397438D01*
X81221333Y-92826009D02*
X81554666Y-92826009D01*
X81697523Y-93349819D02*
X81221333Y-93349819D01*
X81221333Y-93349819D02*
X81221333Y-92349819D01*
X81221333Y-92349819D02*
X81697523Y-92349819D01*
X81983238Y-92349819D02*
X82554666Y-92349819D01*
X82268952Y-93349819D02*
X82268952Y-92349819D01*
X58351666Y-107939819D02*
X58351666Y-108654104D01*
X58351666Y-108654104D02*
X58304047Y-108796961D01*
X58304047Y-108796961D02*
X58208809Y-108892200D01*
X58208809Y-108892200D02*
X58065952Y-108939819D01*
X58065952Y-108939819D02*
X57970714Y-108939819D01*
X59351666Y-108939819D02*
X58780238Y-108939819D01*
X59065952Y-108939819D02*
X59065952Y-107939819D01*
X59065952Y-107939819D02*
X58970714Y-108082676D01*
X58970714Y-108082676D02*
X58875476Y-108177914D01*
X58875476Y-108177914D02*
X58780238Y-108225533D01*
X72662142Y-102464819D02*
X72328809Y-101988628D01*
X72090714Y-102464819D02*
X72090714Y-101464819D01*
X72090714Y-101464819D02*
X72471666Y-101464819D01*
X72471666Y-101464819D02*
X72566904Y-101512438D01*
X72566904Y-101512438D02*
X72614523Y-101560057D01*
X72614523Y-101560057D02*
X72662142Y-101655295D01*
X72662142Y-101655295D02*
X72662142Y-101798152D01*
X72662142Y-101798152D02*
X72614523Y-101893390D01*
X72614523Y-101893390D02*
X72566904Y-101941009D01*
X72566904Y-101941009D02*
X72471666Y-101988628D01*
X72471666Y-101988628D02*
X72090714Y-101988628D01*
X73614523Y-102464819D02*
X73043095Y-102464819D01*
X73328809Y-102464819D02*
X73328809Y-101464819D01*
X73328809Y-101464819D02*
X73233571Y-101607676D01*
X73233571Y-101607676D02*
X73138333Y-101702914D01*
X73138333Y-101702914D02*
X73043095Y-101750533D01*
X74185952Y-101893390D02*
X74090714Y-101845771D01*
X74090714Y-101845771D02*
X74043095Y-101798152D01*
X74043095Y-101798152D02*
X73995476Y-101702914D01*
X73995476Y-101702914D02*
X73995476Y-101655295D01*
X73995476Y-101655295D02*
X74043095Y-101560057D01*
X74043095Y-101560057D02*
X74090714Y-101512438D01*
X74090714Y-101512438D02*
X74185952Y-101464819D01*
X74185952Y-101464819D02*
X74376428Y-101464819D01*
X74376428Y-101464819D02*
X74471666Y-101512438D01*
X74471666Y-101512438D02*
X74519285Y-101560057D01*
X74519285Y-101560057D02*
X74566904Y-101655295D01*
X74566904Y-101655295D02*
X74566904Y-101702914D01*
X74566904Y-101702914D02*
X74519285Y-101798152D01*
X74519285Y-101798152D02*
X74471666Y-101845771D01*
X74471666Y-101845771D02*
X74376428Y-101893390D01*
X74376428Y-101893390D02*
X74185952Y-101893390D01*
X74185952Y-101893390D02*
X74090714Y-101941009D01*
X74090714Y-101941009D02*
X74043095Y-101988628D01*
X74043095Y-101988628D02*
X73995476Y-102083866D01*
X73995476Y-102083866D02*
X73995476Y-102274342D01*
X73995476Y-102274342D02*
X74043095Y-102369580D01*
X74043095Y-102369580D02*
X74090714Y-102417200D01*
X74090714Y-102417200D02*
X74185952Y-102464819D01*
X74185952Y-102464819D02*
X74376428Y-102464819D01*
X74376428Y-102464819D02*
X74471666Y-102417200D01*
X74471666Y-102417200D02*
X74519285Y-102369580D01*
X74519285Y-102369580D02*
X74566904Y-102274342D01*
X74566904Y-102274342D02*
X74566904Y-102083866D01*
X74566904Y-102083866D02*
X74519285Y-101988628D01*
X74519285Y-101988628D02*
X74471666Y-101941009D01*
X74471666Y-101941009D02*
X74376428Y-101893390D01*
X87272142Y-90744819D02*
X86938809Y-90268628D01*
X86700714Y-90744819D02*
X86700714Y-89744819D01*
X86700714Y-89744819D02*
X87081666Y-89744819D01*
X87081666Y-89744819D02*
X87176904Y-89792438D01*
X87176904Y-89792438D02*
X87224523Y-89840057D01*
X87224523Y-89840057D02*
X87272142Y-89935295D01*
X87272142Y-89935295D02*
X87272142Y-90078152D01*
X87272142Y-90078152D02*
X87224523Y-90173390D01*
X87224523Y-90173390D02*
X87176904Y-90221009D01*
X87176904Y-90221009D02*
X87081666Y-90268628D01*
X87081666Y-90268628D02*
X86700714Y-90268628D01*
X88224523Y-90744819D02*
X87653095Y-90744819D01*
X87938809Y-90744819D02*
X87938809Y-89744819D01*
X87938809Y-89744819D02*
X87843571Y-89887676D01*
X87843571Y-89887676D02*
X87748333Y-89982914D01*
X87748333Y-89982914D02*
X87653095Y-90030533D01*
X88557857Y-89744819D02*
X89176904Y-89744819D01*
X89176904Y-89744819D02*
X88843571Y-90125771D01*
X88843571Y-90125771D02*
X88986428Y-90125771D01*
X88986428Y-90125771D02*
X89081666Y-90173390D01*
X89081666Y-90173390D02*
X89129285Y-90221009D01*
X89129285Y-90221009D02*
X89176904Y-90316247D01*
X89176904Y-90316247D02*
X89176904Y-90554342D01*
X89176904Y-90554342D02*
X89129285Y-90649580D01*
X89129285Y-90649580D02*
X89081666Y-90697200D01*
X89081666Y-90697200D02*
X88986428Y-90744819D01*
X88986428Y-90744819D02*
X88700714Y-90744819D01*
X88700714Y-90744819D02*
X88605476Y-90697200D01*
X88605476Y-90697200D02*
X88557857Y-90649580D01*
X79832142Y-112344580D02*
X79784523Y-112392200D01*
X79784523Y-112392200D02*
X79641666Y-112439819D01*
X79641666Y-112439819D02*
X79546428Y-112439819D01*
X79546428Y-112439819D02*
X79403571Y-112392200D01*
X79403571Y-112392200D02*
X79308333Y-112296961D01*
X79308333Y-112296961D02*
X79260714Y-112201723D01*
X79260714Y-112201723D02*
X79213095Y-112011247D01*
X79213095Y-112011247D02*
X79213095Y-111868390D01*
X79213095Y-111868390D02*
X79260714Y-111677914D01*
X79260714Y-111677914D02*
X79308333Y-111582676D01*
X79308333Y-111582676D02*
X79403571Y-111487438D01*
X79403571Y-111487438D02*
X79546428Y-111439819D01*
X79546428Y-111439819D02*
X79641666Y-111439819D01*
X79641666Y-111439819D02*
X79784523Y-111487438D01*
X79784523Y-111487438D02*
X79832142Y-111535057D01*
X80784523Y-112439819D02*
X80213095Y-112439819D01*
X80498809Y-112439819D02*
X80498809Y-111439819D01*
X80498809Y-111439819D02*
X80403571Y-111582676D01*
X80403571Y-111582676D02*
X80308333Y-111677914D01*
X80308333Y-111677914D02*
X80213095Y-111725533D01*
X81403571Y-111439819D02*
X81498809Y-111439819D01*
X81498809Y-111439819D02*
X81594047Y-111487438D01*
X81594047Y-111487438D02*
X81641666Y-111535057D01*
X81641666Y-111535057D02*
X81689285Y-111630295D01*
X81689285Y-111630295D02*
X81736904Y-111820771D01*
X81736904Y-111820771D02*
X81736904Y-112058866D01*
X81736904Y-112058866D02*
X81689285Y-112249342D01*
X81689285Y-112249342D02*
X81641666Y-112344580D01*
X81641666Y-112344580D02*
X81594047Y-112392200D01*
X81594047Y-112392200D02*
X81498809Y-112439819D01*
X81498809Y-112439819D02*
X81403571Y-112439819D01*
X81403571Y-112439819D02*
X81308333Y-112392200D01*
X81308333Y-112392200D02*
X81260714Y-112344580D01*
X81260714Y-112344580D02*
X81213095Y-112249342D01*
X81213095Y-112249342D02*
X81165476Y-112058866D01*
X81165476Y-112058866D02*
X81165476Y-111820771D01*
X81165476Y-111820771D02*
X81213095Y-111630295D01*
X81213095Y-111630295D02*
X81260714Y-111535057D01*
X81260714Y-111535057D02*
X81308333Y-111487438D01*
X81308333Y-111487438D02*
X81403571Y-111439819D01*
X58313333Y-71459580D02*
X58265714Y-71507200D01*
X58265714Y-71507200D02*
X58122857Y-71554819D01*
X58122857Y-71554819D02*
X58027619Y-71554819D01*
X58027619Y-71554819D02*
X57884762Y-71507200D01*
X57884762Y-71507200D02*
X57789524Y-71411961D01*
X57789524Y-71411961D02*
X57741905Y-71316723D01*
X57741905Y-71316723D02*
X57694286Y-71126247D01*
X57694286Y-71126247D02*
X57694286Y-70983390D01*
X57694286Y-70983390D02*
X57741905Y-70792914D01*
X57741905Y-70792914D02*
X57789524Y-70697676D01*
X57789524Y-70697676D02*
X57884762Y-70602438D01*
X57884762Y-70602438D02*
X58027619Y-70554819D01*
X58027619Y-70554819D02*
X58122857Y-70554819D01*
X58122857Y-70554819D02*
X58265714Y-70602438D01*
X58265714Y-70602438D02*
X58313333Y-70650057D01*
X58694286Y-70650057D02*
X58741905Y-70602438D01*
X58741905Y-70602438D02*
X58837143Y-70554819D01*
X58837143Y-70554819D02*
X59075238Y-70554819D01*
X59075238Y-70554819D02*
X59170476Y-70602438D01*
X59170476Y-70602438D02*
X59218095Y-70650057D01*
X59218095Y-70650057D02*
X59265714Y-70745295D01*
X59265714Y-70745295D02*
X59265714Y-70840533D01*
X59265714Y-70840533D02*
X59218095Y-70983390D01*
X59218095Y-70983390D02*
X58646667Y-71554819D01*
X58646667Y-71554819D02*
X59265714Y-71554819D01*
X89878333Y-70089819D02*
X89545000Y-69613628D01*
X89306905Y-70089819D02*
X89306905Y-69089819D01*
X89306905Y-69089819D02*
X89687857Y-69089819D01*
X89687857Y-69089819D02*
X89783095Y-69137438D01*
X89783095Y-69137438D02*
X89830714Y-69185057D01*
X89830714Y-69185057D02*
X89878333Y-69280295D01*
X89878333Y-69280295D02*
X89878333Y-69423152D01*
X89878333Y-69423152D02*
X89830714Y-69518390D01*
X89830714Y-69518390D02*
X89783095Y-69566009D01*
X89783095Y-69566009D02*
X89687857Y-69613628D01*
X89687857Y-69613628D02*
X89306905Y-69613628D01*
X90211667Y-69089819D02*
X90878333Y-69089819D01*
X90878333Y-69089819D02*
X90449762Y-70089819D01*
X64663333Y-105834580D02*
X64615714Y-105882200D01*
X64615714Y-105882200D02*
X64472857Y-105929819D01*
X64472857Y-105929819D02*
X64377619Y-105929819D01*
X64377619Y-105929819D02*
X64234762Y-105882200D01*
X64234762Y-105882200D02*
X64139524Y-105786961D01*
X64139524Y-105786961D02*
X64091905Y-105691723D01*
X64091905Y-105691723D02*
X64044286Y-105501247D01*
X64044286Y-105501247D02*
X64044286Y-105358390D01*
X64044286Y-105358390D02*
X64091905Y-105167914D01*
X64091905Y-105167914D02*
X64139524Y-105072676D01*
X64139524Y-105072676D02*
X64234762Y-104977438D01*
X64234762Y-104977438D02*
X64377619Y-104929819D01*
X64377619Y-104929819D02*
X64472857Y-104929819D01*
X64472857Y-104929819D02*
X64615714Y-104977438D01*
X64615714Y-104977438D02*
X64663333Y-105025057D01*
X65520476Y-104929819D02*
X65330000Y-104929819D01*
X65330000Y-104929819D02*
X65234762Y-104977438D01*
X65234762Y-104977438D02*
X65187143Y-105025057D01*
X65187143Y-105025057D02*
X65091905Y-105167914D01*
X65091905Y-105167914D02*
X65044286Y-105358390D01*
X65044286Y-105358390D02*
X65044286Y-105739342D01*
X65044286Y-105739342D02*
X65091905Y-105834580D01*
X65091905Y-105834580D02*
X65139524Y-105882200D01*
X65139524Y-105882200D02*
X65234762Y-105929819D01*
X65234762Y-105929819D02*
X65425238Y-105929819D01*
X65425238Y-105929819D02*
X65520476Y-105882200D01*
X65520476Y-105882200D02*
X65568095Y-105834580D01*
X65568095Y-105834580D02*
X65615714Y-105739342D01*
X65615714Y-105739342D02*
X65615714Y-105501247D01*
X65615714Y-105501247D02*
X65568095Y-105406009D01*
X65568095Y-105406009D02*
X65520476Y-105358390D01*
X65520476Y-105358390D02*
X65425238Y-105310771D01*
X65425238Y-105310771D02*
X65234762Y-105310771D01*
X65234762Y-105310771D02*
X65139524Y-105358390D01*
X65139524Y-105358390D02*
X65091905Y-105406009D01*
X65091905Y-105406009D02*
X65044286Y-105501247D01*
X58318333Y-74634580D02*
X58270714Y-74682200D01*
X58270714Y-74682200D02*
X58127857Y-74729819D01*
X58127857Y-74729819D02*
X58032619Y-74729819D01*
X58032619Y-74729819D02*
X57889762Y-74682200D01*
X57889762Y-74682200D02*
X57794524Y-74586961D01*
X57794524Y-74586961D02*
X57746905Y-74491723D01*
X57746905Y-74491723D02*
X57699286Y-74301247D01*
X57699286Y-74301247D02*
X57699286Y-74158390D01*
X57699286Y-74158390D02*
X57746905Y-73967914D01*
X57746905Y-73967914D02*
X57794524Y-73872676D01*
X57794524Y-73872676D02*
X57889762Y-73777438D01*
X57889762Y-73777438D02*
X58032619Y-73729819D01*
X58032619Y-73729819D02*
X58127857Y-73729819D01*
X58127857Y-73729819D02*
X58270714Y-73777438D01*
X58270714Y-73777438D02*
X58318333Y-73825057D01*
X59270714Y-74729819D02*
X58699286Y-74729819D01*
X58985000Y-74729819D02*
X58985000Y-73729819D01*
X58985000Y-73729819D02*
X58889762Y-73872676D01*
X58889762Y-73872676D02*
X58794524Y-73967914D01*
X58794524Y-73967914D02*
X58699286Y-74015533D01*
X65588333Y-66539580D02*
X65540714Y-66587200D01*
X65540714Y-66587200D02*
X65397857Y-66634819D01*
X65397857Y-66634819D02*
X65302619Y-66634819D01*
X65302619Y-66634819D02*
X65159762Y-66587200D01*
X65159762Y-66587200D02*
X65064524Y-66491961D01*
X65064524Y-66491961D02*
X65016905Y-66396723D01*
X65016905Y-66396723D02*
X64969286Y-66206247D01*
X64969286Y-66206247D02*
X64969286Y-66063390D01*
X64969286Y-66063390D02*
X65016905Y-65872914D01*
X65016905Y-65872914D02*
X65064524Y-65777676D01*
X65064524Y-65777676D02*
X65159762Y-65682438D01*
X65159762Y-65682438D02*
X65302619Y-65634819D01*
X65302619Y-65634819D02*
X65397857Y-65634819D01*
X65397857Y-65634819D02*
X65540714Y-65682438D01*
X65540714Y-65682438D02*
X65588333Y-65730057D01*
X66445476Y-65968152D02*
X66445476Y-66634819D01*
X66207381Y-65587200D02*
X65969286Y-66301485D01*
X65969286Y-66301485D02*
X66588333Y-66301485D01*
X63236486Y-111512857D02*
X62760295Y-111846190D01*
X63236486Y-112084285D02*
X62236486Y-112084285D01*
X62236486Y-112084285D02*
X62236486Y-111703333D01*
X62236486Y-111703333D02*
X62284105Y-111608095D01*
X62284105Y-111608095D02*
X62331724Y-111560476D01*
X62331724Y-111560476D02*
X62426962Y-111512857D01*
X62426962Y-111512857D02*
X62569819Y-111512857D01*
X62569819Y-111512857D02*
X62665057Y-111560476D01*
X62665057Y-111560476D02*
X62712676Y-111608095D01*
X62712676Y-111608095D02*
X62760295Y-111703333D01*
X62760295Y-111703333D02*
X62760295Y-112084285D01*
X63236486Y-110560476D02*
X63236486Y-111131904D01*
X63236486Y-110846190D02*
X62236486Y-110846190D01*
X62236486Y-110846190D02*
X62379343Y-110941428D01*
X62379343Y-110941428D02*
X62474581Y-111036666D01*
X62474581Y-111036666D02*
X62522200Y-111131904D01*
X62236486Y-109703333D02*
X62236486Y-109893809D01*
X62236486Y-109893809D02*
X62284105Y-109989047D01*
X62284105Y-109989047D02*
X62331724Y-110036666D01*
X62331724Y-110036666D02*
X62474581Y-110131904D01*
X62474581Y-110131904D02*
X62665057Y-110179523D01*
X62665057Y-110179523D02*
X63046009Y-110179523D01*
X63046009Y-110179523D02*
X63141247Y-110131904D01*
X63141247Y-110131904D02*
X63188867Y-110084285D01*
X63188867Y-110084285D02*
X63236486Y-109989047D01*
X63236486Y-109989047D02*
X63236486Y-109798571D01*
X63236486Y-109798571D02*
X63188867Y-109703333D01*
X63188867Y-109703333D02*
X63141247Y-109655714D01*
X63141247Y-109655714D02*
X63046009Y-109608095D01*
X63046009Y-109608095D02*
X62807914Y-109608095D01*
X62807914Y-109608095D02*
X62712676Y-109655714D01*
X62712676Y-109655714D02*
X62665057Y-109703333D01*
X62665057Y-109703333D02*
X62617438Y-109798571D01*
X62617438Y-109798571D02*
X62617438Y-109989047D01*
X62617438Y-109989047D02*
X62665057Y-110084285D01*
X62665057Y-110084285D02*
X62712676Y-110131904D01*
X62712676Y-110131904D02*
X62807914Y-110179523D01*
X71123095Y-99724819D02*
X71123095Y-100534342D01*
X71123095Y-100534342D02*
X71170714Y-100629580D01*
X71170714Y-100629580D02*
X71218333Y-100677200D01*
X71218333Y-100677200D02*
X71313571Y-100724819D01*
X71313571Y-100724819D02*
X71504047Y-100724819D01*
X71504047Y-100724819D02*
X71599285Y-100677200D01*
X71599285Y-100677200D02*
X71646904Y-100629580D01*
X71646904Y-100629580D02*
X71694523Y-100534342D01*
X71694523Y-100534342D02*
X71694523Y-99724819D01*
X72123095Y-99820057D02*
X72170714Y-99772438D01*
X72170714Y-99772438D02*
X72265952Y-99724819D01*
X72265952Y-99724819D02*
X72504047Y-99724819D01*
X72504047Y-99724819D02*
X72599285Y-99772438D01*
X72599285Y-99772438D02*
X72646904Y-99820057D01*
X72646904Y-99820057D02*
X72694523Y-99915295D01*
X72694523Y-99915295D02*
X72694523Y-100010533D01*
X72694523Y-100010533D02*
X72646904Y-100153390D01*
X72646904Y-100153390D02*
X72075476Y-100724819D01*
X72075476Y-100724819D02*
X72694523Y-100724819D01*
X95090057Y-68330238D02*
X95042438Y-68425476D01*
X95042438Y-68425476D02*
X94947200Y-68520714D01*
X94947200Y-68520714D02*
X94804342Y-68663571D01*
X94804342Y-68663571D02*
X94756723Y-68758809D01*
X94756723Y-68758809D02*
X94756723Y-68854047D01*
X94994819Y-68806428D02*
X94947200Y-68901666D01*
X94947200Y-68901666D02*
X94851961Y-68996904D01*
X94851961Y-68996904D02*
X94661485Y-69044523D01*
X94661485Y-69044523D02*
X94328152Y-69044523D01*
X94328152Y-69044523D02*
X94137676Y-68996904D01*
X94137676Y-68996904D02*
X94042438Y-68901666D01*
X94042438Y-68901666D02*
X93994819Y-68806428D01*
X93994819Y-68806428D02*
X93994819Y-68615952D01*
X93994819Y-68615952D02*
X94042438Y-68520714D01*
X94042438Y-68520714D02*
X94137676Y-68425476D01*
X94137676Y-68425476D02*
X94328152Y-68377857D01*
X94328152Y-68377857D02*
X94661485Y-68377857D01*
X94661485Y-68377857D02*
X94851961Y-68425476D01*
X94851961Y-68425476D02*
X94947200Y-68520714D01*
X94947200Y-68520714D02*
X94994819Y-68615952D01*
X94994819Y-68615952D02*
X94994819Y-68806428D01*
X94994819Y-67425476D02*
X94994819Y-67996904D01*
X94994819Y-67711190D02*
X93994819Y-67711190D01*
X93994819Y-67711190D02*
X94137676Y-67806428D01*
X94137676Y-67806428D02*
X94232914Y-67901666D01*
X94232914Y-67901666D02*
X94280533Y-67996904D01*
X59419819Y-111612857D02*
X58943628Y-111946190D01*
X59419819Y-112184285D02*
X58419819Y-112184285D01*
X58419819Y-112184285D02*
X58419819Y-111803333D01*
X58419819Y-111803333D02*
X58467438Y-111708095D01*
X58467438Y-111708095D02*
X58515057Y-111660476D01*
X58515057Y-111660476D02*
X58610295Y-111612857D01*
X58610295Y-111612857D02*
X58753152Y-111612857D01*
X58753152Y-111612857D02*
X58848390Y-111660476D01*
X58848390Y-111660476D02*
X58896009Y-111708095D01*
X58896009Y-111708095D02*
X58943628Y-111803333D01*
X58943628Y-111803333D02*
X58943628Y-112184285D01*
X59419819Y-110660476D02*
X59419819Y-111231904D01*
X59419819Y-110946190D02*
X58419819Y-110946190D01*
X58419819Y-110946190D02*
X58562676Y-111041428D01*
X58562676Y-111041428D02*
X58657914Y-111136666D01*
X58657914Y-111136666D02*
X58705533Y-111231904D01*
X58419819Y-110327142D02*
X58419819Y-109660476D01*
X58419819Y-109660476D02*
X59419819Y-110089047D01*
X90168095Y-114744819D02*
X90168095Y-115554342D01*
X90168095Y-115554342D02*
X90215714Y-115649580D01*
X90215714Y-115649580D02*
X90263333Y-115697200D01*
X90263333Y-115697200D02*
X90358571Y-115744819D01*
X90358571Y-115744819D02*
X90549047Y-115744819D01*
X90549047Y-115744819D02*
X90644285Y-115697200D01*
X90644285Y-115697200D02*
X90691904Y-115649580D01*
X90691904Y-115649580D02*
X90739523Y-115554342D01*
X90739523Y-115554342D02*
X90739523Y-114744819D01*
X91644285Y-114744819D02*
X91453809Y-114744819D01*
X91453809Y-114744819D02*
X91358571Y-114792438D01*
X91358571Y-114792438D02*
X91310952Y-114840057D01*
X91310952Y-114840057D02*
X91215714Y-114982914D01*
X91215714Y-114982914D02*
X91168095Y-115173390D01*
X91168095Y-115173390D02*
X91168095Y-115554342D01*
X91168095Y-115554342D02*
X91215714Y-115649580D01*
X91215714Y-115649580D02*
X91263333Y-115697200D01*
X91263333Y-115697200D02*
X91358571Y-115744819D01*
X91358571Y-115744819D02*
X91549047Y-115744819D01*
X91549047Y-115744819D02*
X91644285Y-115697200D01*
X91644285Y-115697200D02*
X91691904Y-115649580D01*
X91691904Y-115649580D02*
X91739523Y-115554342D01*
X91739523Y-115554342D02*
X91739523Y-115316247D01*
X91739523Y-115316247D02*
X91691904Y-115221009D01*
X91691904Y-115221009D02*
X91644285Y-115173390D01*
X91644285Y-115173390D02*
X91549047Y-115125771D01*
X91549047Y-115125771D02*
X91358571Y-115125771D01*
X91358571Y-115125771D02*
X91263333Y-115173390D01*
X91263333Y-115173390D02*
X91215714Y-115221009D01*
X91215714Y-115221009D02*
X91168095Y-115316247D01*
X73144761Y-99135057D02*
X73049523Y-99087438D01*
X73049523Y-99087438D02*
X72954285Y-98992200D01*
X72954285Y-98992200D02*
X72811428Y-98849342D01*
X72811428Y-98849342D02*
X72716190Y-98801723D01*
X72716190Y-98801723D02*
X72620952Y-98801723D01*
X72668571Y-99039819D02*
X72573333Y-98992200D01*
X72573333Y-98992200D02*
X72478095Y-98896961D01*
X72478095Y-98896961D02*
X72430476Y-98706485D01*
X72430476Y-98706485D02*
X72430476Y-98373152D01*
X72430476Y-98373152D02*
X72478095Y-98182676D01*
X72478095Y-98182676D02*
X72573333Y-98087438D01*
X72573333Y-98087438D02*
X72668571Y-98039819D01*
X72668571Y-98039819D02*
X72859047Y-98039819D01*
X72859047Y-98039819D02*
X72954285Y-98087438D01*
X72954285Y-98087438D02*
X73049523Y-98182676D01*
X73049523Y-98182676D02*
X73097142Y-98373152D01*
X73097142Y-98373152D02*
X73097142Y-98706485D01*
X73097142Y-98706485D02*
X73049523Y-98896961D01*
X73049523Y-98896961D02*
X72954285Y-98992200D01*
X72954285Y-98992200D02*
X72859047Y-99039819D01*
X72859047Y-99039819D02*
X72668571Y-99039819D01*
X73954285Y-98039819D02*
X73763809Y-98039819D01*
X73763809Y-98039819D02*
X73668571Y-98087438D01*
X73668571Y-98087438D02*
X73620952Y-98135057D01*
X73620952Y-98135057D02*
X73525714Y-98277914D01*
X73525714Y-98277914D02*
X73478095Y-98468390D01*
X73478095Y-98468390D02*
X73478095Y-98849342D01*
X73478095Y-98849342D02*
X73525714Y-98944580D01*
X73525714Y-98944580D02*
X73573333Y-98992200D01*
X73573333Y-98992200D02*
X73668571Y-99039819D01*
X73668571Y-99039819D02*
X73859047Y-99039819D01*
X73859047Y-99039819D02*
X73954285Y-98992200D01*
X73954285Y-98992200D02*
X74001904Y-98944580D01*
X74001904Y-98944580D02*
X74049523Y-98849342D01*
X74049523Y-98849342D02*
X74049523Y-98611247D01*
X74049523Y-98611247D02*
X74001904Y-98516009D01*
X74001904Y-98516009D02*
X73954285Y-98468390D01*
X73954285Y-98468390D02*
X73859047Y-98420771D01*
X73859047Y-98420771D02*
X73668571Y-98420771D01*
X73668571Y-98420771D02*
X73573333Y-98468390D01*
X73573333Y-98468390D02*
X73525714Y-98516009D01*
X73525714Y-98516009D02*
X73478095Y-98611247D01*
X83049819Y-108646904D02*
X83859342Y-108646904D01*
X83859342Y-108646904D02*
X83954580Y-108599285D01*
X83954580Y-108599285D02*
X84002200Y-108551666D01*
X84002200Y-108551666D02*
X84049819Y-108456428D01*
X84049819Y-108456428D02*
X84049819Y-108265952D01*
X84049819Y-108265952D02*
X84002200Y-108170714D01*
X84002200Y-108170714D02*
X83954580Y-108123095D01*
X83954580Y-108123095D02*
X83859342Y-108075476D01*
X83859342Y-108075476D02*
X83049819Y-108075476D01*
X83049819Y-107694523D02*
X83049819Y-107075476D01*
X83049819Y-107075476D02*
X83430771Y-107408809D01*
X83430771Y-107408809D02*
X83430771Y-107265952D01*
X83430771Y-107265952D02*
X83478390Y-107170714D01*
X83478390Y-107170714D02*
X83526009Y-107123095D01*
X83526009Y-107123095D02*
X83621247Y-107075476D01*
X83621247Y-107075476D02*
X83859342Y-107075476D01*
X83859342Y-107075476D02*
X83954580Y-107123095D01*
X83954580Y-107123095D02*
X84002200Y-107170714D01*
X84002200Y-107170714D02*
X84049819Y-107265952D01*
X84049819Y-107265952D02*
X84049819Y-107551666D01*
X84049819Y-107551666D02*
X84002200Y-107646904D01*
X84002200Y-107646904D02*
X83954580Y-107694523D01*
X91313333Y-75709819D02*
X90980000Y-75233628D01*
X90741905Y-75709819D02*
X90741905Y-74709819D01*
X90741905Y-74709819D02*
X91122857Y-74709819D01*
X91122857Y-74709819D02*
X91218095Y-74757438D01*
X91218095Y-74757438D02*
X91265714Y-74805057D01*
X91265714Y-74805057D02*
X91313333Y-74900295D01*
X91313333Y-74900295D02*
X91313333Y-75043152D01*
X91313333Y-75043152D02*
X91265714Y-75138390D01*
X91265714Y-75138390D02*
X91218095Y-75186009D01*
X91218095Y-75186009D02*
X91122857Y-75233628D01*
X91122857Y-75233628D02*
X90741905Y-75233628D01*
X92218095Y-74709819D02*
X91741905Y-74709819D01*
X91741905Y-74709819D02*
X91694286Y-75186009D01*
X91694286Y-75186009D02*
X91741905Y-75138390D01*
X91741905Y-75138390D02*
X91837143Y-75090771D01*
X91837143Y-75090771D02*
X92075238Y-75090771D01*
X92075238Y-75090771D02*
X92170476Y-75138390D01*
X92170476Y-75138390D02*
X92218095Y-75186009D01*
X92218095Y-75186009D02*
X92265714Y-75281247D01*
X92265714Y-75281247D02*
X92265714Y-75519342D01*
X92265714Y-75519342D02*
X92218095Y-75614580D01*
X92218095Y-75614580D02*
X92170476Y-75662200D01*
X92170476Y-75662200D02*
X92075238Y-75709819D01*
X92075238Y-75709819D02*
X91837143Y-75709819D01*
X91837143Y-75709819D02*
X91741905Y-75662200D01*
X91741905Y-75662200D02*
X91694286Y-75614580D01*
X82703333Y-118274580D02*
X82655714Y-118322200D01*
X82655714Y-118322200D02*
X82512857Y-118369819D01*
X82512857Y-118369819D02*
X82417619Y-118369819D01*
X82417619Y-118369819D02*
X82274762Y-118322200D01*
X82274762Y-118322200D02*
X82179524Y-118226961D01*
X82179524Y-118226961D02*
X82131905Y-118131723D01*
X82131905Y-118131723D02*
X82084286Y-117941247D01*
X82084286Y-117941247D02*
X82084286Y-117798390D01*
X82084286Y-117798390D02*
X82131905Y-117607914D01*
X82131905Y-117607914D02*
X82179524Y-117512676D01*
X82179524Y-117512676D02*
X82274762Y-117417438D01*
X82274762Y-117417438D02*
X82417619Y-117369819D01*
X82417619Y-117369819D02*
X82512857Y-117369819D01*
X82512857Y-117369819D02*
X82655714Y-117417438D01*
X82655714Y-117417438D02*
X82703333Y-117465057D01*
X83179524Y-118369819D02*
X83370000Y-118369819D01*
X83370000Y-118369819D02*
X83465238Y-118322200D01*
X83465238Y-118322200D02*
X83512857Y-118274580D01*
X83512857Y-118274580D02*
X83608095Y-118131723D01*
X83608095Y-118131723D02*
X83655714Y-117941247D01*
X83655714Y-117941247D02*
X83655714Y-117560295D01*
X83655714Y-117560295D02*
X83608095Y-117465057D01*
X83608095Y-117465057D02*
X83560476Y-117417438D01*
X83560476Y-117417438D02*
X83465238Y-117369819D01*
X83465238Y-117369819D02*
X83274762Y-117369819D01*
X83274762Y-117369819D02*
X83179524Y-117417438D01*
X83179524Y-117417438D02*
X83131905Y-117465057D01*
X83131905Y-117465057D02*
X83084286Y-117560295D01*
X83084286Y-117560295D02*
X83084286Y-117798390D01*
X83084286Y-117798390D02*
X83131905Y-117893628D01*
X83131905Y-117893628D02*
X83179524Y-117941247D01*
X83179524Y-117941247D02*
X83274762Y-117988866D01*
X83274762Y-117988866D02*
X83465238Y-117988866D01*
X83465238Y-117988866D02*
X83560476Y-117941247D01*
X83560476Y-117941247D02*
X83608095Y-117893628D01*
X83608095Y-117893628D02*
X83655714Y-117798390D01*
X61123333Y-78749819D02*
X60790000Y-78273628D01*
X60551905Y-78749819D02*
X60551905Y-77749819D01*
X60551905Y-77749819D02*
X60932857Y-77749819D01*
X60932857Y-77749819D02*
X61028095Y-77797438D01*
X61028095Y-77797438D02*
X61075714Y-77845057D01*
X61075714Y-77845057D02*
X61123333Y-77940295D01*
X61123333Y-77940295D02*
X61123333Y-78083152D01*
X61123333Y-78083152D02*
X61075714Y-78178390D01*
X61075714Y-78178390D02*
X61028095Y-78226009D01*
X61028095Y-78226009D02*
X60932857Y-78273628D01*
X60932857Y-78273628D02*
X60551905Y-78273628D01*
X61599524Y-78749819D02*
X61790000Y-78749819D01*
X61790000Y-78749819D02*
X61885238Y-78702200D01*
X61885238Y-78702200D02*
X61932857Y-78654580D01*
X61932857Y-78654580D02*
X62028095Y-78511723D01*
X62028095Y-78511723D02*
X62075714Y-78321247D01*
X62075714Y-78321247D02*
X62075714Y-77940295D01*
X62075714Y-77940295D02*
X62028095Y-77845057D01*
X62028095Y-77845057D02*
X61980476Y-77797438D01*
X61980476Y-77797438D02*
X61885238Y-77749819D01*
X61885238Y-77749819D02*
X61694762Y-77749819D01*
X61694762Y-77749819D02*
X61599524Y-77797438D01*
X61599524Y-77797438D02*
X61551905Y-77845057D01*
X61551905Y-77845057D02*
X61504286Y-77940295D01*
X61504286Y-77940295D02*
X61504286Y-78178390D01*
X61504286Y-78178390D02*
X61551905Y-78273628D01*
X61551905Y-78273628D02*
X61599524Y-78321247D01*
X61599524Y-78321247D02*
X61694762Y-78368866D01*
X61694762Y-78368866D02*
X61885238Y-78368866D01*
X61885238Y-78368866D02*
X61980476Y-78321247D01*
X61980476Y-78321247D02*
X62028095Y-78273628D01*
X62028095Y-78273628D02*
X62075714Y-78178390D01*
X89709819Y-67176666D02*
X89233628Y-67509999D01*
X89709819Y-67748094D02*
X88709819Y-67748094D01*
X88709819Y-67748094D02*
X88709819Y-67367142D01*
X88709819Y-67367142D02*
X88757438Y-67271904D01*
X88757438Y-67271904D02*
X88805057Y-67224285D01*
X88805057Y-67224285D02*
X88900295Y-67176666D01*
X88900295Y-67176666D02*
X89043152Y-67176666D01*
X89043152Y-67176666D02*
X89138390Y-67224285D01*
X89138390Y-67224285D02*
X89186009Y-67271904D01*
X89186009Y-67271904D02*
X89233628Y-67367142D01*
X89233628Y-67367142D02*
X89233628Y-67748094D01*
X89043152Y-66319523D02*
X89709819Y-66319523D01*
X88662200Y-66557618D02*
X89376485Y-66795713D01*
X89376485Y-66795713D02*
X89376485Y-66176666D01*
X82737142Y-124314580D02*
X82689523Y-124362200D01*
X82689523Y-124362200D02*
X82546666Y-124409819D01*
X82546666Y-124409819D02*
X82451428Y-124409819D01*
X82451428Y-124409819D02*
X82308571Y-124362200D01*
X82308571Y-124362200D02*
X82213333Y-124266961D01*
X82213333Y-124266961D02*
X82165714Y-124171723D01*
X82165714Y-124171723D02*
X82118095Y-123981247D01*
X82118095Y-123981247D02*
X82118095Y-123838390D01*
X82118095Y-123838390D02*
X82165714Y-123647914D01*
X82165714Y-123647914D02*
X82213333Y-123552676D01*
X82213333Y-123552676D02*
X82308571Y-123457438D01*
X82308571Y-123457438D02*
X82451428Y-123409819D01*
X82451428Y-123409819D02*
X82546666Y-123409819D01*
X82546666Y-123409819D02*
X82689523Y-123457438D01*
X82689523Y-123457438D02*
X82737142Y-123505057D01*
X83689523Y-124409819D02*
X83118095Y-124409819D01*
X83403809Y-124409819D02*
X83403809Y-123409819D01*
X83403809Y-123409819D02*
X83308571Y-123552676D01*
X83308571Y-123552676D02*
X83213333Y-123647914D01*
X83213333Y-123647914D02*
X83118095Y-123695533D01*
X84641904Y-124409819D02*
X84070476Y-124409819D01*
X84356190Y-124409819D02*
X84356190Y-123409819D01*
X84356190Y-123409819D02*
X84260952Y-123552676D01*
X84260952Y-123552676D02*
X84165714Y-123647914D01*
X84165714Y-123647914D02*
X84070476Y-123695533D01*
X63617142Y-101674819D02*
X63283809Y-101198628D01*
X63045714Y-101674819D02*
X63045714Y-100674819D01*
X63045714Y-100674819D02*
X63426666Y-100674819D01*
X63426666Y-100674819D02*
X63521904Y-100722438D01*
X63521904Y-100722438D02*
X63569523Y-100770057D01*
X63569523Y-100770057D02*
X63617142Y-100865295D01*
X63617142Y-100865295D02*
X63617142Y-101008152D01*
X63617142Y-101008152D02*
X63569523Y-101103390D01*
X63569523Y-101103390D02*
X63521904Y-101151009D01*
X63521904Y-101151009D02*
X63426666Y-101198628D01*
X63426666Y-101198628D02*
X63045714Y-101198628D01*
X64569523Y-101674819D02*
X63998095Y-101674819D01*
X64283809Y-101674819D02*
X64283809Y-100674819D01*
X64283809Y-100674819D02*
X64188571Y-100817676D01*
X64188571Y-100817676D02*
X64093333Y-100912914D01*
X64093333Y-100912914D02*
X63998095Y-100960533D01*
X65426666Y-101008152D02*
X65426666Y-101674819D01*
X65188571Y-100627200D02*
X64950476Y-101341485D01*
X64950476Y-101341485D02*
X65569523Y-101341485D01*
X64688333Y-75269580D02*
X64640714Y-75317200D01*
X64640714Y-75317200D02*
X64497857Y-75364819D01*
X64497857Y-75364819D02*
X64402619Y-75364819D01*
X64402619Y-75364819D02*
X64259762Y-75317200D01*
X64259762Y-75317200D02*
X64164524Y-75221961D01*
X64164524Y-75221961D02*
X64116905Y-75126723D01*
X64116905Y-75126723D02*
X64069286Y-74936247D01*
X64069286Y-74936247D02*
X64069286Y-74793390D01*
X64069286Y-74793390D02*
X64116905Y-74602914D01*
X64116905Y-74602914D02*
X64164524Y-74507676D01*
X64164524Y-74507676D02*
X64259762Y-74412438D01*
X64259762Y-74412438D02*
X64402619Y-74364819D01*
X64402619Y-74364819D02*
X64497857Y-74364819D01*
X64497857Y-74364819D02*
X64640714Y-74412438D01*
X64640714Y-74412438D02*
X64688333Y-74460057D01*
X65593095Y-74364819D02*
X65116905Y-74364819D01*
X65116905Y-74364819D02*
X65069286Y-74841009D01*
X65069286Y-74841009D02*
X65116905Y-74793390D01*
X65116905Y-74793390D02*
X65212143Y-74745771D01*
X65212143Y-74745771D02*
X65450238Y-74745771D01*
X65450238Y-74745771D02*
X65545476Y-74793390D01*
X65545476Y-74793390D02*
X65593095Y-74841009D01*
X65593095Y-74841009D02*
X65640714Y-74936247D01*
X65640714Y-74936247D02*
X65640714Y-75174342D01*
X65640714Y-75174342D02*
X65593095Y-75269580D01*
X65593095Y-75269580D02*
X65545476Y-75317200D01*
X65545476Y-75317200D02*
X65450238Y-75364819D01*
X65450238Y-75364819D02*
X65212143Y-75364819D01*
X65212143Y-75364819D02*
X65116905Y-75317200D01*
X65116905Y-75317200D02*
X65069286Y-75269580D01*
X86213333Y-115349580D02*
X86165714Y-115397200D01*
X86165714Y-115397200D02*
X86022857Y-115444819D01*
X86022857Y-115444819D02*
X85927619Y-115444819D01*
X85927619Y-115444819D02*
X85784762Y-115397200D01*
X85784762Y-115397200D02*
X85689524Y-115301961D01*
X85689524Y-115301961D02*
X85641905Y-115206723D01*
X85641905Y-115206723D02*
X85594286Y-115016247D01*
X85594286Y-115016247D02*
X85594286Y-114873390D01*
X85594286Y-114873390D02*
X85641905Y-114682914D01*
X85641905Y-114682914D02*
X85689524Y-114587676D01*
X85689524Y-114587676D02*
X85784762Y-114492438D01*
X85784762Y-114492438D02*
X85927619Y-114444819D01*
X85927619Y-114444819D02*
X86022857Y-114444819D01*
X86022857Y-114444819D02*
X86165714Y-114492438D01*
X86165714Y-114492438D02*
X86213333Y-114540057D01*
X86546667Y-114444819D02*
X87213333Y-114444819D01*
X87213333Y-114444819D02*
X86784762Y-115444819D01*
X93464761Y-80845057D02*
X93369523Y-80797438D01*
X93369523Y-80797438D02*
X93274285Y-80702200D01*
X93274285Y-80702200D02*
X93131428Y-80559342D01*
X93131428Y-80559342D02*
X93036190Y-80511723D01*
X93036190Y-80511723D02*
X92940952Y-80511723D01*
X92988571Y-80749819D02*
X92893333Y-80702200D01*
X92893333Y-80702200D02*
X92798095Y-80606961D01*
X92798095Y-80606961D02*
X92750476Y-80416485D01*
X92750476Y-80416485D02*
X92750476Y-80083152D01*
X92750476Y-80083152D02*
X92798095Y-79892676D01*
X92798095Y-79892676D02*
X92893333Y-79797438D01*
X92893333Y-79797438D02*
X92988571Y-79749819D01*
X92988571Y-79749819D02*
X93179047Y-79749819D01*
X93179047Y-79749819D02*
X93274285Y-79797438D01*
X93274285Y-79797438D02*
X93369523Y-79892676D01*
X93369523Y-79892676D02*
X93417142Y-80083152D01*
X93417142Y-80083152D02*
X93417142Y-80416485D01*
X93417142Y-80416485D02*
X93369523Y-80606961D01*
X93369523Y-80606961D02*
X93274285Y-80702200D01*
X93274285Y-80702200D02*
X93179047Y-80749819D01*
X93179047Y-80749819D02*
X92988571Y-80749819D01*
X93750476Y-79749819D02*
X94369523Y-79749819D01*
X94369523Y-79749819D02*
X94036190Y-80130771D01*
X94036190Y-80130771D02*
X94179047Y-80130771D01*
X94179047Y-80130771D02*
X94274285Y-80178390D01*
X94274285Y-80178390D02*
X94321904Y-80226009D01*
X94321904Y-80226009D02*
X94369523Y-80321247D01*
X94369523Y-80321247D02*
X94369523Y-80559342D01*
X94369523Y-80559342D02*
X94321904Y-80654580D01*
X94321904Y-80654580D02*
X94274285Y-80702200D01*
X94274285Y-80702200D02*
X94179047Y-80749819D01*
X94179047Y-80749819D02*
X93893333Y-80749819D01*
X93893333Y-80749819D02*
X93798095Y-80702200D01*
X93798095Y-80702200D02*
X93750476Y-80654580D01*
X87908333Y-81074819D02*
X87575000Y-80598628D01*
X87336905Y-81074819D02*
X87336905Y-80074819D01*
X87336905Y-80074819D02*
X87717857Y-80074819D01*
X87717857Y-80074819D02*
X87813095Y-80122438D01*
X87813095Y-80122438D02*
X87860714Y-80170057D01*
X87860714Y-80170057D02*
X87908333Y-80265295D01*
X87908333Y-80265295D02*
X87908333Y-80408152D01*
X87908333Y-80408152D02*
X87860714Y-80503390D01*
X87860714Y-80503390D02*
X87813095Y-80551009D01*
X87813095Y-80551009D02*
X87717857Y-80598628D01*
X87717857Y-80598628D02*
X87336905Y-80598628D01*
X88479762Y-80503390D02*
X88384524Y-80455771D01*
X88384524Y-80455771D02*
X88336905Y-80408152D01*
X88336905Y-80408152D02*
X88289286Y-80312914D01*
X88289286Y-80312914D02*
X88289286Y-80265295D01*
X88289286Y-80265295D02*
X88336905Y-80170057D01*
X88336905Y-80170057D02*
X88384524Y-80122438D01*
X88384524Y-80122438D02*
X88479762Y-80074819D01*
X88479762Y-80074819D02*
X88670238Y-80074819D01*
X88670238Y-80074819D02*
X88765476Y-80122438D01*
X88765476Y-80122438D02*
X88813095Y-80170057D01*
X88813095Y-80170057D02*
X88860714Y-80265295D01*
X88860714Y-80265295D02*
X88860714Y-80312914D01*
X88860714Y-80312914D02*
X88813095Y-80408152D01*
X88813095Y-80408152D02*
X88765476Y-80455771D01*
X88765476Y-80455771D02*
X88670238Y-80503390D01*
X88670238Y-80503390D02*
X88479762Y-80503390D01*
X88479762Y-80503390D02*
X88384524Y-80551009D01*
X88384524Y-80551009D02*
X88336905Y-80598628D01*
X88336905Y-80598628D02*
X88289286Y-80693866D01*
X88289286Y-80693866D02*
X88289286Y-80884342D01*
X88289286Y-80884342D02*
X88336905Y-80979580D01*
X88336905Y-80979580D02*
X88384524Y-81027200D01*
X88384524Y-81027200D02*
X88479762Y-81074819D01*
X88479762Y-81074819D02*
X88670238Y-81074819D01*
X88670238Y-81074819D02*
X88765476Y-81027200D01*
X88765476Y-81027200D02*
X88813095Y-80979580D01*
X88813095Y-80979580D02*
X88860714Y-80884342D01*
X88860714Y-80884342D02*
X88860714Y-80693866D01*
X88860714Y-80693866D02*
X88813095Y-80598628D01*
X88813095Y-80598628D02*
X88765476Y-80551009D01*
X88765476Y-80551009D02*
X88670238Y-80503390D01*
X63111666Y-125479819D02*
X63111666Y-126194104D01*
X63111666Y-126194104D02*
X63064047Y-126336961D01*
X63064047Y-126336961D02*
X62968809Y-126432200D01*
X62968809Y-126432200D02*
X62825952Y-126479819D01*
X62825952Y-126479819D02*
X62730714Y-126479819D01*
X64064047Y-125479819D02*
X63587857Y-125479819D01*
X63587857Y-125479819D02*
X63540238Y-125956009D01*
X63540238Y-125956009D02*
X63587857Y-125908390D01*
X63587857Y-125908390D02*
X63683095Y-125860771D01*
X63683095Y-125860771D02*
X63921190Y-125860771D01*
X63921190Y-125860771D02*
X64016428Y-125908390D01*
X64016428Y-125908390D02*
X64064047Y-125956009D01*
X64064047Y-125956009D02*
X64111666Y-126051247D01*
X64111666Y-126051247D02*
X64111666Y-126289342D01*
X64111666Y-126289342D02*
X64064047Y-126384580D01*
X64064047Y-126384580D02*
X64016428Y-126432200D01*
X64016428Y-126432200D02*
X63921190Y-126479819D01*
X63921190Y-126479819D02*
X63683095Y-126479819D01*
X63683095Y-126479819D02*
X63587857Y-126432200D01*
X63587857Y-126432200D02*
X63540238Y-126384580D01*
X78969167Y-102784819D02*
X78969167Y-101784819D01*
X78969167Y-101784819D02*
X79350119Y-101784819D01*
X79350119Y-101784819D02*
X79445357Y-101832438D01*
X79445357Y-101832438D02*
X79492976Y-101880057D01*
X79492976Y-101880057D02*
X79540595Y-101975295D01*
X79540595Y-101975295D02*
X79540595Y-102118152D01*
X79540595Y-102118152D02*
X79492976Y-102213390D01*
X79492976Y-102213390D02*
X79445357Y-102261009D01*
X79445357Y-102261009D02*
X79350119Y-102308628D01*
X79350119Y-102308628D02*
X78969167Y-102308628D01*
X79873929Y-101784819D02*
X80112024Y-102784819D01*
X80112024Y-102784819D02*
X80302500Y-102070533D01*
X80302500Y-102070533D02*
X80492976Y-102784819D01*
X80492976Y-102784819D02*
X80731072Y-101784819D01*
X81683452Y-102784819D02*
X81350119Y-102308628D01*
X81112024Y-102784819D02*
X81112024Y-101784819D01*
X81112024Y-101784819D02*
X81492976Y-101784819D01*
X81492976Y-101784819D02*
X81588214Y-101832438D01*
X81588214Y-101832438D02*
X81635833Y-101880057D01*
X81635833Y-101880057D02*
X81683452Y-101975295D01*
X81683452Y-101975295D02*
X81683452Y-102118152D01*
X81683452Y-102118152D02*
X81635833Y-102213390D01*
X81635833Y-102213390D02*
X81588214Y-102261009D01*
X81588214Y-102261009D02*
X81492976Y-102308628D01*
X81492976Y-102308628D02*
X81112024Y-102308628D01*
X65054819Y-111607857D02*
X64578628Y-111941190D01*
X65054819Y-112179285D02*
X64054819Y-112179285D01*
X64054819Y-112179285D02*
X64054819Y-111798333D01*
X64054819Y-111798333D02*
X64102438Y-111703095D01*
X64102438Y-111703095D02*
X64150057Y-111655476D01*
X64150057Y-111655476D02*
X64245295Y-111607857D01*
X64245295Y-111607857D02*
X64388152Y-111607857D01*
X64388152Y-111607857D02*
X64483390Y-111655476D01*
X64483390Y-111655476D02*
X64531009Y-111703095D01*
X64531009Y-111703095D02*
X64578628Y-111798333D01*
X64578628Y-111798333D02*
X64578628Y-112179285D01*
X65054819Y-110655476D02*
X65054819Y-111226904D01*
X65054819Y-110941190D02*
X64054819Y-110941190D01*
X64054819Y-110941190D02*
X64197676Y-111036428D01*
X64197676Y-111036428D02*
X64292914Y-111131666D01*
X64292914Y-111131666D02*
X64340533Y-111226904D01*
X65054819Y-110179285D02*
X65054819Y-109988809D01*
X65054819Y-109988809D02*
X65007200Y-109893571D01*
X65007200Y-109893571D02*
X64959580Y-109845952D01*
X64959580Y-109845952D02*
X64816723Y-109750714D01*
X64816723Y-109750714D02*
X64626247Y-109703095D01*
X64626247Y-109703095D02*
X64245295Y-109703095D01*
X64245295Y-109703095D02*
X64150057Y-109750714D01*
X64150057Y-109750714D02*
X64102438Y-109798333D01*
X64102438Y-109798333D02*
X64054819Y-109893571D01*
X64054819Y-109893571D02*
X64054819Y-110084047D01*
X64054819Y-110084047D02*
X64102438Y-110179285D01*
X64102438Y-110179285D02*
X64150057Y-110226904D01*
X64150057Y-110226904D02*
X64245295Y-110274523D01*
X64245295Y-110274523D02*
X64483390Y-110274523D01*
X64483390Y-110274523D02*
X64578628Y-110226904D01*
X64578628Y-110226904D02*
X64626247Y-110179285D01*
X64626247Y-110179285D02*
X64673866Y-110084047D01*
X64673866Y-110084047D02*
X64673866Y-109893571D01*
X64673866Y-109893571D02*
X64626247Y-109798333D01*
X64626247Y-109798333D02*
X64578628Y-109750714D01*
X64578628Y-109750714D02*
X64483390Y-109703095D01*
X93628333Y-82729819D02*
X93295000Y-82253628D01*
X93056905Y-82729819D02*
X93056905Y-81729819D01*
X93056905Y-81729819D02*
X93437857Y-81729819D01*
X93437857Y-81729819D02*
X93533095Y-81777438D01*
X93533095Y-81777438D02*
X93580714Y-81825057D01*
X93580714Y-81825057D02*
X93628333Y-81920295D01*
X93628333Y-81920295D02*
X93628333Y-82063152D01*
X93628333Y-82063152D02*
X93580714Y-82158390D01*
X93580714Y-82158390D02*
X93533095Y-82206009D01*
X93533095Y-82206009D02*
X93437857Y-82253628D01*
X93437857Y-82253628D02*
X93056905Y-82253628D01*
X94485476Y-81729819D02*
X94295000Y-81729819D01*
X94295000Y-81729819D02*
X94199762Y-81777438D01*
X94199762Y-81777438D02*
X94152143Y-81825057D01*
X94152143Y-81825057D02*
X94056905Y-81967914D01*
X94056905Y-81967914D02*
X94009286Y-82158390D01*
X94009286Y-82158390D02*
X94009286Y-82539342D01*
X94009286Y-82539342D02*
X94056905Y-82634580D01*
X94056905Y-82634580D02*
X94104524Y-82682200D01*
X94104524Y-82682200D02*
X94199762Y-82729819D01*
X94199762Y-82729819D02*
X94390238Y-82729819D01*
X94390238Y-82729819D02*
X94485476Y-82682200D01*
X94485476Y-82682200D02*
X94533095Y-82634580D01*
X94533095Y-82634580D02*
X94580714Y-82539342D01*
X94580714Y-82539342D02*
X94580714Y-82301247D01*
X94580714Y-82301247D02*
X94533095Y-82206009D01*
X94533095Y-82206009D02*
X94485476Y-82158390D01*
X94485476Y-82158390D02*
X94390238Y-82110771D01*
X94390238Y-82110771D02*
X94199762Y-82110771D01*
X94199762Y-82110771D02*
X94104524Y-82158390D01*
X94104524Y-82158390D02*
X94056905Y-82206009D01*
X94056905Y-82206009D02*
X94009286Y-82301247D01*
X90963333Y-84154580D02*
X90915714Y-84202200D01*
X90915714Y-84202200D02*
X90772857Y-84249819D01*
X90772857Y-84249819D02*
X90677619Y-84249819D01*
X90677619Y-84249819D02*
X90534762Y-84202200D01*
X90534762Y-84202200D02*
X90439524Y-84106961D01*
X90439524Y-84106961D02*
X90391905Y-84011723D01*
X90391905Y-84011723D02*
X90344286Y-83821247D01*
X90344286Y-83821247D02*
X90344286Y-83678390D01*
X90344286Y-83678390D02*
X90391905Y-83487914D01*
X90391905Y-83487914D02*
X90439524Y-83392676D01*
X90439524Y-83392676D02*
X90534762Y-83297438D01*
X90534762Y-83297438D02*
X90677619Y-83249819D01*
X90677619Y-83249819D02*
X90772857Y-83249819D01*
X90772857Y-83249819D02*
X90915714Y-83297438D01*
X90915714Y-83297438D02*
X90963333Y-83345057D01*
X91296667Y-83249819D02*
X91915714Y-83249819D01*
X91915714Y-83249819D02*
X91582381Y-83630771D01*
X91582381Y-83630771D02*
X91725238Y-83630771D01*
X91725238Y-83630771D02*
X91820476Y-83678390D01*
X91820476Y-83678390D02*
X91868095Y-83726009D01*
X91868095Y-83726009D02*
X91915714Y-83821247D01*
X91915714Y-83821247D02*
X91915714Y-84059342D01*
X91915714Y-84059342D02*
X91868095Y-84154580D01*
X91868095Y-84154580D02*
X91820476Y-84202200D01*
X91820476Y-84202200D02*
X91725238Y-84249819D01*
X91725238Y-84249819D02*
X91439524Y-84249819D01*
X91439524Y-84249819D02*
X91344286Y-84202200D01*
X91344286Y-84202200D02*
X91296667Y-84154580D01*
X84898095Y-86139819D02*
X84898095Y-86949342D01*
X84898095Y-86949342D02*
X84945714Y-87044580D01*
X84945714Y-87044580D02*
X84993333Y-87092200D01*
X84993333Y-87092200D02*
X85088571Y-87139819D01*
X85088571Y-87139819D02*
X85279047Y-87139819D01*
X85279047Y-87139819D02*
X85374285Y-87092200D01*
X85374285Y-87092200D02*
X85421904Y-87044580D01*
X85421904Y-87044580D02*
X85469523Y-86949342D01*
X85469523Y-86949342D02*
X85469523Y-86139819D01*
X86469523Y-87139819D02*
X85898095Y-87139819D01*
X86183809Y-87139819D02*
X86183809Y-86139819D01*
X86183809Y-86139819D02*
X86088571Y-86282676D01*
X86088571Y-86282676D02*
X85993333Y-86377914D01*
X85993333Y-86377914D02*
X85898095Y-86425533D01*
X68262142Y-106694819D02*
X67928809Y-106218628D01*
X67690714Y-106694819D02*
X67690714Y-105694819D01*
X67690714Y-105694819D02*
X68071666Y-105694819D01*
X68071666Y-105694819D02*
X68166904Y-105742438D01*
X68166904Y-105742438D02*
X68214523Y-105790057D01*
X68214523Y-105790057D02*
X68262142Y-105885295D01*
X68262142Y-105885295D02*
X68262142Y-106028152D01*
X68262142Y-106028152D02*
X68214523Y-106123390D01*
X68214523Y-106123390D02*
X68166904Y-106171009D01*
X68166904Y-106171009D02*
X68071666Y-106218628D01*
X68071666Y-106218628D02*
X67690714Y-106218628D01*
X68643095Y-105790057D02*
X68690714Y-105742438D01*
X68690714Y-105742438D02*
X68785952Y-105694819D01*
X68785952Y-105694819D02*
X69024047Y-105694819D01*
X69024047Y-105694819D02*
X69119285Y-105742438D01*
X69119285Y-105742438D02*
X69166904Y-105790057D01*
X69166904Y-105790057D02*
X69214523Y-105885295D01*
X69214523Y-105885295D02*
X69214523Y-105980533D01*
X69214523Y-105980533D02*
X69166904Y-106123390D01*
X69166904Y-106123390D02*
X68595476Y-106694819D01*
X68595476Y-106694819D02*
X69214523Y-106694819D01*
X69833571Y-105694819D02*
X69928809Y-105694819D01*
X69928809Y-105694819D02*
X70024047Y-105742438D01*
X70024047Y-105742438D02*
X70071666Y-105790057D01*
X70071666Y-105790057D02*
X70119285Y-105885295D01*
X70119285Y-105885295D02*
X70166904Y-106075771D01*
X70166904Y-106075771D02*
X70166904Y-106313866D01*
X70166904Y-106313866D02*
X70119285Y-106504342D01*
X70119285Y-106504342D02*
X70071666Y-106599580D01*
X70071666Y-106599580D02*
X70024047Y-106647200D01*
X70024047Y-106647200D02*
X69928809Y-106694819D01*
X69928809Y-106694819D02*
X69833571Y-106694819D01*
X69833571Y-106694819D02*
X69738333Y-106647200D01*
X69738333Y-106647200D02*
X69690714Y-106599580D01*
X69690714Y-106599580D02*
X69643095Y-106504342D01*
X69643095Y-106504342D02*
X69595476Y-106313866D01*
X69595476Y-106313866D02*
X69595476Y-106075771D01*
X69595476Y-106075771D02*
X69643095Y-105885295D01*
X69643095Y-105885295D02*
X69690714Y-105790057D01*
X69690714Y-105790057D02*
X69738333Y-105742438D01*
X69738333Y-105742438D02*
X69833571Y-105694819D01*
X81254761Y-99085057D02*
X81159523Y-99037438D01*
X81159523Y-99037438D02*
X81064285Y-98942200D01*
X81064285Y-98942200D02*
X80921428Y-98799342D01*
X80921428Y-98799342D02*
X80826190Y-98751723D01*
X80826190Y-98751723D02*
X80730952Y-98751723D01*
X80778571Y-98989819D02*
X80683333Y-98942200D01*
X80683333Y-98942200D02*
X80588095Y-98846961D01*
X80588095Y-98846961D02*
X80540476Y-98656485D01*
X80540476Y-98656485D02*
X80540476Y-98323152D01*
X80540476Y-98323152D02*
X80588095Y-98132676D01*
X80588095Y-98132676D02*
X80683333Y-98037438D01*
X80683333Y-98037438D02*
X80778571Y-97989819D01*
X80778571Y-97989819D02*
X80969047Y-97989819D01*
X80969047Y-97989819D02*
X81064285Y-98037438D01*
X81064285Y-98037438D02*
X81159523Y-98132676D01*
X81159523Y-98132676D02*
X81207142Y-98323152D01*
X81207142Y-98323152D02*
X81207142Y-98656485D01*
X81207142Y-98656485D02*
X81159523Y-98846961D01*
X81159523Y-98846961D02*
X81064285Y-98942200D01*
X81064285Y-98942200D02*
X80969047Y-98989819D01*
X80969047Y-98989819D02*
X80778571Y-98989819D01*
X81540476Y-97989819D02*
X82207142Y-97989819D01*
X82207142Y-97989819D02*
X81778571Y-98989819D01*
X85741666Y-90679819D02*
X85741666Y-91394104D01*
X85741666Y-91394104D02*
X85694047Y-91536961D01*
X85694047Y-91536961D02*
X85598809Y-91632200D01*
X85598809Y-91632200D02*
X85455952Y-91679819D01*
X85455952Y-91679819D02*
X85360714Y-91679819D01*
X86122619Y-90679819D02*
X86741666Y-90679819D01*
X86741666Y-90679819D02*
X86408333Y-91060771D01*
X86408333Y-91060771D02*
X86551190Y-91060771D01*
X86551190Y-91060771D02*
X86646428Y-91108390D01*
X86646428Y-91108390D02*
X86694047Y-91156009D01*
X86694047Y-91156009D02*
X86741666Y-91251247D01*
X86741666Y-91251247D02*
X86741666Y-91489342D01*
X86741666Y-91489342D02*
X86694047Y-91584580D01*
X86694047Y-91584580D02*
X86646428Y-91632200D01*
X86646428Y-91632200D02*
X86551190Y-91679819D01*
X86551190Y-91679819D02*
X86265476Y-91679819D01*
X86265476Y-91679819D02*
X86170238Y-91632200D01*
X86170238Y-91632200D02*
X86122619Y-91584580D01*
X83872200Y-100774523D02*
X83919819Y-100631666D01*
X83919819Y-100631666D02*
X83919819Y-100393571D01*
X83919819Y-100393571D02*
X83872200Y-100298333D01*
X83872200Y-100298333D02*
X83824580Y-100250714D01*
X83824580Y-100250714D02*
X83729342Y-100203095D01*
X83729342Y-100203095D02*
X83634104Y-100203095D01*
X83634104Y-100203095D02*
X83538866Y-100250714D01*
X83538866Y-100250714D02*
X83491247Y-100298333D01*
X83491247Y-100298333D02*
X83443628Y-100393571D01*
X83443628Y-100393571D02*
X83396009Y-100584047D01*
X83396009Y-100584047D02*
X83348390Y-100679285D01*
X83348390Y-100679285D02*
X83300771Y-100726904D01*
X83300771Y-100726904D02*
X83205533Y-100774523D01*
X83205533Y-100774523D02*
X83110295Y-100774523D01*
X83110295Y-100774523D02*
X83015057Y-100726904D01*
X83015057Y-100726904D02*
X82967438Y-100679285D01*
X82967438Y-100679285D02*
X82919819Y-100584047D01*
X82919819Y-100584047D02*
X82919819Y-100345952D01*
X82919819Y-100345952D02*
X82967438Y-100203095D01*
X83396009Y-99774523D02*
X83396009Y-99441190D01*
X83919819Y-99298333D02*
X83919819Y-99774523D01*
X83919819Y-99774523D02*
X82919819Y-99774523D01*
X82919819Y-99774523D02*
X82919819Y-99298333D01*
X83919819Y-98298333D02*
X83443628Y-98631666D01*
X83919819Y-98869761D02*
X82919819Y-98869761D01*
X82919819Y-98869761D02*
X82919819Y-98488809D01*
X82919819Y-98488809D02*
X82967438Y-98393571D01*
X82967438Y-98393571D02*
X83015057Y-98345952D01*
X83015057Y-98345952D02*
X83110295Y-98298333D01*
X83110295Y-98298333D02*
X83253152Y-98298333D01*
X83253152Y-98298333D02*
X83348390Y-98345952D01*
X83348390Y-98345952D02*
X83396009Y-98393571D01*
X83396009Y-98393571D02*
X83443628Y-98488809D01*
X83443628Y-98488809D02*
X83443628Y-98869761D01*
X83919819Y-97869761D02*
X82919819Y-97869761D01*
X83634104Y-97441190D02*
X83634104Y-96965000D01*
X83919819Y-97536428D02*
X82919819Y-97203095D01*
X82919819Y-97203095D02*
X83919819Y-96869762D01*
X83919819Y-96060238D02*
X83919819Y-96536428D01*
X83919819Y-96536428D02*
X82919819Y-96536428D01*
D12*
%TO.C,U5*%
X76550000Y-112810000D02*
X75750000Y-112810000D01*
X76550000Y-112810000D02*
X77350000Y-112810000D01*
X76550000Y-115930000D02*
X75750000Y-115930000D01*
X76550000Y-115930000D02*
X77350000Y-115930000D01*
X75250000Y-112860000D02*
X75010000Y-112530000D01*
X75490000Y-112530000D01*
X75250000Y-112860000D01*
G36*
X75250000Y-112860000D02*
G01*
X75010000Y-112530000D01*
X75490000Y-112530000D01*
X75250000Y-112860000D01*
G37*
%TO.C,U4*%
X71265000Y-107480000D02*
X71265000Y-105530000D01*
X71265000Y-107480000D02*
X71265000Y-109430000D01*
X81385000Y-107480000D02*
X81385000Y-105530000D01*
X81385000Y-107480000D02*
X81385000Y-109430000D01*
X71320000Y-110180000D02*
X70990000Y-110420000D01*
X70990000Y-109940000D01*
X71320000Y-110180000D01*
G36*
X71320000Y-110180000D02*
G01*
X70990000Y-110420000D01*
X70990000Y-109940000D01*
X71320000Y-110180000D01*
G37*
%TO.C,JP1*%
X69655000Y-115340000D02*
X69655000Y-112540000D01*
X70355000Y-111890000D02*
X70955000Y-111890000D01*
X70955000Y-115990000D02*
X70355000Y-115990000D01*
X71655000Y-112540000D02*
X71655000Y-115340000D01*
X69655000Y-112590000D02*
G75*
G02*
X70355000Y-111890000I699999J1D01*
G01*
X70355000Y-115990000D02*
G75*
G02*
X69655000Y-115290000I0J700000D01*
G01*
X70955000Y-111890000D02*
G75*
G02*
X71655000Y-112590000I1J-699999D01*
G01*
X71655000Y-115290000D02*
G75*
G02*
X70955000Y-115990000I-700000J0D01*
G01*
%TO.C,R15*%
X60198333Y-113467936D02*
X60198333Y-113922064D01*
X61668333Y-113467936D02*
X61668333Y-113922064D01*
%TO.C,Q5*%
X90430000Y-85910000D02*
X89780000Y-85910000D01*
X90430000Y-85910000D02*
X91080000Y-85910000D01*
X90430000Y-89030000D02*
X89780000Y-89030000D01*
X90430000Y-89030000D02*
X91080000Y-89030000D01*
X89267500Y-85960000D02*
X89027500Y-85630000D01*
X89507500Y-85630000D01*
X89267500Y-85960000D01*
G36*
X89267500Y-85960000D02*
G01*
X89027500Y-85630000D01*
X89507500Y-85630000D01*
X89267500Y-85960000D01*
G37*
%TO.C,Q4*%
X90270000Y-72455000D02*
X90270000Y-71805000D01*
X90270000Y-72455000D02*
X90270000Y-73105000D01*
X93390000Y-72455000D02*
X93390000Y-71805000D01*
X93390000Y-72455000D02*
X93390000Y-73105000D01*
X90320000Y-73617500D02*
X89990000Y-73857500D01*
X89990000Y-73377500D01*
X90320000Y-73617500D01*
G36*
X90320000Y-73617500D02*
G01*
X89990000Y-73857500D01*
X89990000Y-73377500D01*
X90320000Y-73617500D01*
G37*
%TO.C,SW2*%
X69354000Y-90255000D02*
X69354000Y-88175000D01*
X70624000Y-86495000D02*
X70134000Y-86985000D01*
X70624000Y-86495000D02*
X73524000Y-86495000D01*
X70624000Y-91935000D02*
X70134000Y-91445000D01*
X70624000Y-91935000D02*
X73524000Y-91935000D01*
X73524000Y-86495000D02*
X74014000Y-86985000D01*
X73524000Y-91935000D02*
X74014000Y-91445000D01*
X74794000Y-90255000D02*
X74794000Y-88175000D01*
%TO.C,R1*%
X62312936Y-82180000D02*
X62767064Y-82180000D01*
X62312936Y-83650000D02*
X62767064Y-83650000D01*
%TO.C,R2*%
X61730000Y-68367064D02*
X61730000Y-67912936D01*
X63200000Y-68367064D02*
X63200000Y-67912936D01*
%TO.C,J2*%
X94140000Y-86090000D02*
X95470000Y-86090000D01*
X94140000Y-87420000D02*
X94140000Y-86090000D01*
X94140000Y-88690000D02*
X94140000Y-111610000D01*
X94140000Y-88690000D02*
X96800000Y-88690000D01*
X94140000Y-111610000D02*
X96800000Y-111610000D01*
X96800000Y-88690000D02*
X96800000Y-111610000D01*
%TO.C,R3*%
X62232936Y-84800000D02*
X62687064Y-84800000D01*
X62232936Y-86270000D02*
X62687064Y-86270000D01*
%TO.C,C8*%
X89898748Y-112575000D02*
X90421252Y-112575000D01*
X89898748Y-114045000D02*
X90421252Y-114045000D01*
%TO.C,J4*%
X72010000Y-119635000D02*
X72010000Y-121555000D01*
X72010000Y-125270000D02*
X72010000Y-123565000D01*
X81170000Y-121555000D02*
X81170000Y-119635000D01*
X81170000Y-123565000D02*
X81170000Y-125270000D01*
X81170000Y-125270000D02*
X72010000Y-125270000D01*
%TO.C,Q2*%
X90550000Y-76130000D02*
X89900000Y-76130000D01*
X90550000Y-76130000D02*
X91200000Y-76130000D01*
X90550000Y-79250000D02*
X89900000Y-79250000D01*
X90550000Y-79250000D02*
X91200000Y-79250000D01*
X89387500Y-76180000D02*
X89147500Y-75850000D01*
X89627500Y-75850000D01*
X89387500Y-76180000D01*
G36*
X89387500Y-76180000D02*
G01*
X89147500Y-75850000D01*
X89627500Y-75850000D01*
X89387500Y-76180000D01*
G37*
%TO.C,R10*%
X64367936Y-75752500D02*
X64822064Y-75752500D01*
X64367936Y-77222500D02*
X64822064Y-77222500D01*
%TO.C,R11*%
X64332936Y-79665000D02*
X64787064Y-79665000D01*
X64332936Y-81135000D02*
X64787064Y-81135000D01*
%TO.C,R12*%
X88332064Y-71890000D02*
X87877936Y-71890000D01*
X88332064Y-73360000D02*
X87877936Y-73360000D01*
%TO.C,D1*%
X61055000Y-93600000D02*
X61055000Y-86600000D01*
X61055000Y-93600000D02*
X66555000Y-93600000D01*
X64705000Y-87400000D02*
X62905000Y-87400000D01*
X64705000Y-92800000D02*
X62905000Y-92800000D01*
X66105000Y-86600000D02*
X61055000Y-86600000D01*
X66555000Y-87050000D02*
X66105000Y-86600000D01*
X66555000Y-93600000D02*
X66555000Y-87050000D01*
%TO.C,SW1*%
X77668000Y-90335000D02*
X77668000Y-88255000D01*
X78938000Y-86575000D02*
X78448000Y-87065000D01*
X78938000Y-86575000D02*
X81838000Y-86575000D01*
X78938000Y-92015000D02*
X78448000Y-91525000D01*
X78938000Y-92015000D02*
X81838000Y-92015000D01*
X81838000Y-86575000D02*
X82328000Y-87065000D01*
X81838000Y-92015000D02*
X82328000Y-91525000D01*
X83108000Y-90335000D02*
X83108000Y-88255000D01*
%TO.C,J1*%
X57435000Y-87300000D02*
X57435000Y-107680000D01*
X57435000Y-87300000D02*
X60095000Y-87300000D01*
X57435000Y-107680000D02*
X60095000Y-107680000D01*
X58765000Y-84700000D02*
X60095000Y-84700000D01*
X60095000Y-84700000D02*
X60095000Y-86030000D01*
X60095000Y-87300000D02*
X60095000Y-107680000D01*
%TO.C,R18*%
X74650000Y-100422936D02*
X74650000Y-100877064D01*
X76120000Y-100422936D02*
X76120000Y-100877064D01*
%TO.C,R13*%
X86765000Y-87827064D02*
X86765000Y-87372936D01*
X88235000Y-87827064D02*
X88235000Y-87372936D01*
%TO.C,C10*%
X79110000Y-114278748D02*
X79110000Y-114801252D01*
X80580000Y-114278748D02*
X80580000Y-114801252D01*
%TO.C,C2*%
X61278748Y-70510000D02*
X61801252Y-70510000D01*
X61278748Y-71980000D02*
X61801252Y-71980000D01*
%TO.C,R7*%
X88362064Y-69985000D02*
X87907936Y-69985000D01*
X88362064Y-71455000D02*
X87907936Y-71455000D01*
%TO.C,C6*%
X63898748Y-102770000D02*
X64421252Y-102770000D01*
X63898748Y-104240000D02*
X64421252Y-104240000D01*
%TO.C,C1*%
X61278748Y-73520000D02*
X61801252Y-73520000D01*
X61278748Y-74990000D02*
X61801252Y-74990000D01*
%TO.C,C4*%
X64230000Y-68751252D02*
X64230000Y-68228748D01*
X65700000Y-68751252D02*
X65700000Y-68228748D01*
%TO.C,R16*%
X62116667Y-113467936D02*
X62116667Y-113922064D01*
X63586667Y-113467936D02*
X63586667Y-113922064D01*
%TO.C,U2*%
X66935000Y-94975000D02*
X64985000Y-94975000D01*
X66935000Y-94975000D02*
X68885000Y-94975000D01*
X66935000Y-100095000D02*
X64985000Y-100095000D01*
X66935000Y-100095000D02*
X68885000Y-100095000D01*
X64222500Y-94975000D02*
X63982500Y-94645000D01*
X64462500Y-94645000D01*
X64222500Y-94975000D01*
G36*
X64222500Y-94975000D02*
G01*
X63982500Y-94645000D01*
X64462500Y-94645000D01*
X64222500Y-94975000D01*
G37*
%TO.C,Q1*%
X90580000Y-68235000D02*
X90580000Y-67585000D01*
X90580000Y-68235000D02*
X90580000Y-68885000D01*
X93700000Y-68235000D02*
X93700000Y-67585000D01*
X93700000Y-68235000D02*
X93700000Y-68885000D01*
X93980000Y-67312500D02*
X93650000Y-67072500D01*
X93980000Y-66832500D01*
X93980000Y-67312500D01*
G36*
X93980000Y-67312500D02*
G01*
X93650000Y-67072500D01*
X93980000Y-66832500D01*
X93980000Y-67312500D01*
G37*
%TO.C,R17*%
X58280000Y-113467936D02*
X58280000Y-113922064D01*
X59750000Y-113467936D02*
X59750000Y-113922064D01*
%TO.C,U6*%
X89080000Y-116380000D02*
X92840000Y-116380000D01*
X89080000Y-123200000D02*
X92840000Y-123200000D01*
X92840000Y-116380000D02*
X92840000Y-117640000D01*
X92840000Y-123200000D02*
X92840000Y-121940000D01*
X87800000Y-116480000D02*
X87560000Y-116150000D01*
X88040000Y-116150000D01*
X87800000Y-116480000D01*
G36*
X87800000Y-116480000D02*
G01*
X87560000Y-116150000D01*
X88040000Y-116150000D01*
X87800000Y-116480000D01*
G37*
%TO.C,Q6*%
X73985000Y-94495000D02*
X73335000Y-94495000D01*
X73985000Y-94495000D02*
X74635000Y-94495000D01*
X73985000Y-97615000D02*
X73335000Y-97615000D01*
X73985000Y-97615000D02*
X74635000Y-97615000D01*
X75387500Y-97895000D02*
X74907500Y-97895000D01*
X75147500Y-97565000D01*
X75387500Y-97895000D01*
G36*
X75387500Y-97895000D02*
G01*
X74907500Y-97895000D01*
X75147500Y-97565000D01*
X75387500Y-97895000D01*
G37*
%TO.C,U3*%
X84685000Y-105975000D02*
X85945000Y-105975000D01*
X84685000Y-109735000D02*
X84685000Y-105975000D01*
X91505000Y-105975000D02*
X90245000Y-105975000D01*
X91505000Y-109735000D02*
X91505000Y-105975000D01*
X84785000Y-111015000D02*
X84455000Y-111255000D01*
X84455000Y-110775000D01*
X84785000Y-111015000D01*
G36*
X84785000Y-111015000D02*
G01*
X84455000Y-111255000D01*
X84455000Y-110775000D01*
X84785000Y-111015000D01*
G37*
%TO.C,R5*%
X88252064Y-74040000D02*
X87797936Y-74040000D01*
X88252064Y-75510000D02*
X87797936Y-75510000D01*
%TO.C,C9*%
X84841252Y-119085000D02*
X84318748Y-119085000D01*
X84841252Y-120555000D02*
X84318748Y-120555000D01*
%TO.C,R9*%
X64337936Y-77700000D02*
X64792064Y-77700000D01*
X64337936Y-79170000D02*
X64792064Y-79170000D01*
%TO.C,R4*%
X86850000Y-67947064D02*
X86850000Y-67492936D01*
X88320000Y-67947064D02*
X88320000Y-67492936D01*
%TO.C,C11*%
X84891252Y-121365000D02*
X84368748Y-121365000D01*
X84891252Y-122835000D02*
X84368748Y-122835000D01*
%TO.C,R14*%
X61035000Y-99772936D02*
X61035000Y-100227064D01*
X62505000Y-99772936D02*
X62505000Y-100227064D01*
%TO.C,C5*%
X64245000Y-72033748D02*
X64245000Y-72556252D01*
X65715000Y-72033748D02*
X65715000Y-72556252D01*
%TO.C,C7*%
X86641252Y-112575000D02*
X86118748Y-112575000D01*
X86641252Y-114045000D02*
X86118748Y-114045000D01*
%TO.C,Q3*%
X90425000Y-79740000D02*
X89775000Y-79740000D01*
X90425000Y-79740000D02*
X91075000Y-79740000D01*
X90425000Y-82860000D02*
X89775000Y-82860000D01*
X90425000Y-82860000D02*
X91075000Y-82860000D01*
X89262500Y-79790000D02*
X89022500Y-79460000D01*
X89502500Y-79460000D01*
X89262500Y-79790000D01*
G36*
X89262500Y-79790000D02*
G01*
X89022500Y-79460000D01*
X89502500Y-79460000D01*
X89262500Y-79790000D01*
G37*
%TO.C,R8*%
X86630000Y-77822064D02*
X86630000Y-77367936D01*
X88100000Y-77822064D02*
X88100000Y-77367936D01*
%TO.C,J5*%
X58075000Y-125025000D02*
X58075000Y-116985000D01*
X58883000Y-120405000D02*
X58075000Y-120405000D01*
X58883000Y-121405000D02*
X58075000Y-121405000D01*
X59208000Y-122152000D02*
X59251000Y-122109000D01*
X59448000Y-122391000D02*
X59491000Y-122348000D01*
X60152000Y-119105000D02*
X58075000Y-119105000D01*
X61900000Y-119462000D02*
X61943000Y-119419000D01*
X62139000Y-119701000D02*
X62182000Y-119658000D01*
X63815000Y-119105000D02*
X61238000Y-119105000D01*
X63815000Y-120405000D02*
X62507000Y-120405000D01*
X63815000Y-121405000D02*
X62507000Y-121405000D01*
X65395000Y-116985000D02*
X58075000Y-116985000D01*
X68815000Y-116985000D02*
X65995000Y-116985000D01*
X68815000Y-119105000D02*
X67575000Y-119105000D01*
X68815000Y-120405000D02*
X67575000Y-120405000D01*
X68815000Y-121405000D02*
X67575000Y-121405000D01*
X68815000Y-125025000D02*
X58075000Y-125025000D01*
X68815000Y-125025000D02*
X68815000Y-116985000D01*
X63815000Y-121459000D02*
G75*
G02*
X63815139Y-120350528I1880000J554000D01*
G01*
X65141000Y-119025000D02*
G75*
G02*
X66249472Y-119025139I554000J-1879990D01*
G01*
X66249000Y-122785000D02*
G75*
G02*
X65140528Y-122784861I-554000J1880000D01*
G01*
X67575000Y-120351000D02*
G75*
G02*
X67574861Y-121459472I-1879990J-554000D01*
G01*
X62655000Y-120905000D02*
G75*
G02*
X58735000Y-120905000I-1960000J0D01*
G01*
X58735000Y-120905000D02*
G75*
G02*
X62655000Y-120905000I1960000J0D01*
G01*
X65695000Y-116985000D02*
X65255000Y-116375000D01*
X66135000Y-116375000D01*
X65695000Y-116985000D01*
G36*
X65695000Y-116985000D02*
G01*
X65255000Y-116375000D01*
X66135000Y-116375000D01*
X65695000Y-116985000D01*
G37*
%TO.C,D2*%
X76780000Y-99650000D02*
X76780000Y-101570000D01*
X76780000Y-101570000D02*
X79640000Y-101570000D01*
X79640000Y-99650000D02*
X76780000Y-99650000D01*
%TO.C,R19*%
X64035000Y-113467936D02*
X64035000Y-113922064D01*
X65505000Y-113467936D02*
X65505000Y-113922064D01*
%TO.C,R6*%
X86640000Y-81207936D02*
X86640000Y-81662064D01*
X88110000Y-81207936D02*
X88110000Y-81662064D01*
%TO.C,C3*%
X87843748Y-83715000D02*
X88366252Y-83715000D01*
X87843748Y-85185000D02*
X88366252Y-85185000D01*
%TO.C,U1*%
X67245000Y-59610000D02*
X67245000Y-65770000D01*
X67245000Y-59610000D02*
X85485000Y-59610000D01*
X67245000Y-84570000D02*
X67245000Y-85350000D01*
X67245000Y-85350000D02*
X68245000Y-85350000D01*
X85485000Y-59610000D02*
X85485000Y-66025000D01*
X85485000Y-84570000D02*
X85485000Y-85350000D01*
X85485000Y-85350000D02*
X84485000Y-85350000D01*
X67240000Y-66495000D02*
X66740000Y-66495000D01*
X67240000Y-65995000D01*
X67240000Y-66495000D01*
G36*
X67240000Y-66495000D02*
G01*
X66740000Y-66495000D01*
X67240000Y-65995000D01*
X67240000Y-66495000D01*
G37*
%TO.C,R20*%
X67280000Y-103627064D02*
X67280000Y-103172936D01*
X68750000Y-103627064D02*
X68750000Y-103172936D01*
%TO.C,Q7*%
X78960000Y-94485000D02*
X78310000Y-94485000D01*
X78960000Y-94485000D02*
X79610000Y-94485000D01*
X78960000Y-97605000D02*
X78310000Y-97605000D01*
X78960000Y-97605000D02*
X79610000Y-97605000D01*
X77797500Y-94535000D02*
X77557500Y-94205000D01*
X78037500Y-94205000D01*
X77797500Y-94535000D01*
G36*
X77797500Y-94535000D02*
G01*
X77557500Y-94205000D01*
X78037500Y-94205000D01*
X77797500Y-94535000D01*
G37*
%TO.C,J3*%
X84745000Y-95265000D02*
X84745000Y-102945000D01*
X84745000Y-95265000D02*
X87405000Y-95265000D01*
X84745000Y-102945000D02*
X87405000Y-102945000D01*
X86075000Y-92665000D02*
X87405000Y-92665000D01*
X87405000Y-92665000D02*
X87405000Y-93995000D01*
X87405000Y-95265000D02*
X87405000Y-102945000D01*
%TD*%
%LPC*%
%TO.C,JP1*%
G36*
X71405000Y-113190000D02*
G01*
X69905000Y-113190000D01*
X69905000Y-114690000D01*
X71405000Y-114690000D01*
X71405000Y-113190000D01*
G37*
%TD*%
D13*
%TO.C,U5*%
X75412500Y-113420000D03*
X75412500Y-114370000D03*
X75412500Y-115320000D03*
X77687500Y-115320000D03*
X77687500Y-114370000D03*
X77687500Y-113420000D03*
%TD*%
D14*
%TO.C,U4*%
X71880000Y-109955000D03*
X73150000Y-109955000D03*
X74420000Y-109955000D03*
X75690000Y-109955000D03*
X76960000Y-109955000D03*
X78230000Y-109955000D03*
X79500000Y-109955000D03*
X80770000Y-109955000D03*
X80770000Y-105005000D03*
X79500000Y-105005000D03*
X78230000Y-105005000D03*
X76960000Y-105005000D03*
X75690000Y-105005000D03*
X74420000Y-105005000D03*
X73150000Y-105005000D03*
X71880000Y-105005000D03*
%TD*%
D15*
%TO.C,JP1*%
X70655000Y-112640000D03*
D16*
X70655000Y-113940000D03*
D17*
X70655000Y-115240000D03*
%TD*%
D18*
%TO.C,R15*%
X60933333Y-112695000D03*
X60933333Y-114695000D03*
%TD*%
D19*
%TO.C,Q5*%
X89492500Y-86520000D03*
X89492500Y-88420000D03*
X91367500Y-87470000D03*
%TD*%
D20*
%TO.C,Q4*%
X90880000Y-73392500D03*
X92780000Y-73392500D03*
X91830000Y-71517500D03*
%TD*%
D21*
%TO.C,SW2*%
X68974000Y-87365000D03*
X75174000Y-87365000D03*
X68974000Y-91065000D03*
X75174000Y-91065000D03*
%TD*%
D22*
%TO.C,R1*%
X61540000Y-82915000D03*
X63540000Y-82915000D03*
%TD*%
D23*
%TO.C,R2*%
X62465000Y-69140000D03*
X62465000Y-67140000D03*
%TD*%
D24*
%TO.C,J2*%
X95470000Y-87420000D03*
D25*
X95470000Y-89960000D03*
X95470000Y-92500000D03*
X95470000Y-95040000D03*
X95470000Y-97580000D03*
X95470000Y-100120000D03*
X95470000Y-102660000D03*
X95470000Y-105200000D03*
X95470000Y-107740000D03*
X95470000Y-110280000D03*
%TD*%
D22*
%TO.C,R3*%
X61460000Y-85535000D03*
X63460000Y-85535000D03*
%TD*%
D26*
%TO.C,C8*%
X89122500Y-113310000D03*
X91197500Y-113310000D03*
%TD*%
D27*
%TO.C,J4*%
X73700000Y-118880000D03*
X79480000Y-118880000D03*
D28*
X73240000Y-117815000D03*
X74040000Y-117815000D03*
X75340000Y-117815000D03*
X76340000Y-117815000D03*
X76840000Y-117815000D03*
X77840000Y-117815000D03*
X79140000Y-117815000D03*
X79940000Y-117815000D03*
X79640000Y-117815000D03*
X78840000Y-117815000D03*
X78340000Y-117815000D03*
X77340000Y-117815000D03*
X75840000Y-117815000D03*
X74840000Y-117815000D03*
X74340000Y-117815000D03*
X73540000Y-117815000D03*
D29*
X72270000Y-118380000D03*
D30*
X72270000Y-122560000D03*
D29*
X80910000Y-118380000D03*
D30*
X80910000Y-122560000D03*
%TD*%
D19*
%TO.C,Q2*%
X89612500Y-76740000D03*
X89612500Y-78640000D03*
X91487500Y-77690000D03*
%TD*%
D22*
%TO.C,R10*%
X63595000Y-76487500D03*
X65595000Y-76487500D03*
%TD*%
%TO.C,R11*%
X63560000Y-80400000D03*
X65560000Y-80400000D03*
%TD*%
D31*
%TO.C,R12*%
X89105000Y-72625000D03*
X87105000Y-72625000D03*
%TD*%
D32*
%TO.C,D1*%
X62155000Y-92550000D03*
X65455000Y-92550000D03*
X65455000Y-87650000D03*
X62155000Y-87650000D03*
%TD*%
D21*
%TO.C,SW1*%
X77288000Y-87445000D03*
X83488000Y-87445000D03*
X77288000Y-91145000D03*
X83488000Y-91145000D03*
%TD*%
D24*
%TO.C,J1*%
X58765000Y-86030000D03*
D25*
X58765000Y-88570000D03*
X58765000Y-91110000D03*
X58765000Y-93650000D03*
X58765000Y-96190000D03*
X58765000Y-98730000D03*
X58765000Y-101270000D03*
X58765000Y-103810000D03*
X58765000Y-106350000D03*
%TD*%
D18*
%TO.C,R18*%
X75385000Y-99650000D03*
X75385000Y-101650000D03*
%TD*%
D23*
%TO.C,R13*%
X87500000Y-88600000D03*
X87500000Y-86600000D03*
%TD*%
D33*
%TO.C,C10*%
X79845000Y-113502500D03*
X79845000Y-115577500D03*
%TD*%
D26*
%TO.C,C2*%
X60502500Y-71245000D03*
X62577500Y-71245000D03*
%TD*%
D31*
%TO.C,R7*%
X89135000Y-70720000D03*
X87135000Y-70720000D03*
%TD*%
D26*
%TO.C,C6*%
X63122500Y-103505000D03*
X65197500Y-103505000D03*
%TD*%
%TO.C,C1*%
X60502500Y-74255000D03*
X62577500Y-74255000D03*
%TD*%
D34*
%TO.C,C4*%
X64965000Y-69527500D03*
X64965000Y-67452500D03*
%TD*%
D18*
%TO.C,R16*%
X62851667Y-112695000D03*
X62851667Y-114695000D03*
%TD*%
D35*
%TO.C,U2*%
X64297500Y-95535000D03*
X64297500Y-96535000D03*
X64297500Y-97535000D03*
X64297500Y-98535000D03*
X64297500Y-99535000D03*
X69572500Y-99535000D03*
X69572500Y-98535000D03*
X69572500Y-97535000D03*
X69572500Y-96535000D03*
X69572500Y-95535000D03*
D36*
X66935000Y-97535000D03*
%TD*%
D37*
%TO.C,Q1*%
X93090000Y-67297500D03*
X91190000Y-67297500D03*
X92140000Y-69172500D03*
%TD*%
D18*
%TO.C,R17*%
X59015000Y-112695000D03*
X59015000Y-114695000D03*
%TD*%
D38*
%TO.C,U6*%
X87780000Y-117490000D03*
X87780000Y-119790000D03*
X87780000Y-122090000D03*
D39*
X94080000Y-119790000D03*
%TD*%
D40*
%TO.C,Q6*%
X74922500Y-97005000D03*
X74922500Y-95105000D03*
X73047500Y-96055000D03*
%TD*%
D41*
%TO.C,U3*%
X85795000Y-111035000D03*
X88095000Y-111035000D03*
X90395000Y-111035000D03*
D42*
X88095000Y-104735000D03*
%TD*%
D31*
%TO.C,R5*%
X89025000Y-74775000D03*
X87025000Y-74775000D03*
%TD*%
D43*
%TO.C,C9*%
X85617500Y-119820000D03*
X83542500Y-119820000D03*
%TD*%
D22*
%TO.C,R9*%
X63565000Y-78435000D03*
X65565000Y-78435000D03*
%TD*%
D23*
%TO.C,R4*%
X87585000Y-68720000D03*
X87585000Y-66720000D03*
%TD*%
D43*
%TO.C,C11*%
X85667500Y-122100000D03*
X83592500Y-122100000D03*
%TD*%
D18*
%TO.C,R14*%
X61770000Y-99000000D03*
X61770000Y-101000000D03*
%TD*%
D33*
%TO.C,C5*%
X64980000Y-71257500D03*
X64980000Y-73332500D03*
%TD*%
D43*
%TO.C,C7*%
X87417500Y-113310000D03*
X85342500Y-113310000D03*
%TD*%
D19*
%TO.C,Q3*%
X89487500Y-80350000D03*
X89487500Y-82250000D03*
X91362500Y-81300000D03*
%TD*%
D23*
%TO.C,R8*%
X87365000Y-78595000D03*
X87365000Y-76595000D03*
%TD*%
D44*
%TO.C,J5*%
X65695000Y-120905000D03*
D45*
X60695000Y-120905000D03*
%TD*%
D46*
%TO.C,D2*%
X77615000Y-100610000D03*
X79665000Y-100610000D03*
%TD*%
D18*
%TO.C,R19*%
X64770000Y-112695000D03*
X64770000Y-114695000D03*
%TD*%
%TO.C,R6*%
X87375000Y-80435000D03*
X87375000Y-82435000D03*
%TD*%
D26*
%TO.C,C3*%
X87067500Y-84450000D03*
X89142500Y-84450000D03*
%TD*%
D47*
%TO.C,U1*%
X67615000Y-67220000D03*
X67615000Y-68490000D03*
X67615000Y-69760000D03*
X67615000Y-71030000D03*
X67615000Y-72300000D03*
X67615000Y-73570000D03*
X67615000Y-74840000D03*
X67615000Y-76110000D03*
X67615000Y-77380000D03*
X67615000Y-78650000D03*
X67615000Y-79920000D03*
X67615000Y-81190000D03*
X67615000Y-82460000D03*
X67615000Y-83730000D03*
D48*
X70655000Y-84980000D03*
X71925000Y-84980000D03*
X73195000Y-84980000D03*
X74465000Y-84980000D03*
X75735000Y-84980000D03*
X77005000Y-84980000D03*
X78275000Y-84980000D03*
X79545000Y-84980000D03*
X80815000Y-84980000D03*
X82085000Y-84980000D03*
D47*
X85115000Y-83730000D03*
X85115000Y-82460000D03*
X85115000Y-81190000D03*
X85115000Y-79920000D03*
X85115000Y-78650000D03*
X85115000Y-77380000D03*
X85115000Y-76110000D03*
X85115000Y-74840000D03*
X85115000Y-73570000D03*
X85115000Y-72300000D03*
X85115000Y-71030000D03*
X85115000Y-69760000D03*
X85115000Y-68490000D03*
X85115000Y-67220000D03*
D49*
X74160000Y-73797500D03*
X74160000Y-75322500D03*
X74922500Y-73035000D03*
X74922500Y-74560000D03*
X74922500Y-76085000D03*
X75685000Y-73797500D03*
D50*
X75685000Y-74560000D03*
D49*
X75685000Y-75322500D03*
X76447500Y-73035000D03*
X76447500Y-74560000D03*
X76447500Y-76085000D03*
X77210000Y-73797500D03*
X77210000Y-75322500D03*
%TD*%
D23*
%TO.C,R20*%
X68015000Y-104400000D03*
X68015000Y-102400000D03*
%TD*%
D19*
%TO.C,Q7*%
X78022500Y-95095000D03*
X78022500Y-96995000D03*
X79897500Y-96045000D03*
%TD*%
D24*
%TO.C,J3*%
X86075000Y-93995000D03*
D25*
X86075000Y-96535000D03*
X86075000Y-99075000D03*
X86075000Y-101615000D03*
%TD*%
%LPD*%
M02*
