%TF.GenerationSoftware,KiCad,Pcbnew,9.0.0*%
%TF.CreationDate,2025-04-10T21:45:59-06:00*%
%TF.ProjectId,esp32,65737033-322e-46b6-9963-61645f706362,rev?*%
%TF.SameCoordinates,Original*%
%TF.FileFunction,Other,Comment*%
%FSLAX46Y46*%
G04 Gerber Fmt 4.6, Leading zero omitted, Abs format (unit mm)*
G04 Created by KiCad (PCBNEW 9.0.0) date 2025-04-10 21:45:59*
%MOMM*%
%LPD*%
G01*
G04 APERTURE LIST*
%ADD10C,0.030000*%
%ADD11C,0.150000*%
G04 APERTURE END LIST*
D10*
X68359715Y-89105963D02*
X68359715Y-88905963D01*
X68474000Y-89105963D02*
X68388286Y-88991678D01*
X68474000Y-88905963D02*
X68359715Y-89020249D01*
X68559715Y-89001201D02*
X68626381Y-89001201D01*
X68654953Y-89105963D02*
X68559715Y-89105963D01*
X68559715Y-89105963D02*
X68559715Y-88905963D01*
X68559715Y-88905963D02*
X68654953Y-88905963D01*
X68740667Y-89001201D02*
X68807333Y-89001201D01*
X68835905Y-89105963D02*
X68740667Y-89105963D01*
X68740667Y-89105963D02*
X68740667Y-88905963D01*
X68740667Y-88905963D02*
X68835905Y-88905963D01*
X68921619Y-89105963D02*
X68921619Y-88905963D01*
X68921619Y-88905963D02*
X68997809Y-88905963D01*
X68997809Y-88905963D02*
X69016857Y-88915487D01*
X69016857Y-88915487D02*
X69026380Y-88925011D01*
X69026380Y-88925011D02*
X69035904Y-88944059D01*
X69035904Y-88944059D02*
X69035904Y-88972630D01*
X69035904Y-88972630D02*
X69026380Y-88991678D01*
X69026380Y-88991678D02*
X69016857Y-89001201D01*
X69016857Y-89001201D02*
X68997809Y-89010725D01*
X68997809Y-89010725D02*
X68921619Y-89010725D01*
X69121619Y-89029773D02*
X69274000Y-89029773D01*
X69407333Y-88905963D02*
X69445428Y-88905963D01*
X69445428Y-88905963D02*
X69464476Y-88915487D01*
X69464476Y-88915487D02*
X69483523Y-88934535D01*
X69483523Y-88934535D02*
X69493047Y-88972630D01*
X69493047Y-88972630D02*
X69493047Y-89039297D01*
X69493047Y-89039297D02*
X69483523Y-89077392D01*
X69483523Y-89077392D02*
X69464476Y-89096440D01*
X69464476Y-89096440D02*
X69445428Y-89105963D01*
X69445428Y-89105963D02*
X69407333Y-89105963D01*
X69407333Y-89105963D02*
X69388285Y-89096440D01*
X69388285Y-89096440D02*
X69369238Y-89077392D01*
X69369238Y-89077392D02*
X69359714Y-89039297D01*
X69359714Y-89039297D02*
X69359714Y-88972630D01*
X69359714Y-88972630D02*
X69369238Y-88934535D01*
X69369238Y-88934535D02*
X69388285Y-88915487D01*
X69388285Y-88915487D02*
X69407333Y-88905963D01*
X69578762Y-88905963D02*
X69578762Y-89067868D01*
X69578762Y-89067868D02*
X69588285Y-89086916D01*
X69588285Y-89086916D02*
X69597809Y-89096440D01*
X69597809Y-89096440D02*
X69616857Y-89105963D01*
X69616857Y-89105963D02*
X69654952Y-89105963D01*
X69654952Y-89105963D02*
X69674000Y-89096440D01*
X69674000Y-89096440D02*
X69683523Y-89086916D01*
X69683523Y-89086916D02*
X69693047Y-89067868D01*
X69693047Y-89067868D02*
X69693047Y-88905963D01*
X69759714Y-88905963D02*
X69874000Y-88905963D01*
X69816857Y-89105963D02*
X69816857Y-88905963D01*
X70074000Y-88905963D02*
X70207333Y-88905963D01*
X70207333Y-88905963D02*
X70074000Y-89105963D01*
X70074000Y-89105963D02*
X70207333Y-89105963D01*
X70321619Y-88905963D02*
X70359714Y-88905963D01*
X70359714Y-88905963D02*
X70378762Y-88915487D01*
X70378762Y-88915487D02*
X70397809Y-88934535D01*
X70397809Y-88934535D02*
X70407333Y-88972630D01*
X70407333Y-88972630D02*
X70407333Y-89039297D01*
X70407333Y-89039297D02*
X70397809Y-89077392D01*
X70397809Y-89077392D02*
X70378762Y-89096440D01*
X70378762Y-89096440D02*
X70359714Y-89105963D01*
X70359714Y-89105963D02*
X70321619Y-89105963D01*
X70321619Y-89105963D02*
X70302571Y-89096440D01*
X70302571Y-89096440D02*
X70283524Y-89077392D01*
X70283524Y-89077392D02*
X70274000Y-89039297D01*
X70274000Y-89039297D02*
X70274000Y-88972630D01*
X70274000Y-88972630D02*
X70283524Y-88934535D01*
X70283524Y-88934535D02*
X70302571Y-88915487D01*
X70302571Y-88915487D02*
X70321619Y-88905963D01*
X70493048Y-89105963D02*
X70493048Y-88905963D01*
X70493048Y-88905963D02*
X70607333Y-89105963D01*
X70607333Y-89105963D02*
X70607333Y-88905963D01*
X70702572Y-89001201D02*
X70769238Y-89001201D01*
X70797810Y-89105963D02*
X70702572Y-89105963D01*
X70702572Y-89105963D02*
X70702572Y-88905963D01*
X70702572Y-88905963D02*
X70797810Y-88905963D01*
X68493047Y-89505963D02*
X68493047Y-89305963D01*
X68493047Y-89305963D02*
X68607332Y-89505963D01*
X68607332Y-89505963D02*
X68607332Y-89305963D01*
X68731142Y-89505963D02*
X68712094Y-89496440D01*
X68712094Y-89496440D02*
X68702571Y-89486916D01*
X68702571Y-89486916D02*
X68693047Y-89467868D01*
X68693047Y-89467868D02*
X68693047Y-89410725D01*
X68693047Y-89410725D02*
X68702571Y-89391678D01*
X68702571Y-89391678D02*
X68712094Y-89382154D01*
X68712094Y-89382154D02*
X68731142Y-89372630D01*
X68731142Y-89372630D02*
X68759713Y-89372630D01*
X68759713Y-89372630D02*
X68778761Y-89382154D01*
X68778761Y-89382154D02*
X68788285Y-89391678D01*
X68788285Y-89391678D02*
X68797809Y-89410725D01*
X68797809Y-89410725D02*
X68797809Y-89467868D01*
X68797809Y-89467868D02*
X68788285Y-89486916D01*
X68788285Y-89486916D02*
X68778761Y-89496440D01*
X68778761Y-89496440D02*
X68759713Y-89505963D01*
X68759713Y-89505963D02*
X68731142Y-89505963D01*
X69102570Y-89401201D02*
X69035904Y-89401201D01*
X69035904Y-89505963D02*
X69035904Y-89305963D01*
X69035904Y-89305963D02*
X69131142Y-89305963D01*
X69207333Y-89486916D02*
X69216856Y-89496440D01*
X69216856Y-89496440D02*
X69207333Y-89505963D01*
X69207333Y-89505963D02*
X69197809Y-89496440D01*
X69197809Y-89496440D02*
X69207333Y-89486916D01*
X69207333Y-89486916D02*
X69207333Y-89505963D01*
X69416856Y-89486916D02*
X69407332Y-89496440D01*
X69407332Y-89496440D02*
X69378761Y-89505963D01*
X69378761Y-89505963D02*
X69359713Y-89505963D01*
X69359713Y-89505963D02*
X69331142Y-89496440D01*
X69331142Y-89496440D02*
X69312094Y-89477392D01*
X69312094Y-89477392D02*
X69302571Y-89458344D01*
X69302571Y-89458344D02*
X69293047Y-89420249D01*
X69293047Y-89420249D02*
X69293047Y-89391678D01*
X69293047Y-89391678D02*
X69302571Y-89353582D01*
X69302571Y-89353582D02*
X69312094Y-89334535D01*
X69312094Y-89334535D02*
X69331142Y-89315487D01*
X69331142Y-89315487D02*
X69359713Y-89305963D01*
X69359713Y-89305963D02*
X69378761Y-89305963D01*
X69378761Y-89305963D02*
X69407332Y-89315487D01*
X69407332Y-89315487D02*
X69416856Y-89325011D01*
X69588285Y-89372630D02*
X69588285Y-89505963D01*
X69502571Y-89372630D02*
X69502571Y-89477392D01*
X69502571Y-89477392D02*
X69512094Y-89496440D01*
X69512094Y-89496440D02*
X69531142Y-89505963D01*
X69531142Y-89505963D02*
X69559713Y-89505963D01*
X69559713Y-89505963D02*
X69578761Y-89496440D01*
X69578761Y-89496440D02*
X69588285Y-89486916D01*
X69807332Y-89372630D02*
X69883523Y-89372630D01*
X69835904Y-89305963D02*
X69835904Y-89477392D01*
X69835904Y-89477392D02*
X69845427Y-89496440D01*
X69845427Y-89496440D02*
X69864475Y-89505963D01*
X69864475Y-89505963D02*
X69883523Y-89505963D01*
X69950190Y-89505963D02*
X69950190Y-89372630D01*
X69950190Y-89410725D02*
X69959713Y-89391678D01*
X69959713Y-89391678D02*
X69969237Y-89382154D01*
X69969237Y-89382154D02*
X69988285Y-89372630D01*
X69988285Y-89372630D02*
X70007332Y-89372630D01*
X70159714Y-89505963D02*
X70159714Y-89401201D01*
X70159714Y-89401201D02*
X70150190Y-89382154D01*
X70150190Y-89382154D02*
X70131142Y-89372630D01*
X70131142Y-89372630D02*
X70093047Y-89372630D01*
X70093047Y-89372630D02*
X70074000Y-89382154D01*
X70159714Y-89496440D02*
X70140666Y-89505963D01*
X70140666Y-89505963D02*
X70093047Y-89505963D01*
X70093047Y-89505963D02*
X70074000Y-89496440D01*
X70074000Y-89496440D02*
X70064476Y-89477392D01*
X70064476Y-89477392D02*
X70064476Y-89458344D01*
X70064476Y-89458344D02*
X70074000Y-89439297D01*
X70074000Y-89439297D02*
X70093047Y-89429773D01*
X70093047Y-89429773D02*
X70140666Y-89429773D01*
X70140666Y-89429773D02*
X70159714Y-89420249D01*
X70340666Y-89496440D02*
X70321618Y-89505963D01*
X70321618Y-89505963D02*
X70283523Y-89505963D01*
X70283523Y-89505963D02*
X70264475Y-89496440D01*
X70264475Y-89496440D02*
X70254952Y-89486916D01*
X70254952Y-89486916D02*
X70245428Y-89467868D01*
X70245428Y-89467868D02*
X70245428Y-89410725D01*
X70245428Y-89410725D02*
X70254952Y-89391678D01*
X70254952Y-89391678D02*
X70264475Y-89382154D01*
X70264475Y-89382154D02*
X70283523Y-89372630D01*
X70283523Y-89372630D02*
X70321618Y-89372630D01*
X70321618Y-89372630D02*
X70340666Y-89382154D01*
X70426381Y-89505963D02*
X70426381Y-89305963D01*
X70445428Y-89429773D02*
X70502571Y-89505963D01*
X70502571Y-89372630D02*
X70426381Y-89448820D01*
X70578762Y-89496440D02*
X70597809Y-89505963D01*
X70597809Y-89505963D02*
X70635905Y-89505963D01*
X70635905Y-89505963D02*
X70654952Y-89496440D01*
X70654952Y-89496440D02*
X70664476Y-89477392D01*
X70664476Y-89477392D02*
X70664476Y-89467868D01*
X70664476Y-89467868D02*
X70654952Y-89448820D01*
X70654952Y-89448820D02*
X70635905Y-89439297D01*
X70635905Y-89439297D02*
X70607333Y-89439297D01*
X70607333Y-89439297D02*
X70588286Y-89429773D01*
X70588286Y-89429773D02*
X70578762Y-89410725D01*
X70578762Y-89410725D02*
X70578762Y-89401201D01*
X70578762Y-89401201D02*
X70588286Y-89382154D01*
X70588286Y-89382154D02*
X70607333Y-89372630D01*
X70607333Y-89372630D02*
X70635905Y-89372630D01*
X70635905Y-89372630D02*
X70654952Y-89382154D01*
X73359715Y-89105963D02*
X73359715Y-88905963D01*
X73474000Y-89105963D02*
X73388286Y-88991678D01*
X73474000Y-88905963D02*
X73359715Y-89020249D01*
X73559715Y-89001201D02*
X73626381Y-89001201D01*
X73654953Y-89105963D02*
X73559715Y-89105963D01*
X73559715Y-89105963D02*
X73559715Y-88905963D01*
X73559715Y-88905963D02*
X73654953Y-88905963D01*
X73740667Y-89001201D02*
X73807333Y-89001201D01*
X73835905Y-89105963D02*
X73740667Y-89105963D01*
X73740667Y-89105963D02*
X73740667Y-88905963D01*
X73740667Y-88905963D02*
X73835905Y-88905963D01*
X73921619Y-89105963D02*
X73921619Y-88905963D01*
X73921619Y-88905963D02*
X73997809Y-88905963D01*
X73997809Y-88905963D02*
X74016857Y-88915487D01*
X74016857Y-88915487D02*
X74026380Y-88925011D01*
X74026380Y-88925011D02*
X74035904Y-88944059D01*
X74035904Y-88944059D02*
X74035904Y-88972630D01*
X74035904Y-88972630D02*
X74026380Y-88991678D01*
X74026380Y-88991678D02*
X74016857Y-89001201D01*
X74016857Y-89001201D02*
X73997809Y-89010725D01*
X73997809Y-89010725D02*
X73921619Y-89010725D01*
X74121619Y-89029773D02*
X74274000Y-89029773D01*
X74407333Y-88905963D02*
X74445428Y-88905963D01*
X74445428Y-88905963D02*
X74464476Y-88915487D01*
X74464476Y-88915487D02*
X74483523Y-88934535D01*
X74483523Y-88934535D02*
X74493047Y-88972630D01*
X74493047Y-88972630D02*
X74493047Y-89039297D01*
X74493047Y-89039297D02*
X74483523Y-89077392D01*
X74483523Y-89077392D02*
X74464476Y-89096440D01*
X74464476Y-89096440D02*
X74445428Y-89105963D01*
X74445428Y-89105963D02*
X74407333Y-89105963D01*
X74407333Y-89105963D02*
X74388285Y-89096440D01*
X74388285Y-89096440D02*
X74369238Y-89077392D01*
X74369238Y-89077392D02*
X74359714Y-89039297D01*
X74359714Y-89039297D02*
X74359714Y-88972630D01*
X74359714Y-88972630D02*
X74369238Y-88934535D01*
X74369238Y-88934535D02*
X74388285Y-88915487D01*
X74388285Y-88915487D02*
X74407333Y-88905963D01*
X74578762Y-88905963D02*
X74578762Y-89067868D01*
X74578762Y-89067868D02*
X74588285Y-89086916D01*
X74588285Y-89086916D02*
X74597809Y-89096440D01*
X74597809Y-89096440D02*
X74616857Y-89105963D01*
X74616857Y-89105963D02*
X74654952Y-89105963D01*
X74654952Y-89105963D02*
X74674000Y-89096440D01*
X74674000Y-89096440D02*
X74683523Y-89086916D01*
X74683523Y-89086916D02*
X74693047Y-89067868D01*
X74693047Y-89067868D02*
X74693047Y-88905963D01*
X74759714Y-88905963D02*
X74874000Y-88905963D01*
X74816857Y-89105963D02*
X74816857Y-88905963D01*
X75074000Y-88905963D02*
X75207333Y-88905963D01*
X75207333Y-88905963D02*
X75074000Y-89105963D01*
X75074000Y-89105963D02*
X75207333Y-89105963D01*
X75321619Y-88905963D02*
X75359714Y-88905963D01*
X75359714Y-88905963D02*
X75378762Y-88915487D01*
X75378762Y-88915487D02*
X75397809Y-88934535D01*
X75397809Y-88934535D02*
X75407333Y-88972630D01*
X75407333Y-88972630D02*
X75407333Y-89039297D01*
X75407333Y-89039297D02*
X75397809Y-89077392D01*
X75397809Y-89077392D02*
X75378762Y-89096440D01*
X75378762Y-89096440D02*
X75359714Y-89105963D01*
X75359714Y-89105963D02*
X75321619Y-89105963D01*
X75321619Y-89105963D02*
X75302571Y-89096440D01*
X75302571Y-89096440D02*
X75283524Y-89077392D01*
X75283524Y-89077392D02*
X75274000Y-89039297D01*
X75274000Y-89039297D02*
X75274000Y-88972630D01*
X75274000Y-88972630D02*
X75283524Y-88934535D01*
X75283524Y-88934535D02*
X75302571Y-88915487D01*
X75302571Y-88915487D02*
X75321619Y-88905963D01*
X75493048Y-89105963D02*
X75493048Y-88905963D01*
X75493048Y-88905963D02*
X75607333Y-89105963D01*
X75607333Y-89105963D02*
X75607333Y-88905963D01*
X75702572Y-89001201D02*
X75769238Y-89001201D01*
X75797810Y-89105963D02*
X75702572Y-89105963D01*
X75702572Y-89105963D02*
X75702572Y-88905963D01*
X75702572Y-88905963D02*
X75797810Y-88905963D01*
X73493047Y-89505963D02*
X73493047Y-89305963D01*
X73493047Y-89305963D02*
X73607332Y-89505963D01*
X73607332Y-89505963D02*
X73607332Y-89305963D01*
X73731142Y-89505963D02*
X73712094Y-89496440D01*
X73712094Y-89496440D02*
X73702571Y-89486916D01*
X73702571Y-89486916D02*
X73693047Y-89467868D01*
X73693047Y-89467868D02*
X73693047Y-89410725D01*
X73693047Y-89410725D02*
X73702571Y-89391678D01*
X73702571Y-89391678D02*
X73712094Y-89382154D01*
X73712094Y-89382154D02*
X73731142Y-89372630D01*
X73731142Y-89372630D02*
X73759713Y-89372630D01*
X73759713Y-89372630D02*
X73778761Y-89382154D01*
X73778761Y-89382154D02*
X73788285Y-89391678D01*
X73788285Y-89391678D02*
X73797809Y-89410725D01*
X73797809Y-89410725D02*
X73797809Y-89467868D01*
X73797809Y-89467868D02*
X73788285Y-89486916D01*
X73788285Y-89486916D02*
X73778761Y-89496440D01*
X73778761Y-89496440D02*
X73759713Y-89505963D01*
X73759713Y-89505963D02*
X73731142Y-89505963D01*
X74102570Y-89401201D02*
X74035904Y-89401201D01*
X74035904Y-89505963D02*
X74035904Y-89305963D01*
X74035904Y-89305963D02*
X74131142Y-89305963D01*
X74207333Y-89486916D02*
X74216856Y-89496440D01*
X74216856Y-89496440D02*
X74207333Y-89505963D01*
X74207333Y-89505963D02*
X74197809Y-89496440D01*
X74197809Y-89496440D02*
X74207333Y-89486916D01*
X74207333Y-89486916D02*
X74207333Y-89505963D01*
X74416856Y-89486916D02*
X74407332Y-89496440D01*
X74407332Y-89496440D02*
X74378761Y-89505963D01*
X74378761Y-89505963D02*
X74359713Y-89505963D01*
X74359713Y-89505963D02*
X74331142Y-89496440D01*
X74331142Y-89496440D02*
X74312094Y-89477392D01*
X74312094Y-89477392D02*
X74302571Y-89458344D01*
X74302571Y-89458344D02*
X74293047Y-89420249D01*
X74293047Y-89420249D02*
X74293047Y-89391678D01*
X74293047Y-89391678D02*
X74302571Y-89353582D01*
X74302571Y-89353582D02*
X74312094Y-89334535D01*
X74312094Y-89334535D02*
X74331142Y-89315487D01*
X74331142Y-89315487D02*
X74359713Y-89305963D01*
X74359713Y-89305963D02*
X74378761Y-89305963D01*
X74378761Y-89305963D02*
X74407332Y-89315487D01*
X74407332Y-89315487D02*
X74416856Y-89325011D01*
X74588285Y-89372630D02*
X74588285Y-89505963D01*
X74502571Y-89372630D02*
X74502571Y-89477392D01*
X74502571Y-89477392D02*
X74512094Y-89496440D01*
X74512094Y-89496440D02*
X74531142Y-89505963D01*
X74531142Y-89505963D02*
X74559713Y-89505963D01*
X74559713Y-89505963D02*
X74578761Y-89496440D01*
X74578761Y-89496440D02*
X74588285Y-89486916D01*
X74807332Y-89372630D02*
X74883523Y-89372630D01*
X74835904Y-89305963D02*
X74835904Y-89477392D01*
X74835904Y-89477392D02*
X74845427Y-89496440D01*
X74845427Y-89496440D02*
X74864475Y-89505963D01*
X74864475Y-89505963D02*
X74883523Y-89505963D01*
X74950190Y-89505963D02*
X74950190Y-89372630D01*
X74950190Y-89410725D02*
X74959713Y-89391678D01*
X74959713Y-89391678D02*
X74969237Y-89382154D01*
X74969237Y-89382154D02*
X74988285Y-89372630D01*
X74988285Y-89372630D02*
X75007332Y-89372630D01*
X75159714Y-89505963D02*
X75159714Y-89401201D01*
X75159714Y-89401201D02*
X75150190Y-89382154D01*
X75150190Y-89382154D02*
X75131142Y-89372630D01*
X75131142Y-89372630D02*
X75093047Y-89372630D01*
X75093047Y-89372630D02*
X75074000Y-89382154D01*
X75159714Y-89496440D02*
X75140666Y-89505963D01*
X75140666Y-89505963D02*
X75093047Y-89505963D01*
X75093047Y-89505963D02*
X75074000Y-89496440D01*
X75074000Y-89496440D02*
X75064476Y-89477392D01*
X75064476Y-89477392D02*
X75064476Y-89458344D01*
X75064476Y-89458344D02*
X75074000Y-89439297D01*
X75074000Y-89439297D02*
X75093047Y-89429773D01*
X75093047Y-89429773D02*
X75140666Y-89429773D01*
X75140666Y-89429773D02*
X75159714Y-89420249D01*
X75340666Y-89496440D02*
X75321618Y-89505963D01*
X75321618Y-89505963D02*
X75283523Y-89505963D01*
X75283523Y-89505963D02*
X75264475Y-89496440D01*
X75264475Y-89496440D02*
X75254952Y-89486916D01*
X75254952Y-89486916D02*
X75245428Y-89467868D01*
X75245428Y-89467868D02*
X75245428Y-89410725D01*
X75245428Y-89410725D02*
X75254952Y-89391678D01*
X75254952Y-89391678D02*
X75264475Y-89382154D01*
X75264475Y-89382154D02*
X75283523Y-89372630D01*
X75283523Y-89372630D02*
X75321618Y-89372630D01*
X75321618Y-89372630D02*
X75340666Y-89382154D01*
X75426381Y-89505963D02*
X75426381Y-89305963D01*
X75445428Y-89429773D02*
X75502571Y-89505963D01*
X75502571Y-89372630D02*
X75426381Y-89448820D01*
X75578762Y-89496440D02*
X75597809Y-89505963D01*
X75597809Y-89505963D02*
X75635905Y-89505963D01*
X75635905Y-89505963D02*
X75654952Y-89496440D01*
X75654952Y-89496440D02*
X75664476Y-89477392D01*
X75664476Y-89477392D02*
X75664476Y-89467868D01*
X75664476Y-89467868D02*
X75654952Y-89448820D01*
X75654952Y-89448820D02*
X75635905Y-89439297D01*
X75635905Y-89439297D02*
X75607333Y-89439297D01*
X75607333Y-89439297D02*
X75588286Y-89429773D01*
X75588286Y-89429773D02*
X75578762Y-89410725D01*
X75578762Y-89410725D02*
X75578762Y-89401201D01*
X75578762Y-89401201D02*
X75588286Y-89382154D01*
X75588286Y-89382154D02*
X75607333Y-89372630D01*
X75607333Y-89372630D02*
X75635905Y-89372630D01*
X75635905Y-89372630D02*
X75654952Y-89382154D01*
X76807047Y-89585963D02*
X76807047Y-89385963D01*
X76807047Y-89385963D02*
X76921332Y-89585963D01*
X76921332Y-89585963D02*
X76921332Y-89385963D01*
X77045142Y-89585963D02*
X77026094Y-89576440D01*
X77026094Y-89576440D02*
X77016571Y-89566916D01*
X77016571Y-89566916D02*
X77007047Y-89547868D01*
X77007047Y-89547868D02*
X77007047Y-89490725D01*
X77007047Y-89490725D02*
X77016571Y-89471678D01*
X77016571Y-89471678D02*
X77026094Y-89462154D01*
X77026094Y-89462154D02*
X77045142Y-89452630D01*
X77045142Y-89452630D02*
X77073713Y-89452630D01*
X77073713Y-89452630D02*
X77092761Y-89462154D01*
X77092761Y-89462154D02*
X77102285Y-89471678D01*
X77102285Y-89471678D02*
X77111809Y-89490725D01*
X77111809Y-89490725D02*
X77111809Y-89547868D01*
X77111809Y-89547868D02*
X77102285Y-89566916D01*
X77102285Y-89566916D02*
X77092761Y-89576440D01*
X77092761Y-89576440D02*
X77073713Y-89585963D01*
X77073713Y-89585963D02*
X77045142Y-89585963D01*
X77416570Y-89481201D02*
X77349904Y-89481201D01*
X77349904Y-89585963D02*
X77349904Y-89385963D01*
X77349904Y-89385963D02*
X77445142Y-89385963D01*
X77521333Y-89566916D02*
X77530856Y-89576440D01*
X77530856Y-89576440D02*
X77521333Y-89585963D01*
X77521333Y-89585963D02*
X77511809Y-89576440D01*
X77511809Y-89576440D02*
X77521333Y-89566916D01*
X77521333Y-89566916D02*
X77521333Y-89585963D01*
X77730856Y-89566916D02*
X77721332Y-89576440D01*
X77721332Y-89576440D02*
X77692761Y-89585963D01*
X77692761Y-89585963D02*
X77673713Y-89585963D01*
X77673713Y-89585963D02*
X77645142Y-89576440D01*
X77645142Y-89576440D02*
X77626094Y-89557392D01*
X77626094Y-89557392D02*
X77616571Y-89538344D01*
X77616571Y-89538344D02*
X77607047Y-89500249D01*
X77607047Y-89500249D02*
X77607047Y-89471678D01*
X77607047Y-89471678D02*
X77616571Y-89433582D01*
X77616571Y-89433582D02*
X77626094Y-89414535D01*
X77626094Y-89414535D02*
X77645142Y-89395487D01*
X77645142Y-89395487D02*
X77673713Y-89385963D01*
X77673713Y-89385963D02*
X77692761Y-89385963D01*
X77692761Y-89385963D02*
X77721332Y-89395487D01*
X77721332Y-89395487D02*
X77730856Y-89405011D01*
X77902285Y-89452630D02*
X77902285Y-89585963D01*
X77816571Y-89452630D02*
X77816571Y-89557392D01*
X77816571Y-89557392D02*
X77826094Y-89576440D01*
X77826094Y-89576440D02*
X77845142Y-89585963D01*
X77845142Y-89585963D02*
X77873713Y-89585963D01*
X77873713Y-89585963D02*
X77892761Y-89576440D01*
X77892761Y-89576440D02*
X77902285Y-89566916D01*
X78121332Y-89452630D02*
X78197523Y-89452630D01*
X78149904Y-89385963D02*
X78149904Y-89557392D01*
X78149904Y-89557392D02*
X78159427Y-89576440D01*
X78159427Y-89576440D02*
X78178475Y-89585963D01*
X78178475Y-89585963D02*
X78197523Y-89585963D01*
X78264190Y-89585963D02*
X78264190Y-89452630D01*
X78264190Y-89490725D02*
X78273713Y-89471678D01*
X78273713Y-89471678D02*
X78283237Y-89462154D01*
X78283237Y-89462154D02*
X78302285Y-89452630D01*
X78302285Y-89452630D02*
X78321332Y-89452630D01*
X78473714Y-89585963D02*
X78473714Y-89481201D01*
X78473714Y-89481201D02*
X78464190Y-89462154D01*
X78464190Y-89462154D02*
X78445142Y-89452630D01*
X78445142Y-89452630D02*
X78407047Y-89452630D01*
X78407047Y-89452630D02*
X78388000Y-89462154D01*
X78473714Y-89576440D02*
X78454666Y-89585963D01*
X78454666Y-89585963D02*
X78407047Y-89585963D01*
X78407047Y-89585963D02*
X78388000Y-89576440D01*
X78388000Y-89576440D02*
X78378476Y-89557392D01*
X78378476Y-89557392D02*
X78378476Y-89538344D01*
X78378476Y-89538344D02*
X78388000Y-89519297D01*
X78388000Y-89519297D02*
X78407047Y-89509773D01*
X78407047Y-89509773D02*
X78454666Y-89509773D01*
X78454666Y-89509773D02*
X78473714Y-89500249D01*
X78654666Y-89576440D02*
X78635618Y-89585963D01*
X78635618Y-89585963D02*
X78597523Y-89585963D01*
X78597523Y-89585963D02*
X78578475Y-89576440D01*
X78578475Y-89576440D02*
X78568952Y-89566916D01*
X78568952Y-89566916D02*
X78559428Y-89547868D01*
X78559428Y-89547868D02*
X78559428Y-89490725D01*
X78559428Y-89490725D02*
X78568952Y-89471678D01*
X78568952Y-89471678D02*
X78578475Y-89462154D01*
X78578475Y-89462154D02*
X78597523Y-89452630D01*
X78597523Y-89452630D02*
X78635618Y-89452630D01*
X78635618Y-89452630D02*
X78654666Y-89462154D01*
X78740381Y-89585963D02*
X78740381Y-89385963D01*
X78759428Y-89509773D02*
X78816571Y-89585963D01*
X78816571Y-89452630D02*
X78740381Y-89528820D01*
X78892762Y-89576440D02*
X78911809Y-89585963D01*
X78911809Y-89585963D02*
X78949905Y-89585963D01*
X78949905Y-89585963D02*
X78968952Y-89576440D01*
X78968952Y-89576440D02*
X78978476Y-89557392D01*
X78978476Y-89557392D02*
X78978476Y-89547868D01*
X78978476Y-89547868D02*
X78968952Y-89528820D01*
X78968952Y-89528820D02*
X78949905Y-89519297D01*
X78949905Y-89519297D02*
X78921333Y-89519297D01*
X78921333Y-89519297D02*
X78902286Y-89509773D01*
X78902286Y-89509773D02*
X78892762Y-89490725D01*
X78892762Y-89490725D02*
X78892762Y-89481201D01*
X78892762Y-89481201D02*
X78902286Y-89462154D01*
X78902286Y-89462154D02*
X78921333Y-89452630D01*
X78921333Y-89452630D02*
X78949905Y-89452630D01*
X78949905Y-89452630D02*
X78968952Y-89462154D01*
X81807047Y-89585963D02*
X81807047Y-89385963D01*
X81807047Y-89385963D02*
X81921332Y-89585963D01*
X81921332Y-89585963D02*
X81921332Y-89385963D01*
X82045142Y-89585963D02*
X82026094Y-89576440D01*
X82026094Y-89576440D02*
X82016571Y-89566916D01*
X82016571Y-89566916D02*
X82007047Y-89547868D01*
X82007047Y-89547868D02*
X82007047Y-89490725D01*
X82007047Y-89490725D02*
X82016571Y-89471678D01*
X82016571Y-89471678D02*
X82026094Y-89462154D01*
X82026094Y-89462154D02*
X82045142Y-89452630D01*
X82045142Y-89452630D02*
X82073713Y-89452630D01*
X82073713Y-89452630D02*
X82092761Y-89462154D01*
X82092761Y-89462154D02*
X82102285Y-89471678D01*
X82102285Y-89471678D02*
X82111809Y-89490725D01*
X82111809Y-89490725D02*
X82111809Y-89547868D01*
X82111809Y-89547868D02*
X82102285Y-89566916D01*
X82102285Y-89566916D02*
X82092761Y-89576440D01*
X82092761Y-89576440D02*
X82073713Y-89585963D01*
X82073713Y-89585963D02*
X82045142Y-89585963D01*
X82416570Y-89481201D02*
X82349904Y-89481201D01*
X82349904Y-89585963D02*
X82349904Y-89385963D01*
X82349904Y-89385963D02*
X82445142Y-89385963D01*
X82521333Y-89566916D02*
X82530856Y-89576440D01*
X82530856Y-89576440D02*
X82521333Y-89585963D01*
X82521333Y-89585963D02*
X82511809Y-89576440D01*
X82511809Y-89576440D02*
X82521333Y-89566916D01*
X82521333Y-89566916D02*
X82521333Y-89585963D01*
X82730856Y-89566916D02*
X82721332Y-89576440D01*
X82721332Y-89576440D02*
X82692761Y-89585963D01*
X82692761Y-89585963D02*
X82673713Y-89585963D01*
X82673713Y-89585963D02*
X82645142Y-89576440D01*
X82645142Y-89576440D02*
X82626094Y-89557392D01*
X82626094Y-89557392D02*
X82616571Y-89538344D01*
X82616571Y-89538344D02*
X82607047Y-89500249D01*
X82607047Y-89500249D02*
X82607047Y-89471678D01*
X82607047Y-89471678D02*
X82616571Y-89433582D01*
X82616571Y-89433582D02*
X82626094Y-89414535D01*
X82626094Y-89414535D02*
X82645142Y-89395487D01*
X82645142Y-89395487D02*
X82673713Y-89385963D01*
X82673713Y-89385963D02*
X82692761Y-89385963D01*
X82692761Y-89385963D02*
X82721332Y-89395487D01*
X82721332Y-89395487D02*
X82730856Y-89405011D01*
X82902285Y-89452630D02*
X82902285Y-89585963D01*
X82816571Y-89452630D02*
X82816571Y-89557392D01*
X82816571Y-89557392D02*
X82826094Y-89576440D01*
X82826094Y-89576440D02*
X82845142Y-89585963D01*
X82845142Y-89585963D02*
X82873713Y-89585963D01*
X82873713Y-89585963D02*
X82892761Y-89576440D01*
X82892761Y-89576440D02*
X82902285Y-89566916D01*
X83121332Y-89452630D02*
X83197523Y-89452630D01*
X83149904Y-89385963D02*
X83149904Y-89557392D01*
X83149904Y-89557392D02*
X83159427Y-89576440D01*
X83159427Y-89576440D02*
X83178475Y-89585963D01*
X83178475Y-89585963D02*
X83197523Y-89585963D01*
X83264190Y-89585963D02*
X83264190Y-89452630D01*
X83264190Y-89490725D02*
X83273713Y-89471678D01*
X83273713Y-89471678D02*
X83283237Y-89462154D01*
X83283237Y-89462154D02*
X83302285Y-89452630D01*
X83302285Y-89452630D02*
X83321332Y-89452630D01*
X83473714Y-89585963D02*
X83473714Y-89481201D01*
X83473714Y-89481201D02*
X83464190Y-89462154D01*
X83464190Y-89462154D02*
X83445142Y-89452630D01*
X83445142Y-89452630D02*
X83407047Y-89452630D01*
X83407047Y-89452630D02*
X83388000Y-89462154D01*
X83473714Y-89576440D02*
X83454666Y-89585963D01*
X83454666Y-89585963D02*
X83407047Y-89585963D01*
X83407047Y-89585963D02*
X83388000Y-89576440D01*
X83388000Y-89576440D02*
X83378476Y-89557392D01*
X83378476Y-89557392D02*
X83378476Y-89538344D01*
X83378476Y-89538344D02*
X83388000Y-89519297D01*
X83388000Y-89519297D02*
X83407047Y-89509773D01*
X83407047Y-89509773D02*
X83454666Y-89509773D01*
X83454666Y-89509773D02*
X83473714Y-89500249D01*
X83654666Y-89576440D02*
X83635618Y-89585963D01*
X83635618Y-89585963D02*
X83597523Y-89585963D01*
X83597523Y-89585963D02*
X83578475Y-89576440D01*
X83578475Y-89576440D02*
X83568952Y-89566916D01*
X83568952Y-89566916D02*
X83559428Y-89547868D01*
X83559428Y-89547868D02*
X83559428Y-89490725D01*
X83559428Y-89490725D02*
X83568952Y-89471678D01*
X83568952Y-89471678D02*
X83578475Y-89462154D01*
X83578475Y-89462154D02*
X83597523Y-89452630D01*
X83597523Y-89452630D02*
X83635618Y-89452630D01*
X83635618Y-89452630D02*
X83654666Y-89462154D01*
X83740381Y-89585963D02*
X83740381Y-89385963D01*
X83759428Y-89509773D02*
X83816571Y-89585963D01*
X83816571Y-89452630D02*
X83740381Y-89528820D01*
X83892762Y-89576440D02*
X83911809Y-89585963D01*
X83911809Y-89585963D02*
X83949905Y-89585963D01*
X83949905Y-89585963D02*
X83968952Y-89576440D01*
X83968952Y-89576440D02*
X83978476Y-89557392D01*
X83978476Y-89557392D02*
X83978476Y-89547868D01*
X83978476Y-89547868D02*
X83968952Y-89528820D01*
X83968952Y-89528820D02*
X83949905Y-89519297D01*
X83949905Y-89519297D02*
X83921333Y-89519297D01*
X83921333Y-89519297D02*
X83902286Y-89509773D01*
X83902286Y-89509773D02*
X83892762Y-89490725D01*
X83892762Y-89490725D02*
X83892762Y-89481201D01*
X83892762Y-89481201D02*
X83902286Y-89462154D01*
X83902286Y-89462154D02*
X83921333Y-89452630D01*
X83921333Y-89452630D02*
X83949905Y-89452630D01*
X83949905Y-89452630D02*
X83968952Y-89462154D01*
X76673715Y-89185963D02*
X76673715Y-88985963D01*
X76788000Y-89185963D02*
X76702286Y-89071678D01*
X76788000Y-88985963D02*
X76673715Y-89100249D01*
X76873715Y-89081201D02*
X76940381Y-89081201D01*
X76968953Y-89185963D02*
X76873715Y-89185963D01*
X76873715Y-89185963D02*
X76873715Y-88985963D01*
X76873715Y-88985963D02*
X76968953Y-88985963D01*
X77054667Y-89081201D02*
X77121333Y-89081201D01*
X77149905Y-89185963D02*
X77054667Y-89185963D01*
X77054667Y-89185963D02*
X77054667Y-88985963D01*
X77054667Y-88985963D02*
X77149905Y-88985963D01*
X77235619Y-89185963D02*
X77235619Y-88985963D01*
X77235619Y-88985963D02*
X77311809Y-88985963D01*
X77311809Y-88985963D02*
X77330857Y-88995487D01*
X77330857Y-88995487D02*
X77340380Y-89005011D01*
X77340380Y-89005011D02*
X77349904Y-89024059D01*
X77349904Y-89024059D02*
X77349904Y-89052630D01*
X77349904Y-89052630D02*
X77340380Y-89071678D01*
X77340380Y-89071678D02*
X77330857Y-89081201D01*
X77330857Y-89081201D02*
X77311809Y-89090725D01*
X77311809Y-89090725D02*
X77235619Y-89090725D01*
X77435619Y-89109773D02*
X77588000Y-89109773D01*
X77721333Y-88985963D02*
X77759428Y-88985963D01*
X77759428Y-88985963D02*
X77778476Y-88995487D01*
X77778476Y-88995487D02*
X77797523Y-89014535D01*
X77797523Y-89014535D02*
X77807047Y-89052630D01*
X77807047Y-89052630D02*
X77807047Y-89119297D01*
X77807047Y-89119297D02*
X77797523Y-89157392D01*
X77797523Y-89157392D02*
X77778476Y-89176440D01*
X77778476Y-89176440D02*
X77759428Y-89185963D01*
X77759428Y-89185963D02*
X77721333Y-89185963D01*
X77721333Y-89185963D02*
X77702285Y-89176440D01*
X77702285Y-89176440D02*
X77683238Y-89157392D01*
X77683238Y-89157392D02*
X77673714Y-89119297D01*
X77673714Y-89119297D02*
X77673714Y-89052630D01*
X77673714Y-89052630D02*
X77683238Y-89014535D01*
X77683238Y-89014535D02*
X77702285Y-88995487D01*
X77702285Y-88995487D02*
X77721333Y-88985963D01*
X77892762Y-88985963D02*
X77892762Y-89147868D01*
X77892762Y-89147868D02*
X77902285Y-89166916D01*
X77902285Y-89166916D02*
X77911809Y-89176440D01*
X77911809Y-89176440D02*
X77930857Y-89185963D01*
X77930857Y-89185963D02*
X77968952Y-89185963D01*
X77968952Y-89185963D02*
X77988000Y-89176440D01*
X77988000Y-89176440D02*
X77997523Y-89166916D01*
X77997523Y-89166916D02*
X78007047Y-89147868D01*
X78007047Y-89147868D02*
X78007047Y-88985963D01*
X78073714Y-88985963D02*
X78188000Y-88985963D01*
X78130857Y-89185963D02*
X78130857Y-88985963D01*
X78388000Y-88985963D02*
X78521333Y-88985963D01*
X78521333Y-88985963D02*
X78388000Y-89185963D01*
X78388000Y-89185963D02*
X78521333Y-89185963D01*
X78635619Y-88985963D02*
X78673714Y-88985963D01*
X78673714Y-88985963D02*
X78692762Y-88995487D01*
X78692762Y-88995487D02*
X78711809Y-89014535D01*
X78711809Y-89014535D02*
X78721333Y-89052630D01*
X78721333Y-89052630D02*
X78721333Y-89119297D01*
X78721333Y-89119297D02*
X78711809Y-89157392D01*
X78711809Y-89157392D02*
X78692762Y-89176440D01*
X78692762Y-89176440D02*
X78673714Y-89185963D01*
X78673714Y-89185963D02*
X78635619Y-89185963D01*
X78635619Y-89185963D02*
X78616571Y-89176440D01*
X78616571Y-89176440D02*
X78597524Y-89157392D01*
X78597524Y-89157392D02*
X78588000Y-89119297D01*
X78588000Y-89119297D02*
X78588000Y-89052630D01*
X78588000Y-89052630D02*
X78597524Y-89014535D01*
X78597524Y-89014535D02*
X78616571Y-88995487D01*
X78616571Y-88995487D02*
X78635619Y-88985963D01*
X78807048Y-89185963D02*
X78807048Y-88985963D01*
X78807048Y-88985963D02*
X78921333Y-89185963D01*
X78921333Y-89185963D02*
X78921333Y-88985963D01*
X79016572Y-89081201D02*
X79083238Y-89081201D01*
X79111810Y-89185963D02*
X79016572Y-89185963D01*
X79016572Y-89185963D02*
X79016572Y-88985963D01*
X79016572Y-88985963D02*
X79111810Y-88985963D01*
X81673715Y-89185963D02*
X81673715Y-88985963D01*
X81788000Y-89185963D02*
X81702286Y-89071678D01*
X81788000Y-88985963D02*
X81673715Y-89100249D01*
X81873715Y-89081201D02*
X81940381Y-89081201D01*
X81968953Y-89185963D02*
X81873715Y-89185963D01*
X81873715Y-89185963D02*
X81873715Y-88985963D01*
X81873715Y-88985963D02*
X81968953Y-88985963D01*
X82054667Y-89081201D02*
X82121333Y-89081201D01*
X82149905Y-89185963D02*
X82054667Y-89185963D01*
X82054667Y-89185963D02*
X82054667Y-88985963D01*
X82054667Y-88985963D02*
X82149905Y-88985963D01*
X82235619Y-89185963D02*
X82235619Y-88985963D01*
X82235619Y-88985963D02*
X82311809Y-88985963D01*
X82311809Y-88985963D02*
X82330857Y-88995487D01*
X82330857Y-88995487D02*
X82340380Y-89005011D01*
X82340380Y-89005011D02*
X82349904Y-89024059D01*
X82349904Y-89024059D02*
X82349904Y-89052630D01*
X82349904Y-89052630D02*
X82340380Y-89071678D01*
X82340380Y-89071678D02*
X82330857Y-89081201D01*
X82330857Y-89081201D02*
X82311809Y-89090725D01*
X82311809Y-89090725D02*
X82235619Y-89090725D01*
X82435619Y-89109773D02*
X82588000Y-89109773D01*
X82721333Y-88985963D02*
X82759428Y-88985963D01*
X82759428Y-88985963D02*
X82778476Y-88995487D01*
X82778476Y-88995487D02*
X82797523Y-89014535D01*
X82797523Y-89014535D02*
X82807047Y-89052630D01*
X82807047Y-89052630D02*
X82807047Y-89119297D01*
X82807047Y-89119297D02*
X82797523Y-89157392D01*
X82797523Y-89157392D02*
X82778476Y-89176440D01*
X82778476Y-89176440D02*
X82759428Y-89185963D01*
X82759428Y-89185963D02*
X82721333Y-89185963D01*
X82721333Y-89185963D02*
X82702285Y-89176440D01*
X82702285Y-89176440D02*
X82683238Y-89157392D01*
X82683238Y-89157392D02*
X82673714Y-89119297D01*
X82673714Y-89119297D02*
X82673714Y-89052630D01*
X82673714Y-89052630D02*
X82683238Y-89014535D01*
X82683238Y-89014535D02*
X82702285Y-88995487D01*
X82702285Y-88995487D02*
X82721333Y-88985963D01*
X82892762Y-88985963D02*
X82892762Y-89147868D01*
X82892762Y-89147868D02*
X82902285Y-89166916D01*
X82902285Y-89166916D02*
X82911809Y-89176440D01*
X82911809Y-89176440D02*
X82930857Y-89185963D01*
X82930857Y-89185963D02*
X82968952Y-89185963D01*
X82968952Y-89185963D02*
X82988000Y-89176440D01*
X82988000Y-89176440D02*
X82997523Y-89166916D01*
X82997523Y-89166916D02*
X83007047Y-89147868D01*
X83007047Y-89147868D02*
X83007047Y-88985963D01*
X83073714Y-88985963D02*
X83188000Y-88985963D01*
X83130857Y-89185963D02*
X83130857Y-88985963D01*
X83388000Y-88985963D02*
X83521333Y-88985963D01*
X83521333Y-88985963D02*
X83388000Y-89185963D01*
X83388000Y-89185963D02*
X83521333Y-89185963D01*
X83635619Y-88985963D02*
X83673714Y-88985963D01*
X83673714Y-88985963D02*
X83692762Y-88995487D01*
X83692762Y-88995487D02*
X83711809Y-89014535D01*
X83711809Y-89014535D02*
X83721333Y-89052630D01*
X83721333Y-89052630D02*
X83721333Y-89119297D01*
X83721333Y-89119297D02*
X83711809Y-89157392D01*
X83711809Y-89157392D02*
X83692762Y-89176440D01*
X83692762Y-89176440D02*
X83673714Y-89185963D01*
X83673714Y-89185963D02*
X83635619Y-89185963D01*
X83635619Y-89185963D02*
X83616571Y-89176440D01*
X83616571Y-89176440D02*
X83597524Y-89157392D01*
X83597524Y-89157392D02*
X83588000Y-89119297D01*
X83588000Y-89119297D02*
X83588000Y-89052630D01*
X83588000Y-89052630D02*
X83597524Y-89014535D01*
X83597524Y-89014535D02*
X83616571Y-88995487D01*
X83616571Y-88995487D02*
X83635619Y-88985963D01*
X83807048Y-89185963D02*
X83807048Y-88985963D01*
X83807048Y-88985963D02*
X83921333Y-89185963D01*
X83921333Y-89185963D02*
X83921333Y-88985963D01*
X84016572Y-89081201D02*
X84083238Y-89081201D01*
X84111810Y-89185963D02*
X84016572Y-89185963D01*
X84016572Y-89185963D02*
X84016572Y-88985963D01*
X84016572Y-88985963D02*
X84111810Y-88985963D01*
D11*
X64272142Y-53907438D02*
X64272142Y-51907438D01*
X65414999Y-53907438D02*
X64557856Y-52764580D01*
X65414999Y-51907438D02*
X64272142Y-53050295D01*
X66272142Y-52859819D02*
X66938809Y-52859819D01*
X67224523Y-53907438D02*
X66272142Y-53907438D01*
X66272142Y-53907438D02*
X66272142Y-51907438D01*
X66272142Y-51907438D02*
X67224523Y-51907438D01*
X68081666Y-52859819D02*
X68748333Y-52859819D01*
X69034047Y-53907438D02*
X68081666Y-53907438D01*
X68081666Y-53907438D02*
X68081666Y-51907438D01*
X68081666Y-51907438D02*
X69034047Y-51907438D01*
X69891190Y-53907438D02*
X69891190Y-51907438D01*
X69891190Y-51907438D02*
X70653095Y-51907438D01*
X70653095Y-51907438D02*
X70843571Y-52002676D01*
X70843571Y-52002676D02*
X70938809Y-52097914D01*
X70938809Y-52097914D02*
X71034047Y-52288390D01*
X71034047Y-52288390D02*
X71034047Y-52574104D01*
X71034047Y-52574104D02*
X70938809Y-52764580D01*
X70938809Y-52764580D02*
X70843571Y-52859819D01*
X70843571Y-52859819D02*
X70653095Y-52955057D01*
X70653095Y-52955057D02*
X69891190Y-52955057D01*
X71891190Y-53145533D02*
X73415000Y-53145533D01*
X74748332Y-51907438D02*
X75129285Y-51907438D01*
X75129285Y-51907438D02*
X75319761Y-52002676D01*
X75319761Y-52002676D02*
X75510237Y-52193152D01*
X75510237Y-52193152D02*
X75605475Y-52574104D01*
X75605475Y-52574104D02*
X75605475Y-53240771D01*
X75605475Y-53240771D02*
X75510237Y-53621723D01*
X75510237Y-53621723D02*
X75319761Y-53812200D01*
X75319761Y-53812200D02*
X75129285Y-53907438D01*
X75129285Y-53907438D02*
X74748332Y-53907438D01*
X74748332Y-53907438D02*
X74557856Y-53812200D01*
X74557856Y-53812200D02*
X74367380Y-53621723D01*
X74367380Y-53621723D02*
X74272142Y-53240771D01*
X74272142Y-53240771D02*
X74272142Y-52574104D01*
X74272142Y-52574104D02*
X74367380Y-52193152D01*
X74367380Y-52193152D02*
X74557856Y-52002676D01*
X74557856Y-52002676D02*
X74748332Y-51907438D01*
X76462618Y-51907438D02*
X76462618Y-53526485D01*
X76462618Y-53526485D02*
X76557856Y-53716961D01*
X76557856Y-53716961D02*
X76653094Y-53812200D01*
X76653094Y-53812200D02*
X76843570Y-53907438D01*
X76843570Y-53907438D02*
X77224523Y-53907438D01*
X77224523Y-53907438D02*
X77414999Y-53812200D01*
X77414999Y-53812200D02*
X77510237Y-53716961D01*
X77510237Y-53716961D02*
X77605475Y-53526485D01*
X77605475Y-53526485D02*
X77605475Y-51907438D01*
X78272142Y-51907438D02*
X79414999Y-51907438D01*
X78843570Y-53907438D02*
X78843570Y-51907438D01*
X81415000Y-51907438D02*
X82748333Y-51907438D01*
X82748333Y-51907438D02*
X81415000Y-53907438D01*
X81415000Y-53907438D02*
X82748333Y-53907438D01*
X83891190Y-51907438D02*
X84272143Y-51907438D01*
X84272143Y-51907438D02*
X84462619Y-52002676D01*
X84462619Y-52002676D02*
X84653095Y-52193152D01*
X84653095Y-52193152D02*
X84748333Y-52574104D01*
X84748333Y-52574104D02*
X84748333Y-53240771D01*
X84748333Y-53240771D02*
X84653095Y-53621723D01*
X84653095Y-53621723D02*
X84462619Y-53812200D01*
X84462619Y-53812200D02*
X84272143Y-53907438D01*
X84272143Y-53907438D02*
X83891190Y-53907438D01*
X83891190Y-53907438D02*
X83700714Y-53812200D01*
X83700714Y-53812200D02*
X83510238Y-53621723D01*
X83510238Y-53621723D02*
X83415000Y-53240771D01*
X83415000Y-53240771D02*
X83415000Y-52574104D01*
X83415000Y-52574104D02*
X83510238Y-52193152D01*
X83510238Y-52193152D02*
X83700714Y-52002676D01*
X83700714Y-52002676D02*
X83891190Y-51907438D01*
X85605476Y-53907438D02*
X85605476Y-51907438D01*
X85605476Y-51907438D02*
X86748333Y-53907438D01*
X86748333Y-53907438D02*
X86748333Y-51907438D01*
X87700714Y-52859819D02*
X88367381Y-52859819D01*
X88653095Y-53907438D02*
X87700714Y-53907438D01*
X87700714Y-53907438D02*
X87700714Y-51907438D01*
X87700714Y-51907438D02*
X88653095Y-51907438D01*
X73603095Y-62639104D02*
X74079285Y-62639104D01*
X73507857Y-62924819D02*
X73841190Y-61924819D01*
X73841190Y-61924819D02*
X74174523Y-62924819D01*
X74507857Y-62258152D02*
X74507857Y-62924819D01*
X74507857Y-62353390D02*
X74555476Y-62305771D01*
X74555476Y-62305771D02*
X74650714Y-62258152D01*
X74650714Y-62258152D02*
X74793571Y-62258152D01*
X74793571Y-62258152D02*
X74888809Y-62305771D01*
X74888809Y-62305771D02*
X74936428Y-62401009D01*
X74936428Y-62401009D02*
X74936428Y-62924819D01*
X75269762Y-62258152D02*
X75650714Y-62258152D01*
X75412619Y-61924819D02*
X75412619Y-62781961D01*
X75412619Y-62781961D02*
X75460238Y-62877200D01*
X75460238Y-62877200D02*
X75555476Y-62924819D01*
X75555476Y-62924819D02*
X75650714Y-62924819D01*
X76365000Y-62877200D02*
X76269762Y-62924819D01*
X76269762Y-62924819D02*
X76079286Y-62924819D01*
X76079286Y-62924819D02*
X75984048Y-62877200D01*
X75984048Y-62877200D02*
X75936429Y-62781961D01*
X75936429Y-62781961D02*
X75936429Y-62401009D01*
X75936429Y-62401009D02*
X75984048Y-62305771D01*
X75984048Y-62305771D02*
X76079286Y-62258152D01*
X76079286Y-62258152D02*
X76269762Y-62258152D01*
X76269762Y-62258152D02*
X76365000Y-62305771D01*
X76365000Y-62305771D02*
X76412619Y-62401009D01*
X76412619Y-62401009D02*
X76412619Y-62496247D01*
X76412619Y-62496247D02*
X75936429Y-62591485D01*
X76841191Y-62258152D02*
X76841191Y-62924819D01*
X76841191Y-62353390D02*
X76888810Y-62305771D01*
X76888810Y-62305771D02*
X76984048Y-62258152D01*
X76984048Y-62258152D02*
X77126905Y-62258152D01*
X77126905Y-62258152D02*
X77222143Y-62305771D01*
X77222143Y-62305771D02*
X77269762Y-62401009D01*
X77269762Y-62401009D02*
X77269762Y-62924819D01*
X77745953Y-62258152D02*
X77745953Y-62924819D01*
X77745953Y-62353390D02*
X77793572Y-62305771D01*
X77793572Y-62305771D02*
X77888810Y-62258152D01*
X77888810Y-62258152D02*
X78031667Y-62258152D01*
X78031667Y-62258152D02*
X78126905Y-62305771D01*
X78126905Y-62305771D02*
X78174524Y-62401009D01*
X78174524Y-62401009D02*
X78174524Y-62924819D01*
X79079286Y-62924819D02*
X79079286Y-62401009D01*
X79079286Y-62401009D02*
X79031667Y-62305771D01*
X79031667Y-62305771D02*
X78936429Y-62258152D01*
X78936429Y-62258152D02*
X78745953Y-62258152D01*
X78745953Y-62258152D02*
X78650715Y-62305771D01*
X79079286Y-62877200D02*
X78984048Y-62924819D01*
X78984048Y-62924819D02*
X78745953Y-62924819D01*
X78745953Y-62924819D02*
X78650715Y-62877200D01*
X78650715Y-62877200D02*
X78603096Y-62781961D01*
X78603096Y-62781961D02*
X78603096Y-62686723D01*
X78603096Y-62686723D02*
X78650715Y-62591485D01*
X78650715Y-62591485D02*
X78745953Y-62543866D01*
X78745953Y-62543866D02*
X78984048Y-62543866D01*
X78984048Y-62543866D02*
X79079286Y-62496247D01*
M02*
