%TF.GenerationSoftware,KiCad,Pcbnew,9.0.0*%
%TF.CreationDate,2025-04-10T21:45:59-06:00*%
%TF.ProjectId,esp32,65737033-322e-46b6-9963-61645f706362,rev?*%
%TF.SameCoordinates,Original*%
%TF.FileFunction,Paste,Top*%
%TF.FilePolarity,Positive*%
%FSLAX46Y46*%
G04 Gerber Fmt 4.6, Leading zero omitted, Abs format (unit mm)*
G04 Created by KiCad (PCBNEW 9.0.0) date 2025-04-10 21:45:59*
%MOMM*%
%LPD*%
G01*
G04 APERTURE LIST*
G04 Aperture macros list*
%AMRoundRect*
0 Rectangle with rounded corners*
0 $1 Rounding radius*
0 $2 $3 $4 $5 $6 $7 $8 $9 X,Y pos of 4 corners*
0 Add a 4 corners polygon primitive as box body*
4,1,4,$2,$3,$4,$5,$6,$7,$8,$9,$2,$3,0*
0 Add four circle primitives for the rounded corners*
1,1,$1+$1,$2,$3*
1,1,$1+$1,$4,$5*
1,1,$1+$1,$6,$7*
1,1,$1+$1,$8,$9*
0 Add four rect primitives between the rounded corners*
20,1,$1+$1,$2,$3,$4,$5,0*
20,1,$1+$1,$4,$5,$6,$7,0*
20,1,$1+$1,$6,$7,$8,$9,0*
20,1,$1+$1,$8,$9,$2,$3,0*%
G04 Aperture macros list end*
%ADD10RoundRect,0.150000X-0.512500X-0.150000X0.512500X-0.150000X0.512500X0.150000X-0.512500X0.150000X0*%
%ADD11RoundRect,0.150000X0.150000X-0.825000X0.150000X0.825000X-0.150000X0.825000X-0.150000X-0.825000X0*%
%ADD12RoundRect,0.250000X-0.450000X0.350000X-0.450000X-0.350000X0.450000X-0.350000X0.450000X0.350000X0*%
%ADD13RoundRect,0.150000X-0.587500X-0.150000X0.587500X-0.150000X0.587500X0.150000X-0.587500X0.150000X0*%
%ADD14RoundRect,0.150000X0.150000X-0.587500X0.150000X0.587500X-0.150000X0.587500X-0.150000X-0.587500X0*%
%ADD15R,1.800000X1.100000*%
%ADD16RoundRect,0.250000X-0.350000X-0.450000X0.350000X-0.450000X0.350000X0.450000X-0.350000X0.450000X0*%
%ADD17RoundRect,0.250000X0.450000X-0.350000X0.450000X0.350000X-0.450000X0.350000X-0.450000X-0.350000X0*%
%ADD18RoundRect,0.250000X-0.337500X-0.475000X0.337500X-0.475000X0.337500X0.475000X-0.337500X0.475000X0*%
%ADD19R,0.300000X1.150000*%
%ADD20RoundRect,0.250000X0.350000X0.450000X-0.350000X0.450000X-0.350000X-0.450000X0.350000X-0.450000X0*%
%ADD21RoundRect,0.090000X0.360000X-0.660000X0.360000X0.660000X-0.360000X0.660000X-0.360000X-0.660000X0*%
%ADD22RoundRect,0.250000X-0.475000X0.337500X-0.475000X-0.337500X0.475000X-0.337500X0.475000X0.337500X0*%
%ADD23RoundRect,0.250000X0.475000X-0.337500X0.475000X0.337500X-0.475000X0.337500X-0.475000X-0.337500X0*%
%ADD24RoundRect,0.250000X-0.595000X-1.080000X0.595000X-1.080000X0.595000X1.080000X-0.595000X1.080000X0*%
%ADD25RoundRect,0.150000X-0.687500X-0.150000X0.687500X-0.150000X0.687500X0.150000X-0.687500X0.150000X0*%
%ADD26RoundRect,0.150000X-0.150000X0.587500X-0.150000X-0.587500X0.150000X-0.587500X0.150000X0.587500X0*%
%ADD27RoundRect,0.375000X-0.625000X-0.375000X0.625000X-0.375000X0.625000X0.375000X-0.625000X0.375000X0*%
%ADD28RoundRect,0.500000X-0.500000X-1.400000X0.500000X-1.400000X0.500000X1.400000X-0.500000X1.400000X0*%
%ADD29RoundRect,0.150000X0.587500X0.150000X-0.587500X0.150000X-0.587500X-0.150000X0.587500X-0.150000X0*%
%ADD30RoundRect,0.375000X0.375000X-0.625000X0.375000X0.625000X-0.375000X0.625000X-0.375000X-0.625000X0*%
%ADD31RoundRect,0.500000X1.400000X-0.500000X1.400000X0.500000X-1.400000X0.500000X-1.400000X-0.500000X0*%
%ADD32RoundRect,0.250000X0.337500X0.475000X-0.337500X0.475000X-0.337500X-0.475000X0.337500X-0.475000X0*%
%ADD33RoundRect,0.250000X-0.325000X-0.450000X0.325000X-0.450000X0.325000X0.450000X-0.325000X0.450000X0*%
%ADD34R,1.500000X0.900000*%
%ADD35R,0.900000X1.500000*%
%ADD36R,1.050000X1.050000*%
G04 APERTURE END LIST*
D10*
%TO.C,U5*%
X75412500Y-113420000D03*
X75412500Y-114370000D03*
X75412500Y-115320000D03*
X77687500Y-115320000D03*
X77687500Y-114370000D03*
X77687500Y-113420000D03*
%TD*%
D11*
%TO.C,U4*%
X71880000Y-109955000D03*
X73150000Y-109955000D03*
X74420000Y-109955000D03*
X75690000Y-109955000D03*
X76960000Y-109955000D03*
X78230000Y-109955000D03*
X79500000Y-109955000D03*
X80770000Y-109955000D03*
X80770000Y-105005000D03*
X79500000Y-105005000D03*
X78230000Y-105005000D03*
X76960000Y-105005000D03*
X75690000Y-105005000D03*
X74420000Y-105005000D03*
X73150000Y-105005000D03*
X71880000Y-105005000D03*
%TD*%
D12*
%TO.C,R15*%
X60933333Y-112695000D03*
X60933333Y-114695000D03*
%TD*%
D13*
%TO.C,Q5*%
X89492500Y-86520000D03*
X89492500Y-88420000D03*
X91367500Y-87470000D03*
%TD*%
D14*
%TO.C,Q4*%
X90880000Y-73392500D03*
X92780000Y-73392500D03*
X91830000Y-71517500D03*
%TD*%
D15*
%TO.C,SW2*%
X68974000Y-87365000D03*
X75174000Y-87365000D03*
X68974000Y-91065000D03*
X75174000Y-91065000D03*
%TD*%
D16*
%TO.C,R1*%
X61540000Y-82915000D03*
X63540000Y-82915000D03*
%TD*%
D17*
%TO.C,R2*%
X62465000Y-69140000D03*
X62465000Y-67140000D03*
%TD*%
D16*
%TO.C,R3*%
X61460000Y-85535000D03*
X63460000Y-85535000D03*
%TD*%
D18*
%TO.C,C8*%
X89122500Y-113310000D03*
X91197500Y-113310000D03*
%TD*%
D19*
%TO.C,J4*%
X73240000Y-117815000D03*
X74040000Y-117815000D03*
X75340000Y-117815000D03*
X76340000Y-117815000D03*
X76840000Y-117815000D03*
X77840000Y-117815000D03*
X79140000Y-117815000D03*
X79940000Y-117815000D03*
X79640000Y-117815000D03*
X78840000Y-117815000D03*
X78340000Y-117815000D03*
X77340000Y-117815000D03*
X75840000Y-117815000D03*
X74840000Y-117815000D03*
X74340000Y-117815000D03*
X73540000Y-117815000D03*
%TD*%
D13*
%TO.C,Q2*%
X89612500Y-76740000D03*
X89612500Y-78640000D03*
X91487500Y-77690000D03*
%TD*%
D16*
%TO.C,R10*%
X63595000Y-76487500D03*
X65595000Y-76487500D03*
%TD*%
%TO.C,R11*%
X63560000Y-80400000D03*
X65560000Y-80400000D03*
%TD*%
D20*
%TO.C,R12*%
X89105000Y-72625000D03*
X87105000Y-72625000D03*
%TD*%
D21*
%TO.C,D1*%
X62155000Y-92550000D03*
X65455000Y-92550000D03*
X65455000Y-87650000D03*
X62155000Y-87650000D03*
%TD*%
D15*
%TO.C,SW1*%
X77288000Y-87445000D03*
X83488000Y-87445000D03*
X77288000Y-91145000D03*
X83488000Y-91145000D03*
%TD*%
D12*
%TO.C,R18*%
X75385000Y-99650000D03*
X75385000Y-101650000D03*
%TD*%
D17*
%TO.C,R13*%
X87500000Y-88600000D03*
X87500000Y-86600000D03*
%TD*%
D22*
%TO.C,C10*%
X79845000Y-113502500D03*
X79845000Y-115577500D03*
%TD*%
D18*
%TO.C,C2*%
X60502500Y-71245000D03*
X62577500Y-71245000D03*
%TD*%
D20*
%TO.C,R7*%
X89135000Y-70720000D03*
X87135000Y-70720000D03*
%TD*%
D18*
%TO.C,C6*%
X63122500Y-103505000D03*
X65197500Y-103505000D03*
%TD*%
%TO.C,C1*%
X60502500Y-74255000D03*
X62577500Y-74255000D03*
%TD*%
D23*
%TO.C,C4*%
X64965000Y-69527500D03*
X64965000Y-67452500D03*
%TD*%
D12*
%TO.C,R16*%
X62851667Y-112695000D03*
X62851667Y-114695000D03*
%TD*%
D24*
%TO.C,U2*%
X66935000Y-97535000D03*
D25*
X64297500Y-95535000D03*
X64297500Y-96535000D03*
X64297500Y-97535000D03*
X64297500Y-98535000D03*
X64297500Y-99535000D03*
X69572500Y-99535000D03*
X69572500Y-98535000D03*
X69572500Y-97535000D03*
X69572500Y-96535000D03*
X69572500Y-95535000D03*
%TD*%
D26*
%TO.C,Q1*%
X93090000Y-67297500D03*
X91190000Y-67297500D03*
X92140000Y-69172500D03*
%TD*%
D12*
%TO.C,R17*%
X59015000Y-112695000D03*
X59015000Y-114695000D03*
%TD*%
D27*
%TO.C,U6*%
X87780000Y-117490000D03*
X87780000Y-119790000D03*
X87780000Y-122090000D03*
D28*
X94080000Y-119790000D03*
%TD*%
D29*
%TO.C,Q6*%
X74922500Y-97005000D03*
X74922500Y-95105000D03*
X73047500Y-96055000D03*
%TD*%
D30*
%TO.C,U3*%
X85795000Y-111035000D03*
X88095000Y-111035000D03*
X90395000Y-111035000D03*
D31*
X88095000Y-104735000D03*
%TD*%
D20*
%TO.C,R5*%
X89025000Y-74775000D03*
X87025000Y-74775000D03*
%TD*%
D32*
%TO.C,C9*%
X85617500Y-119820000D03*
X83542500Y-119820000D03*
%TD*%
D16*
%TO.C,R9*%
X63565000Y-78435000D03*
X65565000Y-78435000D03*
%TD*%
D17*
%TO.C,R4*%
X87585000Y-68720000D03*
X87585000Y-66720000D03*
%TD*%
D32*
%TO.C,C11*%
X85667500Y-122100000D03*
X83592500Y-122100000D03*
%TD*%
D12*
%TO.C,R14*%
X61770000Y-99000000D03*
X61770000Y-101000000D03*
%TD*%
D22*
%TO.C,C5*%
X64980000Y-71257500D03*
X64980000Y-73332500D03*
%TD*%
D32*
%TO.C,C7*%
X87417500Y-113310000D03*
X85342500Y-113310000D03*
%TD*%
D13*
%TO.C,Q3*%
X89487500Y-80350000D03*
X89487500Y-82250000D03*
X91362500Y-81300000D03*
%TD*%
D17*
%TO.C,R8*%
X87365000Y-78595000D03*
X87365000Y-76595000D03*
%TD*%
D33*
%TO.C,D2*%
X77615000Y-100610000D03*
X79665000Y-100610000D03*
%TD*%
D12*
%TO.C,R19*%
X64770000Y-112695000D03*
X64770000Y-114695000D03*
%TD*%
%TO.C,R6*%
X87375000Y-80435000D03*
X87375000Y-82435000D03*
%TD*%
D18*
%TO.C,C3*%
X87067500Y-84450000D03*
X89142500Y-84450000D03*
%TD*%
D34*
%TO.C,U1*%
X67615000Y-67220000D03*
X67615000Y-68490000D03*
X67615000Y-69760000D03*
X67615000Y-71030000D03*
X67615000Y-72300000D03*
X67615000Y-73570000D03*
X67615000Y-74840000D03*
X67615000Y-76110000D03*
X67615000Y-77380000D03*
X67615000Y-78650000D03*
X67615000Y-79920000D03*
X67615000Y-81190000D03*
X67615000Y-82460000D03*
X67615000Y-83730000D03*
D35*
X70655000Y-84980000D03*
X71925000Y-84980000D03*
X73195000Y-84980000D03*
X74465000Y-84980000D03*
X75735000Y-84980000D03*
X77005000Y-84980000D03*
X78275000Y-84980000D03*
X79545000Y-84980000D03*
X80815000Y-84980000D03*
X82085000Y-84980000D03*
D34*
X85115000Y-83730000D03*
X85115000Y-82460000D03*
X85115000Y-81190000D03*
X85115000Y-79920000D03*
X85115000Y-78650000D03*
X85115000Y-77380000D03*
X85115000Y-76110000D03*
X85115000Y-74840000D03*
X85115000Y-73570000D03*
X85115000Y-72300000D03*
X85115000Y-71030000D03*
X85115000Y-69760000D03*
X85115000Y-68490000D03*
X85115000Y-67220000D03*
D36*
X74160000Y-73035000D03*
X74160000Y-74560000D03*
X74160000Y-76085000D03*
X75685000Y-73035000D03*
X75685000Y-74560000D03*
X75685000Y-76085000D03*
X77210000Y-73035000D03*
X77210000Y-74560000D03*
X77210000Y-76085000D03*
%TD*%
D17*
%TO.C,R20*%
X68015000Y-104400000D03*
X68015000Y-102400000D03*
%TD*%
D13*
%TO.C,Q7*%
X78022500Y-95095000D03*
X78022500Y-96995000D03*
X79897500Y-96045000D03*
%TD*%
M02*
