%TF.GenerationSoftware,KiCad,Pcbnew,9.0.0*%
%TF.CreationDate,2025-04-10T21:45:59-06:00*%
%TF.ProjectId,esp32,65737033-322e-46b6-9963-61645f706362,rev?*%
%TF.SameCoordinates,Original*%
%TF.FileFunction,Copper,L4,Bot*%
%TF.FilePolarity,Positive*%
%FSLAX46Y46*%
G04 Gerber Fmt 4.6, Leading zero omitted, Abs format (unit mm)*
G04 Created by KiCad (PCBNEW 9.0.0) date 2025-04-10 21:45:59*
%MOMM*%
%LPD*%
G01*
G04 APERTURE LIST*
G04 Aperture macros list*
%AMRoundRect*
0 Rectangle with rounded corners*
0 $1 Rounding radius*
0 $2 $3 $4 $5 $6 $7 $8 $9 X,Y pos of 4 corners*
0 Add a 4 corners polygon primitive as box body*
4,1,4,$2,$3,$4,$5,$6,$7,$8,$9,$2,$3,0*
0 Add four circle primitives for the rounded corners*
1,1,$1+$1,$2,$3*
1,1,$1+$1,$4,$5*
1,1,$1+$1,$6,$7*
1,1,$1+$1,$8,$9*
0 Add four rect primitives between the rounded corners*
20,1,$1+$1,$2,$3,$4,$5,0*
20,1,$1+$1,$4,$5,$6,$7,0*
20,1,$1+$1,$6,$7,$8,$9,0*
20,1,$1+$1,$8,$9,$2,$3,0*%
%AMFreePoly0*
4,1,23,0.550000,-0.750000,0.000000,-0.750000,0.000000,-0.745722,-0.065263,-0.745722,-0.191342,-0.711940,-0.304381,-0.646677,-0.396677,-0.554381,-0.461940,-0.441342,-0.495722,-0.315263,-0.495722,-0.250000,-0.500000,-0.250000,-0.500000,0.250000,-0.495722,0.250000,-0.495722,0.315263,-0.461940,0.441342,-0.396677,0.554381,-0.304381,0.646677,-0.191342,0.711940,-0.065263,0.745722,0.000000,0.745722,
0.000000,0.750000,0.550000,0.750000,0.550000,-0.750000,0.550000,-0.750000,$1*%
%AMFreePoly1*
4,1,23,0.000000,0.745722,0.065263,0.745722,0.191342,0.711940,0.304381,0.646677,0.396677,0.554381,0.461940,0.441342,0.495722,0.315263,0.495722,0.250000,0.500000,0.250000,0.500000,-0.250000,0.495722,-0.250000,0.495722,-0.315263,0.461940,-0.441342,0.396677,-0.554381,0.304381,-0.646677,0.191342,-0.711940,0.065263,-0.745722,0.000000,-0.745722,0.000000,-0.750000,-0.550000,-0.750000,
-0.550000,0.750000,0.000000,0.750000,0.000000,0.745722,0.000000,0.745722,$1*%
G04 Aperture macros list end*
%TA.AperFunction,ComponentPad*%
%ADD10R,1.700000X1.700000*%
%TD*%
%TA.AperFunction,ComponentPad*%
%ADD11O,1.700000X1.700000*%
%TD*%
%TA.AperFunction,HeatsinkPad*%
%ADD12O,1.000000X2.100000*%
%TD*%
%TA.AperFunction,HeatsinkPad*%
%ADD13O,1.000000X1.600000*%
%TD*%
%TA.AperFunction,ComponentPad*%
%ADD14RoundRect,0.250001X1.149999X1.149999X-1.149999X1.149999X-1.149999X-1.149999X1.149999X-1.149999X0*%
%TD*%
%TA.AperFunction,ComponentPad*%
%ADD15C,2.800000*%
%TD*%
%TA.AperFunction,HeatsinkPad*%
%ADD16C,0.600000*%
%TD*%
%TA.AperFunction,SMDPad,CuDef*%
%ADD17FreePoly0,90.000000*%
%TD*%
%TA.AperFunction,SMDPad,CuDef*%
%ADD18R,1.500000X1.000000*%
%TD*%
%TA.AperFunction,SMDPad,CuDef*%
%ADD19FreePoly1,90.000000*%
%TD*%
%TA.AperFunction,SMDPad,CuDef*%
%ADD20R,1.000000X1.000000*%
%TD*%
%TA.AperFunction,SMDPad,CuDef*%
%ADD21FreePoly0,270.000000*%
%TD*%
%TA.AperFunction,SMDPad,CuDef*%
%ADD22FreePoly1,270.000000*%
%TD*%
%TA.AperFunction,ViaPad*%
%ADD23C,0.600000*%
%TD*%
%TA.AperFunction,ViaPad*%
%ADD24C,2.000000*%
%TD*%
%TA.AperFunction,Conductor*%
%ADD25C,0.600000*%
%TD*%
%TA.AperFunction,Conductor*%
%ADD26C,0.300000*%
%TD*%
%TA.AperFunction,Conductor*%
%ADD27C,0.400000*%
%TD*%
%TA.AperFunction,Conductor*%
%ADD28C,0.250000*%
%TD*%
%TA.AperFunction,Conductor*%
%ADD29C,0.200000*%
%TD*%
%TA.AperFunction,Conductor*%
%ADD30C,1.000000*%
%TD*%
G04 APERTURE END LIST*
D10*
%TO.P,J2,1,Pin_1*%
%TO.N,Red_LED*%
X95470000Y-87420000D03*
D11*
%TO.P,J2,2,Pin_2*%
%TO.N,Green_LED*%
X95470000Y-89960000D03*
%TO.P,J2,3,Pin_3*%
%TO.N,Blue_LED*%
X95470000Y-92500000D03*
%TO.P,J2,4,Pin_4*%
%TO.N,CoolWhite_LED*%
X95470000Y-95040000D03*
%TO.P,J2,5,Pin_5*%
%TO.N,WarmWhite_LED*%
X95470000Y-97580000D03*
%TO.P,J2,6,Pin_6*%
%TO.N,VOUT*%
X95470000Y-100120000D03*
%TO.P,J2,7,Pin_7*%
%TO.N,GND*%
X95470000Y-102660000D03*
%TO.P,J2,8,Pin_8*%
%TO.N,IO19*%
X95470000Y-105200000D03*
%TO.P,J2,9,Pin_9*%
%TO.N,IO34*%
X95470000Y-107740000D03*
%TO.P,J2,10,Pin_10*%
%TO.N,IO15*%
X95470000Y-110280000D03*
%TD*%
D12*
%TO.P,J4,S1,SHIELD*%
%TO.N,GND*%
X72270000Y-118380000D03*
D13*
X72270000Y-122560000D03*
D12*
X80910000Y-118380000D03*
D13*
X80910000Y-122560000D03*
%TD*%
D10*
%TO.P,J1,1,Pin_1*%
%TO.N,GND*%
X58765000Y-86030000D03*
D11*
%TO.P,J1,2,Pin_2*%
%TO.N,Net-(J18-Pin_2)*%
X58765000Y-88570000D03*
%TO.P,J1,3,Pin_3*%
%TO.N,Net-(J18-Pin_3)*%
X58765000Y-91110000D03*
%TO.P,J1,4,Pin_4*%
%TO.N,+3V3*%
X58765000Y-93650000D03*
%TO.P,J1,5,Pin_5*%
%TO.N,SCK*%
X58765000Y-96190000D03*
%TO.P,J1,6,Pin_6*%
%TO.N,SD0*%
X58765000Y-98730000D03*
%TO.P,J1,7,Pin_7*%
%TO.N,IO4*%
X58765000Y-101270000D03*
%TO.P,J1,8,Pin_8*%
%TO.N,GND*%
X58765000Y-103810000D03*
%TO.P,J1,9,Pin_9*%
%TO.N,VOUT*%
X58765000Y-106350000D03*
%TD*%
D14*
%TO.P,J5,1,Pin_1*%
%TO.N,Net-(J2-Pin_1)*%
X65695000Y-120905000D03*
D15*
%TO.P,J5,2,Pin_2*%
%TO.N,GND*%
X60695000Y-120905000D03*
%TD*%
D16*
%TO.P,U1,39,GND*%
%TO.N,GND*%
X74160000Y-73797500D03*
X74160000Y-75322500D03*
X74922500Y-73035000D03*
X74922500Y-74560000D03*
X74922500Y-76085000D03*
X75685000Y-73797500D03*
X75685000Y-75322500D03*
X76447500Y-73035000D03*
X76447500Y-74560000D03*
X76447500Y-76085000D03*
X77210000Y-73797500D03*
X77210000Y-75322500D03*
%TD*%
D10*
%TO.P,J3,1,Pin_1*%
%TO.N,+3V3*%
X86075000Y-93995000D03*
D11*
%TO.P,J3,2,Pin_2*%
%TO.N,TXD*%
X86075000Y-96535000D03*
%TO.P,J3,3,Pin_3*%
%TO.N,RXD*%
X86075000Y-99075000D03*
%TO.P,J3,4,Pin_4*%
%TO.N,GND*%
X86075000Y-101615000D03*
%TD*%
D17*
%TO.P,JP2,1,A*%
%TO.N,Net-(JP2-A)*%
X65500000Y-109550000D03*
D18*
%TO.P,JP2,2,C*%
%TO.N,CFG2*%
X65500000Y-108250000D03*
D19*
%TO.P,JP2,3,B*%
%TO.N,+3V3*%
X65500000Y-106950000D03*
%TD*%
D17*
%TO.P,JP3,1,A*%
%TO.N,IO26*%
X68067500Y-109610000D03*
D18*
%TO.P,JP3,2,C*%
%TO.N,CFG3*%
X68067500Y-108310000D03*
D19*
%TO.P,JP3,3,B*%
%TO.N,+3V3*%
X68067500Y-107010000D03*
%TD*%
D20*
%TO.P,TP1,1,1*%
%TO.N,IO21*%
X95055000Y-113080000D03*
%TD*%
%TO.P,TP3,1,1*%
%TO.N,IO16*%
X95055000Y-122230000D03*
%TD*%
%TO.P,TP4,1,1*%
%TO.N,IO17*%
X95055000Y-119180000D03*
%TD*%
%TO.P,TP2,1,1*%
%TO.N,IO23*%
X93410000Y-107230000D03*
%TD*%
%TO.P,TP5,1,1*%
%TO.N,IO18*%
X95055000Y-116130000D03*
%TD*%
D21*
%TO.P,JP4,1,A*%
%TO.N,IO33*%
X63015000Y-106945000D03*
D18*
%TO.P,JP4,2,C*%
%TO.N,CFG1*%
X63015000Y-108245000D03*
D22*
%TO.P,JP4,3,B*%
%TO.N,GND*%
X63015000Y-109545000D03*
%TD*%
D23*
%TO.N,VBUS*%
X78604000Y-119131000D03*
%TO.N,GND*%
X91890000Y-73705000D03*
%TO.N,IO33*%
X62600000Y-78720000D03*
%TO.N,BOOT*%
X72395000Y-87365000D03*
%TO.N,RXD*%
X90225000Y-71460000D03*
%TO.N,+5V*%
X84997893Y-115127893D03*
%TO.N,TXD*%
X90215000Y-69515000D03*
X74604997Y-108205209D03*
%TO.N,GND*%
X68930000Y-67180000D03*
X69575000Y-85520000D03*
X62855000Y-115770000D03*
X76030735Y-114519265D03*
X85655000Y-118025000D03*
X84420000Y-110995000D03*
X89155000Y-83255000D03*
X91197500Y-113310000D03*
X72835000Y-117563899D03*
X60975000Y-115780000D03*
X61883186Y-110508186D03*
X87375000Y-79530000D03*
X62520000Y-72755000D03*
X65810000Y-101985000D03*
X66210000Y-88735000D03*
X67720000Y-90695000D03*
X82835000Y-67265000D03*
X90100000Y-67810000D03*
X89545000Y-89165000D03*
X72515000Y-91160000D03*
X83140000Y-86360000D03*
X84070000Y-113225000D03*
X80045000Y-116720000D03*
X87405000Y-87700000D03*
X66935000Y-97535000D03*
X77500000Y-86425000D03*
X72465000Y-108715000D03*
X63755000Y-67365000D03*
%TO.N,+3V3*%
X60490000Y-75705000D03*
X92450000Y-118975000D03*
X86485000Y-119790000D03*
X84524000Y-105043844D03*
D24*
%TO.N,VOUT*%
X60285000Y-117185000D03*
D23*
%TO.N,+5V*%
X64060000Y-115835000D03*
X67485829Y-92184171D03*
X73065001Y-102845001D03*
X88481814Y-109588186D03*
%TO.N,Net-(D1-A)*%
X79665000Y-100610000D03*
X80630000Y-107315000D03*
%TO.N,Net-(D1-K)*%
X75395000Y-99650000D03*
X70880000Y-94525000D03*
%TO.N,DTR*%
X76540000Y-95095000D03*
X75795355Y-103779595D03*
%TO.N,RTS*%
X76575000Y-97005000D03*
X74510000Y-103545000D03*
%TO.N,VBUS*%
X81185000Y-113965000D03*
X77428527Y-114220000D03*
X73610000Y-114295000D03*
%TO.N,USB_D-*%
X75408972Y-116165000D03*
X77054294Y-115158725D03*
%TO.N,USB_D+*%
X76270000Y-115316471D03*
X77747553Y-116122553D03*
%TO.N,CC2*%
X78252577Y-111748984D03*
X72201971Y-99266971D03*
%TO.N,CC1*%
X73215000Y-112680000D03*
X71230000Y-98545000D03*
%TO.N,Net-(JP2-A)*%
X62465000Y-76385000D03*
X65038207Y-110433207D03*
%TO.N,RESET*%
X77435000Y-92385000D03*
X65491974Y-68539252D03*
X79940000Y-93195000D03*
%TO.N,BOOT*%
X70610000Y-87365000D03*
X79825000Y-83355000D03*
X73047500Y-96055000D03*
X87067500Y-84450000D03*
%TO.N,IO2*%
X65725000Y-86400000D03*
X82085000Y-84980000D03*
%TO.N,IO4*%
X85115000Y-82460000D03*
%TO.N,CFG1*%
X68485002Y-96335000D03*
X61299000Y-108385000D03*
%TO.N,IO33*%
X62750000Y-106035000D03*
%TO.N,CFG2*%
X65385000Y-96199125D03*
X66817498Y-108150000D03*
%TO.N,CFG3*%
X65385000Y-97199125D03*
X68067500Y-108310000D03*
%TO.N,IO26*%
X65196000Y-81565000D03*
X67760000Y-110550000D03*
%TO.N,IO23*%
X93090000Y-67297500D03*
%TO.N,IO21*%
X90331290Y-75196290D03*
%TO.N,IO18*%
X88301000Y-77660000D03*
%TO.N,IO17*%
X87395000Y-83225000D03*
%TO.N,IO16*%
X85115000Y-81190000D03*
X87501000Y-85669880D03*
%TO.N,RXD*%
X73363630Y-108114999D03*
%TO.N,+3V3*%
X92450000Y-118975000D03*
%TD*%
D25*
%TO.N,VBUS*%
X79510000Y-113965000D02*
X81185000Y-113965000D01*
X78990000Y-114485000D02*
X79510000Y-113965000D01*
D26*
%TO.N,IO33*%
X62750000Y-106035000D02*
X62750000Y-106680000D01*
X62750000Y-106680000D02*
X63015000Y-106945000D01*
D27*
%TO.N,CFG2*%
X66817498Y-108150000D02*
X65600000Y-108150000D01*
X65600000Y-108150000D02*
X65500000Y-108250000D01*
%TO.N,CFG1*%
X61299000Y-108385000D02*
X62875000Y-108385000D01*
X62875000Y-108385000D02*
X63015000Y-108245000D01*
D28*
%TO.N,GND*%
X61883186Y-110508186D02*
X62051814Y-110508186D01*
X62051814Y-110508186D02*
X63015000Y-109545000D01*
D26*
%TO.N,Net-(JP2-A)*%
X65038207Y-110433207D02*
X65038207Y-110011793D01*
X65038207Y-110011793D02*
X65500000Y-109550000D01*
D25*
%TO.N,IO26*%
X67760000Y-110550000D02*
X67760000Y-109917500D01*
X67760000Y-109917500D02*
X68067500Y-109610000D01*
%TO.N,+5V*%
X64060000Y-115835000D02*
X65910000Y-115835000D01*
X65910000Y-115835000D02*
X66838899Y-116763899D01*
X74804324Y-116763899D02*
X77971425Y-119931000D01*
X77971425Y-119931000D02*
X81324628Y-119931000D01*
X81324628Y-119931000D02*
X84997893Y-116257735D01*
X84997893Y-116257735D02*
X84997893Y-115127893D01*
X66838899Y-116763899D02*
X74804324Y-116763899D01*
D29*
%TO.N,USB_D-*%
X75070000Y-113760000D02*
X74807971Y-114022029D01*
X77054294Y-115158725D02*
X77054294Y-114694294D01*
X76120000Y-113760000D02*
X75070000Y-113760000D01*
X77054294Y-114694294D02*
X76120000Y-113760000D01*
X74807971Y-114022029D02*
X74807971Y-115563999D01*
X74807971Y-115563999D02*
X75408972Y-116165000D01*
D25*
%TO.N,VBUS*%
X77428527Y-114220000D02*
X77588527Y-114380000D01*
X78885000Y-114380000D02*
X78990000Y-114485000D01*
X77588527Y-114380000D02*
X78885000Y-114380000D01*
X78990000Y-118131149D02*
X78990000Y-114485000D01*
X78604000Y-118517149D02*
X78990000Y-118131149D01*
X78604000Y-119131000D02*
X78604000Y-118517149D01*
%TO.N,IO17*%
X87500000Y-89732786D02*
X87500000Y-110745286D01*
X87500000Y-110745286D02*
X95055000Y-118300286D01*
X87293571Y-83123571D02*
X86717000Y-83123571D01*
X86006000Y-88238786D02*
X87500000Y-89732786D01*
X87395000Y-83225000D02*
X87293571Y-83123571D01*
X86717000Y-83123571D02*
X86006000Y-83834572D01*
X86006000Y-83834572D02*
X86006000Y-88238786D01*
X95055000Y-118300286D02*
X95055000Y-119180000D01*
%TO.N,IO18*%
X88301000Y-108276000D02*
X95055000Y-115030000D01*
X88301000Y-77660000D02*
X88301000Y-108276000D01*
X95055000Y-115030000D02*
X95055000Y-116130000D01*
D27*
%TO.N,RESET*%
X77288000Y-90528000D02*
X77353000Y-90528000D01*
X65491974Y-68539252D02*
X65491974Y-69816974D01*
X65491974Y-69816974D02*
X65681000Y-70006000D01*
X65681000Y-78921000D02*
X77288000Y-90528000D01*
X65681000Y-70006000D02*
X65681000Y-78921000D01*
X77353000Y-90528000D02*
X77435000Y-90610000D01*
X77435000Y-90610000D02*
X77435000Y-92385000D01*
D26*
%TO.N,CC1*%
X71230000Y-112906682D02*
X71230000Y-98545000D01*
X71803318Y-113480000D02*
X71230000Y-112906682D01*
X73215000Y-112680000D02*
X72415000Y-113480000D01*
X72415000Y-113480000D02*
X71803318Y-113480000D01*
D30*
%TO.N,VOUT*%
X60285000Y-117185000D02*
X58765000Y-115665000D01*
X58765000Y-115665000D02*
X58765000Y-106350000D01*
D28*
%TO.N,GND*%
X72035000Y-124525000D02*
X72035000Y-118850000D01*
D25*
%TO.N,+3V3*%
X68067500Y-107010000D02*
X65560000Y-107010000D01*
X84524000Y-104336214D02*
X84524000Y-105043844D01*
X75666214Y-97744000D02*
X77731214Y-99809000D01*
X68067500Y-107010000D02*
X68067500Y-100574714D01*
X79996786Y-99809000D02*
X84524000Y-104336214D01*
X68067500Y-100574714D02*
X70898214Y-97744000D01*
X65500000Y-106950000D02*
X62945000Y-104395000D01*
X62945000Y-104395000D02*
X62945000Y-97830000D01*
X70898214Y-97744000D02*
X75666214Y-97744000D01*
X62945000Y-97830000D02*
X58765000Y-93650000D01*
X77731214Y-99809000D02*
X79996786Y-99809000D01*
%TO.N,Net-(D1-A)*%
X80630000Y-107315000D02*
X80630000Y-101575000D01*
X80630000Y-101575000D02*
X79665000Y-100610000D01*
D26*
%TO.N,CC2*%
X78252577Y-111748984D02*
X78252577Y-105317577D01*
X78252577Y-105317577D02*
X72201971Y-99266971D01*
D25*
%TO.N,IO23*%
X93581000Y-67788500D02*
X93090000Y-67297500D01*
X93581000Y-107059000D02*
X93581000Y-67788500D01*
D27*
%TO.N,IO21*%
X90331290Y-106910472D02*
X95055000Y-111634182D01*
X90331290Y-75196290D02*
X90331290Y-106910472D01*
X95055000Y-111634182D02*
X95055000Y-113080000D01*
D25*
%TO.N,IO16*%
X85205000Y-83502786D02*
X85916000Y-82791786D01*
X86634603Y-114977389D02*
X86634603Y-104085206D01*
X85205000Y-85695000D02*
X85205000Y-83502786D01*
X84724000Y-102174603D02*
X84724000Y-86176000D01*
X85916000Y-82791786D02*
X85916000Y-81991000D01*
X93887214Y-122230000D02*
X86634603Y-114977389D01*
X84724000Y-86176000D02*
X85205000Y-85695000D01*
X85916000Y-81991000D02*
X85115000Y-81190000D01*
X86634603Y-104085206D02*
X84724000Y-102174603D01*
X95055000Y-122230000D02*
X93887214Y-122230000D01*
%TD*%
%TA.AperFunction,Conductor*%
%TO.N,GND*%
G36*
X60258916Y-96296260D02*
G01*
X60309967Y-96327045D01*
X62108181Y-98125259D01*
X62141666Y-98186582D01*
X62144500Y-98212940D01*
X62144500Y-104473846D01*
X62175261Y-104628489D01*
X62175264Y-104628501D01*
X62235602Y-104774172D01*
X62235609Y-104774185D01*
X62323210Y-104905288D01*
X62323213Y-104905292D01*
X63145741Y-105727819D01*
X63179226Y-105789142D01*
X63174242Y-105858833D01*
X63132370Y-105914767D01*
X63066906Y-105939184D01*
X63058060Y-105939500D01*
X62699166Y-105939500D01*
X62568341Y-105956724D01*
X62441170Y-105990800D01*
X62319249Y-106041302D01*
X62319248Y-106041303D01*
X62205250Y-106107120D01*
X62205232Y-106107132D01*
X62100555Y-106187455D01*
X62100545Y-106187464D01*
X62007464Y-106280545D01*
X62007455Y-106280555D01*
X61927132Y-106385232D01*
X61927120Y-106385250D01*
X61861303Y-106499248D01*
X61861302Y-106499249D01*
X61810800Y-106621170D01*
X61776724Y-106748341D01*
X61759500Y-106879166D01*
X61759500Y-107495002D01*
X61764645Y-107566941D01*
X61768107Y-107578732D01*
X61769470Y-107629561D01*
X61771738Y-107629805D01*
X61764501Y-107697116D01*
X61764500Y-107697135D01*
X61764500Y-108792870D01*
X61764501Y-108792876D01*
X61770908Y-108852483D01*
X61821202Y-108987328D01*
X61821206Y-108987335D01*
X61907452Y-109102544D01*
X61907455Y-109102547D01*
X62022664Y-109188793D01*
X62022671Y-109188797D01*
X62157517Y-109239091D01*
X62157516Y-109239091D01*
X62164444Y-109239835D01*
X62217127Y-109245500D01*
X63812872Y-109245499D01*
X63872483Y-109239091D01*
X64007331Y-109188796D01*
X64046189Y-109159706D01*
X64111652Y-109135289D01*
X64179925Y-109150140D01*
X64229331Y-109199544D01*
X64244500Y-109258973D01*
X64244500Y-109615833D01*
X64261724Y-109746658D01*
X64261725Y-109746662D01*
X64274902Y-109795839D01*
X64295800Y-109873829D01*
X64346302Y-109995750D01*
X64346303Y-109995751D01*
X64412120Y-110109749D01*
X64412132Y-110109767D01*
X64492455Y-110214444D01*
X64492459Y-110214449D01*
X64585551Y-110307541D01*
X64585555Y-110307544D01*
X64690232Y-110387867D01*
X64690236Y-110387869D01*
X64690243Y-110387875D01*
X64690248Y-110387878D01*
X64690250Y-110387879D01*
X64804248Y-110453696D01*
X64804249Y-110453697D01*
X64804252Y-110453698D01*
X64804257Y-110453701D01*
X64926171Y-110504200D01*
X65022874Y-110530111D01*
X65059669Y-110546784D01*
X65175814Y-110624390D01*
X65175827Y-110624397D01*
X65321498Y-110684735D01*
X65321503Y-110684737D01*
X65476153Y-110715499D01*
X65476156Y-110715500D01*
X65476158Y-110715500D01*
X65633844Y-110715500D01*
X65633845Y-110715499D01*
X65788497Y-110684737D01*
X65901166Y-110638067D01*
X65934172Y-110624397D01*
X65934172Y-110624396D01*
X65934179Y-110624394D01*
X66065289Y-110536789D01*
X66097442Y-110504635D01*
X66137669Y-110477755D01*
X66195743Y-110453701D01*
X66309757Y-110387875D01*
X66414449Y-110307541D01*
X66507541Y-110214449D01*
X66587875Y-110109757D01*
X66653701Y-109995743D01*
X66656762Y-109988351D01*
X66700598Y-109933950D01*
X66766892Y-109911882D01*
X66834592Y-109929158D01*
X66882204Y-109980294D01*
X66885875Y-109988329D01*
X66913799Y-110055743D01*
X66913802Y-110055748D01*
X66913804Y-110055753D01*
X66979620Y-110169749D01*
X66979632Y-110169767D01*
X67059955Y-110274444D01*
X67059959Y-110274449D01*
X67153051Y-110367541D01*
X67153055Y-110367544D01*
X67257732Y-110447867D01*
X67257736Y-110447869D01*
X67257743Y-110447875D01*
X67267834Y-110453701D01*
X67371748Y-110513696D01*
X67371749Y-110513697D01*
X67371752Y-110513698D01*
X67371757Y-110513701D01*
X67493671Y-110564200D01*
X67620838Y-110598275D01*
X67751674Y-110615500D01*
X67864538Y-110615500D01*
X67905471Y-110623641D01*
X67905676Y-110622969D01*
X67911492Y-110624732D01*
X67911503Y-110624737D01*
X68066153Y-110655499D01*
X68066156Y-110655500D01*
X68066158Y-110655500D01*
X68223844Y-110655500D01*
X68223845Y-110655499D01*
X68378497Y-110624737D01*
X68393854Y-110618375D01*
X68425120Y-110609997D01*
X68514162Y-110598275D01*
X68641329Y-110564200D01*
X68763243Y-110513701D01*
X68877257Y-110447875D01*
X68981949Y-110367541D01*
X69075041Y-110274449D01*
X69155375Y-110169757D01*
X69221201Y-110055743D01*
X69271700Y-109933829D01*
X69305775Y-109806662D01*
X69323000Y-109675826D01*
X69323000Y-109060000D01*
X69317855Y-108988060D01*
X69314392Y-108976269D01*
X69313039Y-108925441D01*
X69310761Y-108925197D01*
X69311589Y-108917485D01*
X69311591Y-108917483D01*
X69318000Y-108857873D01*
X69317999Y-107762128D01*
X69311591Y-107702517D01*
X69311589Y-107702513D01*
X69311353Y-107701511D01*
X69311260Y-107699442D01*
X69310762Y-107694804D01*
X69311052Y-107694772D01*
X69309291Y-107655346D01*
X69323000Y-107560000D01*
X69323000Y-106944174D01*
X69305775Y-106813338D01*
X69271700Y-106686171D01*
X69221201Y-106564257D01*
X69221198Y-106564252D01*
X69221197Y-106564249D01*
X69221196Y-106564248D01*
X69162060Y-106461821D01*
X69155375Y-106450243D01*
X69153656Y-106448003D01*
X69075044Y-106345555D01*
X69075041Y-106345551D01*
X68981949Y-106252459D01*
X68916511Y-106202246D01*
X68875310Y-106145818D01*
X68868000Y-106103872D01*
X68868000Y-100957654D01*
X68887685Y-100890615D01*
X68904319Y-100869973D01*
X70367819Y-99406473D01*
X70429142Y-99372988D01*
X70498834Y-99377972D01*
X70554767Y-99419844D01*
X70579184Y-99485308D01*
X70579500Y-99494154D01*
X70579500Y-112970753D01*
X70601176Y-113079721D01*
X70604498Y-113096420D01*
X70604500Y-113096429D01*
X70653532Y-113214805D01*
X70724726Y-113321355D01*
X71388646Y-113985275D01*
X71388649Y-113985277D01*
X71446298Y-114023796D01*
X71495191Y-114056465D01*
X71613574Y-114105501D01*
X71613578Y-114105501D01*
X71613579Y-114105502D01*
X71739246Y-114130500D01*
X71739249Y-114130500D01*
X72479071Y-114130500D01*
X72563615Y-114113682D01*
X72604744Y-114105501D01*
X72638437Y-114091544D01*
X72707903Y-114084075D01*
X72770383Y-114115348D01*
X72806036Y-114175436D01*
X72808674Y-114210066D01*
X72809500Y-114210066D01*
X72809500Y-114373846D01*
X72840261Y-114528489D01*
X72840264Y-114528501D01*
X72900602Y-114674172D01*
X72900609Y-114674185D01*
X72988210Y-114805288D01*
X72988213Y-114805292D01*
X73099707Y-114916786D01*
X73099711Y-114916789D01*
X73230814Y-115004390D01*
X73230827Y-115004397D01*
X73376498Y-115064735D01*
X73376503Y-115064737D01*
X73506142Y-115090524D01*
X73531153Y-115095499D01*
X73531156Y-115095500D01*
X73531158Y-115095500D01*
X73688844Y-115095500D01*
X73688845Y-115095499D01*
X73843497Y-115064737D01*
X73989179Y-115004394D01*
X74004628Y-114994071D01*
X74014580Y-114987422D01*
X74081257Y-114966544D01*
X74148637Y-114985028D01*
X74195328Y-115037007D01*
X74207471Y-115090524D01*
X74207471Y-115477329D01*
X74207470Y-115477347D01*
X74207470Y-115643053D01*
X74207469Y-115643053D01*
X74207470Y-115643056D01*
X74248394Y-115795784D01*
X74248394Y-115795785D01*
X74250498Y-115803634D01*
X74248131Y-115804268D01*
X74254270Y-115861432D01*
X74222987Y-115923907D01*
X74162893Y-115959551D01*
X74132243Y-115963399D01*
X67221839Y-115963399D01*
X67154800Y-115943714D01*
X67134158Y-115927080D01*
X65280292Y-114073213D01*
X65280288Y-114073210D01*
X65149185Y-113985609D01*
X65149172Y-113985602D01*
X65003501Y-113925264D01*
X65003489Y-113925261D01*
X64848845Y-113894500D01*
X64848842Y-113894500D01*
X64691158Y-113894500D01*
X64691155Y-113894500D01*
X64536510Y-113925261D01*
X64536498Y-113925264D01*
X64390827Y-113985602D01*
X64390814Y-113985609D01*
X64259711Y-114073210D01*
X64259707Y-114073213D01*
X64148213Y-114184707D01*
X64148210Y-114184711D01*
X64060609Y-114315814D01*
X64060602Y-114315827D01*
X64000264Y-114461498D01*
X64000261Y-114461510D01*
X63969500Y-114616153D01*
X63969500Y-114773846D01*
X64000261Y-114928489D01*
X64000264Y-114928501D01*
X64060602Y-115074172D01*
X64060609Y-115074185D01*
X64148210Y-115205288D01*
X64148213Y-115205292D01*
X66217110Y-117274188D01*
X66285067Y-117342145D01*
X66328611Y-117385689D01*
X66459713Y-117473289D01*
X66459726Y-117473296D01*
X66596624Y-117530000D01*
X66605402Y-117533636D01*
X66760052Y-117564398D01*
X66760055Y-117564399D01*
X66760057Y-117564399D01*
X71152146Y-117564399D01*
X71219185Y-117584084D01*
X71264940Y-117636888D01*
X71274884Y-117706046D01*
X71273763Y-117712591D01*
X71270000Y-117731507D01*
X71270000Y-118130000D01*
X71970000Y-118130000D01*
X71970000Y-118630000D01*
X71270000Y-118630000D01*
X71270000Y-119028495D01*
X71308427Y-119221681D01*
X71308430Y-119221693D01*
X71383807Y-119403671D01*
X71383814Y-119403684D01*
X71493248Y-119567462D01*
X71493251Y-119567466D01*
X71632533Y-119706748D01*
X71632537Y-119706751D01*
X71796315Y-119816185D01*
X71796328Y-119816192D01*
X71978308Y-119891569D01*
X72020000Y-119899862D01*
X72020000Y-119096988D01*
X72029940Y-119114205D01*
X72085795Y-119170060D01*
X72154204Y-119209556D01*
X72230504Y-119230000D01*
X72309496Y-119230000D01*
X72385796Y-119209556D01*
X72454205Y-119170060D01*
X72510060Y-119114205D01*
X72520000Y-119096988D01*
X72520000Y-119899862D01*
X72561690Y-119891569D01*
X72561692Y-119891569D01*
X72743671Y-119816192D01*
X72743684Y-119816185D01*
X72907462Y-119706751D01*
X72907466Y-119706748D01*
X73046748Y-119567466D01*
X73046751Y-119567462D01*
X73156185Y-119403684D01*
X73156186Y-119403682D01*
X73160129Y-119394163D01*
X73203968Y-119339757D01*
X73270261Y-119317689D01*
X73337961Y-119334965D01*
X73343400Y-119338647D01*
X73346634Y-119340514D01*
X73346635Y-119340515D01*
X73364496Y-119350827D01*
X73443428Y-119396399D01*
X73477865Y-119416281D01*
X73624234Y-119455500D01*
X73624236Y-119455500D01*
X73775764Y-119455500D01*
X73775766Y-119455500D01*
X73922135Y-119416281D01*
X74053365Y-119340515D01*
X74160515Y-119233365D01*
X74236281Y-119102135D01*
X74275500Y-118955766D01*
X74275500Y-118804234D01*
X74236281Y-118657865D01*
X74160515Y-118526635D01*
X74053365Y-118419485D01*
X73984975Y-118380000D01*
X73922136Y-118343719D01*
X73814307Y-118314827D01*
X73775766Y-118304500D01*
X73624234Y-118304500D01*
X73477863Y-118343719D01*
X73346635Y-118419485D01*
X73346632Y-118419487D01*
X73239487Y-118526632D01*
X73239483Y-118526638D01*
X73215603Y-118568000D01*
X73165036Y-118616216D01*
X73108216Y-118630000D01*
X72570000Y-118630000D01*
X72570000Y-118130000D01*
X73270000Y-118130000D01*
X73270000Y-117731508D01*
X73269999Y-117731507D01*
X73266237Y-117712591D01*
X73272464Y-117643000D01*
X73315326Y-117587822D01*
X73381216Y-117564577D01*
X73387854Y-117564399D01*
X74421384Y-117564399D01*
X74488423Y-117584084D01*
X74509065Y-117600718D01*
X77349636Y-120441289D01*
X77408082Y-120499735D01*
X77461137Y-120552790D01*
X77592239Y-120640390D01*
X77592252Y-120640397D01*
X77737923Y-120700735D01*
X77737928Y-120700737D01*
X77737932Y-120700737D01*
X77737933Y-120700738D01*
X77892579Y-120731500D01*
X77892582Y-120731500D01*
X81403472Y-120731500D01*
X81403473Y-120731499D01*
X81558125Y-120700737D01*
X81703807Y-120640394D01*
X81834917Y-120552789D01*
X82324866Y-120062840D01*
X82736554Y-119651153D01*
X87089500Y-119651153D01*
X87089500Y-119808846D01*
X87120261Y-119963489D01*
X87120264Y-119963501D01*
X87180602Y-120109172D01*
X87180609Y-120109185D01*
X87268210Y-120240288D01*
X87268213Y-120240292D01*
X87379707Y-120351786D01*
X87379711Y-120351789D01*
X87510814Y-120439390D01*
X87510827Y-120439397D01*
X87634562Y-120490649D01*
X87656503Y-120499737D01*
X87811153Y-120530499D01*
X87811156Y-120530500D01*
X87811158Y-120530500D01*
X87968844Y-120530500D01*
X87968845Y-120530499D01*
X88123497Y-120499737D01*
X88269179Y-120439394D01*
X88400289Y-120351789D01*
X88511789Y-120240289D01*
X88599394Y-120109179D01*
X88659737Y-119963497D01*
X88690500Y-119808842D01*
X88690500Y-119651158D01*
X88690500Y-119651155D01*
X88690499Y-119651153D01*
X88680762Y-119602203D01*
X88659737Y-119496503D01*
X88634536Y-119435662D01*
X88599397Y-119350827D01*
X88599390Y-119350814D01*
X88511789Y-119219711D01*
X88511786Y-119219707D01*
X88400292Y-119108213D01*
X88400288Y-119108210D01*
X88269185Y-119020609D01*
X88269172Y-119020602D01*
X88123501Y-118960264D01*
X88123489Y-118960261D01*
X87968845Y-118929500D01*
X87968842Y-118929500D01*
X87811158Y-118929500D01*
X87811155Y-118929500D01*
X87656510Y-118960261D01*
X87656498Y-118960264D01*
X87510827Y-119020602D01*
X87510814Y-119020609D01*
X87379711Y-119108210D01*
X87379707Y-119108213D01*
X87268213Y-119219707D01*
X87268210Y-119219711D01*
X87180609Y-119350814D01*
X87180602Y-119350827D01*
X87120264Y-119496498D01*
X87120261Y-119496510D01*
X87089500Y-119651153D01*
X82736554Y-119651153D01*
X82830322Y-119557385D01*
X85619679Y-116768027D01*
X85619680Y-116768026D01*
X85619682Y-116768024D01*
X85630530Y-116751789D01*
X85707287Y-116636914D01*
X85708973Y-116632845D01*
X85763278Y-116501738D01*
X85767630Y-116491232D01*
X85794520Y-116356050D01*
X85798393Y-116336578D01*
X85798393Y-116178893D01*
X85798393Y-115572619D01*
X85818078Y-115505580D01*
X85870882Y-115459825D01*
X85940040Y-115449881D01*
X86003596Y-115478906D01*
X86010074Y-115484938D01*
X86012814Y-115487678D01*
X93265425Y-122740289D01*
X93330136Y-122805000D01*
X93376926Y-122851790D01*
X93508028Y-122939390D01*
X93508041Y-122939397D01*
X93653712Y-122999735D01*
X93653717Y-122999737D01*
X93808367Y-123030499D01*
X93808370Y-123030500D01*
X93808372Y-123030500D01*
X94092680Y-123030500D01*
X94159719Y-123050185D01*
X94191948Y-123080191D01*
X94197454Y-123087546D01*
X94197457Y-123087548D01*
X94312664Y-123173793D01*
X94312671Y-123173797D01*
X94447517Y-123224091D01*
X94447516Y-123224091D01*
X94454444Y-123224835D01*
X94507127Y-123230500D01*
X95602872Y-123230499D01*
X95662483Y-123224091D01*
X95797331Y-123173796D01*
X95912546Y-123087546D01*
X95998796Y-122972331D01*
X96049091Y-122837483D01*
X96055500Y-122777873D01*
X96055499Y-121682128D01*
X96049091Y-121622517D01*
X96014592Y-121530021D01*
X95998797Y-121487671D01*
X95998793Y-121487664D01*
X95912547Y-121372455D01*
X95912544Y-121372452D01*
X95797335Y-121286206D01*
X95797328Y-121286202D01*
X95662482Y-121235908D01*
X95662483Y-121235908D01*
X95602883Y-121229501D01*
X95602881Y-121229500D01*
X95602873Y-121229500D01*
X95602865Y-121229500D01*
X94531789Y-121229500D01*
X94464750Y-121209815D01*
X94418995Y-121157011D01*
X94409051Y-121087853D01*
X94410172Y-121081308D01*
X94440500Y-120928844D01*
X94440500Y-120304499D01*
X94460185Y-120237460D01*
X94512989Y-120191705D01*
X94564495Y-120180499D01*
X95602872Y-120180499D01*
X95662483Y-120174091D01*
X95797331Y-120123796D01*
X95912546Y-120037546D01*
X95998796Y-119922331D01*
X96049091Y-119787483D01*
X96055500Y-119727873D01*
X96055499Y-118632128D01*
X96049091Y-118572517D01*
X96047406Y-118568000D01*
X95998797Y-118437671D01*
X95998793Y-118437664D01*
X95912548Y-118322457D01*
X95912546Y-118322454D01*
X95912542Y-118322451D01*
X95912540Y-118322449D01*
X95905187Y-118316944D01*
X95863317Y-118261009D01*
X95857252Y-118227392D01*
X95856097Y-118227506D01*
X95855500Y-118221450D01*
X95855500Y-118221444D01*
X95848351Y-118185501D01*
X95824737Y-118066788D01*
X95790696Y-117984606D01*
X95785240Y-117971433D01*
X95764397Y-117921113D01*
X95764390Y-117921100D01*
X95676790Y-117789998D01*
X95625634Y-117738842D01*
X95565289Y-117678497D01*
X95228972Y-117342180D01*
X95195487Y-117280857D01*
X95200471Y-117211165D01*
X95242343Y-117155232D01*
X95307807Y-117130815D01*
X95316653Y-117130499D01*
X95602871Y-117130499D01*
X95602872Y-117130499D01*
X95662483Y-117124091D01*
X95797331Y-117073796D01*
X95912546Y-116987546D01*
X95998796Y-116872331D01*
X96049091Y-116737483D01*
X96055500Y-116677873D01*
X96055499Y-115582128D01*
X96049091Y-115522517D01*
X96035076Y-115484942D01*
X95998797Y-115387671D01*
X95998793Y-115387664D01*
X95912548Y-115272457D01*
X95912546Y-115272454D01*
X95912542Y-115272451D01*
X95912540Y-115272449D01*
X95905187Y-115266944D01*
X95863317Y-115211009D01*
X95855500Y-115167679D01*
X95855500Y-114951163D01*
X95855500Y-114951158D01*
X95854439Y-114945821D01*
X95852742Y-114937292D01*
X95824738Y-114796507D01*
X95824737Y-114796506D01*
X95824737Y-114796502D01*
X95786094Y-114703211D01*
X95764394Y-114650821D01*
X95742199Y-114617604D01*
X95676790Y-114519712D01*
X95663181Y-114506103D01*
X95565289Y-114408211D01*
X95449258Y-114292180D01*
X95415773Y-114230857D01*
X95420757Y-114161165D01*
X95462629Y-114105232D01*
X95528093Y-114080815D01*
X95536939Y-114080499D01*
X95602871Y-114080499D01*
X95602872Y-114080499D01*
X95662483Y-114074091D01*
X95797331Y-114023796D01*
X95912546Y-113937546D01*
X95998796Y-113822331D01*
X96049091Y-113687483D01*
X96055500Y-113627873D01*
X96055499Y-112532128D01*
X96049091Y-112472517D01*
X96043817Y-112458378D01*
X95998797Y-112337671D01*
X95998793Y-112337664D01*
X95912547Y-112222455D01*
X95805188Y-112142085D01*
X95763318Y-112086151D01*
X95755500Y-112042819D01*
X95755500Y-111697326D01*
X95775185Y-111630287D01*
X95827989Y-111584532D01*
X95841182Y-111579395D01*
X95988412Y-111531557D01*
X96177816Y-111435051D01*
X96199789Y-111419086D01*
X96349786Y-111310109D01*
X96349788Y-111310106D01*
X96349792Y-111310104D01*
X96487819Y-111172077D01*
X96549142Y-111138592D01*
X96618834Y-111143576D01*
X96674767Y-111185448D01*
X96699184Y-111250912D01*
X96699500Y-111259758D01*
X96699500Y-122321249D01*
X96699274Y-122328736D01*
X96681728Y-122618794D01*
X96679923Y-122633659D01*
X96628219Y-122915798D01*
X96624635Y-122930336D01*
X96539306Y-123204167D01*
X96533997Y-123218168D01*
X96416275Y-123479736D01*
X96409316Y-123492995D01*
X96260928Y-123738459D01*
X96252422Y-123750782D01*
X96075526Y-123976573D01*
X96065596Y-123987781D01*
X95862781Y-124190596D01*
X95851573Y-124200526D01*
X95625782Y-124377422D01*
X95613459Y-124385928D01*
X95367995Y-124534316D01*
X95354736Y-124541275D01*
X95093168Y-124658997D01*
X95079167Y-124664306D01*
X94805336Y-124749635D01*
X94790798Y-124753219D01*
X94508659Y-124804923D01*
X94493794Y-124806728D01*
X94203736Y-124824274D01*
X94196249Y-124824500D01*
X60203751Y-124824500D01*
X60196264Y-124824274D01*
X59906205Y-124806728D01*
X59891340Y-124804923D01*
X59609201Y-124753219D01*
X59594663Y-124749635D01*
X59320832Y-124664306D01*
X59306831Y-124658997D01*
X59045263Y-124541275D01*
X59032004Y-124534316D01*
X58786540Y-124385928D01*
X58774217Y-124377422D01*
X58548426Y-124200526D01*
X58537218Y-124190596D01*
X58334403Y-123987781D01*
X58324473Y-123976573D01*
X58147573Y-123750776D01*
X58139075Y-123738465D01*
X57990680Y-123492989D01*
X57983727Y-123479743D01*
X57866000Y-123218163D01*
X57860693Y-123204167D01*
X57851229Y-123173797D01*
X57775363Y-122930335D01*
X57771780Y-122915798D01*
X57751567Y-122805499D01*
X57720075Y-122633657D01*
X57718271Y-122618794D01*
X57703411Y-122373133D01*
X57703411Y-122373131D01*
X57700726Y-122328734D01*
X57700500Y-122321249D01*
X57700500Y-120780466D01*
X58795000Y-120780466D01*
X58795000Y-121029533D01*
X58827508Y-121276463D01*
X58891973Y-121517049D01*
X58987283Y-121747148D01*
X58987288Y-121747159D01*
X59111813Y-121962841D01*
X59111819Y-121962849D01*
X59186400Y-122060045D01*
X60093958Y-121152487D01*
X60118978Y-121212890D01*
X60190112Y-121319351D01*
X60280649Y-121409888D01*
X60387110Y-121481022D01*
X60447511Y-121506041D01*
X59539953Y-122413598D01*
X59637150Y-122488180D01*
X59637158Y-122488186D01*
X59852840Y-122612711D01*
X59852851Y-122612716D01*
X60082950Y-122708026D01*
X60323536Y-122772491D01*
X60570466Y-122805000D01*
X60819534Y-122805000D01*
X61066463Y-122772491D01*
X61307049Y-122708026D01*
X61537148Y-122612716D01*
X61537159Y-122612711D01*
X61752855Y-122488178D01*
X61850045Y-122413600D01*
X61850045Y-122413597D01*
X60942488Y-121506041D01*
X61002890Y-121481022D01*
X61109351Y-121409888D01*
X61199888Y-121319351D01*
X61271022Y-121212890D01*
X61296041Y-121152488D01*
X62203597Y-122060045D01*
X62203600Y-122060045D01*
X62278178Y-121962855D01*
X62402711Y-121747159D01*
X62402716Y-121747148D01*
X62498026Y-121517049D01*
X62562491Y-121276463D01*
X62595000Y-121029533D01*
X62595000Y-120780466D01*
X62562491Y-120533536D01*
X62498026Y-120292950D01*
X62402716Y-120062851D01*
X62402711Y-120062840D01*
X62278186Y-119847158D01*
X62278174Y-119847140D01*
X62224600Y-119777322D01*
X62224599Y-119777321D01*
X62203598Y-119749953D01*
X61296041Y-120657510D01*
X61271022Y-120597110D01*
X61199888Y-120490649D01*
X61109351Y-120400112D01*
X61002890Y-120328978D01*
X60942487Y-120303957D01*
X61541461Y-119704984D01*
X63794500Y-119704984D01*
X63794500Y-122105015D01*
X63805000Y-122207795D01*
X63805001Y-122207796D01*
X63860186Y-122374335D01*
X63860187Y-122374337D01*
X63952286Y-122523651D01*
X63952289Y-122523655D01*
X64076344Y-122647710D01*
X64076348Y-122647713D01*
X64225662Y-122739812D01*
X64225664Y-122739813D01*
X64225666Y-122739814D01*
X64392203Y-122794999D01*
X64494992Y-122805500D01*
X64494997Y-122805500D01*
X66895003Y-122805500D01*
X66895008Y-122805500D01*
X66997797Y-122794999D01*
X67164334Y-122739814D01*
X67215870Y-122708026D01*
X67304919Y-122653100D01*
X67309557Y-122650238D01*
X67313655Y-122647711D01*
X67437711Y-122523655D01*
X67529814Y-122374334D01*
X67584999Y-122207797D01*
X67589728Y-122161504D01*
X71270000Y-122161504D01*
X71270000Y-122310000D01*
X71970000Y-122310000D01*
X71970000Y-122810000D01*
X71270000Y-122810000D01*
X71270000Y-122958495D01*
X71308427Y-123151681D01*
X71308430Y-123151693D01*
X71383807Y-123333671D01*
X71383814Y-123333684D01*
X71493248Y-123497462D01*
X71493251Y-123497466D01*
X71632533Y-123636748D01*
X71632537Y-123636751D01*
X71796315Y-123746185D01*
X71796328Y-123746192D01*
X71978308Y-123821569D01*
X72020000Y-123829862D01*
X72020000Y-123026988D01*
X72029940Y-123044205D01*
X72085795Y-123100060D01*
X72154204Y-123139556D01*
X72230504Y-123160000D01*
X72309496Y-123160000D01*
X72385796Y-123139556D01*
X72454205Y-123100060D01*
X72510060Y-123044205D01*
X72520000Y-123026988D01*
X72520000Y-123829862D01*
X72561690Y-123821569D01*
X72561692Y-123821569D01*
X72743671Y-123746192D01*
X72743684Y-123746185D01*
X72907462Y-123636751D01*
X72907466Y-123636748D01*
X73046748Y-123497466D01*
X73046751Y-123497462D01*
X73156185Y-123333684D01*
X73156192Y-123333671D01*
X73231569Y-123151693D01*
X73231572Y-123151681D01*
X73269999Y-122958495D01*
X73270000Y-122958492D01*
X73270000Y-122810000D01*
X72570000Y-122810000D01*
X72570000Y-122310000D01*
X73270000Y-122310000D01*
X73270000Y-122161508D01*
X73269999Y-122161504D01*
X79910000Y-122161504D01*
X79910000Y-122310000D01*
X80610000Y-122310000D01*
X80610000Y-122810000D01*
X79910000Y-122810000D01*
X79910000Y-122958495D01*
X79948427Y-123151681D01*
X79948430Y-123151693D01*
X80023807Y-123333671D01*
X80023814Y-123333684D01*
X80133248Y-123497462D01*
X80133251Y-123497466D01*
X80272533Y-123636748D01*
X80272537Y-123636751D01*
X80436315Y-123746185D01*
X80436328Y-123746192D01*
X80618308Y-123821569D01*
X80660000Y-123829862D01*
X80660000Y-123026988D01*
X80669940Y-123044205D01*
X80725795Y-123100060D01*
X80794204Y-123139556D01*
X80870504Y-123160000D01*
X80949496Y-123160000D01*
X81025796Y-123139556D01*
X81094205Y-123100060D01*
X81150060Y-123044205D01*
X81160000Y-123026988D01*
X81160000Y-123829862D01*
X81201690Y-123821569D01*
X81201692Y-123821569D01*
X81383671Y-123746192D01*
X81383684Y-123746185D01*
X81547462Y-123636751D01*
X81547466Y-123636748D01*
X81686748Y-123497466D01*
X81686751Y-123497462D01*
X81796185Y-123333684D01*
X81796192Y-123333671D01*
X81871569Y-123151693D01*
X81871572Y-123151681D01*
X81909999Y-122958495D01*
X81910000Y-122958492D01*
X81910000Y-122810000D01*
X81210000Y-122810000D01*
X81210000Y-122310000D01*
X81910000Y-122310000D01*
X81910000Y-122161508D01*
X81909999Y-122161504D01*
X81871572Y-121968318D01*
X81871569Y-121968306D01*
X81796192Y-121786328D01*
X81796185Y-121786315D01*
X81686751Y-121622537D01*
X81686748Y-121622533D01*
X81547466Y-121483251D01*
X81547462Y-121483248D01*
X81383684Y-121373814D01*
X81383671Y-121373807D01*
X81201691Y-121298429D01*
X81201683Y-121298427D01*
X81160000Y-121290135D01*
X81160000Y-122093011D01*
X81150060Y-122075795D01*
X81094205Y-122019940D01*
X81025796Y-121980444D01*
X80949496Y-121960000D01*
X80870504Y-121960000D01*
X80794204Y-121980444D01*
X80725795Y-122019940D01*
X80669940Y-122075795D01*
X80660000Y-122093011D01*
X80660000Y-121290136D01*
X80659999Y-121290135D01*
X80618316Y-121298427D01*
X80618308Y-121298429D01*
X80436328Y-121373807D01*
X80436315Y-121373814D01*
X80272537Y-121483248D01*
X80272533Y-121483251D01*
X80133251Y-121622533D01*
X80133248Y-121622537D01*
X80023814Y-121786315D01*
X80023807Y-121786328D01*
X79948430Y-121968306D01*
X79948427Y-121968318D01*
X79910000Y-122161504D01*
X73269999Y-122161504D01*
X73231572Y-121968318D01*
X73231569Y-121968306D01*
X73156192Y-121786328D01*
X73156185Y-121786315D01*
X73046751Y-121622537D01*
X73046748Y-121622533D01*
X72907466Y-121483251D01*
X72907462Y-121483248D01*
X72743684Y-121373814D01*
X72743671Y-121373807D01*
X72561691Y-121298429D01*
X72561683Y-121298427D01*
X72520000Y-121290135D01*
X72520000Y-122093011D01*
X72510060Y-122075795D01*
X72454205Y-122019940D01*
X72385796Y-121980444D01*
X72309496Y-121960000D01*
X72230504Y-121960000D01*
X72154204Y-121980444D01*
X72085795Y-122019940D01*
X72029940Y-122075795D01*
X72020000Y-122093011D01*
X72020000Y-121290136D01*
X72019999Y-121290135D01*
X71978316Y-121298427D01*
X71978308Y-121298429D01*
X71796328Y-121373807D01*
X71796315Y-121373814D01*
X71632537Y-121483248D01*
X71632533Y-121483251D01*
X71493251Y-121622533D01*
X71493248Y-121622537D01*
X71383814Y-121786315D01*
X71383807Y-121786328D01*
X71308430Y-121968306D01*
X71308427Y-121968318D01*
X71270000Y-122161504D01*
X67589728Y-122161504D01*
X67595500Y-122105008D01*
X67595500Y-119704992D01*
X67584999Y-119602203D01*
X67529814Y-119435666D01*
X67517857Y-119416281D01*
X67437713Y-119286348D01*
X67437710Y-119286344D01*
X67313655Y-119162289D01*
X67313651Y-119162286D01*
X67164337Y-119070187D01*
X67164335Y-119070186D01*
X67081065Y-119042593D01*
X66997797Y-119015001D01*
X66997795Y-119015000D01*
X66895015Y-119004500D01*
X66895008Y-119004500D01*
X64494992Y-119004500D01*
X64494984Y-119004500D01*
X64392204Y-119015000D01*
X64392203Y-119015001D01*
X64225664Y-119070186D01*
X64225662Y-119070187D01*
X64076348Y-119162286D01*
X64076344Y-119162289D01*
X63952289Y-119286344D01*
X63952286Y-119286348D01*
X63860187Y-119435662D01*
X63860186Y-119435664D01*
X63805001Y-119602203D01*
X63805000Y-119602204D01*
X63794500Y-119704984D01*
X61541461Y-119704984D01*
X61850045Y-119396400D01*
X61752849Y-119321819D01*
X61752841Y-119321813D01*
X61537159Y-119197288D01*
X61537148Y-119197283D01*
X61307049Y-119101973D01*
X61066463Y-119037508D01*
X60819534Y-119005000D01*
X60570466Y-119005000D01*
X60323536Y-119037508D01*
X60082950Y-119101973D01*
X59852851Y-119197283D01*
X59852847Y-119197285D01*
X59637143Y-119321823D01*
X59539953Y-119396399D01*
X59539953Y-119396400D01*
X60447511Y-120303958D01*
X60387110Y-120328978D01*
X60280649Y-120400112D01*
X60190112Y-120490649D01*
X60118978Y-120597110D01*
X60093958Y-120657511D01*
X59186400Y-119749953D01*
X59186399Y-119749953D01*
X59111823Y-119847143D01*
X58987285Y-120062847D01*
X58987283Y-120062851D01*
X58891973Y-120292950D01*
X58827508Y-120533536D01*
X58795000Y-120780466D01*
X57700500Y-120780466D01*
X57700500Y-116281489D01*
X57720185Y-116214450D01*
X57772989Y-116168695D01*
X57842147Y-116158751D01*
X57905703Y-116187776D01*
X57927602Y-116212599D01*
X57987857Y-116302777D01*
X57987859Y-116302780D01*
X57987860Y-116302781D01*
X57987861Y-116302782D01*
X58127218Y-116442139D01*
X58127219Y-116442139D01*
X58134286Y-116449206D01*
X58134285Y-116449206D01*
X58134289Y-116449209D01*
X58748181Y-117063101D01*
X58781666Y-117124424D01*
X58784500Y-117150782D01*
X58784500Y-117303097D01*
X58821446Y-117536368D01*
X58894433Y-117760996D01*
X58976996Y-117923034D01*
X59001657Y-117971433D01*
X59140483Y-118162510D01*
X59307490Y-118329517D01*
X59498567Y-118468343D01*
X59572473Y-118506000D01*
X59709003Y-118575566D01*
X59709005Y-118575566D01*
X59709008Y-118575568D01*
X59815948Y-118610315D01*
X59933631Y-118648553D01*
X60166903Y-118685500D01*
X60166908Y-118685500D01*
X60403097Y-118685500D01*
X60636368Y-118648553D01*
X60673466Y-118636499D01*
X60860992Y-118575568D01*
X61071433Y-118468343D01*
X61262510Y-118329517D01*
X61429517Y-118162510D01*
X61568343Y-117971433D01*
X61675568Y-117760992D01*
X61748553Y-117536368D01*
X61758544Y-117473289D01*
X61785500Y-117303097D01*
X61785500Y-117066902D01*
X61748553Y-116833631D01*
X61675566Y-116609003D01*
X61594145Y-116449206D01*
X61568343Y-116398567D01*
X61429517Y-116207490D01*
X61262510Y-116040483D01*
X61071433Y-115901657D01*
X61046702Y-115889056D01*
X60860996Y-115794433D01*
X60636368Y-115721446D01*
X60403097Y-115684500D01*
X60403092Y-115684500D01*
X60250782Y-115684500D01*
X60183743Y-115664815D01*
X60163101Y-115648181D01*
X59801819Y-115286898D01*
X59768334Y-115225575D01*
X59765500Y-115199217D01*
X59765500Y-107310199D01*
X59785185Y-107243160D01*
X59794471Y-107230664D01*
X59920048Y-107057820D01*
X59920047Y-107057820D01*
X59920051Y-107057816D01*
X60016557Y-106868412D01*
X60082246Y-106666243D01*
X60115500Y-106456287D01*
X60115500Y-106243713D01*
X60082246Y-106033757D01*
X60016557Y-105831588D01*
X59920051Y-105642184D01*
X59920049Y-105642181D01*
X59920048Y-105642179D01*
X59795109Y-105470213D01*
X59644786Y-105319890D01*
X59472817Y-105194949D01*
X59463504Y-105190204D01*
X59412707Y-105142230D01*
X59395912Y-105074409D01*
X59418449Y-105008274D01*
X59463507Y-104969232D01*
X59472558Y-104964620D01*
X59644459Y-104839727D01*
X59644464Y-104839723D01*
X59794723Y-104689464D01*
X59794727Y-104689459D01*
X59919620Y-104517557D01*
X60016095Y-104328217D01*
X60081757Y-104126129D01*
X60081757Y-104126126D01*
X60092231Y-104060000D01*
X59198012Y-104060000D01*
X59230925Y-104002993D01*
X59265000Y-103875826D01*
X59265000Y-103744174D01*
X59230925Y-103617007D01*
X59198012Y-103560000D01*
X60092231Y-103560000D01*
X60081757Y-103493873D01*
X60081757Y-103493870D01*
X60016095Y-103291782D01*
X59919620Y-103102442D01*
X59794727Y-102930540D01*
X59794723Y-102930535D01*
X59644464Y-102780276D01*
X59644459Y-102780272D01*
X59472555Y-102655377D01*
X59463500Y-102650763D01*
X59412706Y-102602788D01*
X59395912Y-102534966D01*
X59418451Y-102468832D01*
X59463508Y-102429793D01*
X59472816Y-102425051D01*
X59597158Y-102334712D01*
X59644786Y-102300109D01*
X59644788Y-102300106D01*
X59644792Y-102300104D01*
X59795104Y-102149792D01*
X59795106Y-102149788D01*
X59795109Y-102149786D01*
X59920048Y-101977820D01*
X59920047Y-101977820D01*
X59920051Y-101977816D01*
X60016557Y-101788412D01*
X60082246Y-101586243D01*
X60115500Y-101376287D01*
X60115500Y-101163713D01*
X60082246Y-100953757D01*
X60016557Y-100751588D01*
X59920051Y-100562184D01*
X59920049Y-100562181D01*
X59920048Y-100562179D01*
X59795109Y-100390213D01*
X59644786Y-100239890D01*
X59472820Y-100114951D01*
X59472115Y-100114591D01*
X59464054Y-100110485D01*
X59413259Y-100062512D01*
X59396463Y-99994692D01*
X59418999Y-99928556D01*
X59464054Y-99889515D01*
X59472816Y-99885051D01*
X59632614Y-99768952D01*
X59644786Y-99760109D01*
X59644788Y-99760106D01*
X59644792Y-99760104D01*
X59795104Y-99609792D01*
X59795106Y-99609788D01*
X59795109Y-99609786D01*
X59920048Y-99437820D01*
X59920047Y-99437820D01*
X59920051Y-99437816D01*
X60016557Y-99248412D01*
X60082246Y-99046243D01*
X60115500Y-98836287D01*
X60115500Y-98623713D01*
X60082246Y-98413757D01*
X60016557Y-98211588D01*
X59920051Y-98022184D01*
X59920049Y-98022181D01*
X59920048Y-98022179D01*
X59795109Y-97850213D01*
X59644786Y-97699890D01*
X59472820Y-97574951D01*
X59472115Y-97574591D01*
X59464054Y-97570485D01*
X59413259Y-97522512D01*
X59396463Y-97454692D01*
X59418999Y-97388556D01*
X59464054Y-97349515D01*
X59472816Y-97345051D01*
X59494789Y-97329086D01*
X59644786Y-97220109D01*
X59644788Y-97220106D01*
X59644792Y-97220104D01*
X59795104Y-97069792D01*
X59795106Y-97069788D01*
X59795109Y-97069786D01*
X59920048Y-96897820D01*
X59920047Y-96897820D01*
X59920051Y-96897816D01*
X60016557Y-96708412D01*
X60082246Y-96506243D01*
X60099813Y-96395326D01*
X60129742Y-96332194D01*
X60189053Y-96295262D01*
X60258916Y-96296260D01*
G37*
%TD.AperFunction*%
%TA.AperFunction,Conductor*%
G36*
X79868863Y-118040510D02*
G01*
X79905582Y-118099953D01*
X79909570Y-118129570D01*
X79910000Y-118130000D01*
X80610000Y-118130000D01*
X80610000Y-118630000D01*
X80071784Y-118630000D01*
X80004745Y-118610315D01*
X79964397Y-118568000D01*
X79951685Y-118545982D01*
X79940515Y-118526635D01*
X79833365Y-118419485D01*
X79757598Y-118375740D01*
X79702134Y-118343718D01*
X79694366Y-118341637D01*
X79669678Y-118326589D01*
X79643598Y-118314111D01*
X79640210Y-118308627D01*
X79634706Y-118305272D01*
X79622073Y-118279265D01*
X79606879Y-118254668D01*
X79606994Y-118248222D01*
X79604178Y-118242425D01*
X79607610Y-118213716D01*
X79608127Y-118184809D01*
X79612046Y-118176616D01*
X79612473Y-118173049D01*
X79623355Y-118152978D01*
X79682898Y-118063867D01*
X79736511Y-118019062D01*
X79805836Y-118010355D01*
X79868863Y-118040510D01*
G37*
%TD.AperFunction*%
%TA.AperFunction,Conductor*%
G36*
X75350313Y-98564185D02*
G01*
X75370955Y-98580819D01*
X75427955Y-98637819D01*
X75461440Y-98699142D01*
X75456456Y-98768834D01*
X75414584Y-98824767D01*
X75349120Y-98849184D01*
X75340274Y-98849500D01*
X75316155Y-98849500D01*
X75161510Y-98880261D01*
X75161498Y-98880264D01*
X75015827Y-98940602D01*
X75015814Y-98940609D01*
X74884711Y-99028210D01*
X74884707Y-99028213D01*
X74773213Y-99139707D01*
X74773210Y-99139711D01*
X74685609Y-99270814D01*
X74685602Y-99270827D01*
X74625264Y-99416498D01*
X74625261Y-99416510D01*
X74594500Y-99571153D01*
X74594500Y-99728846D01*
X74625261Y-99883489D01*
X74625264Y-99883501D01*
X74685602Y-100029172D01*
X74685609Y-100029185D01*
X74773210Y-100160288D01*
X74773213Y-100160292D01*
X74884707Y-100271786D01*
X74884711Y-100271789D01*
X75015814Y-100359390D01*
X75015827Y-100359397D01*
X75090225Y-100390213D01*
X75161503Y-100419737D01*
X75316153Y-100450499D01*
X75316156Y-100450500D01*
X75316158Y-100450500D01*
X75473844Y-100450500D01*
X75473845Y-100450499D01*
X75628497Y-100419737D01*
X75774179Y-100359394D01*
X75905289Y-100271789D01*
X76016789Y-100160289D01*
X76104394Y-100029179D01*
X76164737Y-99883497D01*
X76195500Y-99728842D01*
X76195500Y-99704726D01*
X76215185Y-99637687D01*
X76267989Y-99591932D01*
X76337147Y-99581988D01*
X76400703Y-99611013D01*
X76407181Y-99617045D01*
X77109425Y-100319289D01*
X77180344Y-100390208D01*
X77220926Y-100430790D01*
X77352028Y-100518390D01*
X77352041Y-100518397D01*
X77457742Y-100562179D01*
X77497717Y-100578737D01*
X77652367Y-100609499D01*
X77652370Y-100609500D01*
X77652372Y-100609500D01*
X78746954Y-100609500D01*
X78813993Y-100629185D01*
X78859748Y-100681989D01*
X78868571Y-100709309D01*
X78895261Y-100843489D01*
X78895264Y-100843501D01*
X78955602Y-100989172D01*
X78955609Y-100989185D01*
X79043210Y-101120288D01*
X79043213Y-101120292D01*
X79793181Y-101870259D01*
X79826666Y-101931582D01*
X79829500Y-101957940D01*
X79829500Y-107393846D01*
X79860261Y-107548489D01*
X79860264Y-107548501D01*
X79920602Y-107694172D01*
X79920609Y-107694185D01*
X80008210Y-107825288D01*
X80008213Y-107825292D01*
X80119707Y-107936786D01*
X80119711Y-107936789D01*
X80250814Y-108024390D01*
X80250827Y-108024397D01*
X80396498Y-108084735D01*
X80396503Y-108084737D01*
X80551153Y-108115499D01*
X80551156Y-108115500D01*
X80551158Y-108115500D01*
X80708844Y-108115500D01*
X80708845Y-108115499D01*
X80863497Y-108084737D01*
X81009179Y-108024394D01*
X81140289Y-107936789D01*
X81251789Y-107825289D01*
X81339394Y-107694179D01*
X81399737Y-107548497D01*
X81430500Y-107393842D01*
X81430500Y-102674154D01*
X81450185Y-102607115D01*
X81502989Y-102561360D01*
X81572147Y-102551416D01*
X81635703Y-102580441D01*
X81642181Y-102586473D01*
X83687181Y-104631473D01*
X83720666Y-104692796D01*
X83723500Y-104719154D01*
X83723500Y-105122690D01*
X83754261Y-105277333D01*
X83754264Y-105277345D01*
X83814602Y-105423016D01*
X83814609Y-105423029D01*
X83902210Y-105554132D01*
X83902213Y-105554136D01*
X84013707Y-105665630D01*
X84013711Y-105665633D01*
X84144814Y-105753234D01*
X84144827Y-105753241D01*
X84290498Y-105813579D01*
X84290503Y-105813581D01*
X84445153Y-105844343D01*
X84445156Y-105844344D01*
X84445158Y-105844344D01*
X84602844Y-105844344D01*
X84602845Y-105844343D01*
X84757497Y-105813581D01*
X84903179Y-105753238D01*
X85034289Y-105665633D01*
X85145789Y-105554133D01*
X85233394Y-105423023D01*
X85293737Y-105277341D01*
X85324500Y-105122686D01*
X85324500Y-104257372D01*
X85320637Y-104237949D01*
X85317295Y-104221148D01*
X85323521Y-104151558D01*
X85366382Y-104096379D01*
X85432272Y-104073133D01*
X85500269Y-104089199D01*
X85526593Y-104109274D01*
X85797784Y-104380465D01*
X85831269Y-104441788D01*
X85834103Y-104468146D01*
X85834103Y-114532662D01*
X85814418Y-114599701D01*
X85761614Y-114645456D01*
X85692456Y-114655400D01*
X85628900Y-114626375D01*
X85622422Y-114620343D01*
X85508185Y-114506106D01*
X85508181Y-114506103D01*
X85377078Y-114418502D01*
X85377065Y-114418495D01*
X85231394Y-114358157D01*
X85231382Y-114358154D01*
X85076738Y-114327393D01*
X85076735Y-114327393D01*
X84919051Y-114327393D01*
X84919048Y-114327393D01*
X84764403Y-114358154D01*
X84764391Y-114358157D01*
X84618720Y-114418495D01*
X84618707Y-114418502D01*
X84487604Y-114506103D01*
X84487600Y-114506106D01*
X84376106Y-114617600D01*
X84376103Y-114617604D01*
X84288502Y-114748707D01*
X84288495Y-114748720D01*
X84228157Y-114894391D01*
X84228154Y-114894403D01*
X84197393Y-115049046D01*
X84197393Y-115874795D01*
X84177708Y-115941834D01*
X84161074Y-115962476D01*
X82121681Y-118001869D01*
X82060358Y-118035354D01*
X81990666Y-118030370D01*
X81934733Y-117988498D01*
X81910316Y-117923034D01*
X81910000Y-117914188D01*
X81910000Y-117731508D01*
X81909999Y-117731504D01*
X81871572Y-117538318D01*
X81871569Y-117538306D01*
X81796192Y-117356328D01*
X81796185Y-117356315D01*
X81686751Y-117192537D01*
X81686748Y-117192533D01*
X81547466Y-117053251D01*
X81547462Y-117053248D01*
X81383684Y-116943814D01*
X81383671Y-116943807D01*
X81201691Y-116868429D01*
X81201683Y-116868427D01*
X81160000Y-116860135D01*
X81160000Y-117663011D01*
X81150060Y-117645795D01*
X81094205Y-117589940D01*
X81025796Y-117550444D01*
X80949496Y-117530000D01*
X80870504Y-117530000D01*
X80794204Y-117550444D01*
X80725795Y-117589940D01*
X80669940Y-117645795D01*
X80660000Y-117663011D01*
X80660000Y-116860136D01*
X80659999Y-116860135D01*
X80618316Y-116868427D01*
X80618308Y-116868429D01*
X80436328Y-116943807D01*
X80436315Y-116943814D01*
X80272537Y-117053248D01*
X80272533Y-117053251D01*
X80133251Y-117192533D01*
X80133248Y-117192537D01*
X80020426Y-117361387D01*
X80019441Y-117360729D01*
X79974893Y-117406078D01*
X79906755Y-117421537D01*
X79841076Y-117397703D01*
X79798708Y-117342145D01*
X79790500Y-117297779D01*
X79790500Y-114867940D01*
X79810185Y-114800901D01*
X79826819Y-114780259D01*
X80511786Y-114095292D01*
X80511789Y-114095289D01*
X80534364Y-114061503D01*
X80559559Y-114023797D01*
X80559559Y-114023796D01*
X80599394Y-113964179D01*
X80610427Y-113937544D01*
X80659735Y-113818501D01*
X80659737Y-113818497D01*
X80665778Y-113788127D01*
X80690500Y-113663845D01*
X80690500Y-113506155D01*
X80690499Y-113506153D01*
X80659739Y-113351511D01*
X80659736Y-113351501D01*
X80639145Y-113301789D01*
X80599397Y-113205827D01*
X80599390Y-113205814D01*
X80511789Y-113074711D01*
X80511786Y-113074707D01*
X80400292Y-112963213D01*
X80400288Y-112963210D01*
X80269185Y-112875609D01*
X80269172Y-112875602D01*
X80123501Y-112815264D01*
X80123489Y-112815261D01*
X79968845Y-112784500D01*
X79968842Y-112784500D01*
X79811157Y-112784500D01*
X79811155Y-112784500D01*
X79656508Y-112815261D01*
X79656498Y-112815264D01*
X79510827Y-112875602D01*
X79510815Y-112875609D01*
X79422680Y-112934500D01*
X79422679Y-112934501D01*
X79379708Y-112963212D01*
X79379707Y-112963213D01*
X78799741Y-113543181D01*
X78738418Y-113576666D01*
X78712060Y-113579500D01*
X77621155Y-113579500D01*
X77466510Y-113610261D01*
X77466498Y-113610264D01*
X77320827Y-113670602D01*
X77320814Y-113670609D01*
X77189714Y-113758208D01*
X77166258Y-113781664D01*
X77104934Y-113815148D01*
X77035242Y-113810162D01*
X76990897Y-113781662D01*
X76607590Y-113398355D01*
X76607588Y-113398352D01*
X76488717Y-113279481D01*
X76488712Y-113279477D01*
X76376702Y-113214809D01*
X76376700Y-113214807D01*
X76351788Y-113200424D01*
X76351787Y-113200423D01*
X76290693Y-113184053D01*
X76199057Y-113159499D01*
X76040943Y-113159499D01*
X76033347Y-113159499D01*
X76033331Y-113159500D01*
X75156669Y-113159500D01*
X75156653Y-113159499D01*
X75149057Y-113159499D01*
X74990943Y-113159499D01*
X74914579Y-113179961D01*
X74838212Y-113200423D01*
X74838211Y-113200424D01*
X74813297Y-113214809D01*
X74701287Y-113279477D01*
X74701282Y-113279481D01*
X74327452Y-113653311D01*
X74327448Y-113653316D01*
X74325140Y-113657315D01*
X74274573Y-113705529D01*
X74205965Y-113718751D01*
X74141101Y-113692783D01*
X74130073Y-113682994D01*
X74120292Y-113673213D01*
X74120288Y-113673210D01*
X73989185Y-113585609D01*
X73989172Y-113585602D01*
X73843501Y-113525264D01*
X73843491Y-113525261D01*
X73786033Y-113513832D01*
X73724122Y-113481447D01*
X73689548Y-113420731D01*
X73693289Y-113350961D01*
X73722544Y-113304533D01*
X73725285Y-113301791D01*
X73725289Y-113301789D01*
X73836789Y-113190289D01*
X73924394Y-113059179D01*
X73984737Y-112913497D01*
X74015500Y-112758842D01*
X74015500Y-112601158D01*
X74015500Y-112601155D01*
X74015499Y-112601153D01*
X74001768Y-112532123D01*
X73984737Y-112446503D01*
X73939655Y-112337664D01*
X73924397Y-112300827D01*
X73924390Y-112300814D01*
X73836789Y-112169711D01*
X73836786Y-112169707D01*
X73725292Y-112058213D01*
X73725288Y-112058210D01*
X73594185Y-111970609D01*
X73594172Y-111970602D01*
X73448501Y-111910264D01*
X73448489Y-111910261D01*
X73293845Y-111879500D01*
X73293842Y-111879500D01*
X73136158Y-111879500D01*
X73136155Y-111879500D01*
X72981510Y-111910261D01*
X72981498Y-111910264D01*
X72835827Y-111970602D01*
X72835814Y-111970609D01*
X72704711Y-112058210D01*
X72704707Y-112058213D01*
X72593213Y-112169707D01*
X72593210Y-112169711D01*
X72505609Y-112300814D01*
X72505602Y-112300827D01*
X72445264Y-112446498D01*
X72445261Y-112446508D01*
X72431920Y-112513579D01*
X72399535Y-112575490D01*
X72397984Y-112577068D01*
X72196839Y-112778213D01*
X72188893Y-112782551D01*
X72183468Y-112789799D01*
X72158708Y-112799033D01*
X72135516Y-112811698D01*
X72126486Y-112811052D01*
X72118004Y-112814216D01*
X72092183Y-112808599D01*
X72065824Y-112806714D01*
X72056770Y-112800895D01*
X72049731Y-112799364D01*
X72021477Y-112778213D01*
X71916819Y-112673555D01*
X71883334Y-112612232D01*
X71880500Y-112585874D01*
X71880500Y-108036152D01*
X72563130Y-108036152D01*
X72563130Y-108193845D01*
X72593891Y-108348488D01*
X72593894Y-108348500D01*
X72654232Y-108494171D01*
X72654239Y-108494184D01*
X72741840Y-108625287D01*
X72741843Y-108625291D01*
X72853337Y-108736785D01*
X72853341Y-108736788D01*
X72984444Y-108824389D01*
X72984457Y-108824396D01*
X73116705Y-108879174D01*
X73130133Y-108884736D01*
X73280284Y-108914603D01*
X73284783Y-108915498D01*
X73284786Y-108915499D01*
X73284788Y-108915499D01*
X73442474Y-108915499D01*
X73442475Y-108915498D01*
X73597127Y-108884736D01*
X73742809Y-108824393D01*
X73782499Y-108797873D01*
X73867581Y-108741023D01*
X73934258Y-108720145D01*
X74001638Y-108738629D01*
X74024153Y-108756444D01*
X74094704Y-108826995D01*
X74094708Y-108826998D01*
X74225811Y-108914599D01*
X74225824Y-108914606D01*
X74305217Y-108947491D01*
X74371500Y-108974946D01*
X74521042Y-109004692D01*
X74526150Y-109005708D01*
X74526153Y-109005709D01*
X74526155Y-109005709D01*
X74683841Y-109005709D01*
X74683842Y-109005708D01*
X74838494Y-108974946D01*
X74984176Y-108914603D01*
X75115286Y-108826998D01*
X75226786Y-108715498D01*
X75314391Y-108584388D01*
X75374734Y-108438706D01*
X75405497Y-108284051D01*
X75405497Y-108126367D01*
X75405497Y-108126364D01*
X75405496Y-108126362D01*
X75374735Y-107971719D01*
X75374734Y-107971712D01*
X75360267Y-107936786D01*
X75314394Y-107826036D01*
X75314387Y-107826023D01*
X75226786Y-107694920D01*
X75226783Y-107694916D01*
X75115289Y-107583422D01*
X75115285Y-107583419D01*
X74984182Y-107495818D01*
X74984169Y-107495811D01*
X74838498Y-107435473D01*
X74838486Y-107435470D01*
X74683842Y-107404709D01*
X74683839Y-107404709D01*
X74526155Y-107404709D01*
X74526152Y-107404709D01*
X74371507Y-107435470D01*
X74371495Y-107435473D01*
X74225824Y-107495811D01*
X74225813Y-107495817D01*
X74101044Y-107579185D01*
X74034367Y-107600062D01*
X73966987Y-107581577D01*
X73944473Y-107563763D01*
X73873922Y-107493212D01*
X73873918Y-107493209D01*
X73742815Y-107405608D01*
X73742802Y-107405601D01*
X73597131Y-107345263D01*
X73597119Y-107345260D01*
X73442475Y-107314499D01*
X73442472Y-107314499D01*
X73284788Y-107314499D01*
X73284785Y-107314499D01*
X73130140Y-107345260D01*
X73130128Y-107345263D01*
X72984457Y-107405601D01*
X72984444Y-107405608D01*
X72853341Y-107493209D01*
X72853337Y-107493212D01*
X72741843Y-107604706D01*
X72741840Y-107604710D01*
X72654239Y-107735813D01*
X72654232Y-107735826D01*
X72593894Y-107881497D01*
X72593891Y-107881509D01*
X72563130Y-108036152D01*
X71880500Y-108036152D01*
X71880500Y-102766154D01*
X72264501Y-102766154D01*
X72264501Y-102923847D01*
X72295262Y-103078490D01*
X72295265Y-103078502D01*
X72355603Y-103224173D01*
X72355610Y-103224186D01*
X72443211Y-103355289D01*
X72443214Y-103355293D01*
X72554708Y-103466787D01*
X72554712Y-103466790D01*
X72685815Y-103554391D01*
X72685828Y-103554398D01*
X72831499Y-103614736D01*
X72831504Y-103614738D01*
X72953728Y-103639050D01*
X72986154Y-103645500D01*
X72986157Y-103645501D01*
X72986159Y-103645501D01*
X73143845Y-103645501D01*
X73143846Y-103645500D01*
X73298498Y-103614738D01*
X73444180Y-103554395D01*
X73575290Y-103466790D01*
X73686790Y-103355290D01*
X73774395Y-103224180D01*
X73834738Y-103078498D01*
X73865501Y-102923843D01*
X73865501Y-102766159D01*
X73865501Y-102766156D01*
X73865500Y-102766154D01*
X73843465Y-102655377D01*
X73834738Y-102611504D01*
X73824370Y-102586473D01*
X73774398Y-102465828D01*
X73774391Y-102465815D01*
X73686790Y-102334712D01*
X73686787Y-102334708D01*
X73575293Y-102223214D01*
X73575289Y-102223211D01*
X73444186Y-102135610D01*
X73444173Y-102135603D01*
X73298502Y-102075265D01*
X73298490Y-102075262D01*
X73143846Y-102044501D01*
X73143843Y-102044501D01*
X72986159Y-102044501D01*
X72986156Y-102044501D01*
X72831511Y-102075262D01*
X72831499Y-102075265D01*
X72685828Y-102135603D01*
X72685815Y-102135610D01*
X72554712Y-102223211D01*
X72554708Y-102223214D01*
X72443214Y-102334708D01*
X72443211Y-102334712D01*
X72355610Y-102465815D01*
X72355603Y-102465828D01*
X72295265Y-102611499D01*
X72295262Y-102611511D01*
X72264501Y-102766154D01*
X71880500Y-102766154D01*
X71880500Y-100170302D01*
X71900185Y-100103263D01*
X71952989Y-100057508D01*
X72022147Y-100047564D01*
X72028673Y-100048682D01*
X72035561Y-100050052D01*
X72097470Y-100082443D01*
X72099040Y-100083986D01*
X76042582Y-104027528D01*
X76076067Y-104088851D01*
X76071083Y-104158543D01*
X76029211Y-104214476D01*
X75963747Y-104238893D01*
X75929742Y-104235090D01*
X75929472Y-104236451D01*
X75768845Y-104204500D01*
X75768842Y-104204500D01*
X75611158Y-104204500D01*
X75611155Y-104204500D01*
X75456510Y-104235261D01*
X75456498Y-104235264D01*
X75310827Y-104295602D01*
X75310814Y-104295609D01*
X75179711Y-104383210D01*
X75179707Y-104383213D01*
X75142681Y-104420240D01*
X75081358Y-104453725D01*
X75011666Y-104448741D01*
X74967319Y-104420240D01*
X74930292Y-104383213D01*
X74930288Y-104383210D01*
X74799185Y-104295609D01*
X74799172Y-104295602D01*
X74653501Y-104235264D01*
X74653489Y-104235261D01*
X74498845Y-104204500D01*
X74498842Y-104204500D01*
X74341158Y-104204500D01*
X74341155Y-104204500D01*
X74186510Y-104235261D01*
X74186498Y-104235264D01*
X74040827Y-104295602D01*
X74040814Y-104295609D01*
X73909711Y-104383210D01*
X73909707Y-104383213D01*
X73798213Y-104494707D01*
X73798210Y-104494711D01*
X73710609Y-104625814D01*
X73710602Y-104625827D01*
X73650264Y-104771498D01*
X73650261Y-104771510D01*
X73619500Y-104926153D01*
X73619500Y-105083846D01*
X73650261Y-105238489D01*
X73650264Y-105238501D01*
X73710602Y-105384172D01*
X73710609Y-105384185D01*
X73798210Y-105515288D01*
X73798213Y-105515292D01*
X73909707Y-105626786D01*
X73909711Y-105626789D01*
X74040814Y-105714390D01*
X74040827Y-105714397D01*
X74155031Y-105761701D01*
X74186503Y-105774737D01*
X74341153Y-105805499D01*
X74341156Y-105805500D01*
X74341158Y-105805500D01*
X74498844Y-105805500D01*
X74498845Y-105805499D01*
X74653497Y-105774737D01*
X74799179Y-105714394D01*
X74930289Y-105626789D01*
X74945051Y-105612027D01*
X74967319Y-105589760D01*
X75028642Y-105556275D01*
X75098334Y-105561259D01*
X75142681Y-105589760D01*
X75179707Y-105626786D01*
X75179711Y-105626789D01*
X75310814Y-105714390D01*
X75310827Y-105714397D01*
X75425031Y-105761701D01*
X75456503Y-105774737D01*
X75611153Y-105805499D01*
X75611156Y-105805500D01*
X75611158Y-105805500D01*
X75768844Y-105805500D01*
X75768845Y-105805499D01*
X75923497Y-105774737D01*
X76069179Y-105714394D01*
X76200289Y-105626789D01*
X76311789Y-105515289D01*
X76399394Y-105384179D01*
X76459737Y-105238497D01*
X76490500Y-105083842D01*
X76490500Y-104926158D01*
X76490500Y-104926155D01*
X76490499Y-104926153D01*
X76458549Y-104765528D01*
X76461032Y-104765033D01*
X76460502Y-104706240D01*
X76497744Y-104647123D01*
X76561034Y-104617525D01*
X76630280Y-104626843D01*
X76667471Y-104652417D01*
X77565758Y-105550704D01*
X77599243Y-105612027D01*
X77602077Y-105638385D01*
X77602077Y-111244048D01*
X77582392Y-111311087D01*
X77581180Y-111312938D01*
X77543185Y-111369801D01*
X77543179Y-111369812D01*
X77482841Y-111515482D01*
X77482838Y-111515494D01*
X77452077Y-111670137D01*
X77452077Y-111827830D01*
X77482838Y-111982473D01*
X77482841Y-111982485D01*
X77543179Y-112128156D01*
X77543186Y-112128169D01*
X77630787Y-112259272D01*
X77630790Y-112259276D01*
X77742284Y-112370770D01*
X77742288Y-112370773D01*
X77873391Y-112458374D01*
X77873404Y-112458381D01*
X78006666Y-112513579D01*
X78019080Y-112518721D01*
X78173730Y-112549483D01*
X78173733Y-112549484D01*
X78173735Y-112549484D01*
X78331421Y-112549484D01*
X78331422Y-112549483D01*
X78486074Y-112518721D01*
X78631756Y-112458378D01*
X78762866Y-112370773D01*
X78874366Y-112259273D01*
X78961971Y-112128163D01*
X79022314Y-111982481D01*
X79053077Y-111827826D01*
X79053077Y-111670142D01*
X79053077Y-111670139D01*
X79053076Y-111670137D01*
X79035026Y-111579395D01*
X79022314Y-111515487D01*
X78961971Y-111369805D01*
X78923973Y-111312937D01*
X78903097Y-111246260D01*
X78903077Y-111244048D01*
X78903077Y-105253505D01*
X78878079Y-105127838D01*
X78878078Y-105127837D01*
X78878078Y-105127833D01*
X78829042Y-105009450D01*
X78794666Y-104958002D01*
X78794666Y-104958001D01*
X78757852Y-104902905D01*
X73018986Y-99164039D01*
X72985501Y-99102716D01*
X72985050Y-99100549D01*
X72974247Y-99046239D01*
X72971708Y-99033474D01*
X72941475Y-98960484D01*
X72911368Y-98887798D01*
X72911361Y-98887785D01*
X72823760Y-98756682D01*
X72823757Y-98756678D01*
X72823260Y-98756181D01*
X72823082Y-98755856D01*
X72819895Y-98751972D01*
X72820631Y-98751367D01*
X72789775Y-98694858D01*
X72794759Y-98625166D01*
X72836631Y-98569233D01*
X72902095Y-98544816D01*
X72910941Y-98544500D01*
X75283274Y-98544500D01*
X75350313Y-98564185D01*
G37*
%TD.AperFunction*%
%TA.AperFunction,Conductor*%
G36*
X89519498Y-110626576D02*
G01*
X94107744Y-115214822D01*
X94141229Y-115276145D01*
X94136245Y-115345837D01*
X94119332Y-115376811D01*
X94111203Y-115387670D01*
X94111202Y-115387671D01*
X94060908Y-115522517D01*
X94057040Y-115558501D01*
X94054501Y-115582123D01*
X94054500Y-115582135D01*
X94054500Y-115868346D01*
X94034815Y-115935385D01*
X93982011Y-115981140D01*
X93912853Y-115991084D01*
X93849297Y-115962059D01*
X93842819Y-115956027D01*
X89157412Y-111270620D01*
X89123927Y-111209297D01*
X89128911Y-111139605D01*
X89141989Y-111114051D01*
X89217437Y-111001136D01*
X89277780Y-110855454D01*
X89305619Y-110715499D01*
X89309732Y-110694825D01*
X89311236Y-110695124D01*
X89334563Y-110637330D01*
X89391592Y-110596963D01*
X89461391Y-110593835D01*
X89519498Y-110626576D01*
G37*
%TD.AperFunction*%
%TA.AperFunction,Conductor*%
G36*
X94203736Y-65825726D02*
G01*
X94493796Y-65843271D01*
X94508659Y-65845076D01*
X94790798Y-65896780D01*
X94805335Y-65900363D01*
X95079172Y-65985695D01*
X95093163Y-65991000D01*
X95354743Y-66108727D01*
X95367989Y-66115680D01*
X95613465Y-66264075D01*
X95625776Y-66272573D01*
X95851573Y-66449473D01*
X95862781Y-66459403D01*
X96065596Y-66662218D01*
X96075526Y-66673426D01*
X96077316Y-66675711D01*
X96195481Y-66826538D01*
X96252422Y-66899217D01*
X96260928Y-66911540D01*
X96409316Y-67157004D01*
X96416275Y-67170263D01*
X96533997Y-67431831D01*
X96539306Y-67445832D01*
X96624635Y-67719663D01*
X96628219Y-67734201D01*
X96679923Y-68016340D01*
X96681728Y-68031205D01*
X96699274Y-68321263D01*
X96699500Y-68328750D01*
X96699500Y-85998771D01*
X96679815Y-86065810D01*
X96627011Y-86111565D01*
X96557853Y-86121509D01*
X96532167Y-86114953D01*
X96427482Y-86075908D01*
X96427483Y-86075908D01*
X96367883Y-86069501D01*
X96367881Y-86069500D01*
X96367873Y-86069500D01*
X96367864Y-86069500D01*
X94572129Y-86069500D01*
X94572120Y-86069501D01*
X94518752Y-86075238D01*
X94449993Y-86062831D01*
X94398857Y-86015219D01*
X94381500Y-85951948D01*
X94381500Y-67709655D01*
X94381499Y-67709653D01*
X94350738Y-67555010D01*
X94350737Y-67555003D01*
X94340795Y-67531001D01*
X94290397Y-67409327D01*
X94290390Y-67409314D01*
X94202790Y-67278212D01*
X94202789Y-67278211D01*
X94091289Y-67166711D01*
X93988576Y-67063998D01*
X93600292Y-66675713D01*
X93600288Y-66675710D01*
X93469185Y-66588109D01*
X93469172Y-66588102D01*
X93323501Y-66527764D01*
X93323489Y-66527761D01*
X93168845Y-66497000D01*
X93168842Y-66497000D01*
X93011158Y-66497000D01*
X93011155Y-66497000D01*
X92856510Y-66527761D01*
X92856498Y-66527764D01*
X92710827Y-66588102D01*
X92710814Y-66588109D01*
X92579711Y-66675710D01*
X92579707Y-66675713D01*
X92468213Y-66787207D01*
X92468210Y-66787211D01*
X92380609Y-66918314D01*
X92380602Y-66918327D01*
X92320264Y-67063998D01*
X92320261Y-67064010D01*
X92289500Y-67218653D01*
X92289500Y-67376346D01*
X92320261Y-67530989D01*
X92320264Y-67531001D01*
X92380602Y-67676672D01*
X92380609Y-67676685D01*
X92468210Y-67807788D01*
X92468213Y-67807792D01*
X92744181Y-68083759D01*
X92777666Y-68145082D01*
X92780500Y-68171440D01*
X92780500Y-106158025D01*
X92760815Y-106225064D01*
X92708011Y-106270819D01*
X92699836Y-106274206D01*
X92667665Y-106286205D01*
X92552455Y-106372452D01*
X92552452Y-106372455D01*
X92466206Y-106487664D01*
X92466202Y-106487671D01*
X92415908Y-106622517D01*
X92409501Y-106682116D01*
X92409500Y-106682135D01*
X92409500Y-107698663D01*
X92389815Y-107765702D01*
X92337011Y-107811457D01*
X92267853Y-107821401D01*
X92204297Y-107792376D01*
X92197819Y-107786344D01*
X91068109Y-106656634D01*
X91034624Y-106595311D01*
X91031790Y-106568953D01*
X91031790Y-75621606D01*
X91041229Y-75574154D01*
X91101025Y-75429791D01*
X91101027Y-75429787D01*
X91131790Y-75275132D01*
X91131790Y-75117448D01*
X91131790Y-75117445D01*
X91131789Y-75117443D01*
X91119467Y-75055499D01*
X91101027Y-74962793D01*
X91101025Y-74962788D01*
X91040687Y-74817117D01*
X91040680Y-74817104D01*
X90953079Y-74686001D01*
X90953076Y-74685997D01*
X90841582Y-74574503D01*
X90841578Y-74574500D01*
X90710475Y-74486899D01*
X90710462Y-74486892D01*
X90564791Y-74426554D01*
X90564779Y-74426551D01*
X90410135Y-74395790D01*
X90410132Y-74395790D01*
X90252448Y-74395790D01*
X90252445Y-74395790D01*
X90097800Y-74426551D01*
X90097788Y-74426554D01*
X89952117Y-74486892D01*
X89952104Y-74486899D01*
X89821001Y-74574500D01*
X89820997Y-74574503D01*
X89709503Y-74685997D01*
X89709500Y-74686001D01*
X89621899Y-74817104D01*
X89621892Y-74817117D01*
X89561554Y-74962788D01*
X89561551Y-74962800D01*
X89530790Y-75117443D01*
X89530790Y-75275136D01*
X89561551Y-75429779D01*
X89561554Y-75429791D01*
X89621351Y-75574154D01*
X89630790Y-75621606D01*
X89630790Y-106841478D01*
X89630790Y-106979466D01*
X89630790Y-106979468D01*
X89630789Y-106979468D01*
X89657708Y-107114794D01*
X89657711Y-107114804D01*
X89710512Y-107242279D01*
X89787177Y-107357017D01*
X89787178Y-107357018D01*
X94318181Y-111888020D01*
X94332884Y-111914947D01*
X94349477Y-111940766D01*
X94350368Y-111946966D01*
X94351666Y-111949343D01*
X94354500Y-111975701D01*
X94354500Y-112042819D01*
X94334815Y-112109858D01*
X94304812Y-112142085D01*
X94197452Y-112222455D01*
X94111206Y-112337664D01*
X94111202Y-112337671D01*
X94060908Y-112472517D01*
X94055941Y-112518721D01*
X94054501Y-112532123D01*
X94054500Y-112532135D01*
X94054500Y-112598060D01*
X94034815Y-112665099D01*
X93982011Y-112710854D01*
X93912853Y-112720798D01*
X93849297Y-112691773D01*
X93842819Y-112685741D01*
X89137819Y-107980741D01*
X89104334Y-107919418D01*
X89101500Y-107893060D01*
X89101500Y-76988786D01*
X89100767Y-76985099D01*
X89100767Y-76985098D01*
X89078589Y-76873603D01*
X89070737Y-76834130D01*
X89047480Y-76777983D01*
X89047480Y-76777982D01*
X89010397Y-76688455D01*
X89010390Y-76688442D01*
X88922790Y-76557340D01*
X88922789Y-76557339D01*
X88811289Y-76445839D01*
X88473764Y-76108314D01*
X88106978Y-75741527D01*
X88106974Y-75741524D01*
X87975871Y-75653923D01*
X87975858Y-75653916D01*
X87830187Y-75593578D01*
X87830175Y-75593575D01*
X87675531Y-75562814D01*
X87675528Y-75562814D01*
X87517844Y-75562814D01*
X87517841Y-75562814D01*
X87363196Y-75593575D01*
X87363184Y-75593578D01*
X87217513Y-75653916D01*
X87217500Y-75653923D01*
X87086397Y-75741524D01*
X87086393Y-75741527D01*
X86974899Y-75853021D01*
X86974896Y-75853025D01*
X86887295Y-75984128D01*
X86887288Y-75984141D01*
X86826950Y-76129812D01*
X86826947Y-76129824D01*
X86796186Y-76284467D01*
X86796186Y-76442160D01*
X86826947Y-76596803D01*
X86826950Y-76596815D01*
X86887288Y-76742486D01*
X86887295Y-76742499D01*
X86974896Y-76873602D01*
X86974899Y-76873606D01*
X87464181Y-77362887D01*
X87497666Y-77424210D01*
X87500500Y-77450568D01*
X87500500Y-81510500D01*
X87480815Y-81577539D01*
X87428011Y-81623294D01*
X87376500Y-81634500D01*
X87296153Y-81634500D01*
X87141510Y-81665260D01*
X87141502Y-81665262D01*
X86995824Y-81725604D01*
X86995814Y-81725609D01*
X86868237Y-81810854D01*
X86801559Y-81831732D01*
X86734179Y-81813247D01*
X86687489Y-81761268D01*
X86684785Y-81755204D01*
X86625397Y-81611827D01*
X86625390Y-81611814D01*
X86537790Y-81480712D01*
X86537789Y-81480711D01*
X86426289Y-81369211D01*
X86078864Y-81021786D01*
X85625292Y-80568213D01*
X85625288Y-80568210D01*
X85494185Y-80480609D01*
X85494172Y-80480602D01*
X85348501Y-80420264D01*
X85348489Y-80420261D01*
X85193845Y-80389500D01*
X85193842Y-80389500D01*
X85036158Y-80389500D01*
X85036155Y-80389500D01*
X84881510Y-80420261D01*
X84881498Y-80420264D01*
X84735827Y-80480602D01*
X84735814Y-80480609D01*
X84604711Y-80568210D01*
X84604707Y-80568213D01*
X84493213Y-80679707D01*
X84493210Y-80679711D01*
X84405609Y-80810814D01*
X84405602Y-80810827D01*
X84345264Y-80956498D01*
X84345261Y-80956510D01*
X84314500Y-81111153D01*
X84314500Y-81268846D01*
X84345261Y-81423489D01*
X84345264Y-81423501D01*
X84405602Y-81569172D01*
X84405609Y-81569185D01*
X84493210Y-81700288D01*
X84493213Y-81700292D01*
X84530240Y-81737319D01*
X84563725Y-81798642D01*
X84558741Y-81868334D01*
X84530240Y-81912681D01*
X84493213Y-81949707D01*
X84493210Y-81949711D01*
X84405609Y-82080814D01*
X84405602Y-82080827D01*
X84345264Y-82226498D01*
X84345261Y-82226510D01*
X84314500Y-82381153D01*
X84314500Y-82538846D01*
X84345261Y-82693489D01*
X84345264Y-82693501D01*
X84405602Y-82839172D01*
X84405609Y-82839185D01*
X84496595Y-82975354D01*
X84495427Y-82976134D01*
X84519971Y-83033933D01*
X84508175Y-83102800D01*
X84499908Y-83117168D01*
X84495610Y-83123600D01*
X84495602Y-83123614D01*
X84435264Y-83269284D01*
X84435261Y-83269296D01*
X84404500Y-83423939D01*
X84404500Y-85312060D01*
X84395855Y-85341500D01*
X84389332Y-85371487D01*
X84385577Y-85376502D01*
X84384815Y-85379099D01*
X84368181Y-85399741D01*
X84213711Y-85554211D01*
X84168422Y-85599500D01*
X84102209Y-85665712D01*
X84014609Y-85796814D01*
X84014602Y-85796827D01*
X83954264Y-85942498D01*
X83954261Y-85942510D01*
X83923500Y-86097153D01*
X83923500Y-90273356D01*
X83903815Y-90340395D01*
X83851011Y-90386150D01*
X83781853Y-90396094D01*
X83752051Y-90387918D01*
X83721497Y-90375263D01*
X83721492Y-90375262D01*
X83721489Y-90375261D01*
X83566845Y-90344500D01*
X83566842Y-90344500D01*
X83409158Y-90344500D01*
X83409155Y-90344500D01*
X83254510Y-90375261D01*
X83254498Y-90375264D01*
X83108827Y-90435602D01*
X83108814Y-90435609D01*
X82977711Y-90523210D01*
X82977707Y-90523213D01*
X82866213Y-90634707D01*
X82866210Y-90634711D01*
X82778609Y-90765814D01*
X82778602Y-90765827D01*
X82718264Y-90911498D01*
X82718261Y-90911510D01*
X82687500Y-91066153D01*
X82687500Y-91223846D01*
X82718261Y-91378489D01*
X82718264Y-91378501D01*
X82778602Y-91524172D01*
X82778609Y-91524185D01*
X82866210Y-91655288D01*
X82866213Y-91655292D01*
X82977707Y-91766786D01*
X82977711Y-91766789D01*
X83108814Y-91854390D01*
X83108827Y-91854397D01*
X83223953Y-91902083D01*
X83254503Y-91914737D01*
X83393820Y-91942449D01*
X83409153Y-91945499D01*
X83409156Y-91945500D01*
X83409158Y-91945500D01*
X83566844Y-91945500D01*
X83566845Y-91945499D01*
X83721497Y-91914737D01*
X83752046Y-91902082D01*
X83821515Y-91894613D01*
X83883995Y-91925887D01*
X83919648Y-91985975D01*
X83923500Y-92016643D01*
X83923500Y-102253449D01*
X83930705Y-102289670D01*
X83924478Y-102359261D01*
X83881615Y-102414439D01*
X83815725Y-102437683D01*
X83747728Y-102421615D01*
X83721407Y-102401542D01*
X80507078Y-99187213D01*
X80507074Y-99187210D01*
X80375971Y-99099609D01*
X80375958Y-99099602D01*
X80230287Y-99039264D01*
X80230275Y-99039261D01*
X80075631Y-99008500D01*
X80075628Y-99008500D01*
X78114154Y-99008500D01*
X78047115Y-98988815D01*
X78026473Y-98972181D01*
X76949824Y-97895532D01*
X76916339Y-97834209D01*
X76921323Y-97764517D01*
X76963195Y-97708584D01*
X76968614Y-97704749D01*
X76992223Y-97688973D01*
X77085289Y-97626789D01*
X77196789Y-97515289D01*
X77284394Y-97384179D01*
X77344737Y-97238497D01*
X77375500Y-97083842D01*
X77375500Y-96926158D01*
X77375500Y-96926155D01*
X77375499Y-96926153D01*
X77364764Y-96872184D01*
X77344737Y-96771503D01*
X77321912Y-96716398D01*
X77284397Y-96625827D01*
X77284390Y-96625814D01*
X77196789Y-96494711D01*
X77196786Y-96494707D01*
X77085292Y-96383213D01*
X77085288Y-96383210D01*
X76954185Y-96295609D01*
X76954172Y-96295602D01*
X76808501Y-96235264D01*
X76808489Y-96235261D01*
X76653845Y-96204500D01*
X76653842Y-96204500D01*
X76496158Y-96204500D01*
X76496155Y-96204500D01*
X76341510Y-96235261D01*
X76341498Y-96235264D01*
X76195827Y-96295602D01*
X76195814Y-96295609D01*
X76064711Y-96383210D01*
X76064707Y-96383213D01*
X75953213Y-96494707D01*
X75953210Y-96494711D01*
X75865609Y-96625814D01*
X75865602Y-96625827D01*
X75805264Y-96771498D01*
X75805261Y-96771508D01*
X75790903Y-96843692D01*
X75758518Y-96905603D01*
X75697802Y-96940177D01*
X75669286Y-96943500D01*
X73567402Y-96943500D01*
X73500363Y-96923815D01*
X73454608Y-96871011D01*
X73444664Y-96801853D01*
X73473689Y-96738297D01*
X73498511Y-96716398D01*
X73532098Y-96693955D01*
X73557789Y-96676789D01*
X73669289Y-96565289D01*
X73756894Y-96434179D01*
X73817237Y-96288497D01*
X73848000Y-96133842D01*
X73848000Y-95976158D01*
X73848000Y-95976155D01*
X73847999Y-95976153D01*
X73820800Y-95839416D01*
X73817237Y-95821503D01*
X73786715Y-95747816D01*
X73756897Y-95675827D01*
X73756890Y-95675814D01*
X73669289Y-95544711D01*
X73669286Y-95544707D01*
X73557792Y-95433213D01*
X73557788Y-95433210D01*
X73426685Y-95345609D01*
X73426672Y-95345602D01*
X73281001Y-95285264D01*
X73280989Y-95285261D01*
X73126345Y-95254500D01*
X73126342Y-95254500D01*
X72968658Y-95254500D01*
X72968655Y-95254500D01*
X72814010Y-95285261D01*
X72813998Y-95285264D01*
X72668327Y-95345602D01*
X72668314Y-95345609D01*
X72537211Y-95433210D01*
X72537207Y-95433213D01*
X72425713Y-95544707D01*
X72425710Y-95544711D01*
X72338109Y-95675814D01*
X72338102Y-95675827D01*
X72277764Y-95821498D01*
X72277761Y-95821510D01*
X72247000Y-95976153D01*
X72247000Y-96133846D01*
X72277761Y-96288489D01*
X72277764Y-96288501D01*
X72338102Y-96434172D01*
X72338109Y-96434185D01*
X72425710Y-96565288D01*
X72425713Y-96565292D01*
X72537207Y-96676786D01*
X72537211Y-96676789D01*
X72596489Y-96716398D01*
X72641294Y-96770010D01*
X72650001Y-96839335D01*
X72619846Y-96902363D01*
X72560403Y-96939082D01*
X72527598Y-96943500D01*
X70819369Y-96943500D01*
X70664724Y-96974261D01*
X70664712Y-96974264D01*
X70519041Y-97034602D01*
X70519030Y-97034608D01*
X70461621Y-97072968D01*
X70394944Y-97093845D01*
X70327564Y-97075360D01*
X70280874Y-97023381D01*
X70269698Y-96954411D01*
X70280572Y-96920226D01*
X70279563Y-96919808D01*
X70319197Y-96824120D01*
X70342237Y-96768497D01*
X70373000Y-96613842D01*
X70373000Y-96456158D01*
X70373000Y-96456155D01*
X70372999Y-96456153D01*
X70358490Y-96383211D01*
X70342237Y-96301503D01*
X70342235Y-96301498D01*
X70281897Y-96155827D01*
X70281890Y-96155814D01*
X70194289Y-96024711D01*
X70194286Y-96024707D01*
X70082792Y-95913213D01*
X70082788Y-95913210D01*
X69951685Y-95825609D01*
X69951672Y-95825602D01*
X69806001Y-95765264D01*
X69805989Y-95765261D01*
X69651345Y-95734500D01*
X69651342Y-95734500D01*
X69493658Y-95734500D01*
X69493655Y-95734500D01*
X69339010Y-95765261D01*
X69338998Y-95765264D01*
X69193327Y-95825602D01*
X69193314Y-95825609D01*
X69062211Y-95913210D01*
X69062207Y-95913213D01*
X68950713Y-96024707D01*
X68950710Y-96024711D01*
X68863109Y-96155814D01*
X68863102Y-96155827D01*
X68802764Y-96301498D01*
X68802761Y-96301510D01*
X68772000Y-96456153D01*
X68772000Y-96613846D01*
X68802761Y-96768489D01*
X68802764Y-96768501D01*
X68863102Y-96914172D01*
X68863109Y-96914185D01*
X68950710Y-97045288D01*
X68950713Y-97045292D01*
X69062207Y-97156786D01*
X69062211Y-97156789D01*
X69193314Y-97244390D01*
X69193327Y-97244397D01*
X69295655Y-97286782D01*
X69339003Y-97304737D01*
X69462338Y-97329270D01*
X69493653Y-97335499D01*
X69493656Y-97335500D01*
X69493658Y-97335500D01*
X69651344Y-97335500D01*
X69651345Y-97335499D01*
X69805997Y-97304737D01*
X69911880Y-97260878D01*
X69981349Y-97253410D01*
X70043828Y-97284685D01*
X70079480Y-97344774D01*
X70076986Y-97414599D01*
X70047013Y-97463121D01*
X68165164Y-99344972D01*
X67557211Y-99952925D01*
X67528579Y-99981557D01*
X67445709Y-100064426D01*
X67358109Y-100195528D01*
X67358102Y-100195541D01*
X67297764Y-100341212D01*
X67297761Y-100341224D01*
X67267000Y-100495867D01*
X67267000Y-106085500D01*
X67247315Y-106152539D01*
X67194511Y-106198294D01*
X67143000Y-106209500D01*
X66478749Y-106209500D01*
X66411710Y-106189815D01*
X66403262Y-106183875D01*
X66387949Y-106172125D01*
X66353666Y-106145818D01*
X66309767Y-106112132D01*
X66309749Y-106112120D01*
X66195751Y-106046303D01*
X66195750Y-106046302D01*
X66165471Y-106033760D01*
X66073829Y-105995800D01*
X65946662Y-105961725D01*
X65946661Y-105961724D01*
X65946658Y-105961724D01*
X65815833Y-105944500D01*
X65815826Y-105944500D01*
X65677940Y-105944500D01*
X65610901Y-105924815D01*
X65590259Y-105908181D01*
X63781819Y-104099741D01*
X63748334Y-104038418D01*
X63745500Y-104012060D01*
X63745500Y-98358388D01*
X63765185Y-98291349D01*
X63817989Y-98245594D01*
X63887147Y-98235650D01*
X63916953Y-98243827D01*
X63918319Y-98244393D01*
X63918321Y-98244394D01*
X64064003Y-98304737D01*
X64218653Y-98335499D01*
X64218656Y-98335500D01*
X64218658Y-98335500D01*
X64376344Y-98335500D01*
X64376345Y-98335499D01*
X64530997Y-98304737D01*
X64676679Y-98244394D01*
X64807789Y-98156789D01*
X64919289Y-98045289D01*
X65006894Y-97914179D01*
X65067237Y-97768497D01*
X65098000Y-97613842D01*
X65098000Y-97456158D01*
X65098000Y-97456155D01*
X65097999Y-97456153D01*
X65084553Y-97388556D01*
X65067237Y-97301503D01*
X65067235Y-97301498D01*
X65006896Y-97155825D01*
X65006894Y-97155822D01*
X65006894Y-97155821D01*
X64972194Y-97103889D01*
X64951316Y-97037215D01*
X64969800Y-96969835D01*
X64972176Y-96966136D01*
X65006894Y-96914179D01*
X65067237Y-96768497D01*
X65098000Y-96613842D01*
X65098000Y-96456158D01*
X65098000Y-96456155D01*
X65097999Y-96456153D01*
X65083490Y-96383211D01*
X65067237Y-96301503D01*
X65067235Y-96301498D01*
X65006897Y-96155827D01*
X65006890Y-96155814D01*
X64919289Y-96024711D01*
X64919286Y-96024707D01*
X64807792Y-95913213D01*
X64807788Y-95913210D01*
X64676685Y-95825609D01*
X64676672Y-95825602D01*
X64531001Y-95765264D01*
X64530989Y-95765261D01*
X64376345Y-95734500D01*
X64376342Y-95734500D01*
X64218658Y-95734500D01*
X64218655Y-95734500D01*
X64064010Y-95765261D01*
X64063998Y-95765264D01*
X63918327Y-95825602D01*
X63918314Y-95825609D01*
X63787211Y-95913210D01*
X63787207Y-95913213D01*
X63675713Y-96024707D01*
X63675710Y-96024711D01*
X63588109Y-96155814D01*
X63588102Y-96155827D01*
X63527764Y-96301498D01*
X63527761Y-96301510D01*
X63497000Y-96456153D01*
X63497000Y-96613846D01*
X63527761Y-96768489D01*
X63527764Y-96768501D01*
X63588102Y-96914172D01*
X63588109Y-96914185D01*
X63622804Y-96966109D01*
X63628778Y-96985188D01*
X63639284Y-97002196D01*
X63639004Y-97017847D01*
X63643682Y-97032786D01*
X63638393Y-97052066D01*
X63638036Y-97072054D01*
X63626020Y-97097169D01*
X63625198Y-97100167D01*
X63622804Y-97103892D01*
X63597865Y-97141215D01*
X63544252Y-97186019D01*
X63474927Y-97194726D01*
X63411900Y-97164571D01*
X63407082Y-97160004D01*
X60693231Y-94446153D01*
X70079500Y-94446153D01*
X70079500Y-94603846D01*
X70110261Y-94758489D01*
X70110264Y-94758501D01*
X70170602Y-94904172D01*
X70170609Y-94904185D01*
X70258210Y-95035288D01*
X70258213Y-95035292D01*
X70369707Y-95146786D01*
X70369711Y-95146789D01*
X70500814Y-95234390D01*
X70500827Y-95234397D01*
X70623633Y-95285264D01*
X70646503Y-95294737D01*
X70801153Y-95325499D01*
X70801156Y-95325500D01*
X70801158Y-95325500D01*
X70958844Y-95325500D01*
X70958845Y-95325499D01*
X71113497Y-95294737D01*
X71259179Y-95234394D01*
X71390289Y-95146789D01*
X71501789Y-95035289D01*
X71514575Y-95016153D01*
X75739500Y-95016153D01*
X75739500Y-95173846D01*
X75770261Y-95328489D01*
X75770264Y-95328501D01*
X75830602Y-95474172D01*
X75830609Y-95474185D01*
X75918210Y-95605288D01*
X75918213Y-95605292D01*
X76029707Y-95716786D01*
X76029711Y-95716789D01*
X76160814Y-95804390D01*
X76160827Y-95804397D01*
X76245372Y-95839416D01*
X76306503Y-95864737D01*
X76461153Y-95895499D01*
X76461156Y-95895500D01*
X76461158Y-95895500D01*
X76618844Y-95895500D01*
X76618845Y-95895499D01*
X76773497Y-95864737D01*
X76919179Y-95804394D01*
X77050289Y-95716789D01*
X77161789Y-95605289D01*
X77249394Y-95474179D01*
X77309737Y-95328497D01*
X77340500Y-95173842D01*
X77340500Y-95016158D01*
X77340500Y-95016155D01*
X77340499Y-95016153D01*
X77318227Y-94904185D01*
X77309737Y-94861503D01*
X77308075Y-94857491D01*
X77249397Y-94715827D01*
X77249390Y-94715814D01*
X77161789Y-94584711D01*
X77161786Y-94584707D01*
X77050292Y-94473213D01*
X77050288Y-94473210D01*
X76919185Y-94385609D01*
X76919172Y-94385602D01*
X76773501Y-94325264D01*
X76773489Y-94325261D01*
X76618845Y-94294500D01*
X76618842Y-94294500D01*
X76461158Y-94294500D01*
X76461155Y-94294500D01*
X76306510Y-94325261D01*
X76306498Y-94325264D01*
X76160827Y-94385602D01*
X76160814Y-94385609D01*
X76029711Y-94473210D01*
X76029707Y-94473213D01*
X75918213Y-94584707D01*
X75918210Y-94584711D01*
X75830609Y-94715814D01*
X75830602Y-94715827D01*
X75770264Y-94861498D01*
X75770261Y-94861510D01*
X75739500Y-95016153D01*
X71514575Y-95016153D01*
X71531083Y-94991447D01*
X71564675Y-94941175D01*
X71589391Y-94904183D01*
X71589394Y-94904179D01*
X71649737Y-94758497D01*
X71680500Y-94603842D01*
X71680500Y-94446158D01*
X71680500Y-94446155D01*
X71680499Y-94446153D01*
X71668455Y-94385606D01*
X71649737Y-94291503D01*
X71649735Y-94291498D01*
X71589397Y-94145827D01*
X71589390Y-94145814D01*
X71501789Y-94014711D01*
X71501786Y-94014707D01*
X71390292Y-93903213D01*
X71390288Y-93903210D01*
X71259185Y-93815609D01*
X71259172Y-93815602D01*
X71113501Y-93755264D01*
X71113489Y-93755261D01*
X70958845Y-93724500D01*
X70958842Y-93724500D01*
X70801158Y-93724500D01*
X70801155Y-93724500D01*
X70646510Y-93755261D01*
X70646498Y-93755264D01*
X70500827Y-93815602D01*
X70500814Y-93815609D01*
X70369711Y-93903210D01*
X70369707Y-93903213D01*
X70258213Y-94014707D01*
X70258210Y-94014711D01*
X70170609Y-94145814D01*
X70170602Y-94145827D01*
X70110264Y-94291498D01*
X70110261Y-94291510D01*
X70079500Y-94446153D01*
X60693231Y-94446153D01*
X60144843Y-93897765D01*
X60111358Y-93836442D01*
X60110051Y-93790687D01*
X60115500Y-93756287D01*
X60115500Y-93543713D01*
X60082246Y-93333757D01*
X60016557Y-93131588D01*
X59920051Y-92942184D01*
X59920049Y-92942181D01*
X59920048Y-92942179D01*
X59795109Y-92770213D01*
X59644786Y-92619890D01*
X59472820Y-92494951D01*
X59472115Y-92494591D01*
X59464054Y-92490485D01*
X59413259Y-92442512D01*
X59396463Y-92374692D01*
X59418999Y-92308556D01*
X59464054Y-92269515D01*
X59472816Y-92265051D01*
X59632614Y-92148952D01*
X59644786Y-92140109D01*
X59644788Y-92140106D01*
X59644792Y-92140104D01*
X59679572Y-92105324D01*
X66685329Y-92105324D01*
X66685329Y-92263017D01*
X66716090Y-92417660D01*
X66716093Y-92417672D01*
X66776431Y-92563343D01*
X66776438Y-92563356D01*
X66864039Y-92694459D01*
X66864042Y-92694463D01*
X66975536Y-92805957D01*
X66975540Y-92805960D01*
X67106643Y-92893561D01*
X67106656Y-92893568D01*
X67252327Y-92953906D01*
X67252332Y-92953908D01*
X67406982Y-92984670D01*
X67406985Y-92984671D01*
X67406987Y-92984671D01*
X67564673Y-92984671D01*
X67564674Y-92984670D01*
X67719326Y-92953908D01*
X67865008Y-92893565D01*
X67996118Y-92805960D01*
X68107618Y-92694460D01*
X68195223Y-92563350D01*
X68255566Y-92417668D01*
X68286329Y-92263013D01*
X68286329Y-92105329D01*
X68286329Y-92105326D01*
X68286328Y-92105324D01*
X68263347Y-91989792D01*
X68255566Y-91950674D01*
X68253423Y-91945500D01*
X68195226Y-91804998D01*
X68195219Y-91804985D01*
X68107618Y-91673882D01*
X68107615Y-91673878D01*
X67996121Y-91562384D01*
X67996117Y-91562381D01*
X67865014Y-91474780D01*
X67865001Y-91474773D01*
X67719330Y-91414435D01*
X67719318Y-91414432D01*
X67564674Y-91383671D01*
X67564671Y-91383671D01*
X67406987Y-91383671D01*
X67406984Y-91383671D01*
X67252339Y-91414432D01*
X67252327Y-91414435D01*
X67106656Y-91474773D01*
X67106643Y-91474780D01*
X66975540Y-91562381D01*
X66975536Y-91562384D01*
X66864042Y-91673878D01*
X66864039Y-91673882D01*
X66776438Y-91804985D01*
X66776431Y-91804998D01*
X66716093Y-91950669D01*
X66716090Y-91950681D01*
X66685329Y-92105324D01*
X59679572Y-92105324D01*
X59795104Y-91989792D01*
X59795106Y-91989788D01*
X59795109Y-91989786D01*
X59920048Y-91817820D01*
X59920047Y-91817820D01*
X59920051Y-91817816D01*
X60016557Y-91628412D01*
X60082246Y-91426243D01*
X60115500Y-91216287D01*
X60115500Y-91003713D01*
X60082246Y-90793757D01*
X60016557Y-90591588D01*
X59920051Y-90402184D01*
X59920049Y-90402181D01*
X59920048Y-90402179D01*
X59795109Y-90230213D01*
X59644786Y-90079890D01*
X59472820Y-89954951D01*
X59472115Y-89954591D01*
X59464054Y-89950485D01*
X59413259Y-89902512D01*
X59396463Y-89834692D01*
X59418999Y-89768556D01*
X59464054Y-89729515D01*
X59472816Y-89725051D01*
X59632614Y-89608952D01*
X59644786Y-89600109D01*
X59644788Y-89600106D01*
X59644792Y-89600104D01*
X59795104Y-89449792D01*
X59795106Y-89449788D01*
X59795109Y-89449786D01*
X59920048Y-89277820D01*
X59920047Y-89277820D01*
X59920051Y-89277816D01*
X60016557Y-89088412D01*
X60082246Y-88886243D01*
X60115500Y-88676287D01*
X60115500Y-88463713D01*
X60082246Y-88253757D01*
X60016557Y-88051588D01*
X59920051Y-87862184D01*
X59920049Y-87862181D01*
X59920048Y-87862179D01*
X59795109Y-87690213D01*
X59681181Y-87576285D01*
X59647696Y-87514962D01*
X59652680Y-87445270D01*
X59694552Y-87389337D01*
X59725529Y-87372422D01*
X59857086Y-87323354D01*
X59857093Y-87323350D01*
X59906781Y-87286153D01*
X68173500Y-87286153D01*
X68173500Y-87443846D01*
X68204261Y-87598489D01*
X68204264Y-87598501D01*
X68264602Y-87744172D01*
X68264609Y-87744185D01*
X68352210Y-87875288D01*
X68352213Y-87875292D01*
X68463707Y-87986786D01*
X68463711Y-87986789D01*
X68594814Y-88074390D01*
X68594827Y-88074397D01*
X68740498Y-88134735D01*
X68740503Y-88134737D01*
X68895153Y-88165499D01*
X68895156Y-88165500D01*
X68895158Y-88165500D01*
X69052844Y-88165500D01*
X69052845Y-88165499D01*
X69207497Y-88134737D01*
X69353179Y-88074394D01*
X69484289Y-87986789D01*
X69595789Y-87875289D01*
X69683394Y-87744179D01*
X69743737Y-87598497D01*
X69774500Y-87443842D01*
X69774500Y-87286158D01*
X69774500Y-87286155D01*
X69774499Y-87286153D01*
X69767855Y-87252754D01*
X69743737Y-87131503D01*
X69734950Y-87110289D01*
X69683397Y-86985827D01*
X69683390Y-86985814D01*
X69595789Y-86854711D01*
X69595786Y-86854707D01*
X69484292Y-86743213D01*
X69484288Y-86743210D01*
X69353185Y-86655609D01*
X69353172Y-86655602D01*
X69207501Y-86595264D01*
X69207489Y-86595261D01*
X69052845Y-86564500D01*
X69052842Y-86564500D01*
X68895158Y-86564500D01*
X68895155Y-86564500D01*
X68740510Y-86595261D01*
X68740498Y-86595264D01*
X68594827Y-86655602D01*
X68594814Y-86655609D01*
X68463711Y-86743210D01*
X68463707Y-86743213D01*
X68352213Y-86854707D01*
X68352210Y-86854711D01*
X68264609Y-86985814D01*
X68264602Y-86985827D01*
X68204264Y-87131498D01*
X68204261Y-87131510D01*
X68173500Y-87286153D01*
X59906781Y-87286153D01*
X59972187Y-87237190D01*
X59972190Y-87237187D01*
X60058350Y-87122093D01*
X60058354Y-87122086D01*
X60108596Y-86987379D01*
X60108598Y-86987372D01*
X60114999Y-86927844D01*
X60115000Y-86927827D01*
X60115000Y-86321153D01*
X64924500Y-86321153D01*
X64924500Y-86478846D01*
X64955261Y-86633489D01*
X64955264Y-86633501D01*
X65015602Y-86779172D01*
X65015609Y-86779185D01*
X65103210Y-86910288D01*
X65103213Y-86910292D01*
X65214707Y-87021786D01*
X65214711Y-87021789D01*
X65345814Y-87109390D01*
X65345827Y-87109397D01*
X65491498Y-87169735D01*
X65491503Y-87169737D01*
X65646153Y-87200499D01*
X65646156Y-87200500D01*
X65646158Y-87200500D01*
X65803844Y-87200500D01*
X65803845Y-87200499D01*
X65958497Y-87169737D01*
X66104179Y-87109394D01*
X66235289Y-87021789D01*
X66346789Y-86910289D01*
X66434394Y-86779179D01*
X66494737Y-86633497D01*
X66525500Y-86478842D01*
X66525500Y-86321158D01*
X66525500Y-86321155D01*
X66525499Y-86321153D01*
X66513397Y-86260315D01*
X66494737Y-86166503D01*
X66476100Y-86121509D01*
X66434397Y-86020827D01*
X66434390Y-86020814D01*
X66346789Y-85889711D01*
X66346786Y-85889707D01*
X66235292Y-85778213D01*
X66235288Y-85778210D01*
X66104185Y-85690609D01*
X66104172Y-85690602D01*
X65958501Y-85630264D01*
X65958489Y-85630261D01*
X65803845Y-85599500D01*
X65803842Y-85599500D01*
X65646158Y-85599500D01*
X65646155Y-85599500D01*
X65491510Y-85630261D01*
X65491498Y-85630264D01*
X65345827Y-85690602D01*
X65345814Y-85690609D01*
X65214711Y-85778210D01*
X65214707Y-85778213D01*
X65103213Y-85889707D01*
X65103210Y-85889711D01*
X65015609Y-86020814D01*
X65015602Y-86020827D01*
X64955264Y-86166498D01*
X64955261Y-86166510D01*
X64924500Y-86321153D01*
X60115000Y-86321153D01*
X60115000Y-86280000D01*
X59198012Y-86280000D01*
X59230925Y-86222993D01*
X59265000Y-86095826D01*
X59265000Y-85964174D01*
X59230925Y-85837007D01*
X59198012Y-85780000D01*
X60115000Y-85780000D01*
X60115000Y-85132172D01*
X60114999Y-85132155D01*
X60108598Y-85072627D01*
X60108596Y-85072620D01*
X60058354Y-84937913D01*
X60058350Y-84937906D01*
X59972190Y-84822812D01*
X59972187Y-84822809D01*
X59857093Y-84736649D01*
X59857086Y-84736645D01*
X59722379Y-84686403D01*
X59722372Y-84686401D01*
X59662844Y-84680000D01*
X59015000Y-84680000D01*
X59015000Y-85596988D01*
X58957993Y-85564075D01*
X58830826Y-85530000D01*
X58699174Y-85530000D01*
X58572007Y-85564075D01*
X58515000Y-85596988D01*
X58515000Y-84680000D01*
X57867155Y-84680000D01*
X57837756Y-84683162D01*
X57768997Y-84670758D01*
X57717859Y-84623148D01*
X57700500Y-84559873D01*
X57700500Y-80321153D01*
X62759500Y-80321153D01*
X62759500Y-80478846D01*
X62790261Y-80633489D01*
X62790264Y-80633501D01*
X62850602Y-80779172D01*
X62850609Y-80779185D01*
X62938210Y-80910288D01*
X62938213Y-80910292D01*
X63049707Y-81021786D01*
X63049711Y-81021789D01*
X63180814Y-81109390D01*
X63180827Y-81109397D01*
X63326498Y-81169735D01*
X63326503Y-81169737D01*
X63481153Y-81200499D01*
X63481156Y-81200500D01*
X63481158Y-81200500D01*
X63638844Y-81200500D01*
X63638845Y-81200499D01*
X63793497Y-81169737D01*
X63906166Y-81123067D01*
X63939172Y-81109397D01*
X63939172Y-81109396D01*
X63939179Y-81109394D01*
X64070289Y-81021789D01*
X64181789Y-80910289D01*
X64269394Y-80779179D01*
X64329737Y-80633497D01*
X64360500Y-80478842D01*
X64360500Y-80321158D01*
X64360500Y-80321155D01*
X64360499Y-80321153D01*
X64329738Y-80166510D01*
X64329737Y-80166503D01*
X64329735Y-80166498D01*
X64269397Y-80020827D01*
X64269390Y-80020814D01*
X64181789Y-79889711D01*
X64181786Y-79889707D01*
X64070292Y-79778213D01*
X64070288Y-79778210D01*
X63939185Y-79690609D01*
X63939172Y-79690602D01*
X63793501Y-79630264D01*
X63793489Y-79630261D01*
X63638845Y-79599500D01*
X63638842Y-79599500D01*
X63481158Y-79599500D01*
X63481155Y-79599500D01*
X63326510Y-79630261D01*
X63326498Y-79630264D01*
X63180827Y-79690602D01*
X63180814Y-79690609D01*
X63049711Y-79778210D01*
X63049707Y-79778213D01*
X62938213Y-79889707D01*
X62938210Y-79889711D01*
X62850609Y-80020814D01*
X62850602Y-80020827D01*
X62790264Y-80166498D01*
X62790261Y-80166510D01*
X62759500Y-80321153D01*
X57700500Y-80321153D01*
X57700500Y-78356153D01*
X62764500Y-78356153D01*
X62764500Y-78513846D01*
X62795261Y-78668489D01*
X62795264Y-78668501D01*
X62855602Y-78814172D01*
X62855609Y-78814185D01*
X62943210Y-78945288D01*
X62943213Y-78945292D01*
X63054707Y-79056786D01*
X63054711Y-79056789D01*
X63185814Y-79144390D01*
X63185827Y-79144397D01*
X63331498Y-79204735D01*
X63331503Y-79204737D01*
X63486153Y-79235499D01*
X63486156Y-79235500D01*
X63486158Y-79235500D01*
X63643844Y-79235500D01*
X63643845Y-79235499D01*
X63798497Y-79204737D01*
X63944179Y-79144394D01*
X64075289Y-79056789D01*
X64186789Y-78945289D01*
X64274394Y-78814179D01*
X64334737Y-78668497D01*
X64365500Y-78513842D01*
X64365500Y-78356158D01*
X64365500Y-78356155D01*
X64365499Y-78356153D01*
X64334738Y-78201510D01*
X64334737Y-78201503D01*
X64334735Y-78201498D01*
X64274397Y-78055827D01*
X64274390Y-78055814D01*
X64186789Y-77924711D01*
X64186786Y-77924707D01*
X64075292Y-77813213D01*
X64075288Y-77813210D01*
X63944185Y-77725609D01*
X63944172Y-77725602D01*
X63798501Y-77665264D01*
X63798489Y-77665261D01*
X63643845Y-77634500D01*
X63643842Y-77634500D01*
X63486158Y-77634500D01*
X63486155Y-77634500D01*
X63331510Y-77665261D01*
X63331498Y-77665264D01*
X63185827Y-77725602D01*
X63185814Y-77725609D01*
X63054711Y-77813210D01*
X63054707Y-77813213D01*
X62943213Y-77924707D01*
X62943210Y-77924711D01*
X62855609Y-78055814D01*
X62855602Y-78055827D01*
X62795264Y-78201498D01*
X62795261Y-78201510D01*
X62764500Y-78356153D01*
X57700500Y-78356153D01*
X57700500Y-76408653D01*
X62794500Y-76408653D01*
X62794500Y-76566346D01*
X62825261Y-76720989D01*
X62825264Y-76721001D01*
X62885602Y-76866672D01*
X62885609Y-76866685D01*
X62973210Y-76997788D01*
X62973213Y-76997792D01*
X63084707Y-77109286D01*
X63084711Y-77109289D01*
X63215814Y-77196890D01*
X63215827Y-77196897D01*
X63361498Y-77257235D01*
X63361503Y-77257237D01*
X63516153Y-77287999D01*
X63516156Y-77288000D01*
X63516158Y-77288000D01*
X63673844Y-77288000D01*
X63673845Y-77287999D01*
X63828497Y-77257237D01*
X63974179Y-77196894D01*
X64105289Y-77109289D01*
X64216789Y-76997789D01*
X64304394Y-76866679D01*
X64364737Y-76720997D01*
X64395500Y-76566342D01*
X64395500Y-76408658D01*
X64395500Y-76408655D01*
X64395499Y-76408653D01*
X64364737Y-76254003D01*
X64313296Y-76129812D01*
X64304397Y-76108327D01*
X64304390Y-76108314D01*
X64216789Y-75977211D01*
X64216786Y-75977207D01*
X64105292Y-75865713D01*
X64105288Y-75865710D01*
X63974185Y-75778109D01*
X63974172Y-75778102D01*
X63828501Y-75717764D01*
X63828489Y-75717761D01*
X63673845Y-75687000D01*
X63673842Y-75687000D01*
X63516158Y-75687000D01*
X63516155Y-75687000D01*
X63361510Y-75717761D01*
X63361498Y-75717764D01*
X63215827Y-75778102D01*
X63215814Y-75778109D01*
X63084711Y-75865710D01*
X63084707Y-75865713D01*
X62973213Y-75977207D01*
X62973210Y-75977211D01*
X62885609Y-76108314D01*
X62885602Y-76108327D01*
X62825264Y-76253998D01*
X62825261Y-76254010D01*
X62794500Y-76408653D01*
X57700500Y-76408653D01*
X57700500Y-74176153D01*
X59702000Y-74176153D01*
X59702000Y-74333846D01*
X59732761Y-74488489D01*
X59732764Y-74488501D01*
X59793102Y-74634172D01*
X59793109Y-74634185D01*
X59880710Y-74765288D01*
X59880713Y-74765292D01*
X59992207Y-74876786D01*
X59992211Y-74876789D01*
X60123314Y-74964390D01*
X60123327Y-74964397D01*
X60268998Y-75024735D01*
X60269003Y-75024737D01*
X60423653Y-75055499D01*
X60423656Y-75055500D01*
X60423658Y-75055500D01*
X60581344Y-75055500D01*
X60581345Y-75055499D01*
X60735997Y-75024737D01*
X60881679Y-74964394D01*
X61012789Y-74876789D01*
X61124289Y-74765289D01*
X61211894Y-74634179D01*
X61272237Y-74488497D01*
X61303000Y-74333842D01*
X61303000Y-74176158D01*
X61303000Y-74176155D01*
X61302999Y-74176153D01*
X61272238Y-74021510D01*
X61272237Y-74021503D01*
X61272235Y-74021498D01*
X61211897Y-73875827D01*
X61211890Y-73875814D01*
X61124289Y-73744711D01*
X61124286Y-73744707D01*
X61012792Y-73633213D01*
X61012788Y-73633210D01*
X60881685Y-73545609D01*
X60881672Y-73545602D01*
X60736001Y-73485264D01*
X60735989Y-73485261D01*
X60581345Y-73454500D01*
X60581342Y-73454500D01*
X60423658Y-73454500D01*
X60423655Y-73454500D01*
X60269010Y-73485261D01*
X60268998Y-73485264D01*
X60123327Y-73545602D01*
X60123314Y-73545609D01*
X59992211Y-73633210D01*
X59992207Y-73633213D01*
X59880713Y-73744707D01*
X59880710Y-73744711D01*
X59793109Y-73875814D01*
X59793102Y-73875827D01*
X59732764Y-74021498D01*
X59732761Y-74021510D01*
X59702000Y-74176153D01*
X57700500Y-74176153D01*
X57700500Y-69196153D01*
X64149500Y-69196153D01*
X64149500Y-69353846D01*
X64180261Y-69508489D01*
X64180264Y-69508501D01*
X64240602Y-69654172D01*
X64240609Y-69654185D01*
X64328210Y-69785288D01*
X64328213Y-69785292D01*
X64439707Y-69896786D01*
X64439711Y-69896789D01*
X64570814Y-69984390D01*
X64570827Y-69984397D01*
X64715185Y-70044191D01*
X64755414Y-70071071D01*
X64944181Y-70259838D01*
X64977666Y-70321161D01*
X64980500Y-70347519D01*
X64980500Y-78852006D01*
X64980500Y-78989994D01*
X64980500Y-78989996D01*
X64980499Y-78989996D01*
X65007418Y-79125322D01*
X65007421Y-79125332D01*
X65060222Y-79252807D01*
X65136887Y-79367545D01*
X65136888Y-79367546D01*
X76507295Y-90737952D01*
X76540780Y-90799275D01*
X76535796Y-90868967D01*
X76534176Y-90873083D01*
X76518263Y-90911501D01*
X76518260Y-90911511D01*
X76487500Y-91066153D01*
X76487500Y-91223846D01*
X76518261Y-91378489D01*
X76518264Y-91378501D01*
X76578602Y-91524172D01*
X76578609Y-91524185D01*
X76666210Y-91655288D01*
X76666213Y-91655292D01*
X76777707Y-91766786D01*
X76777711Y-91766789D01*
X76908814Y-91854390D01*
X76908827Y-91854397D01*
X77023953Y-91902083D01*
X77054503Y-91914737D01*
X77193820Y-91942449D01*
X77209153Y-91945499D01*
X77209156Y-91945500D01*
X77209158Y-91945500D01*
X77366844Y-91945500D01*
X77366845Y-91945499D01*
X77521497Y-91914737D01*
X77667179Y-91854394D01*
X77798289Y-91766789D01*
X77909789Y-91655289D01*
X77997394Y-91524179D01*
X78057737Y-91378497D01*
X78088500Y-91223842D01*
X78088500Y-91066158D01*
X78088500Y-91066155D01*
X78088499Y-91066153D01*
X78063357Y-90939758D01*
X78057737Y-90911503D01*
X78021317Y-90823576D01*
X77997939Y-90767136D01*
X77988500Y-90719684D01*
X77988500Y-90459004D01*
X77961581Y-90323677D01*
X77961580Y-90323676D01*
X77961580Y-90323672D01*
X77940739Y-90273356D01*
X77908778Y-90196195D01*
X77908774Y-90196188D01*
X77876542Y-90147949D01*
X77832114Y-90081457D01*
X77832112Y-90081454D01*
X77832109Y-90081451D01*
X75798548Y-88047891D01*
X75765063Y-87986568D01*
X75770047Y-87916876D01*
X75793126Y-87880976D01*
X75791928Y-87879993D01*
X75795790Y-87875288D01*
X75883394Y-87744179D01*
X75943737Y-87598497D01*
X75974500Y-87443842D01*
X75974500Y-87286158D01*
X75974500Y-87286155D01*
X75974499Y-87286153D01*
X75967855Y-87252754D01*
X75943737Y-87131503D01*
X75934950Y-87110289D01*
X75883397Y-86985827D01*
X75883390Y-86985814D01*
X75795789Y-86854711D01*
X75795786Y-86854707D01*
X75684292Y-86743213D01*
X75684288Y-86743210D01*
X75553185Y-86655609D01*
X75553172Y-86655602D01*
X75407501Y-86595264D01*
X75407489Y-86595261D01*
X75252845Y-86564500D01*
X75252842Y-86564500D01*
X75095158Y-86564500D01*
X75095155Y-86564500D01*
X74940510Y-86595261D01*
X74940498Y-86595264D01*
X74794827Y-86655602D01*
X74794814Y-86655609D01*
X74663714Y-86743208D01*
X74659007Y-86747072D01*
X74657569Y-86745320D01*
X74605108Y-86773945D01*
X74535418Y-86768938D01*
X74491108Y-86740451D01*
X72651810Y-84901153D01*
X81284500Y-84901153D01*
X81284500Y-85058846D01*
X81315261Y-85213489D01*
X81315264Y-85213501D01*
X81375602Y-85359172D01*
X81375609Y-85359185D01*
X81463210Y-85490288D01*
X81463213Y-85490292D01*
X81574707Y-85601786D01*
X81574711Y-85601789D01*
X81705814Y-85689390D01*
X81705827Y-85689397D01*
X81849704Y-85748992D01*
X81851503Y-85749737D01*
X81994661Y-85778213D01*
X82006153Y-85780499D01*
X82006156Y-85780500D01*
X82006158Y-85780500D01*
X82163844Y-85780500D01*
X82163845Y-85780499D01*
X82318497Y-85749737D01*
X82464179Y-85689394D01*
X82595289Y-85601789D01*
X82706789Y-85490289D01*
X82794394Y-85359179D01*
X82854737Y-85213497D01*
X82885500Y-85058842D01*
X82885500Y-84901158D01*
X82885500Y-84901155D01*
X82885499Y-84901153D01*
X82854738Y-84746510D01*
X82854737Y-84746503D01*
X82829842Y-84686401D01*
X82794397Y-84600827D01*
X82794390Y-84600814D01*
X82706789Y-84469711D01*
X82706786Y-84469707D01*
X82595292Y-84358213D01*
X82595288Y-84358210D01*
X82464185Y-84270609D01*
X82464172Y-84270602D01*
X82318501Y-84210264D01*
X82318489Y-84210261D01*
X82163845Y-84179500D01*
X82163842Y-84179500D01*
X82006158Y-84179500D01*
X82006155Y-84179500D01*
X81851510Y-84210261D01*
X81851498Y-84210264D01*
X81705827Y-84270602D01*
X81705814Y-84270609D01*
X81574711Y-84358210D01*
X81574707Y-84358213D01*
X81463213Y-84469707D01*
X81463210Y-84469711D01*
X81375609Y-84600814D01*
X81375602Y-84600827D01*
X81315264Y-84746498D01*
X81315261Y-84746510D01*
X81284500Y-84901153D01*
X72651810Y-84901153D01*
X66417819Y-78667162D01*
X66384334Y-78605839D01*
X66381500Y-78579481D01*
X66381500Y-72546153D01*
X88304500Y-72546153D01*
X88304500Y-72703846D01*
X88335261Y-72858489D01*
X88335264Y-72858501D01*
X88395602Y-73004172D01*
X88395609Y-73004185D01*
X88483210Y-73135288D01*
X88483213Y-73135292D01*
X88594707Y-73246786D01*
X88594711Y-73246789D01*
X88725814Y-73334390D01*
X88725827Y-73334397D01*
X88871498Y-73394735D01*
X88871503Y-73394737D01*
X89026153Y-73425499D01*
X89026156Y-73425500D01*
X89026158Y-73425500D01*
X89183844Y-73425500D01*
X89183845Y-73425499D01*
X89338497Y-73394737D01*
X89484179Y-73334394D01*
X89615289Y-73246789D01*
X89726789Y-73135289D01*
X89814394Y-73004179D01*
X89874737Y-72858497D01*
X89905500Y-72703842D01*
X89905500Y-72546158D01*
X89905500Y-72546155D01*
X89905499Y-72546153D01*
X89874738Y-72391510D01*
X89874737Y-72391503D01*
X89874735Y-72391498D01*
X89814397Y-72245827D01*
X89814390Y-72245814D01*
X89726789Y-72114711D01*
X89726786Y-72114707D01*
X89615292Y-72003213D01*
X89615288Y-72003210D01*
X89484185Y-71915609D01*
X89484172Y-71915602D01*
X89338501Y-71855264D01*
X89338489Y-71855261D01*
X89183845Y-71824500D01*
X89183842Y-71824500D01*
X89026158Y-71824500D01*
X89026155Y-71824500D01*
X88871510Y-71855261D01*
X88871498Y-71855264D01*
X88725827Y-71915602D01*
X88725814Y-71915609D01*
X88594711Y-72003210D01*
X88594707Y-72003213D01*
X88483213Y-72114707D01*
X88483210Y-72114711D01*
X88395609Y-72245814D01*
X88395602Y-72245827D01*
X88335264Y-72391498D01*
X88335261Y-72391510D01*
X88304500Y-72546153D01*
X66381500Y-72546153D01*
X66381500Y-70641153D01*
X88334500Y-70641153D01*
X88334500Y-70798846D01*
X88365261Y-70953489D01*
X88365264Y-70953501D01*
X88425602Y-71099172D01*
X88425609Y-71099185D01*
X88513210Y-71230288D01*
X88513213Y-71230292D01*
X88624707Y-71341786D01*
X88624711Y-71341789D01*
X88755814Y-71429390D01*
X88755827Y-71429397D01*
X88901498Y-71489735D01*
X88901503Y-71489737D01*
X89056153Y-71520499D01*
X89056156Y-71520500D01*
X89056158Y-71520500D01*
X89213844Y-71520500D01*
X89213845Y-71520499D01*
X89368497Y-71489737D01*
X89514179Y-71429394D01*
X89645289Y-71341789D01*
X89756789Y-71230289D01*
X89844394Y-71099179D01*
X89904737Y-70953497D01*
X89935500Y-70798842D01*
X89935500Y-70641158D01*
X89935500Y-70641155D01*
X89935499Y-70641153D01*
X89904738Y-70486510D01*
X89904737Y-70486503D01*
X89904735Y-70486498D01*
X89844397Y-70340827D01*
X89844390Y-70340814D01*
X89756789Y-70209711D01*
X89756786Y-70209707D01*
X89645292Y-70098213D01*
X89645288Y-70098210D01*
X89514185Y-70010609D01*
X89514172Y-70010602D01*
X89368501Y-69950264D01*
X89368489Y-69950261D01*
X89213845Y-69919500D01*
X89213842Y-69919500D01*
X89056158Y-69919500D01*
X89056155Y-69919500D01*
X88901510Y-69950261D01*
X88901498Y-69950264D01*
X88755827Y-70010602D01*
X88755814Y-70010609D01*
X88624711Y-70098210D01*
X88624707Y-70098213D01*
X88513213Y-70209707D01*
X88513210Y-70209711D01*
X88425609Y-70340814D01*
X88425602Y-70340827D01*
X88365264Y-70486498D01*
X88365261Y-70486510D01*
X88334500Y-70641153D01*
X66381500Y-70641153D01*
X66381500Y-69937004D01*
X66354581Y-69801677D01*
X66354580Y-69801676D01*
X66354580Y-69801672D01*
X66301775Y-69674189D01*
X66288405Y-69654179D01*
X66225114Y-69559456D01*
X66225111Y-69559453D01*
X65746071Y-69080414D01*
X65719191Y-69040185D01*
X65659397Y-68895827D01*
X65659390Y-68895814D01*
X65571789Y-68764711D01*
X65571786Y-68764707D01*
X65460292Y-68653213D01*
X65460288Y-68653210D01*
X65329185Y-68565609D01*
X65329172Y-68565602D01*
X65183501Y-68505264D01*
X65183489Y-68505261D01*
X65028845Y-68474500D01*
X65028842Y-68474500D01*
X64871158Y-68474500D01*
X64871155Y-68474500D01*
X64716510Y-68505261D01*
X64716498Y-68505264D01*
X64570827Y-68565602D01*
X64570814Y-68565609D01*
X64439711Y-68653210D01*
X64439707Y-68653213D01*
X64328213Y-68764707D01*
X64328210Y-68764711D01*
X64240609Y-68895814D01*
X64240602Y-68895827D01*
X64180264Y-69041498D01*
X64180261Y-69041510D01*
X64149500Y-69196153D01*
X57700500Y-69196153D01*
X57700500Y-68328750D01*
X57700726Y-68321263D01*
X57704486Y-68259108D01*
X57718271Y-68031201D01*
X57720076Y-68016340D01*
X57758295Y-67807789D01*
X57771780Y-67734197D01*
X57775364Y-67719663D01*
X57778483Y-67709655D01*
X57860696Y-67445822D01*
X57865998Y-67431841D01*
X57983731Y-67170249D01*
X57990676Y-67157016D01*
X58139080Y-66911526D01*
X58147567Y-66899230D01*
X58324480Y-66673417D01*
X58334395Y-66662226D01*
X58537226Y-66459395D01*
X58548417Y-66449480D01*
X58774230Y-66272567D01*
X58786526Y-66264080D01*
X59032016Y-66115676D01*
X59045249Y-66108731D01*
X59306841Y-65990998D01*
X59320822Y-65985696D01*
X59594668Y-65900362D01*
X59609197Y-65896780D01*
X59891344Y-65845075D01*
X59906201Y-65843271D01*
X60196264Y-65825726D01*
X60203751Y-65825500D01*
X60265892Y-65825500D01*
X94134108Y-65825500D01*
X94196249Y-65825500D01*
X94203736Y-65825726D01*
G37*
%TD.AperFunction*%
%TA.AperFunction,Conductor*%
G36*
X86999391Y-87228257D02*
G01*
X87120814Y-87309390D01*
X87120827Y-87309397D01*
X87266498Y-87369735D01*
X87266503Y-87369737D01*
X87360645Y-87388463D01*
X87400691Y-87396429D01*
X87462602Y-87428814D01*
X87497176Y-87489529D01*
X87500500Y-87518046D01*
X87500500Y-88301846D01*
X87480815Y-88368885D01*
X87428011Y-88414640D01*
X87358853Y-88424584D01*
X87295297Y-88395559D01*
X87288819Y-88389527D01*
X86842819Y-87943527D01*
X86809334Y-87882204D01*
X86806500Y-87855846D01*
X86806500Y-87331359D01*
X86826185Y-87264320D01*
X86878989Y-87218565D01*
X86948147Y-87208621D01*
X86999391Y-87228257D01*
G37*
%TD.AperFunction*%
%TD*%
M02*
