%TF.GenerationSoftware,KiCad,Pcbnew,9.0.0*%
%TF.CreationDate,2025-04-10T21:45:59-06:00*%
%TF.ProjectId,esp32,65737033-322e-46b6-9963-61645f706362,rev?*%
%TF.SameCoordinates,Original*%
%TF.FileFunction,Legend,Bot*%
%TF.FilePolarity,Positive*%
%FSLAX46Y46*%
G04 Gerber Fmt 4.6, Leading zero omitted, Abs format (unit mm)*
G04 Created by KiCad (PCBNEW 9.0.0) date 2025-04-10 21:45:59*
%MOMM*%
%LPD*%
G01*
G04 APERTURE LIST*
G04 Aperture macros list*
%AMRoundRect*
0 Rectangle with rounded corners*
0 $1 Rounding radius*
0 $2 $3 $4 $5 $6 $7 $8 $9 X,Y pos of 4 corners*
0 Add a 4 corners polygon primitive as box body*
4,1,4,$2,$3,$4,$5,$6,$7,$8,$9,$2,$3,0*
0 Add four circle primitives for the rounded corners*
1,1,$1+$1,$2,$3*
1,1,$1+$1,$4,$5*
1,1,$1+$1,$6,$7*
1,1,$1+$1,$8,$9*
0 Add four rect primitives between the rounded corners*
20,1,$1+$1,$2,$3,$4,$5,0*
20,1,$1+$1,$4,$5,$6,$7,0*
20,1,$1+$1,$6,$7,$8,$9,0*
20,1,$1+$1,$8,$9,$2,$3,0*%
%AMFreePoly0*
4,1,23,0.550000,-0.750000,0.000000,-0.750000,0.000000,-0.745722,-0.065263,-0.745722,-0.191342,-0.711940,-0.304381,-0.646677,-0.396677,-0.554381,-0.461940,-0.441342,-0.495722,-0.315263,-0.495722,-0.250000,-0.500000,-0.250000,-0.500000,0.250000,-0.495722,0.250000,-0.495722,0.315263,-0.461940,0.441342,-0.396677,0.554381,-0.304381,0.646677,-0.191342,0.711940,-0.065263,0.745722,0.000000,0.745722,
0.000000,0.750000,0.550000,0.750000,0.550000,-0.750000,0.550000,-0.750000,$1*%
%AMFreePoly1*
4,1,23,0.000000,0.745722,0.065263,0.745722,0.191342,0.711940,0.304381,0.646677,0.396677,0.554381,0.461940,0.441342,0.495722,0.315263,0.495722,0.250000,0.500000,0.250000,0.500000,-0.250000,0.495722,-0.250000,0.495722,-0.315263,0.461940,-0.441342,0.396677,-0.554381,0.304381,-0.646677,0.191342,-0.711940,0.065263,-0.745722,0.000000,-0.745722,0.000000,-0.750000,-0.550000,-0.750000,
-0.550000,0.750000,0.000000,0.750000,0.000000,0.745722,0.000000,0.745722,$1*%
G04 Aperture macros list end*
%ADD10C,0.125000*%
%ADD11C,0.150000*%
%ADD12C,0.120000*%
%ADD13R,1.700000X1.700000*%
%ADD14O,1.700000X1.700000*%
%ADD15C,0.650000*%
%ADD16O,1.000000X2.100000*%
%ADD17O,1.000000X1.600000*%
%ADD18RoundRect,0.250001X1.149999X1.149999X-1.149999X1.149999X-1.149999X-1.149999X1.149999X-1.149999X0*%
%ADD19C,2.800000*%
%ADD20FreePoly0,90.000000*%
%ADD21R,1.500000X1.000000*%
%ADD22FreePoly1,90.000000*%
%ADD23R,1.000000X1.000000*%
%ADD24FreePoly0,270.000000*%
%ADD25FreePoly1,270.000000*%
G04 APERTURE END LIST*
D10*
G36*
X86539884Y-73258438D02*
G01*
X86573157Y-73291711D01*
X86609643Y-73364683D01*
X86609643Y-73620887D01*
X86573157Y-73693857D01*
X86539881Y-73727134D01*
X86466912Y-73763619D01*
X86305946Y-73763619D01*
X86258453Y-73739872D01*
X86258453Y-73245698D01*
X86305946Y-73221952D01*
X86466912Y-73221952D01*
X86539884Y-73258438D01*
G37*
G36*
X67691809Y-73501068D02*
G01*
X67694828Y-73501894D01*
X67695842Y-73502908D01*
X67705669Y-73504862D01*
X67715330Y-73507508D01*
X67716688Y-73507055D01*
X67719760Y-73507666D01*
X67943100Y-73507666D01*
X68006508Y-73539370D01*
X68038212Y-73602778D01*
X68038212Y-73668507D01*
X68006508Y-73731915D01*
X67943100Y-73763619D01*
X67734515Y-73763619D01*
X67687022Y-73739872D01*
X67687022Y-73498674D01*
X67691809Y-73501068D01*
G37*
G36*
X69977524Y-73501068D02*
G01*
X69980543Y-73501894D01*
X69981557Y-73502908D01*
X69991384Y-73504862D01*
X70001045Y-73507508D01*
X70002403Y-73507055D01*
X70005475Y-73507666D01*
X70228815Y-73507666D01*
X70292223Y-73539370D01*
X70323927Y-73602778D01*
X70323927Y-73668507D01*
X70292223Y-73731915D01*
X70228815Y-73763619D01*
X70020230Y-73763619D01*
X69972737Y-73739872D01*
X69972737Y-73498674D01*
X69977524Y-73501068D01*
G37*
G36*
X72644191Y-73501068D02*
G01*
X72647210Y-73501894D01*
X72648224Y-73502908D01*
X72658051Y-73504862D01*
X72667712Y-73507508D01*
X72669070Y-73507055D01*
X72672142Y-73507666D01*
X72895482Y-73507666D01*
X72958890Y-73539370D01*
X72990594Y-73602778D01*
X72990594Y-73668507D01*
X72958890Y-73731915D01*
X72895482Y-73763619D01*
X72686897Y-73763619D01*
X72639404Y-73739872D01*
X72639404Y-73498674D01*
X72644191Y-73501068D01*
G37*
G36*
X75158931Y-73258438D02*
G01*
X75192204Y-73291711D01*
X75228690Y-73364683D01*
X75228690Y-73620887D01*
X75192204Y-73693857D01*
X75158928Y-73727134D01*
X75085959Y-73763619D01*
X74972612Y-73763619D01*
X74899642Y-73727134D01*
X74866366Y-73693857D01*
X74829881Y-73620887D01*
X74829881Y-73364683D01*
X74866367Y-73291711D01*
X74899640Y-73258438D01*
X74972612Y-73221952D01*
X75085959Y-73221952D01*
X75158931Y-73258438D01*
G37*
G36*
X77292225Y-73253656D02*
G01*
X77323929Y-73317064D01*
X77323929Y-73416547D01*
X76972739Y-73346309D01*
X76972739Y-73317064D01*
X77004443Y-73253656D01*
X77067851Y-73221952D01*
X77228817Y-73221952D01*
X77292225Y-73253656D01*
G37*
G36*
X80539884Y-73258438D02*
G01*
X80573157Y-73291711D01*
X80609643Y-73364683D01*
X80609643Y-73620887D01*
X80573157Y-73693857D01*
X80539881Y-73727134D01*
X80466912Y-73763619D01*
X80353565Y-73763619D01*
X80280595Y-73727134D01*
X80247319Y-73693857D01*
X80210834Y-73620887D01*
X80210834Y-73364683D01*
X80247320Y-73291711D01*
X80280593Y-73258438D01*
X80353565Y-73221952D01*
X80466912Y-73221952D01*
X80539884Y-73258438D01*
G37*
G36*
X82800119Y-73245698D02*
G01*
X82800119Y-73739872D01*
X82752626Y-73763619D01*
X82591660Y-73763619D01*
X82518690Y-73727134D01*
X82485414Y-73693857D01*
X82448929Y-73620887D01*
X82448929Y-73364683D01*
X82485415Y-73291711D01*
X82518688Y-73258438D01*
X82591660Y-73221952D01*
X82752626Y-73221952D01*
X82800119Y-73245698D01*
G37*
G36*
X75277978Y-71315161D02*
G01*
X75311251Y-71348434D01*
X75351267Y-71428467D01*
X75395356Y-71604821D01*
X75395356Y-71827528D01*
X75351267Y-72003882D01*
X75311251Y-72083913D01*
X75277975Y-72117190D01*
X75205006Y-72153675D01*
X75139278Y-72153675D01*
X75066308Y-72117190D01*
X75033032Y-72083913D01*
X74993016Y-72003882D01*
X74948928Y-71827527D01*
X74948928Y-71604821D01*
X74993016Y-71428466D01*
X75033033Y-71348434D01*
X75066306Y-71315161D01*
X75139278Y-71278675D01*
X75205006Y-71278675D01*
X75277978Y-71315161D01*
G37*
G36*
X79418760Y-71867960D02*
G01*
X79116000Y-71867960D01*
X79267380Y-71413818D01*
X79418760Y-71867960D01*
G37*
G36*
X78538213Y-71677484D02*
G01*
X78234516Y-71677484D01*
X78161544Y-71640998D01*
X78128271Y-71607725D01*
X78091785Y-71534753D01*
X78091785Y-71421406D01*
X78128271Y-71348434D01*
X78161544Y-71315161D01*
X78234516Y-71278675D01*
X78538213Y-71278675D01*
X78538213Y-71677484D01*
G37*
G36*
X75825597Y-69705217D02*
G01*
X75858870Y-69738490D01*
X75898886Y-69818523D01*
X75942975Y-69994877D01*
X75942975Y-70217584D01*
X75898886Y-70393938D01*
X75858870Y-70473969D01*
X75825594Y-70507246D01*
X75752625Y-70543731D01*
X75686897Y-70543731D01*
X75613927Y-70507246D01*
X75580651Y-70473969D01*
X75540635Y-70393938D01*
X75496547Y-70217583D01*
X75496547Y-69994877D01*
X75540635Y-69818522D01*
X75580652Y-69738490D01*
X75613925Y-69705217D01*
X75686897Y-69668731D01*
X75752625Y-69668731D01*
X75825597Y-69705217D01*
G37*
G36*
X78347737Y-68933787D02*
G01*
X78182285Y-68933787D01*
X78063047Y-68894041D01*
X77985414Y-68816408D01*
X77945397Y-68736375D01*
X77901309Y-68560020D01*
X77901309Y-68432552D01*
X77945397Y-68256197D01*
X77985414Y-68176165D01*
X78063045Y-68098533D01*
X78182285Y-68058787D01*
X78347737Y-68058787D01*
X78347737Y-68933787D01*
G37*
G36*
X74728689Y-68457596D02*
G01*
X74424992Y-68457596D01*
X74352020Y-68421110D01*
X74318747Y-68387837D01*
X74282261Y-68314865D01*
X74282261Y-68201518D01*
X74318747Y-68128546D01*
X74352020Y-68095273D01*
X74424992Y-68058787D01*
X74728689Y-68058787D01*
X74728689Y-68457596D01*
G37*
G36*
X86845754Y-74333063D02*
G01*
X66693764Y-74333063D01*
X66693764Y-73135534D01*
X66804875Y-73135534D01*
X66804875Y-73183370D01*
X66838699Y-73217194D01*
X66862617Y-73221952D01*
X66943100Y-73221952D01*
X67016072Y-73258438D01*
X67049345Y-73291711D01*
X67085831Y-73364683D01*
X67085831Y-73826119D01*
X67090589Y-73850037D01*
X67124413Y-73883861D01*
X67172249Y-73883861D01*
X67206073Y-73850037D01*
X67210831Y-73826119D01*
X67210831Y-73302309D01*
X67562022Y-73302309D01*
X67562022Y-73826119D01*
X67566780Y-73850037D01*
X67600604Y-73883861D01*
X67648440Y-73883861D01*
X67664123Y-73868178D01*
X67691809Y-73882021D01*
X67694828Y-73882847D01*
X67695842Y-73883861D01*
X67705669Y-73885815D01*
X67715330Y-73888461D01*
X67716688Y-73888008D01*
X67719760Y-73888619D01*
X67957855Y-73888619D01*
X67960926Y-73888008D01*
X67962285Y-73888461D01*
X67971945Y-73885815D01*
X67981773Y-73883861D01*
X67982786Y-73882847D01*
X67985806Y-73882021D01*
X68081044Y-73834402D01*
X68090874Y-73826771D01*
X68094043Y-73825716D01*
X68096781Y-73822188D01*
X68100309Y-73819450D01*
X68101364Y-73816281D01*
X68108995Y-73806451D01*
X68156614Y-73711212D01*
X68157440Y-73708192D01*
X68158454Y-73707179D01*
X68160408Y-73697351D01*
X68163054Y-73687691D01*
X68162601Y-73686332D01*
X68163212Y-73683261D01*
X68163212Y-73588023D01*
X68162601Y-73584951D01*
X68163054Y-73583593D01*
X68160408Y-73573932D01*
X68158454Y-73564105D01*
X68157440Y-73563091D01*
X68156614Y-73560072D01*
X68108995Y-73464834D01*
X68101364Y-73455003D01*
X68100309Y-73451835D01*
X68096781Y-73449096D01*
X68094043Y-73445569D01*
X68090874Y-73444513D01*
X68081044Y-73436883D01*
X67985806Y-73389264D01*
X67982786Y-73388437D01*
X67981773Y-73387424D01*
X67971945Y-73385469D01*
X67962285Y-73382824D01*
X67960926Y-73383276D01*
X67957855Y-73382666D01*
X67734515Y-73382666D01*
X67687022Y-73358919D01*
X67687022Y-73317064D01*
X67718726Y-73253656D01*
X67782134Y-73221952D01*
X67943100Y-73221952D01*
X68025142Y-73262973D01*
X68048663Y-73269413D01*
X68094042Y-73254287D01*
X68115435Y-73211501D01*
X68100309Y-73166121D01*
X68081044Y-73151169D01*
X68049774Y-73135534D01*
X68328685Y-73135534D01*
X68328685Y-73183370D01*
X68362509Y-73217194D01*
X68386427Y-73221952D01*
X68562022Y-73221952D01*
X68562022Y-73668507D01*
X68530318Y-73731915D01*
X68466910Y-73763619D01*
X68386427Y-73763619D01*
X68362509Y-73768377D01*
X68328685Y-73802201D01*
X68328685Y-73850037D01*
X68362509Y-73883861D01*
X68386427Y-73888619D01*
X68481665Y-73888619D01*
X68484736Y-73888008D01*
X68486095Y-73888461D01*
X68495755Y-73885815D01*
X68505583Y-73883861D01*
X68506596Y-73882847D01*
X68509616Y-73882021D01*
X68604854Y-73834402D01*
X68614684Y-73826771D01*
X68617853Y-73825716D01*
X68620591Y-73822188D01*
X68624119Y-73819450D01*
X68625174Y-73816281D01*
X68629578Y-73810608D01*
X68992550Y-73810608D01*
X68999314Y-73857962D01*
X69037583Y-73886663D01*
X69084937Y-73879899D01*
X69103094Y-73863619D01*
X69345569Y-73540316D01*
X69371546Y-73566292D01*
X69371546Y-73826119D01*
X69376304Y-73850037D01*
X69410128Y-73883861D01*
X69457964Y-73883861D01*
X69491788Y-73850037D01*
X69496546Y-73826119D01*
X69496546Y-73302309D01*
X69847737Y-73302309D01*
X69847737Y-73826119D01*
X69852495Y-73850037D01*
X69886319Y-73883861D01*
X69934155Y-73883861D01*
X69949838Y-73868178D01*
X69977524Y-73882021D01*
X69980543Y-73882847D01*
X69981557Y-73883861D01*
X69991384Y-73885815D01*
X70001045Y-73888461D01*
X70002403Y-73888008D01*
X70005475Y-73888619D01*
X70243570Y-73888619D01*
X70246641Y-73888008D01*
X70248000Y-73888461D01*
X70257660Y-73885815D01*
X70267488Y-73883861D01*
X70268501Y-73882847D01*
X70271521Y-73882021D01*
X70366759Y-73834402D01*
X70376589Y-73826771D01*
X70379758Y-73825716D01*
X70382496Y-73822188D01*
X70386024Y-73819450D01*
X70387079Y-73816281D01*
X70394710Y-73806451D01*
X70442329Y-73711212D01*
X70443155Y-73708192D01*
X70444169Y-73707179D01*
X70446123Y-73697351D01*
X70448769Y-73687691D01*
X70448316Y-73686332D01*
X70448927Y-73683261D01*
X70448927Y-73588023D01*
X70448316Y-73584951D01*
X70448769Y-73583593D01*
X70446123Y-73573932D01*
X70444169Y-73564105D01*
X70443155Y-73563091D01*
X70442329Y-73560072D01*
X70394710Y-73464834D01*
X70387079Y-73455003D01*
X70386024Y-73451835D01*
X70382496Y-73449096D01*
X70379758Y-73445569D01*
X70376589Y-73444513D01*
X70366759Y-73436883D01*
X70271521Y-73389264D01*
X70268501Y-73388437D01*
X70267488Y-73387424D01*
X70257660Y-73385469D01*
X70248000Y-73382824D01*
X70246641Y-73383276D01*
X70243570Y-73382666D01*
X70020230Y-73382666D01*
X69972737Y-73358919D01*
X69972737Y-73317064D01*
X70004441Y-73253656D01*
X70067849Y-73221952D01*
X70228815Y-73221952D01*
X70310857Y-73262973D01*
X70334378Y-73269413D01*
X70379757Y-73254287D01*
X70401150Y-73211501D01*
X70705038Y-73211501D01*
X70726430Y-73254287D01*
X70771810Y-73269413D01*
X70795331Y-73262973D01*
X70877373Y-73221952D01*
X71038339Y-73221952D01*
X71111311Y-73258438D01*
X71144584Y-73291711D01*
X71181070Y-73364683D01*
X71181070Y-73620887D01*
X71144584Y-73693857D01*
X71111308Y-73727134D01*
X71038339Y-73763619D01*
X70877373Y-73763619D01*
X70795331Y-73722598D01*
X70771810Y-73716158D01*
X70726430Y-73731284D01*
X70705038Y-73774070D01*
X70720164Y-73819450D01*
X70739429Y-73834402D01*
X70834667Y-73882021D01*
X70837686Y-73882847D01*
X70838700Y-73883861D01*
X70848527Y-73885815D01*
X70858188Y-73888461D01*
X70859546Y-73888008D01*
X70862618Y-73888619D01*
X71053094Y-73888619D01*
X71056165Y-73888008D01*
X71057524Y-73888461D01*
X71067184Y-73885815D01*
X71077012Y-73883861D01*
X71078025Y-73882847D01*
X71081045Y-73882021D01*
X71176283Y-73834402D01*
X71184198Y-73828258D01*
X71192527Y-73822694D01*
X71240146Y-73775074D01*
X71245709Y-73766746D01*
X71251853Y-73758831D01*
X71299472Y-73663593D01*
X71300298Y-73660573D01*
X71301312Y-73659560D01*
X71303266Y-73649732D01*
X71305912Y-73640072D01*
X71305459Y-73638713D01*
X71306070Y-73635642D01*
X71306070Y-73349928D01*
X71305459Y-73346856D01*
X71305912Y-73345498D01*
X71303266Y-73335837D01*
X71301312Y-73326010D01*
X71300298Y-73324996D01*
X71299472Y-73321977D01*
X71289638Y-73302309D01*
X71609642Y-73302309D01*
X71609642Y-73826119D01*
X71614400Y-73850037D01*
X71648224Y-73883861D01*
X71696060Y-73883861D01*
X71729884Y-73850037D01*
X71734642Y-73826119D01*
X71734642Y-73317064D01*
X71766346Y-73253656D01*
X71829754Y-73221952D01*
X71943101Y-73221952D01*
X72016073Y-73258438D01*
X72038213Y-73280578D01*
X72038213Y-73826119D01*
X72042971Y-73850037D01*
X72076795Y-73883861D01*
X72124631Y-73883861D01*
X72158455Y-73850037D01*
X72163213Y-73826119D01*
X72163213Y-73302309D01*
X72514404Y-73302309D01*
X72514404Y-73826119D01*
X72519162Y-73850037D01*
X72552986Y-73883861D01*
X72600822Y-73883861D01*
X72616505Y-73868178D01*
X72644191Y-73882021D01*
X72647210Y-73882847D01*
X72648224Y-73883861D01*
X72658051Y-73885815D01*
X72667712Y-73888461D01*
X72669070Y-73888008D01*
X72672142Y-73888619D01*
X72910237Y-73888619D01*
X72913308Y-73888008D01*
X72914667Y-73888461D01*
X72924327Y-73885815D01*
X72934155Y-73883861D01*
X72935168Y-73882847D01*
X72938188Y-73882021D01*
X73033426Y-73834402D01*
X73043256Y-73826771D01*
X73046425Y-73825716D01*
X73049163Y-73822188D01*
X73052691Y-73819450D01*
X73053746Y-73816281D01*
X73061377Y-73806451D01*
X73108996Y-73711212D01*
X73109822Y-73708192D01*
X73110836Y-73707179D01*
X73112790Y-73697351D01*
X73115436Y-73687691D01*
X73114983Y-73686332D01*
X73115594Y-73683261D01*
X73115594Y-73635642D01*
X73371547Y-73635642D01*
X73371547Y-73683261D01*
X73372157Y-73686332D01*
X73371705Y-73687691D01*
X73374350Y-73697351D01*
X73376305Y-73707179D01*
X73377318Y-73708192D01*
X73378145Y-73711212D01*
X73425764Y-73806450D01*
X73433393Y-73816281D01*
X73434450Y-73819450D01*
X73437978Y-73822188D01*
X73440716Y-73825716D01*
X73443884Y-73826771D01*
X73453715Y-73834402D01*
X73548953Y-73882021D01*
X73551972Y-73882847D01*
X73552986Y-73883861D01*
X73562813Y-73885815D01*
X73572474Y-73888461D01*
X73573832Y-73888008D01*
X73576904Y-73888619D01*
X73767380Y-73888619D01*
X73770451Y-73888008D01*
X73771810Y-73888461D01*
X73781470Y-73885815D01*
X73791298Y-73883861D01*
X73792311Y-73882847D01*
X73795331Y-73882021D01*
X73890569Y-73834402D01*
X73895533Y-73830549D01*
X74133610Y-73830549D01*
X74155002Y-73873335D01*
X74200382Y-73888461D01*
X74223903Y-73882021D01*
X74319141Y-73834402D01*
X74328971Y-73826771D01*
X74332140Y-73825716D01*
X74334878Y-73822188D01*
X74338406Y-73819450D01*
X74339461Y-73816281D01*
X74347092Y-73806451D01*
X74394711Y-73711212D01*
X74395537Y-73708192D01*
X74396551Y-73707179D01*
X74398505Y-73697351D01*
X74401151Y-73687691D01*
X74400698Y-73686332D01*
X74401309Y-73683261D01*
X74401309Y-73349928D01*
X74704881Y-73349928D01*
X74704881Y-73635642D01*
X74705491Y-73638713D01*
X74705039Y-73640072D01*
X74707684Y-73649732D01*
X74709639Y-73659560D01*
X74710652Y-73660573D01*
X74711479Y-73663593D01*
X74759098Y-73758831D01*
X74765238Y-73766742D01*
X74770805Y-73775074D01*
X74818424Y-73822694D01*
X74826752Y-73828258D01*
X74834668Y-73834402D01*
X74929906Y-73882021D01*
X74932925Y-73882847D01*
X74933939Y-73883861D01*
X74943766Y-73885815D01*
X74953427Y-73888461D01*
X74954785Y-73888008D01*
X74957857Y-73888619D01*
X75100714Y-73888619D01*
X75103785Y-73888008D01*
X75105144Y-73888461D01*
X75114804Y-73885815D01*
X75124632Y-73883861D01*
X75125645Y-73882847D01*
X75128665Y-73882021D01*
X75223903Y-73834402D01*
X75231818Y-73828258D01*
X75240147Y-73822694D01*
X75287766Y-73775074D01*
X75293329Y-73766746D01*
X75299473Y-73758831D01*
X75347092Y-73663593D01*
X75347918Y-73660573D01*
X75348932Y-73659560D01*
X75350886Y-73649732D01*
X75353532Y-73640072D01*
X75353079Y-73638713D01*
X75353690Y-73635642D01*
X75353690Y-73349928D01*
X75353079Y-73346856D01*
X75353532Y-73345498D01*
X75350886Y-73335837D01*
X75348932Y-73326010D01*
X75347918Y-73324996D01*
X75347092Y-73321977D01*
X75299473Y-73226739D01*
X75293325Y-73218817D01*
X75287765Y-73210496D01*
X75240146Y-73162877D01*
X75231824Y-73157316D01*
X75223903Y-73151169D01*
X75192633Y-73135534D01*
X75519163Y-73135534D01*
X75519163Y-73183370D01*
X75552987Y-73217194D01*
X75576905Y-73221952D01*
X75657388Y-73221952D01*
X75730360Y-73258438D01*
X75763633Y-73291711D01*
X75800119Y-73364683D01*
X75800119Y-73826119D01*
X75804877Y-73850037D01*
X75838701Y-73883861D01*
X75886537Y-73883861D01*
X75920361Y-73850037D01*
X75925119Y-73826119D01*
X75925119Y-73159452D01*
X75920361Y-73135534D01*
X76138211Y-73135534D01*
X76138211Y-73183370D01*
X76172035Y-73217194D01*
X76195953Y-73221952D01*
X76276436Y-73221952D01*
X76349408Y-73258438D01*
X76382681Y-73291711D01*
X76419167Y-73364683D01*
X76419167Y-73826119D01*
X76423925Y-73850037D01*
X76457749Y-73883861D01*
X76505585Y-73883861D01*
X76539409Y-73850037D01*
X76544167Y-73826119D01*
X76544167Y-73302309D01*
X76847739Y-73302309D01*
X76847739Y-73397547D01*
X76849541Y-73406608D01*
X76848928Y-73409676D01*
X76850672Y-73412292D01*
X76852497Y-73421465D01*
X76865366Y-73434334D01*
X76875461Y-73449477D01*
X76884096Y-73453064D01*
X76886321Y-73455289D01*
X76889451Y-73455289D01*
X76897982Y-73458833D01*
X77323929Y-73544022D01*
X77323929Y-73668507D01*
X77292225Y-73731915D01*
X77228817Y-73763619D01*
X77067851Y-73763619D01*
X76985809Y-73722598D01*
X76962288Y-73716158D01*
X76916908Y-73731284D01*
X76895516Y-73774070D01*
X76910642Y-73819450D01*
X76929907Y-73834402D01*
X77025145Y-73882021D01*
X77028164Y-73882847D01*
X77029178Y-73883861D01*
X77039005Y-73885815D01*
X77048666Y-73888461D01*
X77050024Y-73888008D01*
X77053096Y-73888619D01*
X77243572Y-73888619D01*
X77246643Y-73888008D01*
X77248002Y-73888461D01*
X77257662Y-73885815D01*
X77267490Y-73883861D01*
X77268503Y-73882847D01*
X77271523Y-73882021D01*
X77366761Y-73834402D01*
X77376591Y-73826771D01*
X77379760Y-73825716D01*
X77382498Y-73822188D01*
X77386026Y-73819450D01*
X77387081Y-73816281D01*
X77394712Y-73806451D01*
X77442331Y-73711212D01*
X77443157Y-73708192D01*
X77444171Y-73707179D01*
X77446125Y-73697351D01*
X77448771Y-73687691D01*
X77448318Y-73686332D01*
X77448929Y-73683261D01*
X77448929Y-73302309D01*
X77448318Y-73299237D01*
X77448771Y-73297879D01*
X77446125Y-73288218D01*
X77444171Y-73278391D01*
X77443157Y-73277377D01*
X77442331Y-73274358D01*
X77394712Y-73179120D01*
X77387081Y-73169289D01*
X77386026Y-73166121D01*
X77382498Y-73163382D01*
X77379760Y-73159855D01*
X77376591Y-73158799D01*
X77366761Y-73151169D01*
X77271523Y-73103550D01*
X77268503Y-73102723D01*
X77267490Y-73101710D01*
X77257662Y-73099755D01*
X77248002Y-73097110D01*
X77246643Y-73097562D01*
X77243572Y-73096952D01*
X77053096Y-73096952D01*
X77050024Y-73097562D01*
X77048666Y-73097110D01*
X77039005Y-73099755D01*
X77029178Y-73101710D01*
X77028164Y-73102723D01*
X77025145Y-73103550D01*
X76929907Y-73151169D01*
X76920076Y-73158799D01*
X76916908Y-73159855D01*
X76914169Y-73163382D01*
X76910642Y-73166121D01*
X76909586Y-73169289D01*
X76901956Y-73179120D01*
X76854337Y-73274358D01*
X76853510Y-73277377D01*
X76852497Y-73278391D01*
X76850542Y-73288218D01*
X76847897Y-73297879D01*
X76848349Y-73299237D01*
X76847739Y-73302309D01*
X76544167Y-73302309D01*
X76544167Y-73159452D01*
X76539409Y-73135534D01*
X76505585Y-73101710D01*
X76457749Y-73101710D01*
X76423925Y-73135534D01*
X76419954Y-73155495D01*
X76414380Y-73151169D01*
X76319142Y-73103550D01*
X76316122Y-73102723D01*
X76315109Y-73101710D01*
X76305281Y-73099755D01*
X76295621Y-73097110D01*
X76294262Y-73097562D01*
X76291191Y-73096952D01*
X76195953Y-73096952D01*
X76172035Y-73101710D01*
X76138211Y-73135534D01*
X75920361Y-73135534D01*
X75886537Y-73101710D01*
X75838701Y-73101710D01*
X75804877Y-73135534D01*
X75800906Y-73155495D01*
X75795332Y-73151169D01*
X75700094Y-73103550D01*
X75697074Y-73102723D01*
X75696061Y-73101710D01*
X75686233Y-73099755D01*
X75676573Y-73097110D01*
X75675214Y-73097562D01*
X75672143Y-73096952D01*
X75576905Y-73096952D01*
X75552987Y-73101710D01*
X75519163Y-73135534D01*
X75192633Y-73135534D01*
X75128665Y-73103550D01*
X75125645Y-73102723D01*
X75124632Y-73101710D01*
X75114804Y-73099755D01*
X75105144Y-73097110D01*
X75103785Y-73097562D01*
X75100714Y-73096952D01*
X74957857Y-73096952D01*
X74954785Y-73097562D01*
X74953427Y-73097110D01*
X74943766Y-73099755D01*
X74933939Y-73101710D01*
X74932925Y-73102723D01*
X74929906Y-73103550D01*
X74834668Y-73151169D01*
X74826746Y-73157316D01*
X74818425Y-73162877D01*
X74770806Y-73210496D01*
X74765245Y-73218817D01*
X74759098Y-73226739D01*
X74711479Y-73321977D01*
X74710652Y-73324996D01*
X74709639Y-73326010D01*
X74707684Y-73335837D01*
X74705039Y-73345498D01*
X74705491Y-73346856D01*
X74704881Y-73349928D01*
X74401309Y-73349928D01*
X74401309Y-72826119D01*
X74396551Y-72802201D01*
X74384978Y-72790628D01*
X77610832Y-72790628D01*
X77620141Y-72813169D01*
X78477283Y-74098883D01*
X78494509Y-74116145D01*
X78541415Y-74125526D01*
X78581217Y-74098991D01*
X78590598Y-74052086D01*
X78581289Y-74029546D01*
X78096465Y-73302309D01*
X78800119Y-73302309D01*
X78800119Y-73826119D01*
X78804877Y-73850037D01*
X78838701Y-73883861D01*
X78886537Y-73883861D01*
X78920361Y-73850037D01*
X78925119Y-73826119D01*
X78925119Y-73317064D01*
X78956823Y-73253656D01*
X79020231Y-73221952D01*
X79133579Y-73221952D01*
X79196987Y-73253656D01*
X79228691Y-73317064D01*
X79228691Y-73826119D01*
X79233449Y-73850037D01*
X79267273Y-73883861D01*
X79315109Y-73883861D01*
X79348933Y-73850037D01*
X79353691Y-73826119D01*
X79353691Y-73317064D01*
X79385395Y-73253656D01*
X79448803Y-73221952D01*
X79562150Y-73221952D01*
X79635122Y-73258438D01*
X79657262Y-73280578D01*
X79657262Y-73826119D01*
X79662020Y-73850037D01*
X79695844Y-73883861D01*
X79743680Y-73883861D01*
X79777504Y-73850037D01*
X79782262Y-73826119D01*
X79782262Y-73349928D01*
X80085834Y-73349928D01*
X80085834Y-73635642D01*
X80086444Y-73638713D01*
X80085992Y-73640072D01*
X80088637Y-73649732D01*
X80090592Y-73659560D01*
X80091605Y-73660573D01*
X80092432Y-73663593D01*
X80140051Y-73758831D01*
X80146191Y-73766742D01*
X80151758Y-73775074D01*
X80199377Y-73822694D01*
X80207705Y-73828258D01*
X80215621Y-73834402D01*
X80310859Y-73882021D01*
X80313878Y-73882847D01*
X80314892Y-73883861D01*
X80324719Y-73885815D01*
X80334380Y-73888461D01*
X80335738Y-73888008D01*
X80338810Y-73888619D01*
X80481667Y-73888619D01*
X80484738Y-73888008D01*
X80486097Y-73888461D01*
X80495757Y-73885815D01*
X80505585Y-73883861D01*
X80506598Y-73882847D01*
X80509618Y-73882021D01*
X80604856Y-73834402D01*
X80612771Y-73828258D01*
X80621100Y-73822694D01*
X80668719Y-73775074D01*
X80674282Y-73766746D01*
X80680426Y-73758831D01*
X80728045Y-73663593D01*
X80728871Y-73660573D01*
X80729885Y-73659560D01*
X80731839Y-73649732D01*
X80734485Y-73640072D01*
X80734032Y-73638713D01*
X80734643Y-73635642D01*
X80734643Y-73349928D01*
X80734032Y-73346856D01*
X80734485Y-73345498D01*
X80731839Y-73335837D01*
X80729885Y-73326010D01*
X80728871Y-73324996D01*
X80728045Y-73321977D01*
X80680426Y-73226739D01*
X80674278Y-73218817D01*
X80669390Y-73211501D01*
X80990754Y-73211501D01*
X81012146Y-73254287D01*
X81057526Y-73269413D01*
X81081047Y-73262973D01*
X81163089Y-73221952D01*
X81324055Y-73221952D01*
X81397027Y-73258438D01*
X81430300Y-73291711D01*
X81466786Y-73364683D01*
X81466786Y-73620887D01*
X81430300Y-73693857D01*
X81397024Y-73727134D01*
X81324055Y-73763619D01*
X81163089Y-73763619D01*
X81081047Y-73722598D01*
X81057526Y-73716158D01*
X81012146Y-73731284D01*
X80990754Y-73774070D01*
X81005880Y-73819450D01*
X81025145Y-73834402D01*
X81120383Y-73882021D01*
X81123402Y-73882847D01*
X81124416Y-73883861D01*
X81134243Y-73885815D01*
X81143904Y-73888461D01*
X81145262Y-73888008D01*
X81148334Y-73888619D01*
X81338810Y-73888619D01*
X81341881Y-73888008D01*
X81343240Y-73888461D01*
X81352900Y-73885815D01*
X81362728Y-73883861D01*
X81363741Y-73882847D01*
X81366761Y-73882021D01*
X81461999Y-73834402D01*
X81469914Y-73828258D01*
X81478243Y-73822694D01*
X81525862Y-73775074D01*
X81531425Y-73766746D01*
X81537569Y-73758831D01*
X81539693Y-73754583D01*
X81852495Y-73754583D01*
X81852496Y-73802418D01*
X81852498Y-73802420D01*
X81866044Y-73822694D01*
X81913663Y-73870313D01*
X81933936Y-73883858D01*
X81933939Y-73883861D01*
X81933940Y-73883861D01*
X81981774Y-73883861D01*
X81981775Y-73883861D01*
X81981777Y-73883858D01*
X82002051Y-73870313D01*
X82049670Y-73822694D01*
X82063215Y-73802420D01*
X82063218Y-73802418D01*
X82063218Y-73754583D01*
X82049671Y-73734306D01*
X82002052Y-73686686D01*
X81981775Y-73673138D01*
X81933940Y-73673137D01*
X81933939Y-73673138D01*
X81913662Y-73686686D01*
X81866043Y-73734306D01*
X81852495Y-73754583D01*
X81539693Y-73754583D01*
X81585188Y-73663593D01*
X81586014Y-73660573D01*
X81587028Y-73659560D01*
X81588982Y-73649732D01*
X81591628Y-73640072D01*
X81591175Y-73638713D01*
X81591786Y-73635642D01*
X81591786Y-73349928D01*
X82323929Y-73349928D01*
X82323929Y-73635642D01*
X82324539Y-73638713D01*
X82324087Y-73640072D01*
X82326732Y-73649732D01*
X82328687Y-73659560D01*
X82329700Y-73660573D01*
X82330527Y-73663593D01*
X82378146Y-73758831D01*
X82384286Y-73766742D01*
X82389853Y-73775074D01*
X82437472Y-73822694D01*
X82445800Y-73828258D01*
X82453716Y-73834402D01*
X82548954Y-73882021D01*
X82551973Y-73882847D01*
X82552987Y-73883861D01*
X82562814Y-73885815D01*
X82572475Y-73888461D01*
X82573833Y-73888008D01*
X82576905Y-73888619D01*
X82767381Y-73888619D01*
X82770452Y-73888008D01*
X82771811Y-73888461D01*
X82781471Y-73885815D01*
X82791299Y-73883861D01*
X82792312Y-73882847D01*
X82795332Y-73882021D01*
X82823018Y-73868178D01*
X82838701Y-73883861D01*
X82886537Y-73883861D01*
X82920361Y-73850037D01*
X82925119Y-73826119D01*
X82925119Y-73159452D01*
X83276310Y-73159452D01*
X83276310Y-73826119D01*
X83281068Y-73850037D01*
X83314892Y-73883861D01*
X83362728Y-73883861D01*
X83394284Y-73852305D01*
X83453716Y-73882021D01*
X83456735Y-73882847D01*
X83457749Y-73883861D01*
X83467576Y-73885815D01*
X83477237Y-73888461D01*
X83478595Y-73888008D01*
X83481667Y-73888619D01*
X83624524Y-73888619D01*
X83627595Y-73888008D01*
X83628954Y-73888461D01*
X83638614Y-73885815D01*
X83648442Y-73883861D01*
X83649455Y-73882847D01*
X83652475Y-73882021D01*
X83747713Y-73834402D01*
X83757543Y-73826771D01*
X83760712Y-73825716D01*
X83763450Y-73822188D01*
X83766978Y-73819450D01*
X83768033Y-73816281D01*
X83775664Y-73806451D01*
X83823283Y-73711212D01*
X83824109Y-73708192D01*
X83825123Y-73707179D01*
X83827077Y-73697351D01*
X83829723Y-73687691D01*
X83829270Y-73686332D01*
X83829881Y-73683261D01*
X83829881Y-73302309D01*
X84181072Y-73302309D01*
X84181072Y-73826119D01*
X84185830Y-73850037D01*
X84219654Y-73883861D01*
X84267490Y-73883861D01*
X84301314Y-73850037D01*
X84306072Y-73826119D01*
X84306072Y-73317064D01*
X84337776Y-73253656D01*
X84401184Y-73221952D01*
X84514531Y-73221952D01*
X84587503Y-73258438D01*
X84609643Y-73280578D01*
X84609643Y-73826119D01*
X84614401Y-73850037D01*
X84648225Y-73883861D01*
X84696061Y-73883861D01*
X84729885Y-73850037D01*
X84734643Y-73826119D01*
X84734643Y-73135534D01*
X84947735Y-73135534D01*
X84947735Y-73183370D01*
X84981559Y-73217194D01*
X85005477Y-73221952D01*
X85181072Y-73221952D01*
X85181072Y-73668507D01*
X85149368Y-73731915D01*
X85085960Y-73763619D01*
X85005477Y-73763619D01*
X84981559Y-73768377D01*
X84947735Y-73802201D01*
X84947735Y-73850037D01*
X84981559Y-73883861D01*
X85005477Y-73888619D01*
X85100715Y-73888619D01*
X85103786Y-73888008D01*
X85105145Y-73888461D01*
X85114805Y-73885815D01*
X85124633Y-73883861D01*
X85125646Y-73882847D01*
X85128666Y-73882021D01*
X85223904Y-73834402D01*
X85233734Y-73826771D01*
X85236903Y-73825716D01*
X85239641Y-73822188D01*
X85243169Y-73819450D01*
X85244224Y-73816281D01*
X85251855Y-73806451D01*
X85299474Y-73711212D01*
X85300300Y-73708192D01*
X85301314Y-73707179D01*
X85303268Y-73697351D01*
X85305914Y-73687691D01*
X85305461Y-73686332D01*
X85306072Y-73683261D01*
X85306072Y-73221952D01*
X85386429Y-73221952D01*
X85410347Y-73217194D01*
X85444171Y-73183370D01*
X85444171Y-73159452D01*
X85657262Y-73159452D01*
X85657262Y-73826119D01*
X85662020Y-73850037D01*
X85695844Y-73883861D01*
X85743680Y-73883861D01*
X85777504Y-73850037D01*
X85782262Y-73826119D01*
X85782262Y-73159452D01*
X86133453Y-73159452D01*
X86133453Y-73968976D01*
X86134063Y-73972047D01*
X86133611Y-73973406D01*
X86136256Y-73983066D01*
X86138211Y-73992894D01*
X86139224Y-73993907D01*
X86140051Y-73996927D01*
X86187670Y-74092165D01*
X86193817Y-74100086D01*
X86199378Y-74108408D01*
X86246997Y-74156027D01*
X86255318Y-74161587D01*
X86263240Y-74167735D01*
X86358478Y-74215354D01*
X86361497Y-74216180D01*
X86362511Y-74217194D01*
X86372338Y-74219148D01*
X86381999Y-74221794D01*
X86383357Y-74221341D01*
X86386429Y-74221952D01*
X86529286Y-74221952D01*
X86532357Y-74221341D01*
X86533716Y-74221794D01*
X86543376Y-74219148D01*
X86553204Y-74217194D01*
X86554217Y-74216180D01*
X86557237Y-74215354D01*
X86652475Y-74167735D01*
X86671740Y-74152783D01*
X86686866Y-74107403D01*
X86665473Y-74064617D01*
X86620094Y-74049491D01*
X86596573Y-74055931D01*
X86514531Y-74096952D01*
X86401184Y-74096952D01*
X86328212Y-74060466D01*
X86294939Y-74027193D01*
X86258453Y-73954221D01*
X86258453Y-73879627D01*
X86263240Y-73882021D01*
X86266259Y-73882847D01*
X86267273Y-73883861D01*
X86277100Y-73885815D01*
X86286761Y-73888461D01*
X86288119Y-73888008D01*
X86291191Y-73888619D01*
X86481667Y-73888619D01*
X86484738Y-73888008D01*
X86486097Y-73888461D01*
X86495757Y-73885815D01*
X86505585Y-73883861D01*
X86506598Y-73882847D01*
X86509618Y-73882021D01*
X86604856Y-73834402D01*
X86612771Y-73828258D01*
X86621100Y-73822694D01*
X86668719Y-73775074D01*
X86674282Y-73766746D01*
X86680426Y-73758831D01*
X86728045Y-73663593D01*
X86728871Y-73660573D01*
X86729885Y-73659560D01*
X86731839Y-73649732D01*
X86734485Y-73640072D01*
X86734032Y-73638713D01*
X86734643Y-73635642D01*
X86734643Y-73349928D01*
X86734032Y-73346856D01*
X86734485Y-73345498D01*
X86731839Y-73335837D01*
X86729885Y-73326010D01*
X86728871Y-73324996D01*
X86728045Y-73321977D01*
X86680426Y-73226739D01*
X86674278Y-73218817D01*
X86668718Y-73210496D01*
X86621099Y-73162877D01*
X86612777Y-73157316D01*
X86604856Y-73151169D01*
X86509618Y-73103550D01*
X86506598Y-73102723D01*
X86505585Y-73101710D01*
X86495757Y-73099755D01*
X86486097Y-73097110D01*
X86484738Y-73097562D01*
X86481667Y-73096952D01*
X86291191Y-73096952D01*
X86288119Y-73097562D01*
X86286761Y-73097110D01*
X86277100Y-73099755D01*
X86267273Y-73101710D01*
X86266259Y-73102723D01*
X86263240Y-73103550D01*
X86235554Y-73117393D01*
X86219871Y-73101710D01*
X86172035Y-73101710D01*
X86138211Y-73135534D01*
X86133453Y-73159452D01*
X85782262Y-73159452D01*
X85777504Y-73135534D01*
X85743680Y-73101710D01*
X85695844Y-73101710D01*
X85662020Y-73135534D01*
X85657262Y-73159452D01*
X85444171Y-73159452D01*
X85444171Y-73135534D01*
X85410347Y-73101710D01*
X85386429Y-73096952D01*
X85306072Y-73096952D01*
X85306072Y-72849821D01*
X85614401Y-72849821D01*
X85614401Y-72897655D01*
X85627949Y-72917932D01*
X85675568Y-72965551D01*
X85695841Y-72979096D01*
X85695844Y-72979099D01*
X85695845Y-72979099D01*
X85743679Y-72979099D01*
X85743680Y-72979099D01*
X85743682Y-72979096D01*
X85763956Y-72965551D01*
X85811575Y-72917932D01*
X85825123Y-72897655D01*
X85825123Y-72849821D01*
X85811575Y-72829544D01*
X85763956Y-72781925D01*
X85743682Y-72768379D01*
X85743680Y-72768377D01*
X85695844Y-72768377D01*
X85695841Y-72768379D01*
X85675568Y-72781925D01*
X85627949Y-72829544D01*
X85614401Y-72849821D01*
X85306072Y-72849821D01*
X85306072Y-72826119D01*
X85301314Y-72802201D01*
X85267490Y-72768377D01*
X85219654Y-72768377D01*
X85185830Y-72802201D01*
X85181072Y-72826119D01*
X85181072Y-73096952D01*
X85005477Y-73096952D01*
X84981559Y-73101710D01*
X84947735Y-73135534D01*
X84734643Y-73135534D01*
X84734643Y-72826119D01*
X84729885Y-72802201D01*
X84696061Y-72768377D01*
X84648225Y-72768377D01*
X84614401Y-72802201D01*
X84609643Y-72826119D01*
X84609643Y-73129753D01*
X84557237Y-73103550D01*
X84554217Y-73102723D01*
X84553204Y-73101710D01*
X84543376Y-73099755D01*
X84533716Y-73097110D01*
X84532357Y-73097562D01*
X84529286Y-73096952D01*
X84386429Y-73096952D01*
X84383357Y-73097562D01*
X84381999Y-73097110D01*
X84372338Y-73099755D01*
X84362511Y-73101710D01*
X84361497Y-73102723D01*
X84358478Y-73103550D01*
X84263240Y-73151169D01*
X84253409Y-73158799D01*
X84250241Y-73159855D01*
X84247502Y-73163382D01*
X84243975Y-73166121D01*
X84242919Y-73169289D01*
X84235289Y-73179120D01*
X84187670Y-73274358D01*
X84186843Y-73277377D01*
X84185830Y-73278391D01*
X84183875Y-73288218D01*
X84181230Y-73297879D01*
X84181682Y-73299237D01*
X84181072Y-73302309D01*
X83829881Y-73302309D01*
X83829881Y-73159452D01*
X83825123Y-73135534D01*
X83791299Y-73101710D01*
X83743463Y-73101710D01*
X83709639Y-73135534D01*
X83704881Y-73159452D01*
X83704881Y-73668507D01*
X83673177Y-73731915D01*
X83609769Y-73763619D01*
X83496422Y-73763619D01*
X83423452Y-73727134D01*
X83401310Y-73704991D01*
X83401310Y-73159452D01*
X83396552Y-73135534D01*
X83362728Y-73101710D01*
X83314892Y-73101710D01*
X83281068Y-73135534D01*
X83276310Y-73159452D01*
X82925119Y-73159452D01*
X82925119Y-72826119D01*
X82920361Y-72802201D01*
X82886537Y-72768377D01*
X82838701Y-72768377D01*
X82804877Y-72802201D01*
X82800119Y-72826119D01*
X82800119Y-73105943D01*
X82795332Y-73103550D01*
X82792312Y-73102723D01*
X82791299Y-73101710D01*
X82781471Y-73099755D01*
X82771811Y-73097110D01*
X82770452Y-73097562D01*
X82767381Y-73096952D01*
X82576905Y-73096952D01*
X82573833Y-73097562D01*
X82572475Y-73097110D01*
X82562814Y-73099755D01*
X82552987Y-73101710D01*
X82551973Y-73102723D01*
X82548954Y-73103550D01*
X82453716Y-73151169D01*
X82445794Y-73157316D01*
X82437473Y-73162877D01*
X82389854Y-73210496D01*
X82384293Y-73218817D01*
X82378146Y-73226739D01*
X82330527Y-73321977D01*
X82329700Y-73324996D01*
X82328687Y-73326010D01*
X82326732Y-73335837D01*
X82324087Y-73345498D01*
X82324539Y-73346856D01*
X82323929Y-73349928D01*
X81591786Y-73349928D01*
X81591175Y-73346856D01*
X81591628Y-73345498D01*
X81588982Y-73335837D01*
X81587028Y-73326010D01*
X81586014Y-73324996D01*
X81585188Y-73321977D01*
X81537569Y-73226739D01*
X81531421Y-73218817D01*
X81525861Y-73210496D01*
X81478242Y-73162877D01*
X81469920Y-73157316D01*
X81461999Y-73151169D01*
X81366761Y-73103550D01*
X81363741Y-73102723D01*
X81362728Y-73101710D01*
X81352900Y-73099755D01*
X81343240Y-73097110D01*
X81341881Y-73097562D01*
X81338810Y-73096952D01*
X81148334Y-73096952D01*
X81145262Y-73097562D01*
X81143904Y-73097110D01*
X81134243Y-73099755D01*
X81124416Y-73101710D01*
X81123402Y-73102723D01*
X81120383Y-73103550D01*
X81025145Y-73151169D01*
X81005880Y-73166121D01*
X80990754Y-73211501D01*
X80669390Y-73211501D01*
X80668718Y-73210496D01*
X80621099Y-73162877D01*
X80612777Y-73157316D01*
X80604856Y-73151169D01*
X80509618Y-73103550D01*
X80506598Y-73102723D01*
X80505585Y-73101710D01*
X80495757Y-73099755D01*
X80486097Y-73097110D01*
X80484738Y-73097562D01*
X80481667Y-73096952D01*
X80338810Y-73096952D01*
X80335738Y-73097562D01*
X80334380Y-73097110D01*
X80324719Y-73099755D01*
X80314892Y-73101710D01*
X80313878Y-73102723D01*
X80310859Y-73103550D01*
X80215621Y-73151169D01*
X80207699Y-73157316D01*
X80199378Y-73162877D01*
X80151759Y-73210496D01*
X80146198Y-73218817D01*
X80140051Y-73226739D01*
X80092432Y-73321977D01*
X80091605Y-73324996D01*
X80090592Y-73326010D01*
X80088637Y-73335837D01*
X80085992Y-73345498D01*
X80086444Y-73346856D01*
X80085834Y-73349928D01*
X79782262Y-73349928D01*
X79782262Y-73159452D01*
X79777504Y-73135534D01*
X79743680Y-73101710D01*
X79695844Y-73101710D01*
X79664288Y-73133266D01*
X79604856Y-73103550D01*
X79601836Y-73102723D01*
X79600823Y-73101710D01*
X79590995Y-73099755D01*
X79581335Y-73097110D01*
X79579976Y-73097562D01*
X79576905Y-73096952D01*
X79434048Y-73096952D01*
X79430976Y-73097562D01*
X79429618Y-73097110D01*
X79419957Y-73099755D01*
X79410130Y-73101710D01*
X79409116Y-73102723D01*
X79406097Y-73103550D01*
X79310859Y-73151169D01*
X79301028Y-73158799D01*
X79297860Y-73159855D01*
X79295121Y-73163382D01*
X79291594Y-73166121D01*
X79291191Y-73167330D01*
X79290788Y-73166121D01*
X79287260Y-73163382D01*
X79284522Y-73159855D01*
X79281353Y-73158799D01*
X79271523Y-73151169D01*
X79176285Y-73103550D01*
X79173265Y-73102723D01*
X79172252Y-73101710D01*
X79162424Y-73099755D01*
X79152764Y-73097110D01*
X79151405Y-73097562D01*
X79148334Y-73096952D01*
X79005477Y-73096952D01*
X79002405Y-73097562D01*
X79001047Y-73097110D01*
X78991386Y-73099755D01*
X78981559Y-73101710D01*
X78980545Y-73102723D01*
X78977526Y-73103550D01*
X78882287Y-73151169D01*
X78872456Y-73158799D01*
X78869288Y-73159855D01*
X78866549Y-73163382D01*
X78863022Y-73166121D01*
X78861966Y-73169289D01*
X78854336Y-73179120D01*
X78806717Y-73274358D01*
X78805890Y-73277377D01*
X78804877Y-73278391D01*
X78802922Y-73288218D01*
X78800277Y-73297879D01*
X78800729Y-73299237D01*
X78800119Y-73302309D01*
X78096465Y-73302309D01*
X77724147Y-72743831D01*
X77706921Y-72726570D01*
X77660016Y-72717188D01*
X77620214Y-72743723D01*
X77610832Y-72790628D01*
X74384978Y-72790628D01*
X74362727Y-72768377D01*
X74314891Y-72768377D01*
X74281067Y-72802201D01*
X74276309Y-72826119D01*
X74276309Y-73668507D01*
X74244605Y-73731915D01*
X74168001Y-73770217D01*
X74148736Y-73785169D01*
X74133610Y-73830549D01*
X73895533Y-73830549D01*
X73909834Y-73819450D01*
X73924960Y-73774070D01*
X73903567Y-73731284D01*
X73858188Y-73716158D01*
X73834667Y-73722598D01*
X73752625Y-73763619D01*
X73591659Y-73763619D01*
X73528251Y-73731915D01*
X73496547Y-73668506D01*
X73496547Y-73650397D01*
X73528251Y-73586989D01*
X73591659Y-73555285D01*
X73719761Y-73555285D01*
X73722832Y-73554674D01*
X73724191Y-73555127D01*
X73733851Y-73552481D01*
X73743679Y-73550527D01*
X73744692Y-73549513D01*
X73747712Y-73548687D01*
X73842950Y-73501068D01*
X73852780Y-73493437D01*
X73855949Y-73492382D01*
X73858687Y-73488854D01*
X73862215Y-73486116D01*
X73863270Y-73482947D01*
X73870901Y-73473117D01*
X73918520Y-73377879D01*
X73919346Y-73374859D01*
X73920360Y-73373846D01*
X73922314Y-73364018D01*
X73924960Y-73354358D01*
X73924507Y-73352999D01*
X73925118Y-73349928D01*
X73925118Y-73302309D01*
X73924507Y-73299237D01*
X73924960Y-73297879D01*
X73922314Y-73288218D01*
X73920360Y-73278391D01*
X73919346Y-73277377D01*
X73918520Y-73274358D01*
X73870901Y-73179120D01*
X73863270Y-73169289D01*
X73862215Y-73166121D01*
X73858687Y-73163382D01*
X73855949Y-73159855D01*
X73852780Y-73158799D01*
X73842950Y-73151169D01*
X73747712Y-73103550D01*
X73744692Y-73102723D01*
X73743679Y-73101710D01*
X73733851Y-73099755D01*
X73724191Y-73097110D01*
X73722832Y-73097562D01*
X73719761Y-73096952D01*
X73576904Y-73096952D01*
X73573832Y-73097562D01*
X73572474Y-73097110D01*
X73562813Y-73099755D01*
X73552986Y-73101710D01*
X73551972Y-73102723D01*
X73548953Y-73103550D01*
X73453715Y-73151169D01*
X73434450Y-73166121D01*
X73419324Y-73211501D01*
X73440716Y-73254287D01*
X73486096Y-73269413D01*
X73509617Y-73262973D01*
X73591659Y-73221952D01*
X73705006Y-73221952D01*
X73768414Y-73253656D01*
X73800118Y-73317064D01*
X73800118Y-73335173D01*
X73768414Y-73398581D01*
X73705006Y-73430285D01*
X73576904Y-73430285D01*
X73573832Y-73430895D01*
X73572474Y-73430443D01*
X73562813Y-73433088D01*
X73552986Y-73435043D01*
X73551972Y-73436056D01*
X73548953Y-73436883D01*
X73453715Y-73484502D01*
X73443884Y-73492132D01*
X73440716Y-73493188D01*
X73437977Y-73496715D01*
X73434450Y-73499454D01*
X73433394Y-73502622D01*
X73425764Y-73512453D01*
X73378145Y-73607691D01*
X73377318Y-73610710D01*
X73376305Y-73611724D01*
X73374350Y-73621551D01*
X73371705Y-73631212D01*
X73372157Y-73632570D01*
X73371547Y-73635642D01*
X73115594Y-73635642D01*
X73115594Y-73588023D01*
X73114983Y-73584951D01*
X73115436Y-73583593D01*
X73112790Y-73573932D01*
X73110836Y-73564105D01*
X73109822Y-73563091D01*
X73108996Y-73560072D01*
X73061377Y-73464834D01*
X73053746Y-73455003D01*
X73052691Y-73451835D01*
X73049163Y-73449096D01*
X73046425Y-73445569D01*
X73043256Y-73444513D01*
X73033426Y-73436883D01*
X72938188Y-73389264D01*
X72935168Y-73388437D01*
X72934155Y-73387424D01*
X72924327Y-73385469D01*
X72914667Y-73382824D01*
X72913308Y-73383276D01*
X72910237Y-73382666D01*
X72686897Y-73382666D01*
X72639404Y-73358919D01*
X72639404Y-73317064D01*
X72671108Y-73253656D01*
X72734516Y-73221952D01*
X72895482Y-73221952D01*
X72977524Y-73262973D01*
X73001045Y-73269413D01*
X73046424Y-73254287D01*
X73067817Y-73211501D01*
X73052691Y-73166121D01*
X73033426Y-73151169D01*
X72938188Y-73103550D01*
X72935168Y-73102723D01*
X72934155Y-73101710D01*
X72924327Y-73099755D01*
X72914667Y-73097110D01*
X72913308Y-73097562D01*
X72910237Y-73096952D01*
X72719761Y-73096952D01*
X72716689Y-73097562D01*
X72715331Y-73097110D01*
X72705670Y-73099755D01*
X72695843Y-73101710D01*
X72694829Y-73102723D01*
X72691810Y-73103550D01*
X72596572Y-73151169D01*
X72586741Y-73158799D01*
X72583573Y-73159855D01*
X72580834Y-73163382D01*
X72577307Y-73166121D01*
X72576251Y-73169289D01*
X72568621Y-73179120D01*
X72521002Y-73274358D01*
X72520175Y-73277377D01*
X72519162Y-73278391D01*
X72517207Y-73288218D01*
X72514562Y-73297879D01*
X72515014Y-73299237D01*
X72514404Y-73302309D01*
X72163213Y-73302309D01*
X72163213Y-73159452D01*
X72158455Y-73135534D01*
X72124631Y-73101710D01*
X72076795Y-73101710D01*
X72045239Y-73133266D01*
X71985807Y-73103550D01*
X71982787Y-73102723D01*
X71981774Y-73101710D01*
X71971946Y-73099755D01*
X71962286Y-73097110D01*
X71960927Y-73097562D01*
X71957856Y-73096952D01*
X71814999Y-73096952D01*
X71811927Y-73097562D01*
X71810569Y-73097110D01*
X71800908Y-73099755D01*
X71791081Y-73101710D01*
X71790067Y-73102723D01*
X71787048Y-73103550D01*
X71691810Y-73151169D01*
X71681979Y-73158799D01*
X71678811Y-73159855D01*
X71676072Y-73163382D01*
X71672545Y-73166121D01*
X71671489Y-73169289D01*
X71663859Y-73179120D01*
X71616240Y-73274358D01*
X71615413Y-73277377D01*
X71614400Y-73278391D01*
X71612445Y-73288218D01*
X71609800Y-73297879D01*
X71610252Y-73299237D01*
X71609642Y-73302309D01*
X71289638Y-73302309D01*
X71251853Y-73226739D01*
X71245705Y-73218817D01*
X71240145Y-73210496D01*
X71192526Y-73162877D01*
X71184204Y-73157316D01*
X71176283Y-73151169D01*
X71081045Y-73103550D01*
X71078025Y-73102723D01*
X71077012Y-73101710D01*
X71067184Y-73099755D01*
X71057524Y-73097110D01*
X71056165Y-73097562D01*
X71053094Y-73096952D01*
X70862618Y-73096952D01*
X70859546Y-73097562D01*
X70858188Y-73097110D01*
X70848527Y-73099755D01*
X70838700Y-73101710D01*
X70837686Y-73102723D01*
X70834667Y-73103550D01*
X70739429Y-73151169D01*
X70720164Y-73166121D01*
X70705038Y-73211501D01*
X70401150Y-73211501D01*
X70386024Y-73166121D01*
X70366759Y-73151169D01*
X70271521Y-73103550D01*
X70268501Y-73102723D01*
X70267488Y-73101710D01*
X70257660Y-73099755D01*
X70248000Y-73097110D01*
X70246641Y-73097562D01*
X70243570Y-73096952D01*
X70053094Y-73096952D01*
X70050022Y-73097562D01*
X70048664Y-73097110D01*
X70039003Y-73099755D01*
X70029176Y-73101710D01*
X70028162Y-73102723D01*
X70025143Y-73103550D01*
X69929905Y-73151169D01*
X69920074Y-73158799D01*
X69916906Y-73159855D01*
X69914167Y-73163382D01*
X69910640Y-73166121D01*
X69909584Y-73169289D01*
X69901954Y-73179120D01*
X69854335Y-73274358D01*
X69853508Y-73277377D01*
X69852495Y-73278391D01*
X69850540Y-73288218D01*
X69847895Y-73297879D01*
X69848347Y-73299237D01*
X69847737Y-73302309D01*
X69496546Y-73302309D01*
X69496546Y-72826119D01*
X69491788Y-72802201D01*
X69457964Y-72768377D01*
X69410128Y-72768377D01*
X69376304Y-72802201D01*
X69371546Y-72826119D01*
X69371546Y-73389515D01*
X69097288Y-73115258D01*
X69077011Y-73101710D01*
X69029177Y-73101710D01*
X68995352Y-73135535D01*
X68995352Y-73183369D01*
X69008900Y-73203646D01*
X69256284Y-73451030D01*
X69003094Y-73788619D01*
X68992550Y-73810608D01*
X68629578Y-73810608D01*
X68632805Y-73806451D01*
X68680424Y-73711212D01*
X68681250Y-73708192D01*
X68682264Y-73707179D01*
X68684218Y-73697351D01*
X68686864Y-73687691D01*
X68686411Y-73686332D01*
X68687022Y-73683261D01*
X68687022Y-73221952D01*
X68767379Y-73221952D01*
X68791297Y-73217194D01*
X68825121Y-73183370D01*
X68825121Y-73135534D01*
X68791297Y-73101710D01*
X68767379Y-73096952D01*
X68687022Y-73096952D01*
X68687022Y-72826119D01*
X68682264Y-72802201D01*
X68648440Y-72768377D01*
X68600604Y-72768377D01*
X68566780Y-72802201D01*
X68562022Y-72826119D01*
X68562022Y-73096952D01*
X68386427Y-73096952D01*
X68362509Y-73101710D01*
X68328685Y-73135534D01*
X68049774Y-73135534D01*
X67985806Y-73103550D01*
X67982786Y-73102723D01*
X67981773Y-73101710D01*
X67971945Y-73099755D01*
X67962285Y-73097110D01*
X67960926Y-73097562D01*
X67957855Y-73096952D01*
X67767379Y-73096952D01*
X67764307Y-73097562D01*
X67762949Y-73097110D01*
X67753288Y-73099755D01*
X67743461Y-73101710D01*
X67742447Y-73102723D01*
X67739428Y-73103550D01*
X67644190Y-73151169D01*
X67634359Y-73158799D01*
X67631191Y-73159855D01*
X67628452Y-73163382D01*
X67624925Y-73166121D01*
X67623869Y-73169289D01*
X67616239Y-73179120D01*
X67568620Y-73274358D01*
X67567793Y-73277377D01*
X67566780Y-73278391D01*
X67564825Y-73288218D01*
X67562180Y-73297879D01*
X67562632Y-73299237D01*
X67562022Y-73302309D01*
X67210831Y-73302309D01*
X67210831Y-73159452D01*
X67206073Y-73135534D01*
X67172249Y-73101710D01*
X67124413Y-73101710D01*
X67090589Y-73135534D01*
X67086618Y-73155495D01*
X67081044Y-73151169D01*
X66985806Y-73103550D01*
X66982786Y-73102723D01*
X66981773Y-73101710D01*
X66971945Y-73099755D01*
X66962285Y-73097110D01*
X66960926Y-73097562D01*
X66957855Y-73096952D01*
X66862617Y-73096952D01*
X66838699Y-73101710D01*
X66804875Y-73135534D01*
X66693764Y-73135534D01*
X66693764Y-71787603D01*
X72919166Y-71787603D01*
X72919166Y-72025698D01*
X72919776Y-72028769D01*
X72919324Y-72030128D01*
X72921969Y-72039788D01*
X72923924Y-72049616D01*
X72924937Y-72050629D01*
X72925764Y-72053649D01*
X72973383Y-72148887D01*
X72979523Y-72156798D01*
X72985090Y-72165130D01*
X73032709Y-72212750D01*
X73041037Y-72218314D01*
X73048953Y-72224458D01*
X73144191Y-72272077D01*
X73147210Y-72272903D01*
X73148224Y-72273917D01*
X73158051Y-72275871D01*
X73167712Y-72278517D01*
X73169070Y-72278064D01*
X73172142Y-72278675D01*
X73410237Y-72278675D01*
X73413308Y-72278064D01*
X73414667Y-72278517D01*
X73424327Y-72275871D01*
X73434155Y-72273917D01*
X73435168Y-72272903D01*
X73438188Y-72272077D01*
X73533426Y-72224458D01*
X73541341Y-72218314D01*
X73549670Y-72212750D01*
X73597289Y-72165130D01*
X73610836Y-72144853D01*
X73610836Y-72097018D01*
X73577010Y-72063194D01*
X73529176Y-72063194D01*
X73508899Y-72076742D01*
X73468451Y-72117190D01*
X73395482Y-72153675D01*
X73186897Y-72153675D01*
X73113927Y-72117190D01*
X73080651Y-72083913D01*
X73044166Y-72010943D01*
X73044166Y-71802358D01*
X73080652Y-71729386D01*
X73113925Y-71696113D01*
X73186897Y-71659627D01*
X73395482Y-71659627D01*
X73468454Y-71696113D01*
X73508900Y-71736559D01*
X73529177Y-71750107D01*
X73532482Y-71750107D01*
X73535040Y-71752200D01*
X73555970Y-71750107D01*
X73577011Y-71750107D01*
X73579348Y-71747769D01*
X73582639Y-71747440D01*
X73595963Y-71731154D01*
X73610836Y-71716282D01*
X73610836Y-71712977D01*
X73612929Y-71710419D01*
X73615284Y-71686146D01*
X73587334Y-71406651D01*
X73871547Y-71406651D01*
X73871547Y-71501889D01*
X73873501Y-71511714D01*
X73874754Y-71521653D01*
X73922373Y-71664510D01*
X73923924Y-71667230D01*
X73923924Y-71668663D01*
X73929488Y-71676991D01*
X73934451Y-71685696D01*
X73935732Y-71686336D01*
X73937472Y-71688940D01*
X74402206Y-72153675D01*
X73934047Y-72153675D01*
X73910129Y-72158433D01*
X73876305Y-72192257D01*
X73876305Y-72240093D01*
X73910129Y-72273917D01*
X73934047Y-72278675D01*
X74553094Y-72278675D01*
X74577012Y-72273917D01*
X74610836Y-72240093D01*
X74610836Y-72192257D01*
X74610833Y-72192254D01*
X74597288Y-72171981D01*
X74036293Y-71610985D01*
X74031674Y-71597127D01*
X74823928Y-71597127D01*
X74823928Y-71835222D01*
X74825421Y-71842731D01*
X74825794Y-71850380D01*
X74873413Y-72040856D01*
X74876336Y-72047044D01*
X74878145Y-72053649D01*
X74925764Y-72148887D01*
X74931904Y-72156798D01*
X74937471Y-72165130D01*
X74985090Y-72212750D01*
X74993418Y-72218314D01*
X75001334Y-72224458D01*
X75096572Y-72272077D01*
X75099591Y-72272903D01*
X75100605Y-72273917D01*
X75110432Y-72275871D01*
X75120093Y-72278517D01*
X75121451Y-72278064D01*
X75124523Y-72278675D01*
X75219761Y-72278675D01*
X75222832Y-72278064D01*
X75224191Y-72278517D01*
X75233851Y-72275871D01*
X75243679Y-72273917D01*
X75244692Y-72272903D01*
X75247712Y-72272077D01*
X75342950Y-72224458D01*
X75350865Y-72218314D01*
X75359194Y-72212750D01*
X75406813Y-72165130D01*
X75412376Y-72156802D01*
X75418520Y-72148887D01*
X75466139Y-72053649D01*
X75467947Y-72047044D01*
X75470871Y-72040856D01*
X75518490Y-71850381D01*
X75518862Y-71842731D01*
X75520356Y-71835222D01*
X75520356Y-71597127D01*
X75518862Y-71589617D01*
X75518490Y-71581968D01*
X75474661Y-71406651D01*
X75776309Y-71406651D01*
X75776309Y-71501889D01*
X75778263Y-71511714D01*
X75779516Y-71521653D01*
X75827135Y-71664510D01*
X75828686Y-71667230D01*
X75828686Y-71668663D01*
X75834250Y-71676991D01*
X75839213Y-71685696D01*
X75840494Y-71686336D01*
X75842234Y-71688940D01*
X76306968Y-72153675D01*
X75838809Y-72153675D01*
X75814891Y-72158433D01*
X75781067Y-72192257D01*
X75781067Y-72240093D01*
X75814891Y-72273917D01*
X75838809Y-72278675D01*
X76457856Y-72278675D01*
X76481774Y-72273917D01*
X76515598Y-72240093D01*
X76515598Y-72192257D01*
X76515595Y-72192254D01*
X76502050Y-72171981D01*
X76141374Y-71811304D01*
X76781067Y-71811304D01*
X76781067Y-71859140D01*
X76814891Y-71892964D01*
X76838809Y-71897722D01*
X77600713Y-71897722D01*
X77624631Y-71892964D01*
X77658455Y-71859140D01*
X77658455Y-71811304D01*
X77624631Y-71777480D01*
X77600713Y-71772722D01*
X76838809Y-71772722D01*
X76814891Y-71777480D01*
X76781067Y-71811304D01*
X76141374Y-71811304D01*
X75941055Y-71610985D01*
X75901309Y-71491745D01*
X75901309Y-71421406D01*
X75908687Y-71406651D01*
X77966785Y-71406651D01*
X77966785Y-71549508D01*
X77967395Y-71552579D01*
X77966943Y-71553938D01*
X77969588Y-71563598D01*
X77971543Y-71573426D01*
X77972556Y-71574439D01*
X77973383Y-71577459D01*
X78021002Y-71672697D01*
X78027149Y-71680618D01*
X78032710Y-71688940D01*
X78080329Y-71736559D01*
X78088650Y-71742119D01*
X78096572Y-71748267D01*
X78191810Y-71795886D01*
X78194829Y-71796712D01*
X78195843Y-71797726D01*
X78205670Y-71799680D01*
X78215331Y-71802326D01*
X78216689Y-71801873D01*
X78219761Y-71802484D01*
X78242577Y-71802484D01*
X77978083Y-72180334D01*
X77968265Y-72202657D01*
X77976578Y-72249763D01*
X78015767Y-72277195D01*
X78062873Y-72268882D01*
X78080487Y-72252016D01*
X78395159Y-71802484D01*
X78538213Y-71802484D01*
X78538213Y-72216175D01*
X78542971Y-72240093D01*
X78576795Y-72273917D01*
X78624631Y-72273917D01*
X78658455Y-72240093D01*
X78662332Y-72220606D01*
X78871705Y-72220606D01*
X78893097Y-72263390D01*
X78938478Y-72278517D01*
X78981262Y-72257125D01*
X78993340Y-72235939D01*
X79074333Y-71992960D01*
X79460427Y-71992960D01*
X79541420Y-72235939D01*
X79553498Y-72257125D01*
X79596282Y-72278517D01*
X79641663Y-72263390D01*
X79663055Y-72220606D01*
X79660006Y-72196410D01*
X79333261Y-71216175D01*
X79871547Y-71216175D01*
X79871547Y-72216175D01*
X79876305Y-72240093D01*
X79910129Y-72273917D01*
X79957965Y-72273917D01*
X79991789Y-72240093D01*
X79996547Y-72216175D01*
X79996547Y-71497896D01*
X80210744Y-71956891D01*
X80220272Y-71969878D01*
X80221288Y-71972670D01*
X80222858Y-71973403D01*
X80225170Y-71976553D01*
X80245275Y-71983864D01*
X80264636Y-71992899D01*
X80267378Y-71991901D01*
X80270124Y-71992900D01*
X80289503Y-71983856D01*
X80309590Y-71976552D01*
X80311898Y-71973405D01*
X80313472Y-71972671D01*
X80314488Y-71969875D01*
X80324016Y-71956890D01*
X80538213Y-71497897D01*
X80538213Y-72216175D01*
X80542971Y-72240093D01*
X80576795Y-72273917D01*
X80624631Y-72273917D01*
X80658455Y-72240093D01*
X80663213Y-72216175D01*
X80663213Y-71216175D01*
X80658455Y-71192257D01*
X80650601Y-71184403D01*
X80646805Y-71173964D01*
X80634349Y-71168151D01*
X80624631Y-71158433D01*
X80613524Y-71158433D01*
X80603457Y-71153735D01*
X80590538Y-71158433D01*
X80576795Y-71158433D01*
X80568942Y-71166285D01*
X80558503Y-71170082D01*
X80544077Y-71189744D01*
X80267380Y-71782666D01*
X79990683Y-71189745D01*
X79976257Y-71170083D01*
X79965819Y-71166287D01*
X79957965Y-71158433D01*
X79944220Y-71158433D01*
X79931303Y-71153736D01*
X79921238Y-71158433D01*
X79910129Y-71158433D01*
X79900408Y-71168153D01*
X79887955Y-71173965D01*
X79884159Y-71184402D01*
X79876305Y-71192257D01*
X79871547Y-71216175D01*
X79333261Y-71216175D01*
X79326673Y-71196411D01*
X79314595Y-71175225D01*
X79310418Y-71173136D01*
X79308330Y-71168960D01*
X79289535Y-71162695D01*
X79271811Y-71153833D01*
X79267380Y-71155310D01*
X79262949Y-71153833D01*
X79245225Y-71162695D01*
X79226430Y-71168960D01*
X79224341Y-71173136D01*
X79220165Y-71175225D01*
X79208087Y-71196411D01*
X78874754Y-72196411D01*
X78871705Y-72220606D01*
X78662332Y-72220606D01*
X78663213Y-72216175D01*
X78663213Y-71216175D01*
X78658455Y-71192257D01*
X78624631Y-71158433D01*
X78600713Y-71153675D01*
X78219761Y-71153675D01*
X78216689Y-71154285D01*
X78215331Y-71153833D01*
X78205670Y-71156478D01*
X78195843Y-71158433D01*
X78194829Y-71159446D01*
X78191810Y-71160273D01*
X78096572Y-71207892D01*
X78088650Y-71214039D01*
X78080329Y-71219600D01*
X78032710Y-71267219D01*
X78027149Y-71275540D01*
X78021002Y-71283462D01*
X77973383Y-71378700D01*
X77972556Y-71381719D01*
X77971543Y-71382733D01*
X77969588Y-71392560D01*
X77966943Y-71402221D01*
X77967395Y-71403579D01*
X77966785Y-71406651D01*
X75908687Y-71406651D01*
X75937795Y-71348434D01*
X75971068Y-71315161D01*
X76044040Y-71278675D01*
X76252625Y-71278675D01*
X76325597Y-71315161D01*
X76366043Y-71355607D01*
X76386320Y-71369155D01*
X76434154Y-71369155D01*
X76467979Y-71335330D01*
X76467979Y-71287496D01*
X76454431Y-71267219D01*
X76406812Y-71219600D01*
X76398490Y-71214039D01*
X76390569Y-71207892D01*
X76295331Y-71160273D01*
X76292311Y-71159446D01*
X76291298Y-71158433D01*
X76281470Y-71156478D01*
X76271810Y-71153833D01*
X76270451Y-71154285D01*
X76267380Y-71153675D01*
X76029285Y-71153675D01*
X76026213Y-71154285D01*
X76024855Y-71153833D01*
X76015194Y-71156478D01*
X76005367Y-71158433D01*
X76004353Y-71159446D01*
X76001334Y-71160273D01*
X75906096Y-71207892D01*
X75898174Y-71214039D01*
X75889853Y-71219600D01*
X75842234Y-71267219D01*
X75836673Y-71275540D01*
X75830526Y-71283462D01*
X75782907Y-71378700D01*
X75782080Y-71381719D01*
X75781067Y-71382733D01*
X75779112Y-71392560D01*
X75776467Y-71402221D01*
X75776919Y-71403579D01*
X75776309Y-71406651D01*
X75474661Y-71406651D01*
X75470871Y-71391493D01*
X75467947Y-71385304D01*
X75466139Y-71378700D01*
X75418520Y-71283462D01*
X75412372Y-71275540D01*
X75406812Y-71267219D01*
X75359193Y-71219600D01*
X75350871Y-71214039D01*
X75342950Y-71207892D01*
X75247712Y-71160273D01*
X75244692Y-71159446D01*
X75243679Y-71158433D01*
X75233851Y-71156478D01*
X75224191Y-71153833D01*
X75222832Y-71154285D01*
X75219761Y-71153675D01*
X75124523Y-71153675D01*
X75121451Y-71154285D01*
X75120093Y-71153833D01*
X75110432Y-71156478D01*
X75100605Y-71158433D01*
X75099591Y-71159446D01*
X75096572Y-71160273D01*
X75001334Y-71207892D01*
X74993412Y-71214039D01*
X74985091Y-71219600D01*
X74937472Y-71267219D01*
X74931911Y-71275540D01*
X74925764Y-71283462D01*
X74878145Y-71378700D01*
X74876336Y-71385304D01*
X74873413Y-71391493D01*
X74825794Y-71581969D01*
X74825421Y-71589617D01*
X74823928Y-71597127D01*
X74031674Y-71597127D01*
X73996547Y-71491745D01*
X73996547Y-71421406D01*
X74033033Y-71348434D01*
X74066306Y-71315161D01*
X74139278Y-71278675D01*
X74347863Y-71278675D01*
X74420835Y-71315161D01*
X74461281Y-71355607D01*
X74481558Y-71369155D01*
X74529392Y-71369155D01*
X74563217Y-71335330D01*
X74563217Y-71287496D01*
X74549669Y-71267219D01*
X74502050Y-71219600D01*
X74493728Y-71214039D01*
X74485807Y-71207892D01*
X74390569Y-71160273D01*
X74387549Y-71159446D01*
X74386536Y-71158433D01*
X74376708Y-71156478D01*
X74367048Y-71153833D01*
X74365689Y-71154285D01*
X74362618Y-71153675D01*
X74124523Y-71153675D01*
X74121451Y-71154285D01*
X74120093Y-71153833D01*
X74110432Y-71156478D01*
X74100605Y-71158433D01*
X74099591Y-71159446D01*
X74096572Y-71160273D01*
X74001334Y-71207892D01*
X73993412Y-71214039D01*
X73985091Y-71219600D01*
X73937472Y-71267219D01*
X73931911Y-71275540D01*
X73925764Y-71283462D01*
X73878145Y-71378700D01*
X73877318Y-71381719D01*
X73876305Y-71382733D01*
X73874350Y-71392560D01*
X73871705Y-71402221D01*
X73872157Y-71403579D01*
X73871547Y-71406651D01*
X73587334Y-71406651D01*
X73567665Y-71209956D01*
X73563217Y-71195371D01*
X73563217Y-71192257D01*
X73561850Y-71190890D01*
X73560551Y-71186630D01*
X73544267Y-71173307D01*
X73529393Y-71158433D01*
X73525025Y-71157564D01*
X73523529Y-71156340D01*
X73520429Y-71156649D01*
X73505475Y-71153675D01*
X73029285Y-71153675D01*
X73005367Y-71158433D01*
X72971543Y-71192257D01*
X72971543Y-71240093D01*
X73005367Y-71273917D01*
X73029285Y-71278675D01*
X73448913Y-71278675D01*
X73477114Y-71560688D01*
X73438188Y-71541225D01*
X73435168Y-71540398D01*
X73434155Y-71539385D01*
X73424327Y-71537430D01*
X73414667Y-71534785D01*
X73413308Y-71535237D01*
X73410237Y-71534627D01*
X73172142Y-71534627D01*
X73169070Y-71535237D01*
X73167712Y-71534785D01*
X73158051Y-71537430D01*
X73148224Y-71539385D01*
X73147210Y-71540398D01*
X73144191Y-71541225D01*
X73048953Y-71588844D01*
X73041031Y-71594991D01*
X73032710Y-71600552D01*
X72985091Y-71648171D01*
X72979530Y-71656492D01*
X72973383Y-71664414D01*
X72925764Y-71759652D01*
X72924937Y-71762671D01*
X72923924Y-71763685D01*
X72921969Y-71773512D01*
X72919324Y-71783173D01*
X72919776Y-71784531D01*
X72919166Y-71787603D01*
X66693764Y-71787603D01*
X66693764Y-69987183D01*
X75371547Y-69987183D01*
X75371547Y-70225278D01*
X75373040Y-70232787D01*
X75373413Y-70240436D01*
X75421032Y-70430912D01*
X75423955Y-70437100D01*
X75425764Y-70443705D01*
X75473383Y-70538943D01*
X75479523Y-70546854D01*
X75485090Y-70555186D01*
X75532709Y-70602806D01*
X75541037Y-70608370D01*
X75548953Y-70614514D01*
X75644191Y-70662133D01*
X75647210Y-70662959D01*
X75648224Y-70663973D01*
X75658051Y-70665927D01*
X75667712Y-70668573D01*
X75669070Y-70668120D01*
X75672142Y-70668731D01*
X75767380Y-70668731D01*
X75770451Y-70668120D01*
X75771810Y-70668573D01*
X75781470Y-70665927D01*
X75791298Y-70663973D01*
X75792311Y-70662959D01*
X75795331Y-70662133D01*
X75890569Y-70614514D01*
X75898484Y-70608370D01*
X75906813Y-70602806D01*
X75954432Y-70555186D01*
X75959995Y-70546858D01*
X75966139Y-70538943D01*
X75968263Y-70534695D01*
X76328684Y-70534695D01*
X76328685Y-70582530D01*
X76328687Y-70582532D01*
X76342233Y-70602806D01*
X76389852Y-70650425D01*
X76410125Y-70663970D01*
X76410128Y-70663973D01*
X76410129Y-70663973D01*
X76457963Y-70663973D01*
X76457964Y-70663973D01*
X76457966Y-70663970D01*
X76478240Y-70650425D01*
X76525859Y-70602806D01*
X76539404Y-70582532D01*
X76539407Y-70582530D01*
X76539407Y-70582313D01*
X76804876Y-70582313D01*
X76804876Y-70630149D01*
X76838700Y-70663973D01*
X76862618Y-70668731D01*
X77434046Y-70668731D01*
X77457964Y-70663973D01*
X77491788Y-70630149D01*
X77491788Y-70582313D01*
X77457964Y-70548489D01*
X77434046Y-70543731D01*
X77210832Y-70543731D01*
X77210832Y-69804738D01*
X77294614Y-69888520D01*
X77302935Y-69894080D01*
X77310857Y-69900228D01*
X77406095Y-69947847D01*
X77429616Y-69954287D01*
X77474995Y-69939161D01*
X77476346Y-69936460D01*
X77704957Y-69936460D01*
X77708521Y-69960585D01*
X77946616Y-70627252D01*
X77959141Y-70648176D01*
X77962119Y-70649586D01*
X77963530Y-70652565D01*
X77983353Y-70659644D01*
X78002371Y-70668653D01*
X78005473Y-70667544D01*
X78008579Y-70668654D01*
X78027610Y-70659639D01*
X78047420Y-70652564D01*
X78048830Y-70649587D01*
X78051809Y-70648176D01*
X78064334Y-70627252D01*
X78302429Y-69960585D01*
X78305992Y-69936460D01*
X78285515Y-69893231D01*
X78240466Y-69877142D01*
X78197236Y-69897619D01*
X78184711Y-69918543D01*
X78005475Y-70420404D01*
X77826239Y-69918543D01*
X77813714Y-69897619D01*
X77770484Y-69877141D01*
X77725435Y-69893230D01*
X77704957Y-69936460D01*
X77476346Y-69936460D01*
X77496388Y-69896375D01*
X77481262Y-69850995D01*
X77461997Y-69836043D01*
X77375829Y-69792959D01*
X77292141Y-69709271D01*
X77200335Y-69571562D01*
X77183109Y-69554301D01*
X77176800Y-69553039D01*
X77172250Y-69548489D01*
X77154051Y-69548489D01*
X77136203Y-69544919D01*
X77130848Y-69548489D01*
X77124414Y-69548489D01*
X77111544Y-69561358D01*
X77096402Y-69571454D01*
X77095140Y-69577762D01*
X77090590Y-69582313D01*
X77085832Y-69606231D01*
X77085832Y-70543731D01*
X76862618Y-70543731D01*
X76838700Y-70548489D01*
X76804876Y-70582313D01*
X76539407Y-70582313D01*
X76539407Y-70534695D01*
X76525860Y-70514418D01*
X76478241Y-70466798D01*
X76457964Y-70453250D01*
X76410129Y-70453249D01*
X76410128Y-70453250D01*
X76389851Y-70466798D01*
X76342232Y-70514418D01*
X76328684Y-70534695D01*
X75968263Y-70534695D01*
X76013758Y-70443705D01*
X76015566Y-70437100D01*
X76018490Y-70430912D01*
X76066109Y-70240437D01*
X76066481Y-70232787D01*
X76067975Y-70225278D01*
X76067975Y-69987183D01*
X76066481Y-69979673D01*
X76066109Y-69972024D01*
X76018490Y-69781549D01*
X76015566Y-69775360D01*
X76013758Y-69768756D01*
X75966139Y-69673518D01*
X75959991Y-69665596D01*
X75954431Y-69657275D01*
X75906812Y-69609656D01*
X75898490Y-69604095D01*
X75890569Y-69597948D01*
X75795331Y-69550329D01*
X75792311Y-69549502D01*
X75791298Y-69548489D01*
X75781470Y-69546534D01*
X75771810Y-69543889D01*
X75770451Y-69544341D01*
X75767380Y-69543731D01*
X75672142Y-69543731D01*
X75669070Y-69544341D01*
X75667712Y-69543889D01*
X75658051Y-69546534D01*
X75648224Y-69548489D01*
X75647210Y-69549502D01*
X75644191Y-69550329D01*
X75548953Y-69597948D01*
X75541031Y-69604095D01*
X75532710Y-69609656D01*
X75485091Y-69657275D01*
X75479530Y-69665596D01*
X75473383Y-69673518D01*
X75425764Y-69768756D01*
X75423955Y-69775360D01*
X75421032Y-69781549D01*
X75373413Y-69972025D01*
X75373040Y-69979673D01*
X75371547Y-69987183D01*
X66693764Y-69987183D01*
X66693764Y-68186763D01*
X72252499Y-68186763D01*
X72252499Y-68282001D01*
X72254453Y-68291826D01*
X72255706Y-68301765D01*
X72303325Y-68444622D01*
X72304876Y-68447342D01*
X72304876Y-68448775D01*
X72310440Y-68457103D01*
X72315403Y-68465808D01*
X72316684Y-68466448D01*
X72318424Y-68469052D01*
X72783158Y-68933787D01*
X72314999Y-68933787D01*
X72291081Y-68938545D01*
X72257257Y-68972369D01*
X72257257Y-69020205D01*
X72291081Y-69054029D01*
X72314999Y-69058787D01*
X72934046Y-69058787D01*
X72957964Y-69054029D01*
X72991788Y-69020205D01*
X72991788Y-68972369D01*
X72991785Y-68972366D01*
X72978240Y-68952093D01*
X72593863Y-68567715D01*
X73204880Y-68567715D01*
X73204880Y-68805810D01*
X73205490Y-68808881D01*
X73205038Y-68810240D01*
X73207683Y-68819900D01*
X73209638Y-68829728D01*
X73210651Y-68830741D01*
X73211478Y-68833761D01*
X73259097Y-68928999D01*
X73265237Y-68936910D01*
X73270804Y-68945242D01*
X73318423Y-68992862D01*
X73326751Y-68998426D01*
X73334667Y-69004570D01*
X73429905Y-69052189D01*
X73432924Y-69053015D01*
X73433938Y-69054029D01*
X73443765Y-69055983D01*
X73453426Y-69058629D01*
X73454784Y-69058176D01*
X73457856Y-69058787D01*
X73743570Y-69058787D01*
X73746641Y-69058176D01*
X73748000Y-69058629D01*
X73757660Y-69055983D01*
X73767488Y-69054029D01*
X73768501Y-69053015D01*
X73771521Y-69052189D01*
X73866759Y-69004570D01*
X73874674Y-68998426D01*
X73883003Y-68992862D01*
X73930622Y-68945242D01*
X73944169Y-68924965D01*
X73944169Y-68877130D01*
X73910343Y-68843306D01*
X73862509Y-68843306D01*
X73842232Y-68856854D01*
X73801784Y-68897302D01*
X73728815Y-68933787D01*
X73472611Y-68933787D01*
X73399641Y-68897302D01*
X73366365Y-68864025D01*
X73329880Y-68791055D01*
X73329880Y-68582470D01*
X73366366Y-68509498D01*
X73399639Y-68476225D01*
X73472611Y-68439739D01*
X73600713Y-68439739D01*
X73618144Y-68436271D01*
X73620736Y-68436444D01*
X73621753Y-68435553D01*
X73624631Y-68434981D01*
X73640188Y-68419423D01*
X73656737Y-68404944D01*
X73656884Y-68402727D01*
X73658455Y-68401157D01*
X73658455Y-68379166D01*
X73659918Y-68357216D01*
X73658455Y-68354675D01*
X73658455Y-68353321D01*
X73656616Y-68351482D01*
X73647749Y-68336083D01*
X73517095Y-68186763D01*
X74157261Y-68186763D01*
X74157261Y-68329620D01*
X74157871Y-68332691D01*
X74157419Y-68334050D01*
X74160064Y-68343710D01*
X74162019Y-68353538D01*
X74163032Y-68354551D01*
X74163859Y-68357571D01*
X74211478Y-68452809D01*
X74217625Y-68460730D01*
X74223186Y-68469052D01*
X74270805Y-68516671D01*
X74279126Y-68522231D01*
X74287048Y-68528379D01*
X74382286Y-68575998D01*
X74385305Y-68576824D01*
X74386319Y-68577838D01*
X74396146Y-68579792D01*
X74405807Y-68582438D01*
X74407165Y-68581985D01*
X74410237Y-68582596D01*
X74728689Y-68582596D01*
X74728689Y-68996287D01*
X74733447Y-69020205D01*
X74767271Y-69054029D01*
X74815107Y-69054029D01*
X74848931Y-69020205D01*
X74853689Y-68996287D01*
X74853689Y-68710572D01*
X75157261Y-68710572D01*
X75157261Y-68805810D01*
X75157871Y-68808881D01*
X75157419Y-68810240D01*
X75160064Y-68819900D01*
X75162019Y-68829728D01*
X75163032Y-68830741D01*
X75163859Y-68833761D01*
X75211478Y-68928999D01*
X75217618Y-68936910D01*
X75223185Y-68945242D01*
X75270804Y-68992862D01*
X75279132Y-68998426D01*
X75287048Y-69004570D01*
X75382286Y-69052189D01*
X75385305Y-69053015D01*
X75386319Y-69054029D01*
X75396146Y-69055983D01*
X75405807Y-69058629D01*
X75407165Y-69058176D01*
X75410237Y-69058787D01*
X75648332Y-69058787D01*
X75658157Y-69056832D01*
X75668096Y-69055580D01*
X75810953Y-69007961D01*
X75832139Y-68995883D01*
X75853531Y-68953099D01*
X75838404Y-68907718D01*
X75795620Y-68886326D01*
X75771424Y-68889375D01*
X75638189Y-68933787D01*
X75424992Y-68933787D01*
X75352022Y-68897302D01*
X75318746Y-68864025D01*
X75282261Y-68791055D01*
X75282261Y-68725327D01*
X75318747Y-68652355D01*
X75352020Y-68619082D01*
X75432053Y-68579065D01*
X75615871Y-68533111D01*
X75622059Y-68530187D01*
X75628664Y-68528379D01*
X75723902Y-68480760D01*
X75731823Y-68474612D01*
X75740145Y-68469052D01*
X75787764Y-68421433D01*
X75793324Y-68413111D01*
X75799472Y-68405190D01*
X75847091Y-68309952D01*
X75847917Y-68306932D01*
X75848931Y-68305919D01*
X75850885Y-68296091D01*
X75853531Y-68286431D01*
X75853078Y-68285072D01*
X75853689Y-68282001D01*
X75853689Y-68186763D01*
X75853078Y-68183691D01*
X75853531Y-68182333D01*
X75850885Y-68172672D01*
X75848931Y-68162845D01*
X75847917Y-68161831D01*
X75847091Y-68158812D01*
X75799472Y-68063574D01*
X75793324Y-68055652D01*
X75787764Y-68047331D01*
X75740145Y-67999712D01*
X75731823Y-67994151D01*
X75723902Y-67988004D01*
X75692632Y-67972369D01*
X76114400Y-67972369D01*
X76114400Y-68020205D01*
X76148224Y-68054029D01*
X76172142Y-68058787D01*
X76585832Y-68058787D01*
X76585832Y-68409977D01*
X76314999Y-68409977D01*
X76291081Y-68414735D01*
X76257257Y-68448559D01*
X76257257Y-68496395D01*
X76291081Y-68530219D01*
X76314999Y-68534977D01*
X76585832Y-68534977D01*
X76585832Y-68933787D01*
X76172142Y-68933787D01*
X76148224Y-68938545D01*
X76114400Y-68972369D01*
X76114400Y-69020205D01*
X76148224Y-69054029D01*
X76172142Y-69058787D01*
X76648332Y-69058787D01*
X76672250Y-69054029D01*
X76706074Y-69020205D01*
X76706074Y-69020204D01*
X76710832Y-68996287D01*
X76710832Y-68424858D01*
X77776309Y-68424858D01*
X77776309Y-68567715D01*
X77777802Y-68575224D01*
X77778175Y-68582873D01*
X77825794Y-68773349D01*
X77828717Y-68779537D01*
X77830526Y-68786142D01*
X77878145Y-68881380D01*
X77884292Y-68889301D01*
X77889853Y-68897623D01*
X77985091Y-68992862D01*
X77987694Y-68994601D01*
X77988335Y-68995883D01*
X77997033Y-69000842D01*
X78005368Y-69006411D01*
X78006802Y-69006411D01*
X78009521Y-69007961D01*
X78152377Y-69055580D01*
X78162317Y-69056832D01*
X78172142Y-69058787D01*
X78410237Y-69058787D01*
X78434155Y-69054029D01*
X78467979Y-69020205D01*
X78467979Y-69020204D01*
X78472737Y-68996287D01*
X78472737Y-67996287D01*
X78467979Y-67972369D01*
X78781067Y-67972369D01*
X78781067Y-68020205D01*
X78814891Y-68054029D01*
X78838809Y-68058787D01*
X79252499Y-68058787D01*
X79252499Y-68409977D01*
X78981666Y-68409977D01*
X78957748Y-68414735D01*
X78923924Y-68448559D01*
X78923924Y-68496395D01*
X78957748Y-68530219D01*
X78981666Y-68534977D01*
X79252499Y-68534977D01*
X79252499Y-68933787D01*
X78838809Y-68933787D01*
X78814891Y-68938545D01*
X78781067Y-68972369D01*
X78781067Y-69020205D01*
X78814891Y-69054029D01*
X78838809Y-69058787D01*
X79314999Y-69058787D01*
X79338917Y-69054029D01*
X79372741Y-69020205D01*
X79372741Y-69020204D01*
X79377499Y-68996287D01*
X79377499Y-68972369D01*
X79590591Y-68972369D01*
X79590591Y-69020205D01*
X79624415Y-69054029D01*
X79648333Y-69058787D01*
X80124523Y-69058787D01*
X80148441Y-69054029D01*
X80182265Y-69020205D01*
X80182265Y-69020204D01*
X80187023Y-68996287D01*
X80187023Y-67996287D01*
X80185055Y-67986394D01*
X80443764Y-67986394D01*
X80444676Y-68010763D01*
X80682771Y-69010763D01*
X80692939Y-69032929D01*
X80700899Y-69037828D01*
X80705583Y-69045917D01*
X80720515Y-69049898D01*
X80733678Y-69057999D01*
X80742771Y-69055833D01*
X80751803Y-69058242D01*
X80765177Y-69050498D01*
X80780213Y-69046919D01*
X80785112Y-69038958D01*
X80793201Y-69034275D01*
X80803961Y-69012391D01*
X80934047Y-68524567D01*
X81064133Y-69012391D01*
X81074894Y-69034276D01*
X81082982Y-69038958D01*
X81087881Y-69046919D01*
X81102916Y-69050498D01*
X81116291Y-69058242D01*
X81125322Y-69055833D01*
X81134416Y-69057999D01*
X81147578Y-69049898D01*
X81162511Y-69045917D01*
X81167194Y-69037827D01*
X81175155Y-69032929D01*
X81185323Y-69010763D01*
X81423418Y-68010763D01*
X81424330Y-67986394D01*
X81399260Y-67945655D01*
X81352725Y-67934575D01*
X81311986Y-67959645D01*
X81301818Y-67981811D01*
X81121092Y-68740857D01*
X80994437Y-68265897D01*
X80983677Y-68244013D01*
X80976303Y-68239744D01*
X80972035Y-68232371D01*
X80956337Y-68228185D01*
X80942279Y-68220046D01*
X80934047Y-68222241D01*
X80925815Y-68220046D01*
X80911755Y-68228185D01*
X80896059Y-68232371D01*
X80891790Y-68239743D01*
X80884418Y-68244012D01*
X80873657Y-68265897D01*
X80747001Y-68740857D01*
X80566276Y-67981811D01*
X80556108Y-67959645D01*
X80515369Y-67934575D01*
X80468834Y-67945655D01*
X80443764Y-67986394D01*
X80185055Y-67986394D01*
X80182265Y-67972369D01*
X80148441Y-67938545D01*
X80100605Y-67938545D01*
X80066781Y-67972369D01*
X80062023Y-67996287D01*
X80062023Y-68933787D01*
X79648333Y-68933787D01*
X79624415Y-68938545D01*
X79590591Y-68972369D01*
X79377499Y-68972369D01*
X79377499Y-67996287D01*
X79372741Y-67972369D01*
X79338917Y-67938545D01*
X79314999Y-67933787D01*
X78838809Y-67933787D01*
X78814891Y-67938545D01*
X78781067Y-67972369D01*
X78467979Y-67972369D01*
X78434155Y-67938545D01*
X78410237Y-67933787D01*
X78172142Y-67933787D01*
X78162317Y-67935741D01*
X78152377Y-67936994D01*
X78009521Y-67984613D01*
X78006800Y-67986164D01*
X78005368Y-67986164D01*
X77997039Y-67991728D01*
X77988335Y-67996691D01*
X77987694Y-67997972D01*
X77985091Y-67999712D01*
X77889853Y-68094950D01*
X77884292Y-68103271D01*
X77878145Y-68111193D01*
X77830526Y-68206431D01*
X77828717Y-68213035D01*
X77825794Y-68219224D01*
X77778175Y-68409700D01*
X77777802Y-68417348D01*
X77776309Y-68424858D01*
X76710832Y-68424858D01*
X76710832Y-67996287D01*
X76706074Y-67972369D01*
X76672250Y-67938545D01*
X76648332Y-67933787D01*
X76172142Y-67933787D01*
X76148224Y-67938545D01*
X76114400Y-67972369D01*
X75692632Y-67972369D01*
X75628664Y-67940385D01*
X75625644Y-67939558D01*
X75624631Y-67938545D01*
X75614803Y-67936590D01*
X75605143Y-67933945D01*
X75603784Y-67934397D01*
X75600713Y-67933787D01*
X75362618Y-67933787D01*
X75352793Y-67935741D01*
X75342853Y-67936994D01*
X75199997Y-67984613D01*
X75178811Y-67996691D01*
X75157419Y-68039475D01*
X75172546Y-68084856D01*
X75215330Y-68106248D01*
X75239525Y-68103199D01*
X75372761Y-68058787D01*
X75585958Y-68058787D01*
X75658930Y-68095273D01*
X75692203Y-68128546D01*
X75728689Y-68201518D01*
X75728689Y-68267246D01*
X75692203Y-68340218D01*
X75658930Y-68373491D01*
X75578897Y-68413507D01*
X75395079Y-68459462D01*
X75388890Y-68462385D01*
X75382286Y-68464194D01*
X75287048Y-68511813D01*
X75279126Y-68517960D01*
X75270805Y-68523521D01*
X75223186Y-68571140D01*
X75217625Y-68579461D01*
X75211478Y-68587383D01*
X75163859Y-68682621D01*
X75163032Y-68685640D01*
X75162019Y-68686654D01*
X75160064Y-68696481D01*
X75157419Y-68706142D01*
X75157871Y-68707500D01*
X75157261Y-68710572D01*
X74853689Y-68710572D01*
X74853689Y-67996287D01*
X74848931Y-67972369D01*
X74815107Y-67938545D01*
X74791189Y-67933787D01*
X74410237Y-67933787D01*
X74407165Y-67934397D01*
X74405807Y-67933945D01*
X74396146Y-67936590D01*
X74386319Y-67938545D01*
X74385305Y-67939558D01*
X74382286Y-67940385D01*
X74287048Y-67988004D01*
X74279126Y-67994151D01*
X74270805Y-67999712D01*
X74223186Y-68047331D01*
X74217625Y-68055652D01*
X74211478Y-68063574D01*
X74163859Y-68158812D01*
X74163032Y-68161831D01*
X74162019Y-68162845D01*
X74160064Y-68172672D01*
X74157419Y-68182333D01*
X74157871Y-68183691D01*
X74157261Y-68186763D01*
X73517095Y-68186763D01*
X73405116Y-68058787D01*
X73886427Y-68058787D01*
X73910345Y-68054029D01*
X73944169Y-68020205D01*
X73944169Y-67972369D01*
X73910345Y-67938545D01*
X73886427Y-67933787D01*
X73267380Y-67933787D01*
X73249948Y-67937254D01*
X73247357Y-67937082D01*
X73246339Y-67937972D01*
X73243462Y-67938545D01*
X73227904Y-67954102D01*
X73211356Y-67968582D01*
X73211208Y-67970798D01*
X73209638Y-67972369D01*
X73209638Y-67994359D01*
X73208175Y-68016310D01*
X73209638Y-68018850D01*
X73209638Y-68020205D01*
X73211476Y-68022043D01*
X73220344Y-68037444D01*
X73462977Y-68314739D01*
X73457856Y-68314739D01*
X73454784Y-68315349D01*
X73453426Y-68314897D01*
X73443765Y-68317542D01*
X73433938Y-68319497D01*
X73432924Y-68320510D01*
X73429905Y-68321337D01*
X73334667Y-68368956D01*
X73326745Y-68375103D01*
X73318424Y-68380664D01*
X73270805Y-68428283D01*
X73265244Y-68436604D01*
X73259097Y-68444526D01*
X73211478Y-68539764D01*
X73210651Y-68542783D01*
X73209638Y-68543797D01*
X73207683Y-68553624D01*
X73205038Y-68563285D01*
X73205490Y-68564643D01*
X73204880Y-68567715D01*
X72593863Y-68567715D01*
X72417245Y-68391097D01*
X72377499Y-68271857D01*
X72377499Y-68201518D01*
X72413985Y-68128546D01*
X72447258Y-68095273D01*
X72520230Y-68058787D01*
X72728815Y-68058787D01*
X72801787Y-68095273D01*
X72842233Y-68135719D01*
X72862510Y-68149267D01*
X72910344Y-68149267D01*
X72944169Y-68115442D01*
X72944169Y-68067608D01*
X72930621Y-68047331D01*
X72883002Y-67999712D01*
X72874680Y-67994151D01*
X72866759Y-67988004D01*
X72771521Y-67940385D01*
X72768501Y-67939558D01*
X72767488Y-67938545D01*
X72757660Y-67936590D01*
X72748000Y-67933945D01*
X72746641Y-67934397D01*
X72743570Y-67933787D01*
X72505475Y-67933787D01*
X72502403Y-67934397D01*
X72501045Y-67933945D01*
X72491384Y-67936590D01*
X72481557Y-67938545D01*
X72480543Y-67939558D01*
X72477524Y-67940385D01*
X72382286Y-67988004D01*
X72374364Y-67994151D01*
X72366043Y-67999712D01*
X72318424Y-68047331D01*
X72312863Y-68055652D01*
X72306716Y-68063574D01*
X72259097Y-68158812D01*
X72258270Y-68161831D01*
X72257257Y-68162845D01*
X72255302Y-68172672D01*
X72252657Y-68182333D01*
X72253109Y-68183691D01*
X72252499Y-68186763D01*
X66693764Y-68186763D01*
X66693764Y-67822676D01*
X86845754Y-67822676D01*
X86845754Y-74333063D01*
G37*
D11*
X65954819Y-111135714D02*
X65954819Y-110564286D01*
X65954819Y-110850000D02*
X64954819Y-110850000D01*
X64954819Y-110850000D02*
X65097676Y-110754762D01*
X65097676Y-110754762D02*
X65192914Y-110659524D01*
X65192914Y-110659524D02*
X65240533Y-110564286D01*
X64954819Y-105316667D02*
X64954819Y-105935714D01*
X64954819Y-105935714D02*
X65335771Y-105602381D01*
X65335771Y-105602381D02*
X65335771Y-105745238D01*
X65335771Y-105745238D02*
X65383390Y-105840476D01*
X65383390Y-105840476D02*
X65431009Y-105888095D01*
X65431009Y-105888095D02*
X65526247Y-105935714D01*
X65526247Y-105935714D02*
X65764342Y-105935714D01*
X65764342Y-105935714D02*
X65859580Y-105888095D01*
X65859580Y-105888095D02*
X65907200Y-105840476D01*
X65907200Y-105840476D02*
X65954819Y-105745238D01*
X65954819Y-105745238D02*
X65954819Y-105459524D01*
X65954819Y-105459524D02*
X65907200Y-105364286D01*
X65907200Y-105364286D02*
X65859580Y-105316667D01*
X68522319Y-111195714D02*
X68522319Y-110624286D01*
X68522319Y-110910000D02*
X67522319Y-110910000D01*
X67522319Y-110910000D02*
X67665176Y-110814762D01*
X67665176Y-110814762D02*
X67760414Y-110719524D01*
X67760414Y-110719524D02*
X67808033Y-110624286D01*
X67522319Y-105376667D02*
X67522319Y-105995714D01*
X67522319Y-105995714D02*
X67903271Y-105662381D01*
X67903271Y-105662381D02*
X67903271Y-105805238D01*
X67903271Y-105805238D02*
X67950890Y-105900476D01*
X67950890Y-105900476D02*
X67998509Y-105948095D01*
X67998509Y-105948095D02*
X68093747Y-105995714D01*
X68093747Y-105995714D02*
X68331842Y-105995714D01*
X68331842Y-105995714D02*
X68427080Y-105948095D01*
X68427080Y-105948095D02*
X68474700Y-105900476D01*
X68474700Y-105900476D02*
X68522319Y-105805238D01*
X68522319Y-105805238D02*
X68522319Y-105519524D01*
X68522319Y-105519524D02*
X68474700Y-105424286D01*
X68474700Y-105424286D02*
X68427080Y-105376667D01*
X93164047Y-112577438D02*
X93259285Y-112529819D01*
X93259285Y-112529819D02*
X93402142Y-112529819D01*
X93402142Y-112529819D02*
X93544999Y-112577438D01*
X93544999Y-112577438D02*
X93640237Y-112672676D01*
X93640237Y-112672676D02*
X93687856Y-112767914D01*
X93687856Y-112767914D02*
X93735475Y-112958390D01*
X93735475Y-112958390D02*
X93735475Y-113101247D01*
X93735475Y-113101247D02*
X93687856Y-113291723D01*
X93687856Y-113291723D02*
X93640237Y-113386961D01*
X93640237Y-113386961D02*
X93544999Y-113482200D01*
X93544999Y-113482200D02*
X93402142Y-113529819D01*
X93402142Y-113529819D02*
X93306904Y-113529819D01*
X93306904Y-113529819D02*
X93164047Y-113482200D01*
X93164047Y-113482200D02*
X93116428Y-113434580D01*
X93116428Y-113434580D02*
X93116428Y-113101247D01*
X93116428Y-113101247D02*
X93306904Y-113101247D01*
X92116428Y-113529819D02*
X92449761Y-113053628D01*
X92687856Y-113529819D02*
X92687856Y-112529819D01*
X92687856Y-112529819D02*
X92306904Y-112529819D01*
X92306904Y-112529819D02*
X92211666Y-112577438D01*
X92211666Y-112577438D02*
X92164047Y-112625057D01*
X92164047Y-112625057D02*
X92116428Y-112720295D01*
X92116428Y-112720295D02*
X92116428Y-112863152D01*
X92116428Y-112863152D02*
X92164047Y-112958390D01*
X92164047Y-112958390D02*
X92211666Y-113006009D01*
X92211666Y-113006009D02*
X92306904Y-113053628D01*
X92306904Y-113053628D02*
X92687856Y-113053628D01*
X91687856Y-113006009D02*
X91354523Y-113006009D01*
X91211666Y-113529819D02*
X91687856Y-113529819D01*
X91687856Y-113529819D02*
X91687856Y-112529819D01*
X91687856Y-112529819D02*
X91211666Y-112529819D01*
X90783094Y-113006009D02*
X90449761Y-113006009D01*
X90306904Y-113529819D02*
X90783094Y-113529819D01*
X90783094Y-113529819D02*
X90783094Y-112529819D01*
X90783094Y-112529819D02*
X90306904Y-112529819D01*
X89878332Y-113529819D02*
X89878332Y-112529819D01*
X89878332Y-112529819D02*
X89306904Y-113529819D01*
X89306904Y-113529819D02*
X89306904Y-112529819D01*
X93783095Y-121789819D02*
X93545000Y-122789819D01*
X93545000Y-122789819D02*
X93354524Y-122075533D01*
X93354524Y-122075533D02*
X93164048Y-122789819D01*
X93164048Y-122789819D02*
X92925953Y-121789819D01*
X92640238Y-121789819D02*
X92402143Y-122789819D01*
X92402143Y-122789819D02*
X92211667Y-122075533D01*
X92211667Y-122075533D02*
X92021191Y-122789819D01*
X92021191Y-122789819D02*
X91783096Y-121789819D01*
X93116428Y-119609580D02*
X93164047Y-119657200D01*
X93164047Y-119657200D02*
X93306904Y-119704819D01*
X93306904Y-119704819D02*
X93402142Y-119704819D01*
X93402142Y-119704819D02*
X93544999Y-119657200D01*
X93544999Y-119657200D02*
X93640237Y-119561961D01*
X93640237Y-119561961D02*
X93687856Y-119466723D01*
X93687856Y-119466723D02*
X93735475Y-119276247D01*
X93735475Y-119276247D02*
X93735475Y-119133390D01*
X93735475Y-119133390D02*
X93687856Y-118942914D01*
X93687856Y-118942914D02*
X93640237Y-118847676D01*
X93640237Y-118847676D02*
X93544999Y-118752438D01*
X93544999Y-118752438D02*
X93402142Y-118704819D01*
X93402142Y-118704819D02*
X93306904Y-118704819D01*
X93306904Y-118704819D02*
X93164047Y-118752438D01*
X93164047Y-118752438D02*
X93116428Y-118800057D01*
X92783094Y-118704819D02*
X92544999Y-119704819D01*
X92544999Y-119704819D02*
X92354523Y-118990533D01*
X92354523Y-118990533D02*
X92164047Y-119704819D01*
X92164047Y-119704819D02*
X91925952Y-118704819D01*
X91471429Y-107639819D02*
X91804762Y-107163628D01*
X92042857Y-107639819D02*
X92042857Y-106639819D01*
X92042857Y-106639819D02*
X91661905Y-106639819D01*
X91661905Y-106639819D02*
X91566667Y-106687438D01*
X91566667Y-106687438D02*
X91519048Y-106735057D01*
X91519048Y-106735057D02*
X91471429Y-106830295D01*
X91471429Y-106830295D02*
X91471429Y-106973152D01*
X91471429Y-106973152D02*
X91519048Y-107068390D01*
X91519048Y-107068390D02*
X91566667Y-107116009D01*
X91566667Y-107116009D02*
X91661905Y-107163628D01*
X91661905Y-107163628D02*
X92042857Y-107163628D01*
X91042857Y-107116009D02*
X90709524Y-107116009D01*
X90566667Y-107639819D02*
X91042857Y-107639819D01*
X91042857Y-107639819D02*
X91042857Y-106639819D01*
X91042857Y-106639819D02*
X90566667Y-106639819D01*
X90138095Y-107639819D02*
X90138095Y-106639819D01*
X90138095Y-106639819D02*
X89900000Y-106639819D01*
X89900000Y-106639819D02*
X89757143Y-106687438D01*
X89757143Y-106687438D02*
X89661905Y-106782676D01*
X89661905Y-106782676D02*
X89614286Y-106877914D01*
X89614286Y-106877914D02*
X89566667Y-107068390D01*
X89566667Y-107068390D02*
X89566667Y-107211247D01*
X89566667Y-107211247D02*
X89614286Y-107401723D01*
X89614286Y-107401723D02*
X89661905Y-107496961D01*
X89661905Y-107496961D02*
X89757143Y-107592200D01*
X89757143Y-107592200D02*
X89900000Y-107639819D01*
X89900000Y-107639819D02*
X90138095Y-107639819D01*
X93354523Y-116131009D02*
X93211666Y-116178628D01*
X93211666Y-116178628D02*
X93164047Y-116226247D01*
X93164047Y-116226247D02*
X93116428Y-116321485D01*
X93116428Y-116321485D02*
X93116428Y-116464342D01*
X93116428Y-116464342D02*
X93164047Y-116559580D01*
X93164047Y-116559580D02*
X93211666Y-116607200D01*
X93211666Y-116607200D02*
X93306904Y-116654819D01*
X93306904Y-116654819D02*
X93687856Y-116654819D01*
X93687856Y-116654819D02*
X93687856Y-115654819D01*
X93687856Y-115654819D02*
X93354523Y-115654819D01*
X93354523Y-115654819D02*
X93259285Y-115702438D01*
X93259285Y-115702438D02*
X93211666Y-115750057D01*
X93211666Y-115750057D02*
X93164047Y-115845295D01*
X93164047Y-115845295D02*
X93164047Y-115940533D01*
X93164047Y-115940533D02*
X93211666Y-116035771D01*
X93211666Y-116035771D02*
X93259285Y-116083390D01*
X93259285Y-116083390D02*
X93354523Y-116131009D01*
X93354523Y-116131009D02*
X93687856Y-116131009D01*
X92211666Y-116654819D02*
X92687856Y-116654819D01*
X92687856Y-116654819D02*
X92687856Y-115654819D01*
X91878332Y-115654819D02*
X91878332Y-116464342D01*
X91878332Y-116464342D02*
X91830713Y-116559580D01*
X91830713Y-116559580D02*
X91783094Y-116607200D01*
X91783094Y-116607200D02*
X91687856Y-116654819D01*
X91687856Y-116654819D02*
X91497380Y-116654819D01*
X91497380Y-116654819D02*
X91402142Y-116607200D01*
X91402142Y-116607200D02*
X91354523Y-116559580D01*
X91354523Y-116559580D02*
X91306904Y-116464342D01*
X91306904Y-116464342D02*
X91306904Y-115654819D01*
X90830713Y-116131009D02*
X90497380Y-116131009D01*
X90354523Y-116654819D02*
X90830713Y-116654819D01*
X90830713Y-116654819D02*
X90830713Y-115654819D01*
X90830713Y-115654819D02*
X90354523Y-115654819D01*
X63469819Y-105930714D02*
X63469819Y-105359286D01*
X63469819Y-105645000D02*
X62469819Y-105645000D01*
X62469819Y-105645000D02*
X62612676Y-105549762D01*
X62612676Y-105549762D02*
X62707914Y-105454524D01*
X62707914Y-105454524D02*
X62755533Y-105359286D01*
X62469819Y-110511667D02*
X62469819Y-111130714D01*
X62469819Y-111130714D02*
X62850771Y-110797381D01*
X62850771Y-110797381D02*
X62850771Y-110940238D01*
X62850771Y-110940238D02*
X62898390Y-111035476D01*
X62898390Y-111035476D02*
X62946009Y-111083095D01*
X62946009Y-111083095D02*
X63041247Y-111130714D01*
X63041247Y-111130714D02*
X63279342Y-111130714D01*
X63279342Y-111130714D02*
X63374580Y-111083095D01*
X63374580Y-111083095D02*
X63422200Y-111035476D01*
X63422200Y-111035476D02*
X63469819Y-110940238D01*
X63469819Y-110940238D02*
X63469819Y-110654524D01*
X63469819Y-110654524D02*
X63422200Y-110559286D01*
X63422200Y-110559286D02*
X63374580Y-110511667D01*
D12*
%TO.C,JP2*%
X64500000Y-106850000D02*
X64500000Y-109650000D01*
X65200000Y-110300000D02*
X65800000Y-110300000D01*
X65800000Y-106200000D02*
X65200000Y-106200000D01*
X66500000Y-109650000D02*
X66500000Y-106850000D01*
X64500000Y-106900000D02*
G75*
G02*
X65200000Y-106200000I700000J0D01*
G01*
X65200000Y-110300000D02*
G75*
G02*
X64500000Y-109600000I-1J699999D01*
G01*
X65800000Y-106200000D02*
G75*
G02*
X66500000Y-106900000I0J-700000D01*
G01*
X66500000Y-109600000D02*
G75*
G02*
X65800000Y-110300000I-699999J-1D01*
G01*
%TO.C,JP3*%
X67067500Y-106910000D02*
X67067500Y-109710000D01*
X67767500Y-110360000D02*
X68367500Y-110360000D01*
X68367500Y-106260000D02*
X67767500Y-106260000D01*
X69067500Y-109710000D02*
X69067500Y-106910000D01*
X67067500Y-106960000D02*
G75*
G02*
X67767500Y-106260000I700000J0D01*
G01*
X67767500Y-110360000D02*
G75*
G02*
X67067500Y-109660000I-1J699999D01*
G01*
X68367500Y-106260000D02*
G75*
G02*
X69067500Y-106960000I0J-700000D01*
G01*
X69067500Y-109660000D02*
G75*
G02*
X68367500Y-110360000I-699999J-1D01*
G01*
%TO.C,TP1*%
X94355000Y-112380000D02*
X94355000Y-113780000D01*
X94355000Y-113780000D02*
X95755000Y-113780000D01*
X95755000Y-112380000D02*
X94355000Y-112380000D01*
X95755000Y-113780000D02*
X95755000Y-112380000D01*
%TO.C,TP3*%
X94355000Y-121530000D02*
X94355000Y-122930000D01*
X94355000Y-122930000D02*
X95755000Y-122930000D01*
X95755000Y-121530000D02*
X94355000Y-121530000D01*
X95755000Y-122930000D02*
X95755000Y-121530000D01*
%TO.C,TP4*%
X94355000Y-118480000D02*
X94355000Y-119880000D01*
X94355000Y-119880000D02*
X95755000Y-119880000D01*
X95755000Y-118480000D02*
X94355000Y-118480000D01*
X95755000Y-119880000D02*
X95755000Y-118480000D01*
%TO.C,TP2*%
X92710000Y-106530000D02*
X92710000Y-107930000D01*
X92710000Y-107930000D02*
X94110000Y-107930000D01*
X94110000Y-106530000D02*
X92710000Y-106530000D01*
X94110000Y-107930000D02*
X94110000Y-106530000D01*
%TO.C,TP5*%
X94355000Y-115430000D02*
X94355000Y-116830000D01*
X94355000Y-116830000D02*
X95755000Y-116830000D01*
X95755000Y-115430000D02*
X94355000Y-115430000D01*
X95755000Y-116830000D02*
X95755000Y-115430000D01*
%TO.C,JP4*%
X62015000Y-106845000D02*
X62015000Y-109645000D01*
X62715000Y-110295000D02*
X63315000Y-110295000D01*
X63315000Y-106195000D02*
X62715000Y-106195000D01*
X64015000Y-109645000D02*
X64015000Y-106845000D01*
X62015000Y-106895000D02*
G75*
G02*
X62715000Y-106195000I699999J1D01*
G01*
X62715000Y-110295000D02*
G75*
G02*
X62015000Y-109595000I0J700000D01*
G01*
X63315000Y-106195000D02*
G75*
G02*
X64015000Y-106895000I1J-699999D01*
G01*
X64015000Y-109595000D02*
G75*
G02*
X63315000Y-110295000I-700000J0D01*
G01*
%TD*%
%LPC*%
%TO.C,JP2*%
G36*
X66250000Y-109000000D02*
G01*
X64750000Y-109000000D01*
X64750000Y-107500000D01*
X66250000Y-107500000D01*
X66250000Y-109000000D01*
G37*
%TO.C,JP3*%
G36*
X68817500Y-109060000D02*
G01*
X67317500Y-109060000D01*
X67317500Y-107560000D01*
X68817500Y-107560000D01*
X68817500Y-109060000D01*
G37*
%TO.C,JP4*%
G36*
X62265000Y-107495000D02*
G01*
X63765000Y-107495000D01*
X63765000Y-108995000D01*
X62265000Y-108995000D01*
X62265000Y-107495000D01*
G37*
%TD*%
D13*
%TO.C,J2*%
X95470000Y-87420000D03*
D14*
X95470000Y-89960000D03*
X95470000Y-92500000D03*
X95470000Y-95040000D03*
X95470000Y-97580000D03*
X95470000Y-100120000D03*
X95470000Y-102660000D03*
X95470000Y-105200000D03*
X95470000Y-107740000D03*
X95470000Y-110280000D03*
%TD*%
D15*
%TO.C,J4*%
X73700000Y-118880000D03*
X79480000Y-118880000D03*
D16*
X72270000Y-118380000D03*
D17*
X72270000Y-122560000D03*
D16*
X80910000Y-118380000D03*
D17*
X80910000Y-122560000D03*
%TD*%
D13*
%TO.C,J1*%
X58765000Y-86030000D03*
D14*
X58765000Y-88570000D03*
X58765000Y-91110000D03*
X58765000Y-93650000D03*
X58765000Y-96190000D03*
X58765000Y-98730000D03*
X58765000Y-101270000D03*
X58765000Y-103810000D03*
X58765000Y-106350000D03*
%TD*%
D18*
%TO.C,J5*%
X65695000Y-120905000D03*
D19*
X60695000Y-120905000D03*
%TD*%
D13*
%TO.C,J3*%
X86075000Y-93995000D03*
D14*
X86075000Y-96535000D03*
X86075000Y-99075000D03*
X86075000Y-101615000D03*
%TD*%
D20*
%TO.C,JP2*%
X65500000Y-109550000D03*
D21*
X65500000Y-108250000D03*
D22*
X65500000Y-106950000D03*
%TD*%
D20*
%TO.C,JP3*%
X68067500Y-109610000D03*
D21*
X68067500Y-108310000D03*
D22*
X68067500Y-107010000D03*
%TD*%
D23*
%TO.C,TP1*%
X95055000Y-113080000D03*
%TD*%
%TO.C,TP3*%
X95055000Y-122230000D03*
%TD*%
%TO.C,TP4*%
X95055000Y-119180000D03*
%TD*%
%TO.C,TP2*%
X93410000Y-107230000D03*
%TD*%
%TO.C,TP5*%
X95055000Y-116130000D03*
%TD*%
D24*
%TO.C,JP4*%
X63015000Y-106945000D03*
D21*
X63015000Y-108245000D03*
D25*
X63015000Y-109545000D03*
%TD*%
%LPD*%
M02*
